<svg width="1500" height="1000" viewBox="0 0 1500 1000" fill="none" xmlns="http://www.w3.org/2000/svg">
	<path d="M1197.9 708.9C1197.9 705.7 1197.7 473.9 1197.5 99.1L1197.9 99.5C905.9 99.5 521.7 99.6 102.3 99.6H102.2L102.7 99.1C102.7 314.7 102.7 520.9 102.7 708.9L102.2 708.4C743.9 708.7 1193.5 708.9 1197.9 708.9C1193.5 708.9 743.9 709.1 102.2 709.3H101.7V708.9C101.7 520.9 101.7 314.7 101.7 99.1V98.6H102.2H102.3C521.7 98.6 905.9 98.6 1197.9 98.7H1198.3V99.1C1198 473.9 1197.9 705.7 1197.9 708.9Z" fill="#E0E0E0"/>
	<path d="M1197.9 145.8H102.2V99.1H1197.9V145.8Z" fill="#E0E0E0"/>
	<path d="M138 121C138 125.2 134.6 128.6 130.5 128.6C126.3 128.6 122.9 125.2 122.9 121C122.9 116.9 126.3 113.5 130.5 113.5C134.6 113.5 138 116.9 138 121Z" fill="white"/>
	<path d="M161.3 121C161.3 125.2 157.9 128.6 153.8 128.6C149.6 128.6 146.2 125.2 146.2 121C146.2 116.9 149.6 113.5 153.8 113.5C157.9 113.5 161.3 116.9 161.3 121Z" fill="white"/>
	<path d="M184.6 121C184.6 125.2 181.2 128.6 177.1 128.6C172.9 128.6 169.5 125.2 169.5 121C169.5 116.9 172.9 113.5 177.1 113.5C181.2 113.5 184.6 116.9 184.6 121Z" fill="white"/>
	<path d="M1292.5 931H184.3V192.2H1292.5V931Z" fill="#FAFAFA"/>
	<path d="M1292.5 239.5H184.3V192.2H1292.5V239.5Z" fill="#263238"/>
	<path d="M1292.5 239.5C1292.5 238.5 1292.5 224.6 1292.4 192.2L1292.5 192.4C1161.2 192.4 714.5 192.6 184.4 192.8H184.3L184.9 192.2C184.9 208.4 184.9 224.5 184.9 239.5L184.3 238.9C801.1 239.2 1286.9 239.5 1292.5 239.5C1286.9 239.5 801.1 239.7 184.3 240H183.8V239.5C183.8 224.5 183.8 208.4 183.8 192.2V191.7H184.3H184.4C714.5 191.9 1161.2 192.1 1292.5 192.1H1292.6V192.2C1292.5 224.6 1292.5 238.5 1292.5 239.5Z" fill="#263238"/>
	<path d="M220.5 214.4C220.5 218.7 217.1 222.1 212.9 222.1C208.7 222.1 205.3 218.7 205.3 214.4C205.3 210.2 208.7 206.8 212.9 206.8C217.1 206.8 220.5 210.2 220.5 214.4Z" fill="#E0E0E0"/>
	<path d="M244.1 214.4C244.1 218.7 240.7 222.1 236.5 222.1C232.3 222.1 228.9 218.7 228.9 214.4C228.9 210.2 232.3 206.8 236.5 206.8C240.7 206.8 244.1 210.2 244.1 214.4Z" fill="#E0E0E0"/>
	<path d="M267.7 214.4C267.7 218.7 264.3 222.1 260.1 222.1C255.9 222.1 252.4 218.7 252.4 214.4C252.4 210.2 255.9 206.8 260.1 206.8C264.3 206.8 267.7 210.2 267.7 214.4Z" fill="#E0E0E0"/>
	<path fill-rule="evenodd" clip-rule="evenodd" d="M495.4 375.9H451.4L443 396.2H420.5L462.8 301.4H484.5L526.8 396.2H503.8L495.4 375.9ZM488.5 359.3L473.5 323L458.4 359.3H488.5Z" fill="#646889"/>
	<path fill-rule="evenodd" clip-rule="evenodd" d="M614.6 359.8C614.6 382.7 598.8 397.3 578.3 397.3C568.6 397.3 560.7 394.2 555.4 387.8V396.2H535.2V295.7H556.4V331.1C561.8 325.1 569.2 322.3 578.3 322.3C598.8 322.3 614.6 336.9 614.6 359.8ZM593.2 359.8C593.2 347.2 585.2 339.6 574.7 339.6C564.1 339.6 556.1 347.2 556.1 359.8C556.1 372.4 564.1 380 574.7 380C585.2 380 593.2 372.4 593.2 359.8Z" fill="#646889"/>
	<path fill-rule="evenodd" clip-rule="evenodd" d="M623.3 359.8C623.3 337.9 640.2 322.3 663.4 322.3C686.5 322.3 703.3 337.9 703.3 359.8C703.3 381.7 686.5 397.3 663.4 397.3C640.2 397.3 623.3 381.7 623.3 359.8ZM681.9 359.8C681.9 347.2 673.9 339.6 663.4 339.6C652.8 339.6 644.7 347.2 644.7 359.8C644.7 372.4 652.8 380 663.4 380C673.9 380 681.9 372.4 681.9 359.8Z" fill="#646889"/>
	<path d="M790.8 323.4V396.2H770.8V387.6C765.2 393.9 757.1 397.3 748.2 397.3C729.9 397.3 717 387 717 364.5V323.4H738.1V361.4C738.1 373.6 743.5 379 752.9 379C762.6 379 769.7 372.8 769.7 359.4V323.4H790.8Z" fill="#646889"/>
	<path d="M857.4 392.7C853.1 395.8 846.7 397.3 840.2 397.3C823 397.3 813 388.5 813 371.2V341.3H801.8V325H813V307.3H834.2V325H852.3V341.3H834.2V370.9C834.2 377.1 837.5 380.5 843.2 380.5C846.3 380.5 849.5 379.6 851.8 377.8L857.4 392.7Z" fill="#646889"/>
	<path d="M981.1 323.4V396.2H961.1V387.6C955.5 393.9 947.4 397.3 938.4 397.3C920.2 397.3 907.3 387 907.3 364.5V323.4H928.4V361.4C928.4 373.6 933.8 379 943.2 379C952.9 379 960 372.8 960 359.4V323.4H981.1Z" fill="#646889"/>
	<path d="M993.7 389.5L1000.7 374.3C1007.2 378.5 1017.1 381.3 1026.1 381.3C1035.8 381.3 1039.5 378.8 1039.5 374.7C1039.5 362.8 995.5 375 995.5 345.9C995.5 332 1007.9 322.3 1029.2 322.3C1039.2 322.3 1050.3 324.6 1057.2 328.7L1050.2 343.7C1043 339.6 1035.8 338.3 1029.2 338.3C1019.7 338.3 1015.6 341.3 1015.6 345C1015.6 357.5 1059.7 345.5 1059.7 374.2C1059.7 387.7 1047.1 397.3 1025.3 397.3C1012.9 397.3 1000.5 393.9 993.7 389.5Z" fill="#646889"/>
	<path d="M184.9 930.5L185 556.4C265.5 525.3 361.8 554.6 411.8 625.1C428.8 649.1 441.3 677.8 465.5 694.4C501.5 719.1 549.6 709.1 593.2 709.2C657.5 709.4 721.4 735.1 767.9 779.5C798.3 808.5 823 846.1 862.1 861.6C904.2 878.3 951.5 864.7 996.9 864.4C1059 864 1121.8 885.9 1164.5 930.9L184.9 930.5Z" fill="#EBEBEB"/>
	<path d="M1292.5 931C1292.5 927.6 1292.3 642.6 1292.1 192.2L1292.5 192.7C987.4 192.7 602.1 192.7 184.4 192.8H184.3L184.9 192.2C184.8 455.3 184.8 705.6 184.8 931L184.3 930.5C837.1 930.8 1288.2 931 1292.5 931C1288.2 931 837.1 931.2 184.3 931.5H183.9V931C183.9 705.6 183.8 455.3 183.8 192.2V191.7H184.3H184.4C602.1 191.8 987.4 191.8 1292.5 191.8H1292.9V192.2C1292.7 642.6 1292.5 927.6 1292.5 931Z" fill="#263238"/>
	<path d="M323.2 353.8C323.2 354.6 317.7 355.2 311 355.2C304.3 355.2 298.8 354.6 298.8 353.8C298.8 353.1 304.3 352.5 311 352.5C317.7 352.5 323.2 353.1 323.2 353.8Z" fill="#263238"/>
	<path d="M336.1 320.7C336.8 320.7 337.4 326.2 337.4 333.1C337.4 339.9 336.8 345.4 336.1 345.4C335.4 345.4 334.8 339.9 334.8 333.1C334.8 326.2 335.4 320.7 336.1 320.7Z" fill="#263238"/>
	<path d="M349.9 353.1C349.9 352.3 355.3 351.7 362.1 351.7C368.8 351.7 374.2 352.3 374.2 353.1C374.2 353.8 368.8 354.4 362.1 354.4C355.3 354.4 349.9 353.8 349.9 353.1Z" fill="#263238"/>
	<path d="M336.9 386.2C336.2 386.2 335.6 380.6 335.6 373.8C335.6 367 336.2 361.5 336.9 361.5C337.7 361.5 338.3 367 338.3 373.8C338.3 380.6 337.7 386.2 336.9 386.2Z" fill="#263238"/>
	<path d="M356.6 372C356.1 372.4 353.7 370.5 351.3 367.6C348.9 364.8 347.4 362.1 348 361.6C348.5 361.1 350.9 363.1 353.3 365.9C355.7 368.8 357.2 371.5 356.6 372Z" fill="#263238"/>
	<path d="M355.5 334.4C356 334.9 354.4 337.4 351.9 339.9C349.5 342.4 347 344 346.5 343.5C346 342.9 347.6 340.5 350 338C352.5 335.5 355 333.9 355.5 334.4Z" fill="#263238"/>
	<path d="M327.6 344C327.1 344.5 324.8 343.4 322.4 341.4C320.1 339.5 318.5 337.4 319 336.8C319.5 336.3 321.8 337.4 324.2 339.4C326.5 341.3 328 343.4 327.6 344Z" fill="#263238"/>
	<path d="M326.5 360.5C327 361 325.6 363.4 323.4 365.9C321.1 368.4 318.9 370 318.3 369.5C317.8 369 319.1 366.6 321.4 364.1C323.7 361.6 325.9 360 326.5 360.5Z" fill="#263238"/>
	<path d="M1010.4 289.7C1010.4 290.2 1007.3 290.5 1003.4 290.5C999.6 290.5 996.5 290.2 996.5 289.7C996.5 289.3 999.6 289 1003.4 289C1007.3 289 1010.4 289.3 1010.4 289.7Z" fill="#263238"/>
	<path d="M1017.7 270.9C1018.1 270.9 1018.5 274.1 1018.5 277.9C1018.5 281.8 1018.1 285 1017.7 285C1017.3 285 1016.9 281.8 1016.9 277.9C1016.9 274.1 1017.3 270.9 1017.7 270.9Z" fill="#263238"/>
	<path d="M1025.5 289.3C1025.5 288.9 1028.6 288.5 1032.4 288.5C1036.3 288.5 1039.3 288.9 1039.3 289.3C1039.3 289.7 1036.3 290.1 1032.4 290.1C1028.6 290.1 1025.5 289.7 1025.5 289.3Z" fill="#263238"/>
	<path d="M1018.2 308.1C1017.8 308.1 1017.4 305 1017.4 301.1C1017.4 297.2 1017.8 294.1 1018.2 294.1C1018.6 294.1 1018.9 297.2 1018.9 301.1C1018.9 305 1018.6 308.1 1018.2 308.1Z" fill="#263238"/>
	<path d="M1029.4 300C1029 300.3 1027.7 299.2 1026.3 297.6C1024.9 296 1024.1 294.4 1024.4 294.1C1024.8 293.9 1026.1 295 1027.5 296.6C1028.8 298.2 1029.7 299.8 1029.4 300Z" fill="#263238"/>
	<path d="M1028.7 278.7C1029 279 1028.1 280.4 1026.7 281.8C1025.3 283.2 1023.9 284.1 1023.6 283.8C1023.3 283.6 1024.2 282.2 1025.6 280.7C1027 279.3 1028.4 278.4 1028.7 278.7Z" fill="#263238"/>
	<path d="M1012.9 284.1C1012.6 284.5 1011.3 283.8 1009.9 282.7C1008.6 281.6 1007.7 280.4 1008 280.1C1008.3 279.8 1009.6 280.4 1010.9 281.5C1012.3 282.6 1013.1 283.8 1012.9 284.1Z" fill="#263238"/>
	<path d="M1012.2 293.5C1012.5 293.8 1011.8 295.2 1010.5 296.6C1009.2 298 1007.9 298.9 1007.6 298.6C1007.3 298.3 1008.1 297 1009.4 295.6C1010.6 294.2 1011.9 293.3 1012.2 293.5Z" fill="#263238"/>
	<path d="M696.3 447.1C696.3 447.4 693.9 447.6 691 447.6C688 447.6 685.7 447.4 685.7 447.1C685.7 446.7 688 446.5 691 446.5C693.9 446.5 696.3 446.7 696.3 447.1Z" fill="#263238"/>
	<path d="M701.9 432.6C702.2 432.6 702.5 435 702.5 438C702.5 441 702.2 443.4 701.9 443.4C701.6 443.4 701.3 441 701.3 438C701.3 435 701.6 432.6 701.9 432.6Z" fill="#263238"/>
	<path d="M707.9 446.7C707.9 446.4 710.3 446.1 713.2 446.1C716.1 446.1 718.5 446.4 718.5 446.7C718.5 447 716.1 447.3 713.2 447.3C710.3 447.3 707.9 447 707.9 446.7Z" fill="#263238"/>
	<path d="M702.3 461.1C701.9 461.1 701.7 458.7 701.7 455.7C701.7 452.8 701.9 450.4 702.3 450.4C702.6 450.4 702.8 452.8 702.8 455.7C702.8 458.7 702.6 461.1 702.3 461.1Z" fill="#263238"/>
	<path d="M710.8 454.9C710.6 455.1 709.5 454.3 708.5 453.1C707.5 451.8 706.8 450.6 707.1 450.4C707.3 450.2 708.4 451.1 709.4 452.3C710.4 453.6 711.1 454.7 710.8 454.9Z" fill="#263238"/>
	<path d="M710.3 438.6C710.6 438.8 709.9 439.9 708.8 441C707.7 442.1 706.6 442.8 706.4 442.5C706.2 442.3 706.9 441.2 708 440.2C709 439.1 710.1 438.4 710.3 438.6Z" fill="#263238"/>
	<path d="M698.2 442.8C698 443 697 442.5 695.9 441.7C694.9 440.8 694.2 439.9 694.5 439.7C694.7 439.4 695.7 439.9 696.7 440.8C697.7 441.6 698.4 442.5 698.2 442.8Z" fill="#263238"/>
	<path d="M697.7 450C697.9 450.2 697.3 451.2 696.4 452.3C695.4 453.4 694.4 454.1 694.2 453.9C693.9 453.6 694.5 452.6 695.5 451.5C696.5 450.4 697.5 449.7 697.7 450Z" fill="#263238"/>
	<path d="M977.8 469.5C977.8 469.9 974.7 470.2 970.9 470.2C967.1 470.2 964 469.9 964 469.5C964 469 967.1 468.7 970.9 468.7C974.7 468.7 977.8 469 977.8 469.5Z" fill="#E0E0E0"/>
	<path d="M985.2 450.7C985.6 450.7 985.9 453.8 985.9 457.7C985.9 461.6 985.6 464.7 985.2 464.7C984.8 464.7 984.4 461.6 984.4 457.7C984.4 453.8 984.8 450.7 985.2 450.7Z" fill="#E0E0E0"/>
	<path d="M993 469C993 468.6 996.1 468.3 999.9 468.3C1003.7 468.3 1006.8 468.6 1006.8 469C1006.8 469.4 1003.7 469.8 999.9 469.8C996.1 469.8 993 469.4 993 469Z" fill="#E0E0E0"/>
	<path d="M985.7 487.8C985.2 487.8 984.9 484.7 984.9 480.8C984.9 476.9 985.2 473.8 985.7 473.8C986.1 473.8 986.4 476.9 986.4 480.8C986.4 484.7 986.1 487.8 985.7 487.8Z" fill="#E0E0E0"/>
	<path d="M996.8 479.8C996.5 480 995.1 478.9 993.8 477.3C992.4 475.7 991.6 474.1 991.9 473.9C992.2 473.6 993.6 474.7 995 476.3C996.3 478 997.2 479.5 996.8 479.8Z" fill="#E0E0E0"/>
	<path d="M996.2 458.4C996.5 458.7 995.6 460.1 994.2 461.5C992.8 463 991.4 463.9 991.1 463.6C990.8 463.3 991.7 461.9 993.1 460.5C994.5 459 995.9 458.1 996.2 458.4Z" fill="#E0E0E0"/>
	<path d="M980.3 463.9C980.1 464.2 978.8 463.6 977.4 462.4C976.1 461.3 975.2 460.1 975.5 459.8C975.7 459.5 977.1 460.1 978.4 461.3C979.7 462.4 980.6 463.5 980.3 463.9Z" fill="#E0E0E0"/>
	<path d="M979.7 473.3C980 473.6 979.2 474.9 978 476.3C976.7 477.7 975.4 478.6 975.1 478.4C974.8 478.1 975.6 476.7 976.8 475.3C978.1 473.9 979.4 473 979.7 473.3Z" fill="#E0E0E0"/>
	<path d="M613.4 291L614.3 293.1C615.8 296.9 618.8 299.9 622.6 301.4L625 302.4L622.7 303.3C618.9 304.8 615.8 307.9 614.3 311.7L613.7 313.3L612.7 311.3C611 307.7 607.9 304.9 604.2 303.6L602.1 302.8L604.8 301.5C608.2 299.9 610.8 297.1 612.2 293.6L613.4 291Z" fill="#E0E0E0"/>
	<path d="M262.1 452.8L262.7 454.2C263.7 456.7 265.7 458.7 268.3 459.7L269.8 460.4L268.3 461C265.8 462 263.8 464 262.7 466.6L262.3 467.6L261.7 466.3C260.5 463.9 258.5 462.1 256 461.2L254.6 460.7L256.4 459.8C258.6 458.7 260.4 456.9 261.4 454.6L262.1 452.8Z" fill="#E0E0E0"/>
	<path d="M1147.2 313.3L1147.8 314.7C1148.8 317.2 1150.8 319.2 1153.3 320.2L1154.9 320.9L1153.4 321.5C1150.9 322.5 1148.8 324.5 1147.8 327.1L1147.4 328.1L1146.8 326.8C1145.6 324.4 1143.6 322.6 1141.1 321.7L1139.7 321.2L1141.5 320.3C1143.7 319.2 1145.5 317.4 1146.4 315.1L1147.2 313.3Z" fill="#E0E0E0"/>
	<path d="M1149.9 373.9L1150.8 376.1C1152.3 379.8 1155.3 382.8 1159.1 384.4L1161.5 385.3L1159.2 386.2C1155.4 387.8 1152.3 390.8 1150.8 394.7L1150.2 396.2L1149.2 394.3C1147.5 390.7 1144.4 387.9 1140.7 386.5L1138.6 385.8L1141.3 384.5C1144.7 382.9 1147.3 380 1148.7 376.6L1149.9 373.9Z" fill="#263238"/>
	<path d="M780.3 277.9L780.7 278.9C781.5 280.6 782.9 282 784.7 282.8L785.8 283.2L784.7 283.6C782.9 284.4 781.5 285.8 780.8 287.6L780.5 288.3L780 287.4C779.2 285.7 777.8 284.4 776 283.8L775 283.4L776.3 282.8C777.9 282.1 779.1 280.7 779.8 279.1L780.3 277.9Z" fill="#263238"/>
	<path d="M501.5 443.7L502.1 445C503 447.2 504.8 449 507.1 450L508.5 450.5L507.2 451.1C504.8 452 503 453.9 502.1 456.2L501.7 457.1L501.1 455.9C500.1 453.8 498.2 452.1 496 451.3L494.7 450.8L496.3 450C498.4 449.1 500 447.4 500.8 445.3L501.5 443.7Z" fill="#263238"/>
	<path d="M1395.6 478.2C1395.6 525.1 1357.6 563.2 1310.6 563.2C1300.4 563.2 1290.6 561.4 1281.5 558.1L1240.9 580.3L1252.4 540.1C1235.9 524.6 1225.6 502.6 1225.6 478.2C1225.6 431.2 1263.7 393.2 1310.6 393.2C1357.6 393.2 1395.6 431.2 1395.6 478.2Z" fill="#F5F5F5"/>
	<path d="M1310.6 393.2C1310.6 393.2 1311.13 393.2 1312.2 393.2C1313.2 393.267 1314.67 393.333 1316.6 393.4C1317.6 393.4 1318.7 393.4 1319.9 393.6C1321.1 393.733 1322.4 393.9 1323.8 394.1C1325.2 394.4 1326.8 394.5 1328.4 394.9C1330 395.3 1331.7 395.733 1333.5 396.2C1340.6 398.2 1349.3 401.4 1358.1 407.3C1366.9 413.2 1375.9 421.7 1383 433C1383.87 434.4 1384.73 435.833 1385.6 437.3C1386.33 438.833 1387.1 440.4 1387.9 442C1389.6 445.1 1390.6 448.5 1391.9 451.9C1394 458.9 1395.7 466.3 1395.9 474.2C1396.3 478.1 1395.8 482.1 1395.7 486.2C1395.5 488.2 1395.1 490.2 1394.8 492.3C1394.67 493.3 1394.53 494.3 1394.4 495.3C1394.13 496.3 1393.87 497.333 1393.6 498.4C1391.8 506.5 1388.4 514.6 1383.9 522.1C1375 537.4 1360.3 550.3 1342.4 557.5C1333.6 561.2 1323.8 563.2 1313.9 563.5C1304 564.1 1293.8 562.6 1284.1 559.5C1283.17 559.167 1282.23 558.867 1281.3 558.6L1281.8 558.5C1267.9 566.1 1254.3 573.5 1241.2 580.7L1240.1 581.3L1240.4 580.1C1244.4 566.3 1248.2 552.8 1251.9 539.9L1252.1 540.4C1246.7 535.3 1242 529.6 1238.2 523.6C1234.4 517.5 1231.5 511.1 1229.3 504.6C1227.2 498.1 1226 491.5 1225.5 485C1225.37 483.4 1225.27 481.8 1225.2 480.2C1225.2 478.5 1225.2 477 1225.3 475.4C1225.5 472.2 1225.6 469.1 1226.2 466C1227.9 453.8 1232.3 442.8 1237.9 433.6C1243.6 424.5 1250.5 417.1 1257.5 411.5C1259.3 410.167 1261.07 408.867 1262.8 407.6C1264.6 406.467 1266.37 405.367 1268.1 404.3C1269.8 403.2 1271.6 402.4 1273.3 401.6C1275 400.8 1276.6 399.9 1278.3 399.3C1284.9 396.8 1290.8 395.2 1295.6 394.4C1298 394.067 1300.13 393.767 1302 393.5C1303.87 393.433 1305.47 393.367 1306.8 393.3C1308 393.233 1308.97 393.2 1309.7 393.2C1310.3 393.2 1310.6 393.2 1310.6 393.2C1310.6 393.2 1310.3 393.233 1309.7 393.3C1308.97 393.3 1308 393.367 1306.8 393.5C1305.47 393.567 1303.9 393.633 1302.1 393.7C1300.23 394.033 1298.1 394.367 1295.7 394.7C1290.8 395.6 1285 397.2 1278.5 399.8C1276.8 400.4 1275.3 401.3 1273.6 402.1C1271.9 402.9 1270.1 403.7 1268.4 404.8C1266.67 405.867 1264.9 406.933 1263.1 408C1261.43 409.333 1259.7 410.667 1257.9 412C1251 417.6 1244.1 424.9 1238.5 434C1233 443.1 1228.7 454 1227 466.1C1226.4 469.2 1226.4 472.3 1226.2 475.4C1226.1 477 1226 478.5 1226.1 480.1C1226.1 481.7 1226.2 483.3 1226.4 484.9C1226.9 491.4 1228.1 497.9 1230.2 504.3C1232.3 510.8 1235.3 517.1 1239 523.1C1242.8 529.1 1247.4 534.7 1252.7 539.7L1253 539.9L1252.9 540.2C1249.2 553.1 1245.4 566.5 1241.4 580.4L1240.7 579.8C1253.8 572.6 1267.4 565.2 1281.3 557.6L1281.5 557.5L1281.7 557.6C1282.63 557.933 1283.53 558.233 1284.4 558.5C1294 561.6 1304 563.1 1313.8 562.5C1323.6 562.2 1333.3 560.2 1342.1 556.6C1359.7 549.4 1374.2 536.7 1383 521.6C1387.5 514.2 1390.9 506.2 1392.7 498.1C1392.97 497.1 1393.23 496.1 1393.5 495.1C1393.63 494.1 1393.8 493.1 1394 492.1C1394.2 490.1 1394.6 488.1 1394.8 486.1C1395 482.1 1395.4 478.1 1395 474.3C1394.9 466.5 1393.2 459.1 1391.1 452.2C1389.8 448.8 1388.8 445.4 1387.2 442.3C1386.47 440.767 1385.73 439.233 1385 437.7C1384.07 436.233 1383.2 434.8 1382.4 433.4C1375.4 422.1 1366.5 413.7 1357.8 407.8C1349.1 401.9 1340.5 398.6 1333.4 396.6C1331.6 396.133 1329.9 395.667 1328.3 395.2C1326.7 394.9 1325.2 394.7 1323.8 394.4C1322.33 394.2 1321.03 394 1319.9 393.8C1318.7 393.6 1317.6 393.7 1316.6 393.6C1314.67 393.467 1313.2 393.367 1312.2 393.3C1311.13 393.233 1310.6 393.2 1310.6 393.2Z" fill="#263238"/>
	<path d="M1292.1 466.6H1298.1L1311.2 448.3V436.3C1311.2 436.3 1320.5 435.7 1319.4 451.4C1318.3 467.1 1319.5 463.1 1319.5 463.1C1319.5 463.1 1339.2 463.2 1340.9 464.9C1342.1 466.2 1342.6 485.8 1342.8 496.4C1342.9 501.7 1339.6 506.7 1334.7 508C1333.97 508.2 1333.23 508.3 1332.5 508.3C1327.6 508.3 1302.5 504.3 1302.5 504.3H1292.1V466.6Z" fill="#263238"/>
	<path d="M1288.9 464.1V504.4H1278.6L1274.9 463.3L1288.9 464.1Z" fill="#263238"/>
	<path d="M448.3 480.1C448 486.6 439.6 495.1 442.2 501C447 511.8 444.2 524.8 438 534.9C431.9 545 422.7 552.8 413.6 560.5C414.1 544.7 412.7 528.9 409.5 513.4C408.5 508.5 406.9 503.1 402.4 500.9C396.7 498.1 389.4 502.2 383.5 499.7C377.3 497 376 488.4 370.7 484.1C366 480.2 358.9 480.6 353.1 482.6C347.2 484.5 341.8 487.8 335.8 489.2C329.8 490.5 322.5 489.3 319.2 484.1C317.1 480.9 318.6 482.9 316.7 479.6C316.7 479.6 304.9 480 300.9 466.3C300.9 466.3 295.4 451.2 307.6 444.5C307.6 444.5 310.4 417 337.9 429.4C345.9 432.9 355.3 421.5 363 425.4C369.4 428.7 371.4 437.6 377.8 440.9C385.2 444.7 393.8 439.1 402.1 438.7C412.7 438.3 422.6 448.2 422 458.8C422 458.8 423.3 453.4 432.3 455.8C441.3 458.2 449 467.6 448.3 480.1Z" fill="#263238"/>
	<path d="M431.9 537.6C429.8 539.8 426.8 541.3 423.8 541.5L422 613.5C422.6 637 405.8 652.9 387.2 652.9C368.9 652.9 351.1 638.6 352 614.8L352.6 592.5C352.6 592.5 328.1 588.4 323.1 556.4C320.5 540.6 321.3 514.5 322.7 493.2C323.9 474 340.8 459.7 359.9 461.8L415.3 467.6C421.1 468.2 425.5 473.2 425.4 479L424.7 507.3C429.4 507.6 433.8 512.9 434.9 515.3C436.3 518 436.7 521.2 436.6 524.3C436.5 529.1 435.2 534.1 431.9 537.6Z" fill="#FFBE9D"/>
	<path d="M339.3 506.8C341.6 507 343.3 508.8 343.2 511C343.2 513.1 341.3 514.8 339 514.7C336.8 514.6 335 512.7 335.1 510.5C335.1 508.4 337 506.7 339.3 506.8Z" fill="#263238"/>
	<path d="M329.9 504.5C331.2 503.5 333.5 502.5 336.3 502.5C339 502.4 341.4 503.4 342.8 504.5C344.2 505.5 344.7 506.4 344.5 506.7C344 507.2 340.8 505 336.4 505C331.9 505 328.8 507.3 328.3 506.8C328.1 506.5 328.5 505.6 329.9 504.5Z" fill="#263238"/>
	<path d="M381.9 507.7C384.1 507.8 385.9 509.6 385.8 511.8C385.7 514 383.8 515.6 381.6 515.5C379.3 515.4 377.6 513.5 377.6 511.4C377.7 509.2 379.6 507.5 381.9 507.7Z" fill="#263238"/>
	<path d="M373.2 505.3C374.6 504.3 376.9 503.3 379.6 503.3C382.4 503.3 384.7 504.3 386.1 505.3C387.5 506.3 388 507.3 387.8 507.5C387.3 508 384.1 505.8 379.7 505.8C375.3 505.8 372.2 508.1 371.7 507.6C371.4 507.3 371.9 506.4 373.2 505.3Z" fill="#263238"/>
	<path d="M348.4 540.3C347.9 540.2 347.2 540.2 346.5 540C345.8 539.8 345 539.2 344.6 538.4C344.1 536.7 344.8 535.2 345.2 533.9C346.267 531.167 347.334 528.3 348.4 525.3C353 513.1 357.2 503.4 357.7 503.5C358.2 503.7 354.8 513.8 350.2 526C349.067 529 347.967 531.833 346.9 534.5C346.3 535.9 345.9 537.1 346.1 537.9C346.3 538.6 347.4 538.9 348.5 539C352.9 539.6 355.7 540 355.7 540.3C355.7 540.5 352.9 540.5 348.4 540.3Z" fill="#263238"/>
	<path d="M352.6 592.5C352.6 592.5 374.1 593.8 395.4 581C395.4 581 384.3 605.1 352.4 602.1L352.6 592.5Z" fill="#EB996E"/>
	<path d="M372.4 497.6C374.2 496.8 377.1 496.3 380.2 496.7C383.3 497 386 498.1 387.6 499.3C389.3 500.4 390 501.6 389.7 502.1C389.1 503.2 384.9 501.6 379.7 501.1C374.5 500.5 370.1 501.1 369.7 499.9C369.5 499.3 370.5 498.4 372.4 497.6Z" fill="#263238"/>
	<path d="M329 494C330.3 492.9 332.4 492 334.9 491.9C337.5 491.9 339.7 492.6 341 493.6C342.4 494.5 342.9 495.5 342.5 496C341.8 497.1 338.7 496.2 335.1 496.4C331.4 496.5 328.4 497.5 327.6 496.5C327.3 496 327.7 495 329 494Z" fill="#263238"/>
	<path d="M356.6 565.2C356.5 565.1 356.9 564.6 357.8 564C358.7 563.5 360.1 563 361.8 563C363.4 563 364.8 563.5 365.7 564C366.6 564.6 367 565.1 366.9 565.2C366.7 565.4 364.7 564 361.8 564C358.8 564 356.8 565.5 356.6 565.2Z" fill="#EB996E"/>
	<path d="M421.7 532.8C421.7 532.6 423.1 532.5 424.8 531.3C426.4 530.2 428.5 527.9 428.5 524.8C428.5 521.6 426.8 519.1 425.2 517.9C423.5 516.7 422.1 516.9 422.1 516.8C422 516.6 423.6 516.1 425.6 517.3C427.5 518.4 429.6 521.2 429.5 524.8C429.5 526.5 428.9 528.1 428 529.3C427.2 530.6 426.1 531.4 425.2 532C423.2 533 421.7 532.9 421.7 532.8Z" fill="#EB996E"/>
	<path d="M316.7 453C345.5 452.1 374.4 453.6 403 457.6C409.8 458.5 417.1 459.9 421.5 465.2C425.8 470.4 425.8 477.9 425.5 484.7C425.1 492.4 426.5 501.6 425.9 509.3C425.4 514.7 422 519.9 416.8 521.3C411.4 522.8 406.4 517 405.7 511.5C405 505.9 406.9 500.4 407 494.8C407.1 490.2 405.3 484.9 400.9 483.7C397.5 482.8 394 484.8 390.5 485.3C383.3 486.4 376.8 481.1 370 478.4C360.9 474.9 346.7 483.3 333.3 480.2C323.8 477.9 311.5 467.9 316.7 454.1" fill="#263238"/>
	<path d="M299.8 457.1C299.8 457.1 299.6 456.6 299.6 455.6C299.5 454.7 299.6 453.2 300.4 451.5C301.2 449.9 302.7 447.9 305.2 446.9C306.5 446.4 307.9 446.3 309.4 446.4C310.9 446.6 312.4 447 314 447.1C315.6 447.2 317.2 446.8 318.7 446C320.3 445.3 321.7 444.1 323.1 442.9C324.5 441.6 326 440.3 327.7 439C329.4 437.8 331.4 436.9 333.6 436.5C338 435.6 342.7 436.7 346.9 438.7C351.2 440.9 355 444 358.8 447.2C362.6 450.3 366.3 453.5 370.6 455.2C372.7 456 374.9 456.4 377.1 456.2C379.2 455.9 381.3 455.1 383.2 454.2C386.9 452.3 390.5 450 394.3 449.1C398.1 448.1 401.8 447.9 405 448.7C408.3 449.5 410.9 451.1 412.8 452.9C414.7 454.7 415.8 456.7 416.5 458.5C417.1 460.2 417.3 461.6 417.3 462.6C417.3 463.1 417.3 463.4 417.3 463.7C417.233 463.967 417.2 464.1 417.2 464.1C417 464.1 417.5 462 416.1 458.6C415.4 457 414.3 455.1 412.4 453.3C410.5 451.6 408 450.1 404.9 449.4C401.7 448.7 398.2 448.9 394.5 449.9C390.9 450.8 387.5 453.1 383.6 455C381.7 456 379.5 456.9 377.2 457.1C374.9 457.4 372.5 457 370.2 456.1C365.7 454.3 361.9 451.1 358.1 448C354.3 444.8 350.6 441.7 346.5 439.7C342.4 437.7 337.9 436.6 333.7 437.4C329.6 438.1 326.5 441 323.7 443.5C322.2 444.7 320.7 445.9 319.1 446.7C317.4 447.6 315.6 448 313.9 447.8C312.3 447.7 310.8 447.3 309.3 447.1C307.9 446.9 306.6 447 305.4 447.5C303.1 448.4 301.6 450.1 300.8 451.7C299.9 453.3 299.8 454.7 299.8 455.6C299.8 456.6 299.9 457.1 299.8 457.1Z" fill="#646889"/>
	<path d="M315.3 479.3C315.3 479.3 314.8 479.5 313.9 479.4C313 479.3 311.6 478.6 310.7 477.1C309.7 475.5 309.5 473.2 309.9 470.8C310.3 468.3 311.3 465.6 313.2 463.1C315 460.5 317.8 458.2 321.3 456.9C324.8 455.6 329 455.4 333 456.6C337 457.9 340.6 460.4 344.2 463C347.8 465.6 351.5 468.3 356 469.6C360.4 470.9 365.1 470.2 369.2 468.9C373.4 467.5 377.1 465.4 380.6 463.4C384.2 461.4 387.6 459.4 390.9 458C394.3 456.6 397.6 455.6 400.8 455.5C407.1 455.1 412 457.6 414.5 460.1C415.8 461.3 416.4 462.5 416.8 463.3C417.2 464.167 417.367 464.6 417.3 464.6C417.2 464.7 416.7 462.7 414.2 460.4C411.8 458 406.9 455.8 400.8 456.2C397.8 456.4 394.6 457.4 391.3 458.8C388 460.2 384.6 462.2 381.1 464.3C377.6 466.3 373.8 468.4 369.5 469.8C365.3 471.3 360.4 472 355.7 470.6C351 469.3 347.2 466.4 343.6 463.8C340 461.2 336.5 458.8 332.7 457.6C328.9 456.3 324.9 456.6 321.6 457.7C318.3 458.9 315.6 461.1 313.8 463.5C311.9 465.9 310.9 468.5 310.5 470.9C310 473.3 310.2 475.4 311 476.9C311.8 478.3 313.1 479 313.9 479.2C314.8 479.4 315.3 479.3 315.3 479.3Z" fill="#646889"/>
	<path d="M437.8 532.6C437.7 532.6 438.5 531.7 439.6 529.8C440.6 528 441.8 525 441.9 521.3C442 519.4 441.8 517.3 441.2 515.2C440.6 513.1 439.4 511 438 508.9C436.6 506.8 434.9 504.7 433.5 502.3C432 499.9 430.7 497.1 430.8 494C430.9 490.8 432.4 488.1 433.5 485.7C434.7 483.2 435.7 480.8 435.8 478.3C435.9 473.4 433 469.2 429.9 467.3C426.6 465.4 423.3 465.4 421.3 465.7C419.2 466 418.1 466.5 418.1 466.4C418.1 466.4 418.333 466.267 418.8 466C419.4 465.8 420.1 465.5 421.2 465.3C423.3 464.8 426.7 464.7 430.2 466.7C433.7 468.6 436.8 473 436.7 478.3C436.7 481 435.6 483.6 434.4 486.1C433.3 488.6 431.9 491.2 431.9 494C431.8 496.8 433 499.5 434.3 501.8C435.7 504.1 437.4 506.2 438.8 508.4C440.2 510.5 441.4 512.7 442 514.9C442.7 517.2 442.8 519.3 442.7 521.3C442.4 525.2 441.1 528.2 439.9 530C439.3 530.9 438.8 531.6 438.4 532C438 532.467 437.8 532.667 437.8 532.6Z" fill="#646889"/>
	<path d="M353.9 509.3C353.8 509.3 353.9 507.4 353.1 504.3C352.3 501.2 350.2 496.7 345.6 493.2C343.3 491.5 340.4 490.1 337.1 489.5C333.8 488.9 330 489.1 326.5 490.4C324.7 491 323 492 321.4 493.2C319.8 494.3 318.4 495.8 317.2 497.4C314.7 500.7 313.3 504.9 313.3 509.3C313.3 513.6 314.7 517.8 317.2 521.1C318.4 522.8 319.8 524.2 321.4 525.4C323 526.6 324.7 527.5 326.5 528.1C330 529.5 333.8 529.6 337.1 529.1C340.4 528.5 343.3 527 345.6 525.3C350.2 521.8 352.3 517.3 353.1 514.2C353.9 511.1 353.8 509.3 353.9 509.3C353.9 509.3 354.2 511.1 353.5 514.3C352.8 517.5 350.8 522.2 346 525.9C343.7 527.7 340.7 529.3 337.2 529.9C333.8 530.5 329.9 530.4 326.2 529C324.3 528.4 322.5 527.4 320.8 526.2C319.2 525 317.6 523.5 316.4 521.7C313.8 518.3 312.3 513.8 312.3 509.3C312.3 504.7 313.8 500.3 316.4 496.8C317.6 495.1 319.2 493.6 320.8 492.4C322.5 491.1 324.3 490.1 326.2 489.5C329.9 488.1 333.8 488 337.2 488.6C340.7 489.3 343.7 490.8 346 492.6C350.8 496.3 352.8 501 353.5 504.2C354.2 507.4 353.9 509.3 353.9 509.3Z" fill="#263238"/>
	<path d="M400.9 509.3C400.8 509.3 400.9 507.4 400 504.3C399.2 501.2 397.2 496.7 392.5 493.2C390.2 491.5 387.4 490.1 384 489.5C380.7 488.9 377 489.1 373.5 490.4C371.7 491 370 492 368.4 493.2C366.8 494.3 365.4 495.8 364.2 497.4C361.7 500.7 360.3 504.9 360.3 509.3C360.3 513.6 361.7 517.8 364.2 521.1C365.4 522.8 366.8 524.2 368.4 525.4C370 526.6 371.7 527.5 373.5 528.1C377 529.5 380.7 529.6 384 529.1C387.4 528.5 390.2 527 392.5 525.3C397.2 521.8 399.2 517.3 400 514.2C400.9 511.1 400.8 509.3 400.9 509.3C400.9 509.3 401.2 511.1 400.4 514.3C399.7 517.5 397.7 522.2 393 525.9C390.6 527.7 387.7 529.3 384.2 529.9C380.8 530.5 376.9 530.4 373.2 529C371.3 528.4 369.5 527.4 367.8 526.2C366.1 525 364.6 523.5 363.3 521.7C360.7 518.3 359.3 513.8 359.2 509.3C359.3 504.7 360.7 500.3 363.3 496.8C364.6 495.1 366.1 493.6 367.8 492.4C369.5 491.1 371.3 490.1 373.2 489.5C376.9 488.1 380.8 488 384.2 488.6C387.7 489.3 390.6 490.8 393 492.6C397.7 496.3 399.7 501 400.4 504.2C401.2 507.4 400.9 509.3 400.9 509.3Z" fill="#263238"/>
	<path d="M360.9 505.8V505.7H361V505.9C360.933 505.967 360.9 506 360.9 506H360.8V505.7L360.9 505.6V506C360.3 506.2 359 506.4 357.5 506.4C355.5 506.4 353.9 506.1 353.9 505.8C353.9 505.6 355.5 505.3 357.5 505.3C359 505.3 360.3 505.4 360.9 505.6V506H360.8V505.7H360.9C360.9 505.7 360.933 505.7 361 505.7V505.9H360.9C360.9 505.9 360.9 505.867 360.9 505.8Z" fill="#263238"/>
	<path d="M425.6 510.4C425.6 510.7 419.9 510.5 413 510C406 509.5 400.4 508.9 400.5 508.6C400.5 508.3 406.1 508.5 413.1 508.9C420 509.4 425.6 510.1 425.6 510.4Z" fill="#263238"/>
	<path d="M374.1 539.2C374.2 539.1 374.5 540.4 374.2 542.4C373.9 544.4 372.7 547.2 370.3 549.2C367.8 551.2 364.9 551.8 362.9 551.7C360.8 551.6 359.7 551 359.7 550.9C359.8 550.7 361 551 362.9 550.9C364.8 550.8 367.4 550.2 369.6 548.4C371.9 546.6 373 544.1 373.5 542.3C374 540.4 373.9 539.2 374.1 539.2Z" fill="#263238"/>
	<path d="M294.8 682.8C294.8 682.8 294.8 683 294.8 683.4C294.867 683.867 294.9 684.5 294.9 685.3C294.9 687.033 294.933 689.433 295 692.5C295 698.9 295.1 707.9 295.1 719.1C295.2 741.5 294.4 772.5 292.7 806.7C290.8 840.9 289.2 871.8 287.9 894.3C287.4 905.5 286.9 914.5 286.6 920.9C286.467 923.967 286.333 926.367 286.2 928.1C286.2 928.833 286.167 929.433 286.1 929.9C286.1 930.367 286.067 930.6 286 930.6C286 930.6 286 930.367 286 929.9C286 929.433 286 928.833 286 928.1C286.067 926.367 286.133 923.933 286.2 920.8C286.4 914.6 286.7 905.5 287.2 894.3C288.1 871.9 290 840.9 291.7 806.7C293.4 772.5 294.3 741.5 294.4 719.1C294.5 707.9 294.5 698.9 294.6 692.5C294.6 689.433 294.633 687.033 294.7 685.3C294.7 684.5 294.7 683.867 294.7 683.4C294.767 683 294.8 682.8 294.8 682.8Z" fill="#263238"/>
	<path d="M585.2 820.3L531 877.8L465.5 930.6L433.6 880.2L510.7 804.9L470.7 752.4C455.2 734.9 444.8 721.1 437.8 704C433.4 693.4 430.5 681.9 431.4 670.5C432.4 659 437.6 647.6 446.9 640.8C456.2 634.1 477.2 635.9 488 648.3" fill="#E8505B"/>
	<path d="M209.2 810C209.2 809.9 210.7 808.9 213.4 808C216.1 807 220 806.3 224.4 806.5C228.8 806.8 232.6 807.9 235.2 809.2C237.8 810.4 239.2 811.5 239.1 811.6C239 811.8 237.5 810.9 234.9 809.9C232.3 808.8 228.6 807.8 224.4 807.5C220.1 807.3 216.3 808 213.6 808.7C210.9 809.4 209.3 810.2 209.2 810Z" fill="#263238"/>
	<path fill-rule="evenodd" clip-rule="evenodd" d="M590.2 807.5C587.2 840.8 465.5 930.6 465.5 930.6H286L286.4 922.2L211.2 873.5C184.1 855.1 169.9 839.1 166.5 814.8C163.4 793.2 176.7 771 191.3 754.8L262.8 670.9C265.6 668.1 268.1 665.7 269.3 664.2C293.5 636.3 312.8 626.4 349 625.4V611.4C349 611.4 354.7 612 361.7 614.2C373.4 617.9 382.6 627.1 386.6 638.7L394.2 628.2C401.9 621.2 416.8 611.4 427.7 611.4V627C442.5 627.4 471.4 624.5 498.3 660.2L498.4 660.1C550.6 725.6 592.5 781.3 590.2 807.5ZM293.7 752.6L236.8 811.5L289.5 850.7L293.7 752.6ZM510.6 804.9C510.6 799.8 482.9 765.6 467.9 748.4L460.3 824.8L461.8 853.8L510.6 804.9Z" fill="#76628B"/>
	<path d="M427.7 627C427.8 627.1 427.3 627.9 426.4 629.4C425.4 630.9 424 633 422.2 635.6C418.6 640.8 413.3 647.7 406.5 654.6C404.8 656.3 403 657.9 401.4 659.4L400.5 660.2V659.1C400.5 655.2 399.5 651.6 398.1 648.6C396.7 645.6 394.9 643.3 393.1 641.6C391.4 639.8 389.8 638.6 388.6 638.3C387.2 638.1 386.6 638.8 386.6 638.7C386.6 638.7 387.1 637.8 388.6 638C390.1 638.1 391.8 639.4 393.6 641.1C395.4 642.8 397.4 645.2 398.9 648.2C400.4 651.3 401.4 655 401.5 659.1L400.7 658.7C402.3 657.1 404 655.5 405.7 653.8C412.5 647 417.9 640.2 421.6 635.2C423.4 632.733 424.867 630.733 426 629.2C427.1 627.7 427.7 627 427.7 627Z" fill="#263238"/>
	<path d="M349 625.4C349 625.3 349.6 626 350.5 627.2C351.633 628.6 352.967 630.367 354.5 632.5C357.9 637 362.4 643.2 367.3 650.1C368.433 651.633 369.533 653.133 370.6 654.6L369.7 654.8C370.8 651.4 372 648.1 373.7 645.5C375.3 642.9 377.5 640.9 379.5 639.8C381.5 638.7 383.4 638.4 384.7 638.4C386 638.4 386.6 638.6 386.6 638.7C386.6 638.7 385.9 638.6 384.7 638.7C383.5 638.8 381.7 639.3 379.8 640.4C377.9 641.5 376 643.4 374.5 646C372.9 648.5 371.8 651.7 370.6 655.1L370.3 656L369.7 655.2C368.7 653.733 367.633 652.233 366.5 650.7C361.5 643.8 357.1 637.5 353.9 632.9C352.433 630.767 351.2 628.967 350.2 627.5C349.4 626.1 348.9 625.4 349 625.4Z" fill="#263238"/>
	<g opacity="0.1">
		<path d="M396.3 644.9C399.6 648.9 401.3 654.1 401 659.6C409.3 650.1 418.5 640.1 426.8 630.5C427.4 629.8 428 629.1 428.9 629C430.1 628.9 431.1 630.1 431.2 631.4C431.3 632.6 430.8 633.8 430.2 634.9C423.3 648.1 413.6 659.9 402 669.3C400.4 670.5 398.3 671.8 396.4 671.1C393.7 670 394 666.1 394.4 663.2C395.5 654.7 392.6 644.8 386.6 638.7C389.4 636.7 393 640.8 396.3 644.9Z" fill="black"/>
	</g>
	<path d="M463.3 927.2C463.3 927.267 463.1 927 462.7 926.4C462.3 925.733 461.733 924.9 461 923.9C459.6 921.6 457.5 918.4 454.9 914.4C449.7 906.1 442.4 894.5 433.9 881.1L433.7 880.8L434 880.5C439.8 874.7 446.1 868.4 452.7 861.8C468.6 846.1 483 831.8 493.5 821.4C498.7 816.3 503 812.2 506 809.2C507.4 807.867 508.533 806.8 509.4 806C510.2 805.267 510.633 804.9 510.7 804.9C510.7 804.9 510.333 805.3 509.6 806.1C508.733 806.967 507.633 808.1 506.3 809.5C503.3 812.5 499.2 816.7 494.1 821.9C483.6 832.4 469.3 846.7 453.5 862.5C446.8 869.1 440.5 875.4 434.7 881.2V880.6C443.1 894.1 450.3 905.7 455.4 914C457.9 918.1 459.9 921.4 461.3 923.7C461.967 924.767 462.5 925.633 462.9 926.3C463.233 926.9 463.367 927.2 463.3 927.2Z" fill="#263238"/>
	<path d="M441.3 647.3C441.3 647.3 441.2 647.433 441 647.7C440.733 647.967 440.433 648.333 440.1 648.8C439.2 649.7 438.1 651.1 436.6 653C433.9 656.8 430.3 662.9 429 671.3C427.6 679.6 428.9 689.9 433.4 700.1C435.6 705.2 438.5 710.4 442.2 715.2C446.1 719.9 450.1 724.8 454.1 729.9C470.2 750.2 484.1 769.2 494.3 782.8C499.3 789.5 503.4 795 506.3 798.9C507.7 800.767 508.8 802.233 509.6 803.3C509.933 803.767 510.2 804.167 510.4 804.5C510.6 804.767 510.7 804.9 510.7 804.9C510.633 804.9 510.5 804.767 510.3 804.5C510.1 804.233 509.8 803.867 509.4 803.4C508.6 802.4 507.467 801 506 799.2C503.1 795.4 498.9 790 493.7 783.2C483.4 769.7 469.4 750.9 453.3 730.6C449.3 725.5 445.3 720.6 441.4 715.8C437.6 710.9 434.8 705.7 432.5 700.5C428 690.1 426.8 679.6 428.2 671.1C429.7 662.6 433.4 656.5 436.3 652.8C437.8 650.9 439 649.5 439.9 648.6C440.3 648.2 440.633 647.867 440.9 647.6C441.167 647.4 441.3 647.3 441.3 647.3Z" fill="#263238"/>
	<path d="M508.7 673.1C508.8 673.2 507.6 673.6 505.8 674.6C503.9 675.6 501.3 677.3 498.7 680.1C496 682.8 493.3 686.4 490.7 690.7C488 695 485.3 700 481.7 704.7C478.2 709.4 473.6 713.1 468.9 715.2C464.3 717.5 459.7 718.3 455.8 718.5C451.9 718.7 448.8 718.2 446.7 717.7C445.7 717.4 444.9 717.1 444.3 717C443.767 716.8 443.5 716.667 443.5 716.6C443.6 716.3 448.1 718.3 455.8 717.8C459.5 717.5 464 716.6 468.5 714.4C473.1 712.2 477.4 708.7 480.9 704C484.4 699.4 487.1 694.5 489.8 690.2C492.5 685.9 495.3 682.2 498.1 679.5C500.9 676.8 503.6 675.1 505.6 674.2C506.6 673.8 507.367 673.5 507.9 673.3C508.433 673.167 508.7 673.1 508.7 673.1Z" fill="#FAFAFA"/>
	<path d="M461 849C461 849 460.867 848.967 460.6 848.9C460.2 848.833 459.733 848.733 459.2 848.6C458.6 848.4 457.9 848.3 457 848.2C456.1 848 455.1 847.9 454 847.9C449.4 847.5 442.6 848.1 434.7 850.3C430.7 851.5 426.4 853 422 855C417.5 857 412.9 859.4 407.9 861.8C403 864.1 397.6 866.4 391.8 867.9C388.9 868.6 385.8 869.1 382.7 869.3C379.6 869.5 376.4 869.3 373.2 868.6C366.9 867.3 361.2 864.6 356.1 861.6C350.9 858.5 346.3 855 341.9 851.7C333.1 845.2 324.8 839.7 316.8 837.4C312.9 836.2 309.2 835.7 305.9 835.6C302.6 835.5 299.8 836 297.6 836.6C293.1 837.7 291 839.4 290.9 839.2C290.9 839.2 291.033 839.1 291.3 838.9C291.633 838.767 292.033 838.533 292.5 838.2C293.6 837.6 295.2 836.8 297.5 836.2C299.7 835.5 302.6 835 305.9 835C309.2 835 313 835.5 317 836.7C325.1 839 333.6 844.4 342.4 851C346.9 854.2 351.5 857.6 356.6 860.7C361.7 863.7 367.3 866.4 373.4 867.6C376.5 868.2 379.6 868.4 382.6 868.3C385.7 868.1 388.7 867.6 391.5 866.9C397.3 865.5 402.6 863.2 407.5 860.9C412.5 858.6 417.1 856.1 421.6 854.2C426.1 852.2 430.4 850.7 434.5 849.6C442.5 847.4 449.3 847 454 847.5C458.6 847.9 461 849 461 849Z" fill="#FAFAFA"/>
	<path d="M263.3 831.2C263.367 831.2 263.433 831.433 263.5 831.9C263.6 832.4 263.7 833 263.7 833.9C263.9 835.7 263.9 838.2 263.4 841.3C262.9 844.5 261.7 848.1 259.3 851.6C256.9 855.1 253.1 857.9 249 860.4C244.9 862.8 240.9 864.9 237.6 867.3C234.3 869.7 231.5 872.2 229.8 874.7C228.1 877.3 227.6 879.8 227.5 881.5C227.5 883.2 227.8 884.1 227.7 884.1C227.633 884.167 227.533 883.967 227.4 883.5C227.267 883.033 227.167 882.367 227.1 881.5C227 879.7 227.5 877 229.2 874.3C230.9 871.6 233.7 869 237 866.5C240.4 864 244.4 861.9 248.5 859.5C252.5 857.1 256.2 854.3 258.5 851C260.9 847.7 262.1 844.2 262.7 841.2C263.3 838.2 263.3 835.7 263.3 833.9C263.3 832.2 263.3 831.2 263.3 831.2Z" fill="#FAFAFA"/>
	<path d="M565.2 748.4C565.2 748.7 560.2 748.7 553.3 752.2C549.9 753.8 546 756.5 542.6 760.2C541 762.1 539.4 764.3 538.1 766.7C536.8 769.1 535.9 771.9 534.6 774.6C533.4 777.3 531.6 779.8 529.3 781.6C527.1 783.5 524.6 784.7 522.2 785.6C517.2 787.3 512.5 787.5 508.6 787.3C504.7 787.1 501.6 786.5 499.4 786.2C497.3 785.8 496.1 785.6 496.1 785.5C496.1 785.4 497.3 785.5 499.5 785.8C501.6 786 504.7 786.4 508.6 786.5C512.4 786.6 517.1 786.4 521.9 784.7C526.6 783 531.4 779.6 533.7 774.1C534.9 771.5 535.8 768.7 537.2 766.2C538.5 763.7 540.2 761.5 541.9 759.6C545.4 755.8 549.4 753.1 553 751.5C556.5 749.8 559.6 749.1 561.8 748.7C562.9 748.5 563.7 748.5 564.3 748.4C564.833 748.4 565.133 748.4 565.2 748.4Z" fill="#FAFAFA"/>
	<path d="M465.8 765.3C465.8 765.367 465.633 765.433 465.3 765.5C464.967 765.567 464.5 765.667 463.9 765.8C462.7 766.067 460.933 766.367 458.6 766.7C454 767.4 447.3 768.2 438.9 768.1C430.6 767.9 420.5 766.9 410 763.2C404.8 761.4 399.5 758.8 394.3 755.8C389 752.9 383.6 749.8 377.7 747.7C374.7 746.7 371.7 746 368.7 745.7C365.6 745.5 362.6 745.5 359.7 746.1C353.8 747.2 348.5 749.4 343.6 751.9C333.9 757.1 325.7 762.8 318.4 766.8C311.1 770.8 304.6 773.2 300 773.9C297.7 774.5 295.8 774.5 294.6 774.5C294.067 774.567 293.6 774.6 293.2 774.6C292.867 774.6 292.7 774.6 292.7 774.6C292.7 774.533 292.867 774.5 293.2 774.5C293.6 774.433 294.067 774.367 294.6 774.3C295.8 774.2 297.6 774.1 299.9 773.5C304.4 772.6 310.8 770.3 318 766.1C325.3 762.1 333.4 756.3 343.2 751.1C348.1 748.5 353.5 746.2 359.5 745.1C362.5 744.5 365.6 744.5 368.7 744.6C371.9 744.9 375 745.7 378 746.7C384.1 748.9 389.5 752 394.8 754.9C400 757.9 405.2 760.5 410.3 762.3C420.7 766 430.6 767.1 438.9 767.4C447.2 767.6 454 766.9 458.6 766.3C460.933 765.967 462.7 765.7 463.9 765.5C464.433 765.433 464.9 765.4 465.3 765.4C465.633 765.333 465.8 765.3 465.8 765.3Z" fill="#FAFAFA"/>
	<path d="M270.3 776.9C270.1 776.9 270.7 775.7 270.1 773.8C269.6 771.9 267.3 769.6 263.9 768.7C262.1 768.1 260.1 767.8 258 767.4C255.9 766.9 253.5 766.1 251.6 764.4C249.7 762.8 248.2 760.5 247.2 758C246.1 755.5 245.5 752.8 244.9 750.1C244.3 747.3 243.6 744.7 242.6 742.3C241.6 739.9 240.3 737.7 238.8 735.8C236 732 232.4 729.3 229.2 727.7C226 726 223.1 725.2 221.1 724.8C219.1 724.4 217.9 724.4 217.9 724.3C217.967 724.233 218.267 724.2 218.8 724.2C219.3 724.3 220.1 724.3 221.1 724.4C223.2 724.7 226.2 725.4 229.5 727C232.9 728.6 236.6 731.3 239.6 735.2C241.1 737.2 242.5 739.4 243.5 741.9C244.6 744.4 245.3 747.1 245.9 749.8C246.5 752.6 247.1 755.2 248.1 757.6C249.1 760 250.5 762.2 252.2 763.7C254 765.3 256.1 766 258.2 766.5C260.3 767 262.3 767.4 264.1 768C267.7 769.1 270 771.6 270.5 773.7C270.8 774.7 270.7 775.6 270.6 776.1C270.4 776.6 270.3 776.9 270.3 776.9Z" fill="#FAFAFA"/>
	<path d="M428.2 674.3C428.1 674.5 426.3 672.9 422.3 671.9C420.4 671.5 417.8 671.3 415 671.8C412.1 672.3 409 673.4 405.6 675C402.3 676.5 398.8 678.4 394.9 680.4C391.1 682.4 386.9 684.5 382.1 685.8C377.3 687 372 687.1 366.7 686.3C361.4 685.4 356.1 683.5 351 681.1C340.8 676.1 332.3 669.4 324.1 664.2C316 658.9 308 655.1 300.8 653.6C293.6 651.9 287.6 652.4 283.6 653.4C279.6 654.4 277.6 655.5 277.6 655.4C277.6 655.4 279.5 654.1 283.5 653C287.5 651.9 293.7 651.3 301 652.9C308.3 654.3 316.4 658.1 324.6 663.4C332.9 668.6 341.4 675.3 351.5 680.2C356.5 682.6 361.7 684.4 366.9 685.3C372 686.1 377.2 686 381.8 684.8C386.5 683.7 390.7 681.6 394.5 679.7C398.4 677.7 401.9 675.8 405.3 674.3C408.7 672.8 411.9 671.7 414.9 671.2C417.8 670.7 420.4 671 422.4 671.5C424.5 672.1 425.9 672.8 426.8 673.4C427.733 674 428.2 674.3 428.2 674.3Z" fill="#FAFAFA"/>
	<path d="M405.1 928.9C404.3 928.4 403.9 927.4 403.7 926.3C403.2 923.4 404.5 920.6 406.7 918.7C413 913.4 422.7 904.6 412.1 904.6C411.9 904.6 411.733 904.567 411.6 904.5C399.5 904.9 390.1 901.1 388.1 898.2C386.1 895.3 388.9 891.7 392.3 892C392.9 892 393.5 892.1 394.1 892.4C394.3 892.5 394.7 892.6 394.9 892.7C398.3 893.5 403.4 893.7 407.3 893.7C411 893.7 414.7 893.1 418.2 891.8C422.2 890.4 434.8 888.5 437.7 887.2L461 925.7L454.6 930.9L422.5 931C416.7 928.1 418.9 929.2 416.9 928.2C416.9 928.2 407.8 930.6 405.1 928.9Z" fill="#FFBE9D"/>
	<path d="M286.3 923.4C286.3 923.4 286.3 923.233 286.3 922.9C286.3 922.433 286.333 921.867 286.4 921.2C286.4 919.667 286.467 917.533 286.6 914.8C286.8 909.2 287.1 901.3 287.6 891.4C288.4 871.6 289.5 844.3 290.8 814.2C292 784 292.9 756.6 293.3 736.9C293.6 727 293.7 719 293.8 713.4C293.867 710.733 293.933 708.6 294 707C294 706.333 294 705.8 294 705.4C294.067 705 294.1 704.8 294.1 704.8C294.1 704.8 294.1 705 294.1 705.4C294.167 705.8 294.2 706.333 294.2 707C294.2 708.6 294.2 710.733 294.2 713.4C294.3 719 294.2 727 294.1 736.9C293.8 756.7 293 784 291.8 814.2C290.7 844.4 289.3 871.7 288.3 891.5C287.7 901.3 287.3 909.3 287 914.9C286.8 917.567 286.667 919.667 286.6 921.2C286.533 921.867 286.467 922.433 286.4 922.9C286.4 923.233 286.367 923.4 286.3 923.4Z" fill="#263238"/>
	<path d="M373.4 927.2C373.4 927.2 373.367 926.967 373.3 926.5C373.233 925.967 373.167 925.233 373.1 924.3C372.967 922.3 372.767 919.5 372.5 915.9C372.3 912.3 372 907.8 371.8 902.6C371.7 897.4 371.3 891.5 371.3 884.9C371.2 878.4 371 871.2 371.1 863.5C371.1 859.7 371.1 855.7 371.2 851.6C371.267 847.533 371.333 843.333 371.4 839C371.9 821.7 372.8 802.7 374.2 782.7C377 742.9 380.6 706.9 382.9 680.8C384 667.8 384.9 657.3 385.6 650C385.867 646.4 386.1 643.6 386.3 641.6C386.367 640.667 386.433 639.933 386.5 639.4C386.567 638.933 386.6 638.7 386.6 638.7C386.6 638.7 386.6 638.933 386.6 639.4C386.6 639.933 386.567 640.667 386.5 641.6C386.367 643.6 386.2 646.4 386 650C385.5 657.3 384.7 667.9 383.6 680.9C381.5 707 378.1 743 375.3 782.8C373.9 802.7 373 821.7 372.4 839C372.267 843.333 372.167 847.533 372.1 851.6C372 855.7 372 859.7 371.9 863.5C371.8 871.2 371.9 878.4 372 884.9C372 891.5 372.3 897.4 372.4 902.6C372.5 907.8 372.8 912.2 372.9 915.9C373.1 919.5 373.233 922.3 373.3 924.3C373.367 925.233 373.4 925.967 373.4 926.5C373.4 926.967 373.4 927.2 373.4 927.2Z" fill="#263238"/>
	<path d="M388.1 730.2C388 730.1 389.1 729.6 390.4 730.7C390.9 731.2 391.5 732.1 391.4 733.2C391.2 734.4 390.1 735.4 388.9 735.5C387.7 735.8 386.4 735.2 385.9 734.1C385.4 733.1 385.6 732.1 386 731.4C386.8 730 388 730.1 388 730.2C388 730.4 387.1 730.6 386.7 731.8C386.5 732.3 386.4 733.1 386.7 733.7C387.1 734.3 387.9 734.6 388.8 734.5C389.6 734.4 390.3 733.8 390.4 733.1C390.5 732.4 390.2 731.7 389.9 731.2C389 730.3 388.1 730.4 388.1 730.2Z" fill="#263238"/>
	<path d="M382.5 820C382.4 819.9 383.5 819.4 384.8 820.5C385.3 821 385.9 821.9 385.7 823C385.6 824.2 384.5 825.1 383.3 825.3C382.1 825.5 380.8 825 380.3 823.9C379.8 822.9 380 821.9 380.4 821.2C381.2 819.8 382.4 819.9 382.4 820C382.4 820.2 381.5 820.4 381.1 821.5C380.8 822.1 380.8 822.8 381.1 823.5C381.5 824.1 382.3 824.4 383.2 824.3C384 824.1 384.7 823.5 384.8 822.8C384.9 822.2 384.6 821.4 384.2 821C383.4 820 382.5 820.1 382.5 820Z" fill="#263238"/>
	<path d="M526 881.7C526 881.8 525 881.7 523.3 881.4C521.6 881 519.1 880.3 516.2 879.1C510.5 876.6 503.1 871.4 498.2 863C495.8 858.8 494.5 854.4 493.2 850.5C492 846.6 490.6 843.3 488.8 840.7C487.1 838.2 485.2 836.6 483.7 835.7C482.3 834.8 481.4 834.5 481.4 834.4C481.4 834.333 481.633 834.367 482.1 834.5C482.5 834.6 483.2 834.9 483.9 835.3C485.5 836.1 487.6 837.8 489.4 840.3C491.3 842.9 492.8 846.3 494.2 850.2C495.5 854.1 496.7 858.5 499.1 862.5C503.8 870.6 511 875.8 516.5 878.4C522.1 881 526 881.5 526 881.7Z" fill="#FAFAFA"/>
	<path d="M539.6 930.5L547.7 841.6C547.7 841.6 541.4 828 535.6 813L523.7 848.3C517.3 869.7 494.8 877.8 472.6 882L362 902.8L362.7 880.8L362 864.6L445.1 836.2C453.3 834.4 460 828.8 464.1 820.8L485.7 754.7L501.3 691.5C515.7 656 542.1 634.2 583.3 629.6C588.5 628.3 636 629.9 642.2 631.5C672.4 639.4 694.6 642.5 712.9 676.7C719.8 689.5 717.2 712 712.6 737.6L696.9 832.3L730.9 930.9L539.6 930.5Z" fill="#646889"/>
	<path d="M702.4 755.6L670.8 861.3C665.9 877.6 653.1 890.5 636.8 895.4L505.3 930.5L487.8 885.1L606.7 840.9L635.9 735.1C635.9 735.1 642.6 675.9 696.1 679" fill="#646889"/>
	<path d="M696.1 679C696.1 679 695.567 679 694.5 679C693.5 679 691.9 678.9 689.8 679C685.8 679.2 679.6 679.8 672.3 682.6C668.6 684.1 664.7 686.1 660.9 689C657.1 691.9 653.4 695.6 650.1 700.1C643.5 709.1 638.4 721.2 636.2 735.1V735.2C628.1 764.6 618.2 800.6 607.2 841L607.1 841.3H606.9C570.4 854.9 530.2 869.9 488 885.6L488.3 884.9C489.3 887.4 490.4 890.2 491.4 893C496.3 905.8 501.2 918.4 505.7 930.3L505.1 930C545.5 919.2 583.7 909.1 618.1 899.9C622.433 898.767 626.7 897.633 630.9 896.5C632.9 896 635 895.5 637.1 894.9C639.1 894.233 641.067 893.467 643 892.6C650.6 889.2 657 883.9 661.8 877.8C664.2 874.7 666.2 871.4 667.8 868C669.4 864.6 670.5 861 671.5 857.5C673.633 850.567 675.633 843.9 677.5 837.5C685.2 812 691.4 791.6 695.7 777.4C697.8 770.4 699.5 765 700.6 761.2C701.2 759.4 701.633 758 701.9 757C702.233 756.067 702.4 755.6 702.4 755.6C702.4 755.6 702.267 756.1 702 757.1C701.733 758.033 701.333 759.433 700.8 761.3C699.7 765 698.1 770.5 696 777.5C691.8 791.7 685.8 812.2 678.2 837.7C676.333 844.1 674.333 850.767 672.2 857.7C671.2 861.2 670.2 864.8 668.5 868.3C666.9 871.8 664.9 875.1 662.5 878.3C657.6 884.5 651.1 889.9 643.3 893.4C641.367 894.267 639.367 895.033 637.3 895.7C635.3 896.3 633.2 896.8 631.1 897.4C626.9 898.533 622.667 899.667 618.4 900.8C583.9 910 545.8 920.2 505.4 931L504.9 931.1L504.8 930.7C500.2 918.7 495.4 906.1 490.4 893.3C489.4 890.6 488.3 887.8 487.3 885.3L487.2 884.8L487.6 884.6C529.9 868.9 570.1 854 606.5 840.4L606.2 840.8C617.4 800.4 627.4 764.4 635.5 735C637.7 720.9 643 708.8 649.7 699.7C653 695.2 656.8 691.5 660.6 688.6C664.5 685.7 668.4 683.7 672.1 682.3C679.5 679.4 685.7 678.9 689.8 678.8C691.9 678.7 693.5 678.9 694.5 678.9C695.567 678.967 696.1 679 696.1 679Z" fill="#263238"/>
	<path d="M613.3 817.1C613.3 817.2 612.7 817.2 611.7 817.3C610.7 817.3 609.2 817.1 607.4 816.8C603.9 816 599.1 813.9 594.9 810.2C590.8 806.5 588.1 802 586.8 798.6C586.467 797.8 586.2 797.033 586 796.3C585.8 795.633 585.667 795.033 585.6 794.5C585.5 793.5 585.4 792.9 585.5 792.9C585.7 792.9 586 795.1 587.5 798.3C588.9 801.6 591.6 805.8 595.6 809.4C599.6 813 604.2 815.1 607.6 816C611 817 613.3 816.9 613.3 817.1Z" fill="#263238"/>
	<path d="M535.2 736.8C535.2 736.8 534.8 737.9 534.1 739.9C533.3 741.9 532.1 744.7 530.8 748.3C528.2 755.3 524.5 765.3 524.2 776.9C524 782.6 524.8 788.1 526.3 792.8C527.8 797.6 529.8 801.6 531.8 804.9C533.7 808.1 535.5 810.6 536.7 812.3C538 814 538.8 814.9 538.7 815C538.7 815 538.5 814.8 538.1 814.4C537.7 814 537.133 813.367 536.4 812.5C535.1 810.9 533.1 808.5 531.1 805.2C529.1 802 527 797.9 525.4 793.1C523.8 788.3 523 782.7 523.1 776.8C523.5 765.1 527.3 755 530.1 748C531.5 744.5 532.8 741.7 533.7 739.7C534.6 737.8 535.1 736.7 535.2 736.8Z" fill="#263238"/>
	<path d="M618.3 855C618 855.1 616.9 850.8 613.4 846.8C610 842.8 605.9 841.1 606.1 840.8C606.1 840.7 607.2 840.9 608.8 841.7C610.4 842.6 612.4 844 614.2 846.1C616 848.2 617.2 850.4 617.7 852.1C618.3 853.8 618.4 854.9 618.3 855Z" fill="#263238"/>
	<path d="M500 916.8L453.2 919.2C452.6 894.8 490.3 891.4 490.3 891.4L500 916.8Z" fill="#B78876"/>
	<path d="M573.9 467.6C590.4 474.3 601.6 490.5 606.6 507.6C611.5 524.6 611.1 542.8 610.5 560.5C609.8 578.2 608.8 595.9 604.5 613C602.3 621.7 599 630.6 592.5 636.9C586.1 643.3 575.8 646.4 567.7 642.4C561.8 639.5 558.1 633.4 554.7 627.7C548.8 617.5 542.7 607.2 539.4 595.8C533.5 575.1 537.1 553 541.1 531.9C544.167 515.167 547.433 498.5 550.9 481.9" fill="#263238"/>
	<path d="M553.6 468.5C558.3 464.8 564.1 462.7 570.1 462.4C574.9 452.7 586.3 448.2 596.9 446.2C612.6 443.1 610.9 442.7 625.5 449.1C640.1 455.5 660.8 473.8 663.4 489.5C665.9 504.2 670.2 515.9 676.6 529.3C680.5 537.6 688.4 543.4 693 551.3C698 559.9 698.8 570.9 694.9 580.1C691.1 589.1 683.2 597.1 683.9 606.8C684.4 612.4 684.1 616.5 686.4 621.7C694 639.4 690.4 662.9 674.1 673.1C657.8 683.3 634.3 679.8 621.7 665.2C610.8 652.6 608.7 634.5 609.7 617.9C610.8 601.2 614.6 584.6 613.5 567.9" fill="#263238"/>
	<path d="M339.1 930.5L291 805.4L450.1 809L487.3 915.8L572.1 924.7L572.3 930.5C495.5 931.1 417.8 931.1 339.1 930.5Z" fill="#263238"/>
	<path d="M382.3 858.3C386.3 856 391.4 857.4 393.7 861.3C396 865.3 394.6 870.4 390.6 872.7C386.6 875 381.6 873.6 379.3 869.6C377 865.7 378.3 860.6 382.3 858.3Z" fill="white"/>
	<path d="M574.8 633.8L575.4 610.9C575.4 610.9 550.3 606.7 545.1 573.9C542.5 557.6 543.3 530.9 544.7 509C545.9 489.3 563.3 474.7 582.9 476.7L639.7 482.8C645.7 483.4 650.2 488.5 650 494.5L646.6 632.4C647.2 656.6 630 672.8 610.9 672.8C592.1 672.8 573.8 658.2 574.8 633.8Z" fill="#B78876"/>
	<path d="M561.7 523C564 523.1 565.8 525 565.8 527.3C565.7 529.5 563.7 531.2 561.4 531C559.1 530.9 557.3 529 557.4 526.8C557.5 524.6 559.4 522.9 561.7 523Z" fill="#263238"/>
	<path d="M552.1 520.6C553.4 519.6 555.8 518.5 558.6 518.5C561.4 518.5 563.9 519.5 565.3 520.6C566.7 521.6 567.3 522.6 567 522.8C566.5 523.4 563.2 521.1 558.7 521.1C554.2 521.1 551 523.5 550.5 522.9C550.2 522.7 550.7 521.7 552.1 520.6Z" fill="#263238"/>
	<path d="M605.4 523.9C607.7 524 609.5 525.9 609.4 528.1C609.4 530.3 607.4 532 605.1 531.9C602.8 531.8 601 529.9 601.1 527.6C601.1 525.4 603.1 523.7 605.4 523.9Z" fill="#263238"/>
	<path d="M596.5 521.5C597.9 520.4 600.3 519.4 603.1 519.3C605.9 519.3 608.3 520.4 609.8 521.4C611.2 522.5 611.7 523.4 611.5 523.7C611 524.2 607.7 521.9 603.2 522C598.6 522 595.5 524.3 594.9 523.8C594.7 523.5 595.2 522.5 596.5 521.5Z" fill="#263238"/>
	<path d="M571.1 557.3C570.5 557.3 569.8 557.3 569.1 557C568.4 556.8 567.5 556.2 567.2 555.3C566.6 553.6 567.4 552.1 567.8 550.8C568.867 548 569.967 545.067 571.1 542C575.8 529.4 580.1 519.4 580.6 519.6C581.1 519.8 577.7 530.1 572.9 542.6C571.7 545.667 570.567 548.6 569.5 551.4C568.9 552.8 568.5 554 568.7 554.9C568.9 555.6 570 555.9 571.2 556C575.7 556.6 578.5 557.1 578.5 557.3C578.5 557.6 575.7 557.6 571.1 557.3Z" fill="#263238"/>
	<path d="M575.4 610.9C575.4 610.9 597.4 612.3 619.3 599.1C619.3 599.1 608.6 621.7 575.8 618.6L575.4 610.9Z" fill="#AA6550"/>
	<path d="M580.4 568.2C582.1 566.1 584.9 564.9 587.7 565.2C589.7 565.4 591.7 566.4 592.9 567.9C594.1 569.5 594.3 571.8 593.2 573.3C592 575.1 589.5 575.5 587.3 574.8C585.1 574.2 583.3 572.8 581.5 571.4C581 571 580.5 570.6 580.2 570.1C579.9 569.5 579.9 568.8 580.2 568.4" fill="#AA6550"/>
	<path d="M592.5 563.7C592.4 565.7 591.3 568.6 588.7 570.7C586.1 572.8 583 573.5 580.8 573.4C578.6 573.4 577.3 572.7 577.4 572.4C577.5 571.7 582.7 572.3 586.9 568.8C591.1 565.3 591.1 560.4 591.8 560.4C592.2 560.4 592.7 561.6 592.5 563.7Z" fill="#263238"/>
	<path d="M595.6 513.5C597.6 512.7 600.5 512.2 603.7 512.6C606.9 512.9 609.6 514 611.3 515.2C613 516.4 613.8 517.6 613.5 518.1C612.8 519.2 608.5 517.7 603.2 517.1C597.9 516.5 593.3 517.1 592.9 515.8C592.7 515.3 593.7 514.3 595.6 513.5Z" fill="#263238"/>
	<path d="M553.5 507.2C554.8 506.2 557.1 505.2 559.6 505.1C562.2 505.1 564.5 505.9 565.9 506.8C567.3 507.8 567.8 508.8 567.4 509.4C566.7 510.4 563.5 509.6 559.8 509.7C556 509.8 552.9 510.9 552.1 509.8C551.8 509.3 552.2 508.3 553.5 507.2Z" fill="#263238"/>
	<path d="M567 459.5L625.5 453.1L671.7 496L671.3 550.4L675.6 627.3L645.9 644.6C639.1 630.3 632.2 615.4 632.5 599.7C632.8 588.2 637 576.9 636.3 565.4C635.7 556.8 632.5 548.6 631.1 540.1C629.6 531.6 630.5 521.9 636.6 515.9C624.4 512.3 612.1 508.6 601 502.2C590 495.7 581.7 489.8 577.4 477.8C569.7 489.8 557.7 496.4 545.3 503.6L567 459.5Z" fill="#263238"/>
	<path fill-rule="evenodd" clip-rule="evenodd" d="M530.3 649.3C532.7 643.6 541.4 643.8 545.2 639C549.4 633.6 545.7 626 542.6 620C527.5 591 529.1 556.4 531.8 523.8C533 509.8 534.4 495.6 540.4 482.9C552.5 457.7 577.2 440.3 613.5 441.9C654.1 444.3 663.1 472.1 679.1 497C695.1 521.8 710.4 556 705.2 585.1C702.6 599.6 686.9 610.8 689.7 625.4C691.5 634.5 701.1 645.5 699.3 654.6C696.7 667.1 678.6 671.4 668 678.5C657.1 685.7 648 695.4 638.5 704.3C628.9 713.3 618.4 721.8 606 726C593.6 730.2 578.8 729.4 568.7 721.1C552.2 707.5 553.8 680.4 538.8 665.3C534.2 660.7 527.7 655.2 530.3 649.3ZM553.6 492C547.5 501.1 544 513 542.6 523.8C540.2 542.2 541.9 560.9 545 579.1C548 597.4 555.7 615.4 569.1 628.1C582.5 640.9 598.3 644.1 616.2 639.5C630.8 635.7 628.7 592.6 628.7 592.6C628.7 592.6 628.5 558.6 628.7 545.1C628.9 527 628.9 506.3 619.3 493.4C603.2 472 588.8 471.8 583.9 472C583.9 472 565.7 473.7 553.6 492Z" fill="#76628B"/>
	<g opacity="0.3">
		<path d="M696.1 640.5C684.1 647.1 675.8 656.8 666.1 666.3C656.3 675.9 645.4 685.1 632.1 688.6C618.9 692 602.8 687.9 596.2 675.9C633.7 682.3 677.3 652.4 690.1 616.5C690.1 616.5 688.7 621.6 689.9 626C691.1 630.4 696.1 640.5 696.1 640.5Z" fill="#76628B"/>
	</g>
	<g opacity="0.3">
		<path d="M546.9 630.6C549.3 640.1 556.3 649.2 565 653.6C567 654.6 569.1 655.4 570.7 656.9C572.3 658.5 573.4 660.9 572.5 662.9C571.5 665.2 568.4 666 566 665.3C563.6 664.6 561.7 662.8 559.9 661.1C553.4 654.7 546.7 648.3 544.8 639.5C544.8 639.5 546.8 637.1 547 635C547.2 632.9 546.9 630.6 546.9 630.6Z" fill="#76628B"/>
	</g>
	<path d="M687.1 623.6C687.167 623.6 687 624 686.6 624.8C686.2 625.5 685.6 626.6 684.8 628C683.1 630.8 680.5 634.7 677 639.2C673.5 643.8 668.9 649 663.3 654.2C657.7 659.3 650.9 664.5 642.9 668.3C638.9 670.1 634.8 671.5 630.8 672.7C626.8 673.8 622.8 674.7 619.1 675.3C611.5 676.5 604.6 676.5 598.8 676C593.1 675.5 588.5 674.4 585.4 673.5C583.8 673 582.7 672.6 581.9 672.3C581.1 671.967 580.7 671.8 580.7 671.8C580.7 671.7 582.4 672.3 585.5 673.1C588.6 673.9 593.2 674.8 598.9 675.3C604.6 675.7 611.4 675.6 618.9 674.3C622.7 673.7 626.5 672.8 630.5 671.7C634.4 670.5 638.5 669.2 642.5 667.4C650.3 663.6 657 658.5 662.7 653.5C668.3 648.4 672.8 643.3 676.4 638.8C680 634.3 682.7 630.5 684.4 627.8C685.3 626.5 685.9 625.4 686.4 624.7C686.867 623.967 687.1 623.6 687.1 623.6Z" fill="#263238"/>
	<path d="M595.1 660.7C595.1 660.8 594.3 661 592.7 661.3C591.1 661.6 588.9 661.9 586 661.9C580.4 662 572.3 660.6 564.8 656.1C557.2 651.6 552.2 645.1 549.6 640.1C548.3 637.6 547.5 635.4 547 633.9C546.5 632.4 546.4 631.5 546.4 631.5C546.6 631.4 547.5 634.9 550.3 639.7C553 644.6 558 650.8 565.3 655.2C572.6 659.6 580.5 661.1 586 661.2C591.6 661.3 595.1 660.5 595.1 660.7Z" fill="#263238"/>
	<path d="M587.3 710.3C587.3 710.233 587.7 710.133 588.5 710C589.2 709.8 590.4 709.6 591.8 709.3C594.7 708.7 598.9 707.6 604 705.9C614.1 702.5 627.4 696 640.5 686.3C653.6 676.7 664.3 666.5 672 659.1C675.8 655.5 678.8 652.5 681.1 650.3C682.1 649.367 682.933 648.567 683.6 647.9C684.133 647.367 684.433 647.133 684.5 647.2C684.5 647.2 684.233 647.5 683.7 648.1C683.1 648.767 682.333 649.6 681.4 650.6C679.3 652.8 676.3 655.9 672.5 659.6C665 667.2 654.3 677.5 641.1 687.2C627.9 696.9 614.4 703.4 604.2 706.6C599.1 708.2 594.9 709.2 591.9 709.7C590.4 710 589.3 710.1 588.5 710.2C587.7 710.267 587.3 710.3 587.3 710.3Z" fill="#263238"/>
	<path fill-rule="evenodd" clip-rule="evenodd" d="M1316.2 811.6C1312.8 835.6 1298.8 851.4 1272 869.6L1197.6 917.8L1197.9 930.9L1025.4 931.1C1025.4 931.1 900 837.3 897 804.4C894.7 778.4 936.1 723.3 987.8 658.5L987.9 658.6C1016.2 621 1046.9 626.7 1060.4 625.6L1133.2 624.1C1170.6 624.7 1190 634.3 1214.4 662.6C1215.7 664 1218.1 666.4 1220.9 669.2L1221.1 669L1291.6 752.2C1306.1 768.2 1319.2 790.2 1316.2 811.6ZM1024.1 850.2L1025.4 821.4L1017.7 747.8C1002.9 764.8 975.7 796.7 975.7 801.7L1024.1 850.2ZM1246.6 808.3L1190.4 750.1L1194.6 847.2L1246.6 808.3Z" fill="#646889"/>
	<path d="M1133.9 888.6L1006.4 951.6C1003 953.3 998.9 951.9 997.2 948.5L956 865.1C954.4 861.7 955.8 857.6 959.1 856L1086.6 793C1090 791.3 1094.1 792.7 1095.8 796.1L1137 879.4C1138.7 882.8 1137.3 886.9 1133.9 888.6Z" fill="#E0E0E0"/>
	<path d="M1045.9 864.4C1049.6 862.1 1054.5 863.3 1056.8 867C1059 870.7 1057.9 875.6 1054.2 877.8C1050.4 880.1 1045.6 879 1043.3 875.2C1041 871.5 1042.2 866.7 1045.9 864.4Z" fill="white"/>
	<path d="M1189.3 680.9C1189.3 680.9 1189.3 681.133 1189.3 681.6C1189.3 682.067 1189.33 682.667 1189.4 683.4C1189.4 685.133 1189.43 687.533 1189.5 690.6C1189.5 696.8 1189.6 705.8 1189.7 716.9C1189.8 739.1 1190.6 769.7 1192.4 803.5C1194 837.4 1195.8 868 1196.8 890.2C1197.3 901.3 1197.6 910.2 1197.8 916.5C1197.87 919.5 1197.9 921.867 1197.9 923.6C1197.9 924.4 1197.9 925.033 1197.9 925.5C1197.9 925.9 1197.9 926.1 1197.9 926.1C1197.9 926.1 1197.87 925.9 1197.8 925.5C1197.8 925.033 1197.77 924.4 1197.7 923.6C1197.63 921.867 1197.53 919.5 1197.4 916.5C1197 910.2 1196.6 901.2 1196 890.2C1194.8 868 1193.2 837.4 1191.3 803.6C1189.6 769.7 1188.8 739.1 1188.9 716.9C1189 705.8 1189 696.8 1189.1 690.6C1189.1 687.533 1189.13 685.133 1189.2 683.4C1189.2 682.667 1189.2 682.067 1189.2 681.6C1189.2 681.133 1189.23 680.9 1189.3 680.9Z" fill="#263238"/>
	<path d="M1009.7 637.4C1018.9 630.7 1029.6 632.7 1038.8 639.4C1048 646.1 1053.1 657.4 1054.1 668.8C1055 680.1 1052.1 691.5 1047.8 702C1040.8 718.8 1030.6 732.5 1015.2 749.8L975.7 801.7L1052 876.2L1020.4 926.1L956.5 874.7C934.7 856.3 916.1 837.4 902.5 817.9" fill="#646889"/>
	<path d="M902.5 817.9C902.5 817.9 902.633 818.1 902.9 818.5C903.233 818.967 903.7 819.567 904.3 820.3C905.5 821.9 907.2 824.3 909.6 827.3C914.3 833.2 921.6 841.7 931.7 851.6C936.7 856.6 942.4 862 948.7 867.6C955.1 873.2 962.3 878.9 969.9 885C985.1 897.2 1002.2 910.9 1020.7 925.7L1020 925.8C1029.8 910.3 1040.4 893.5 1051.5 875.9L1051.6 876.6C1038.9 864.2 1025.7 851.3 1012.3 838.2C999.6 825.8 987.3 813.8 975.3 802.1L975 801.8L975.3 801.4C989.2 783.1 1002.5 765.7 1014.8 749.6L1014.9 749.5C1022.6 740.8 1029.8 732.2 1035.8 723.3C1041.7 714.5 1046.3 705.3 1049.5 696.3C1052.7 687.3 1054.3 678.4 1053.8 670.1C1053.4 661.8 1050.8 654.4 1047.1 648.6C1043.3 642.8 1038.3 638.9 1033.5 636.4C1028.7 634 1024 633.2 1020.3 633.5C1016.6 633.8 1013.9 635 1012.2 635.9C1010.5 636.8 1009.7 637.5 1009.7 637.4C1009.7 637.4 1009.9 637.267 1010.3 637C1010.7 636.7 1011.3 636.2 1012.1 635.8C1013.8 634.8 1016.5 633.6 1020.3 633.2C1024 632.9 1028.8 633.6 1033.7 636.1C1038.6 638.4 1043.7 642.4 1047.5 648.3C1051.4 654.1 1054 661.7 1054.5 670C1055 678.4 1053.4 687.5 1050.2 696.6C1047.1 705.7 1042.5 714.9 1036.5 723.8C1030.5 732.7 1023.3 741.4 1015.6 750.2V750.1C1003.3 766.3 990 783.7 976.1 802.1L976 801.4C988 813 1000.3 825.1 1013 837.4C1026.5 850.6 1039.6 863.4 1052.3 875.8L1052.6 876.1L1052.4 876.5C1041.3 894 1030.6 910.9 1020.8 926.3L1020.5 926.8L1020.1 926.5C1001.6 911.6 984.5 897.8 969.4 885.6C961.8 879.4 954.6 873.8 948.3 868.1C941.9 862.4 936.3 857.1 931.3 852.1C921.3 842 914 833.5 909.4 827.4C907 824.4 905.3 822 904.2 820.4C903.6 819.6 903.167 819 902.9 818.6C902.633 818.133 902.5 817.9 902.5 817.9Z" fill="#263238"/>
	<path d="M1273.9 806.8C1273.8 807 1272.4 806.3 1269.9 805.6C1267.5 804.8 1264 804.1 1260.1 804.3C1256.2 804.5 1252.8 805.6 1250.4 806.6C1248.1 807.6 1246.7 808.4 1246.6 808.2C1246.5 808.1 1247.8 807.1 1250.1 805.9C1252.5 804.7 1256 803.5 1260 803.3C1264.1 803.1 1267.7 803.9 1270.1 804.9C1272.6 805.8 1274 806.7 1273.9 806.8Z" fill="#263238"/>
	<path d="M1067.6 923.8C1065.6 924.8 1059.5 927.8 1053.7 930.7C1046.9 934.1 1038.6 933.2 1032.7 928.3L1024 921.2L1048 883.5C1050.8 884.7 1062.4 886.4 1066.4 887.8C1069.8 889 1073.5 889.6 1077.2 889.6C1081 889.6 1086 889.4 1089.4 888.6C1089.6 888.5 1090 888.4 1090.2 888.3C1090.8 888 1091.4 888 1091.9 888C1095.4 887.6 1098.1 891.2 1096.2 894.1C1094.2 897 1084.9 900.7 1072.9 900.3C1072.7 900.3 1072.53 900.333 1072.4 900.4C1061.9 900.3 1071.5 909.1 1077.7 914.4C1079.9 916.2 1081.2 919 1080.7 921.9C1080.6 922.9 1080.2 923.9 1079.3 924.4C1076.7 926.1 1067.6 923.8 1067.6 923.8Z" fill="#A36853"/>
	<path d="M1099.7 658.8C1081.3 658.8 1064.8 643.1 1065 619.8L1061.6 486.7L1062 486.8C1061.9 481 1066.2 476.1 1072 475.5L1126.8 469.7C1145.7 467.7 1162.4 481.9 1163.6 500.8C1164.9 521.9 1165.7 547.7 1163.2 563.4C1158.2 595 1134 599 1134 599L1134.6 621.1C1135.5 644.6 1117.9 658.8 1099.7 658.8Z" fill="#A36853"/>
	<path d="M1151.4 518C1151.4 520.1 1149.7 522 1147.5 522.1C1145.2 522.2 1143.3 520.6 1143.3 518.4C1143.2 516.3 1144.9 514.5 1147.2 514.3C1149.4 514.2 1151.3 515.9 1151.4 518Z" fill="#263238"/>
	<path d="M1158 514.2C1157.5 514.8 1154.5 512.5 1150.1 512.5C1145.7 512.5 1142.5 514.7 1142.1 514.2C1141.8 513.9 1142.3 513 1143.7 512C1145.1 511 1147.4 510 1150.2 510C1152.9 510 1155.2 511 1156.5 512C1157.8 513.1 1158.3 514 1158 514.2Z" fill="#263238"/>
	<path d="M1109.3 518.8C1109.3 520.9 1107.6 522.8 1105.3 522.9C1103.1 523 1101.2 521.4 1101.2 519.2C1101.1 517.1 1102.8 515.3 1105.1 515.1C1107.3 515 1109.2 516.7 1109.3 518.8Z" fill="#263238"/>
	<path d="M1115.1 515.1C1114.6 515.6 1111.6 513.3 1107.2 513.3C1102.9 513.3 1099.7 515.5 1099.2 515C1098.9 514.8 1099.5 513.8 1100.9 512.8C1102.2 511.8 1104.6 510.8 1107.3 510.8C1110 510.8 1112.3 511.8 1113.6 512.8C1114.9 513.9 1115.4 514.8 1115.1 515.1Z" fill="#263238"/>
	<path d="M1131 547.4C1131 547.2 1133.7 546.7 1138.1 546.1C1139.2 546 1140.2 545.8 1140.4 545C1140.7 544.2 1140.2 543 1139.7 541.7C1138.63 539.033 1137.53 536.233 1136.4 533.3C1131.8 521.2 1128.5 511.2 1129 511.1C1129.5 510.9 1133.6 520.5 1138.1 532.6C1139.23 535.6 1140.3 538.433 1141.3 541.1C1141.7 542.4 1142.5 543.8 1141.9 545.5C1141.6 546.3 1140.8 546.9 1140.1 547.1C1139.3 547.4 1138.7 547.4 1138.2 547.4C1133.7 547.6 1131 547.7 1131 547.4Z" fill="#263238"/>
	<path d="M1134.2 608.6C1102.6 611.5 1091.7 587.7 1091.7 587.7C1112.7 600.4 1134 599 1134 599L1134.2 608.6Z" fill="#8F5039"/>
	<path d="M1117.1 507.4C1116.7 508.6 1112.3 508 1107.2 508.7C1102.1 509.2 1097.9 510.7 1097.3 509.6C1097 509.1 1097.7 508 1099.4 506.8C1101 505.7 1103.6 504.6 1106.7 504.3C1109.8 503.9 1112.6 504.4 1114.5 505.2C1116.3 505.9 1117.3 506.9 1117.1 507.4Z" fill="#263238"/>
	<path d="M1156.4 501.6C1155.7 502.6 1152.6 501.6 1149 501.5C1145.4 501.4 1142.4 502.2 1141.7 501.2C1141.3 500.7 1141.8 499.7 1143.2 498.7C1144.5 497.8 1146.7 497 1149.2 497.1C1151.7 497.2 1153.8 498.1 1155.1 499.1C1156.3 500.1 1156.8 501.1 1156.4 501.6Z" fill="#263238"/>
	<path d="M1063.9 564.2C1055.2 561.6 1050.5 548.1 1050.2 539C1049.9 533.5 1051.6 527.5 1048.9 522.8C1046.4 518.6 1041 516.6 1039.1 512.1C1035.8 504 1046.2 496.1 1045.5 487.4C1045.1 482.9 1041.8 479.3 1040.4 475C1036.8 464.8 1045.1 453.3 1055.5 450.3C1065.9 447.3 1077.1 450.9 1086.4 456.5C1089.1 444.4 1104.5 437.1 1115.6 442.6C1119.1 444.3 1122.7 447.2 1126.6 446.4C1131 445.5 1131.3 438.9 1134 435.4C1140.9 426.4 1158.6 424.7 1167.4 431.8C1176.3 438.9 1177.8 454.5 1174.7 465.4C1172.9 471.5 1166.7 480 1160.6 481.7C1156.7 482.8 1149.9 480.9 1147 475.3C1136.8 481 1123.3 480.1 1114 473C1109.3 484.5 1094 491.4 1082.9 487.8C1084.8 506 1080.3 519.5 1082.3 537.7C1079.63 538.5 1076.97 539.3 1074.3 540.1C1073.9 534.7 1075.5 530.8 1073.2 522.9C1071.7 517.7 1067.4 516 1062 517" fill="#263238"/>
	<path d="M1070.2 543.9C1066.5 545.7 1061.7 544.2 1059 541.1C1056.2 538 1055.2 533.6 1055.2 529.5C1055.1 526.8 1055.5 524.1 1056.8 521.7C1058 519.3 1059.6 517.2 1062.8 516.9" fill="#A36853"/>
	<path d="M1068.3 537.1C1068.3 537.2 1067.1 537.6 1065.2 536.9C1064.3 536.6 1063.3 536 1062.5 534.9C1061.7 533.9 1061.2 532.5 1061 531C1060.9 529.6 1061.3 528.1 1061.9 527C1062.5 525.8 1063.3 525 1064.1 524.4C1065.7 523.4 1067 523.4 1067 523.5C1067 523.7 1065.9 523.9 1064.6 525C1063.2 526.1 1061.8 528.3 1062.1 531C1062.2 533.6 1064 535.6 1065.5 536.3C1067.1 537 1068.3 536.9 1068.3 537.1Z" fill="#8F5039"/>
	<path d="M1114.8 547.8C1119.8 552.6 1125.4 556.8 1131.5 560.1C1128.7 564.2 1121 565.6 1117.1 562.9C1109.1 557.2 1114.8 547.8 1114.8 547.8Z" fill="#FAFAFA"/>
	<path d="M1130 572.1C1129.9 572.3 1127.8 570.9 1124.9 570.9C1122 570.8 1120 572.3 1119.9 572C1119.8 572 1120.2 571.4 1121.1 570.9C1121.9 570.3 1123.3 569.8 1125 569.9C1126.6 569.9 1128 570.4 1128.8 570.9C1129.7 571.5 1130.1 572 1130 572.1Z" fill="#AA6550"/>
	<path d="M1038 688.5C1038.3 685.4 1036.1 673 1036.2 668.8C1036.2 665.1 1035.6 661.5 1034.4 658C1033.2 654.3 1031.4 649.6 1029.5 646.7C1029.4 646.5 1029.2 646.2 1029 646C1028.6 645.6 1028.3 645 1028.1 644.5C1026.7 641.4 1029.2 637.6 1032.6 638.6C1035.9 639.5 1042.4 647.1 1046 658.6C1046.07 658.733 1046.13 658.9 1046.2 659.1C1050 670.6 1056.4 652.8 1058.9 646.4C1061.3 640 1069.8 620.4 1072.4 619.7C1076.1 618.6 1078 622.5 1075.5 628.8C1072.8 635.3 1066.4 654.8 1069.8 656C1073.2 657.2 1085.2 624.3 1085.2 624.3C1085.2 624.3 1086.7 616.9 1090.7 618.1C1097.9 620.4 1082.6 654.4 1081 657.6C1079.9 659.8 1083.6 661.3 1084.6 658.8C1085.7 656.3 1095.9 625.7 1103.2 628C1108.9 629.7 1090.9 656 1092.3 663.6C1093.6 671.2 1103.9 642.2 1109.2 644.1C1111.2 644.8 1112.6 645.6 1104.3 661.4C1099.9 669.8 1090.2 687.8 1081.3 700.2" fill="#FFAD9D"/>
	<path d="M1089.3 701.4L1040.3 824.7C1030.4 846.6 1008.4 860.5 984.3 859.9C960.7 859.4 939.7 845 930.5 823.3L916.2 789.1L907.8 833.6L945.6 930.6L736.1 931L756.5 849.1L756.1 835.9L737.8 853C732.5 857.6 720.4 869.3 706.2 871.5C671.8 875.5 647 843 664.3 784.7C666.8 775.4 680.9 723.4 693.5 689.5C707.5 651.8 736.4 644 736.4 644C792.1 624.5 840.2 619.4 891.2 634.1C892.5 634.3 903.5 636.7 915.6 642.4C916.333 642.733 917.067 643.033 917.8 643.3V643.6C928.7 649.1 939.9 657.4 945.6 669.4C960.3 700.9 987.7 780 987.7 780L1036.1 684.1L1089.3 701.4Z" fill="#76628B"/>
	<path d="M783.7 803.7C783.8 803.7 783.1 804.7 781.9 806.4C780.6 808.1 778.7 810.5 776.3 813.4C771.5 819.2 764.5 827 756.5 835.3C748.4 843.5 740.7 850.6 735 855.5C732.1 858 729.7 859.9 728 861.2C726.4 862.5 725.4 863.2 725.4 863.1C725.3 863.1 726.2 862.3 727.8 860.9C729.4 859.5 731.7 857.5 734.5 855C740.1 849.9 747.7 842.8 755.7 834.5C763.8 826.3 770.8 818.6 775.7 812.9C778.2 810.1 780.2 807.7 781.5 806.1C782.9 804.5 783.7 803.6 783.7 803.7Z" fill="#263238"/>
	<path d="M908.4 830.5C908.333 830.5 908.367 830.1 908.5 829.3C908.633 828.5 908.8 827.467 909 826.2C909.5 823.3 910.3 819.3 911.2 814.5C913 804.7 915.5 791.2 917.5 776.1C918.033 772.3 918.5 768.6 918.9 765C919.3 761.4 919.7 758.1 919.5 754.8C919.2 748.2 917.9 742.4 916.9 737.5C915.8 732.6 914.8 728.7 914.3 726C914.033 724.6 913.867 723.533 913.8 722.8C913.733 722.067 913.7 721.7 913.7 721.7C913.767 721.7 913.867 722.067 914 722.8C914.133 723.533 914.367 724.567 914.7 725.9C915.3 728.6 916.4 732.5 917.6 737.4C918.8 742.2 920.1 748.1 920.4 754.7C920.6 758.1 920.3 761.6 919.9 765.1C919.5 768.7 919.067 772.4 918.6 776.2C916.6 791.3 913.9 804.9 911.9 814.7C910.9 819.5 910 823.4 909.4 826.3C909.133 827.567 908.9 828.6 908.7 829.4C908.5 830.133 908.4 830.5 908.4 830.5Z" fill="#263238"/>
	<path d="M983.4 803.5C983.1 803.4 983.8 798.2 985 791.7C986.2 785.3 987.4 780.1 987.7 780.2C988 780.2 987.2 785.5 986 791.9C984.8 798.3 983.6 803.5 983.4 803.5Z" fill="#263238"/>
	<path d="M990.7 806.3C990.5 806.3 989.5 800.3 988.7 792.8C987.8 785.3 987.3 779.2 987.6 779.2C987.9 779.2 988.8 785.2 989.7 792.7C990.6 800.2 991 806.3 990.7 806.3Z" fill="#263238"/>
	<path d="M836.2 930.6C835.9 930.6 835.7 898.4 835.7 858.8C835.7 819.1 835.9 786.9 836.2 786.9C836.5 786.9 836.7 819.1 836.7 858.8C836.7 898.4 836.5 930.6 836.2 930.6Z" fill="#263238"/>
	<g opacity="0.2">
		<path d="M914.8 727.5C924.6 746.3 933.2 765 934 786.2C934.6 802.7 928 816.5 934.8 831.5C934.4 831.8 928.6 818.8 926 812.7C920.7 800.2 916.1 789 916.1 789C916.1 789 919.7 760.8 920 756C920.3 751.1 914.8 727.5 914.8 727.5Z" fill="#76628B"/>
	</g>
	<g opacity="0.2">
		<path d="M671.8 823.1C671.8 832.5 665.9 801.4 671.4 793.7C675.2 788.3 681.8 785.8 688.2 784.1C694.6 782.5 701.3 781.5 707 778.1C714.4 773.8 719 766.2 724.2 759.4C729.3 752.6 736.1 723.9 744.6 723.3V765.3C724.6 777.8 703.5 790.5 681.4 800.7C681.4 800.7 671.8 808.3 671.8 823.1Z" fill="#76628B"/>
	</g>
	<g opacity="0.2">
		<path d="M794.9 790.8L838.1 791.3C838.9 798.9 839.733 806.533 840.6 814.2C825.5 815.3 810.1 812.6 795.2 815.2C779.8 817.9 769.8 828.2 756.1 835.9L794.9 790.8Z" fill="#76628B"/>
	</g>
	<path d="M744.6 722.8C744.9 722.8 745.2 732.1 745.2 743.7C745.2 755.2 744.9 764.5 744.6 764.5C744.3 764.5 744.1 755.2 744.1 743.7C744.1 732.1 744.3 722.8 744.6 722.8Z" fill="#263238"/>
	<path d="M671.7 822.9C671.6 822.9 671.4 821.4 671.5 819.1C671.6 816.8 672.2 813.7 673.6 810.4C675 807.2 676.9 804.5 678.5 802.9C680.1 801.2 681.3 800.4 681.3 800.5C681.6 800.7 677.2 804.5 674.6 810.8C671.8 817.1 672 822.9 671.7 822.9Z" fill="#263238"/>
	<path d="M683.3 799.6C685.4 798.6 688.2 797.2 691.5 795.6C698.4 792.2 707.8 787.4 717.9 781.5C728 775.5 736.9 769.7 743.2 765.3C746.2 763.2 748.7 761.5 750.6 760.1C752.4 758.9 753.4 758.2 753.4 758.3C753.4 758.4 752.5 759.1 750.9 760.5C749.2 761.8 746.7 763.7 743.6 766C737.5 770.5 728.7 776.5 718.5 782.4C708.4 788.3 698.9 793.1 691.9 796.3C688.4 797.9 685.5 799.2 683.5 800C681.5 800.8 680.4 801.2 680.3 801.1C680.3 801.1 681.4 800.5 683.3 799.6Z" fill="#263238"/>
	<path fill-rule="evenodd" clip-rule="evenodd" d="M945.4 564.8C942.5 570.9 936.5 575.2 929.9 576.3C929.3 584.4 924.9 592.3 917.8 596.5C907.5 602.7 892.8 599.9 885.3 590.4C883.6 595.7 878.7 599.8 873.2 600.6C867.7 601.3 861.9 598.7 858.8 594.1C854.3 602.2 848.1 609.7 839.7 613.5C831.3 617.3 820.4 616.5 814 609.9C811.6 607.4 809.5 604 806.1 603.4C802.6 602.9 799.6 605.6 796.6 607.5C789.2 612.3 779.1 612.7 771.4 608.5C763.6 604.3 758.5 595.6 758.6 586.8C754.9 592.8 746.1 594.5 739.9 591.2C733.6 588 730 580.7 730.1 573.7C730.1 570.4 730.8 567.2 731.9 564.2C727.8 565.7 723 565.3 719.7 562.5C715.7 558.9 714.9 552.6 716.9 547.7C718.9 542.7 723.2 538.9 727.8 536.3C729.6 535.3 731.5 534.2 732.3 532.3C733.3 529.9 731.8 527.3 730.6 525C725 514.5 723.3 501.8 727.3 490.6C731.3 479.5 741.5 470.5 753.3 469.1C760.4 468.3 768.5 470 774.2 465.7C778.5 462.4 780 456.8 782.3 452C786.5 442.9 795.1 435.6 803.5 430.3C810.1 426.1 825.6 423 836.4 423.6C839.4 423.3 842.5 423.4 845.5 423.9C861.1 426.1 875.2 437.1 881.1 451.8L878.8 453.4C883.8 450 891.1 452.7 894.7 457.6C895.8 459 896.7 460.6 897.3 462.3L897.1 460.3C897.3 461.233 897.467 462.133 897.6 463C898.9 466.3 899.5 469.8 900 473.4C900.533 475 901.1 476.6 901.7 478.2C904.1 483.9 907.9 489.2 913.2 492.3C917.6 495 922.8 495.9 927.6 497.9C932.3 499.8 937 503.4 937.9 508.4C939.1 515.8 931.8 522.8 933.2 530.1C934.2 535.7 939.7 539.1 943.1 543.6C947.7 549.6 948.5 558.1 945.4 564.8ZM878.7 453.4H878.8C878.733 453.4 878.7 453.4 878.7 453.4ZM742.2 549.6C742.067 549.667 742 549.7 742 549.7C742 549.767 742 549.8 742 549.8C742.067 549.733 742.133 549.667 742.2 549.6Z" fill="#263238"/>
	<path d="M867.8 628.3C881.7 631 891.1 634 891.1 634C891.1 634 847.2 728.9 836.2 730C825.2 731.2 780.4 631 780.4 631C785.1 629.6 794.7 627.5 798.9 626.6L792.8 481.5C792.7 475.4 797.3 470.2 803.3 469.5L861.3 463.4C881.3 461.3 898.9 476.3 900.2 496.3C901.6 518.6 902.4 545.8 899.8 562.4C894.5 595.8 868.9 600.1 868.9 600.1C868.9 600.1 867.6 613 867.8 628.3Z" fill="#FFAD9D"/>
	<path d="M887.2 514.4C887.3 516.7 885.5 518.6 883.1 518.7C880.8 518.9 878.8 517.1 878.7 514.9C878.6 512.6 880.5 510.7 882.8 510.6C885.2 510.4 887.2 512.2 887.2 514.4Z" fill="#263238"/>
	<path d="M894.3 510.5C893.8 511 890.5 508.6 885.9 508.6C881.3 508.6 877.9 511 877.4 510.4C877.2 510.1 877.7 509.1 879.2 508.1C880.6 507 883.1 506 886 506C888.9 506 891.3 507 892.7 508.1C894.1 509.2 894.6 510.2 894.3 510.5Z" fill="#263238"/>
	<path d="M842.7 515.3C842.8 517.5 841 519.5 838.6 519.6C836.2 519.7 834.3 518 834.2 515.7C834.1 513.5 836 511.5 838.3 511.4C840.7 511.3 842.7 513 842.7 515.3Z" fill="#263238"/>
	<path d="M849 511.3C848.4 511.9 845.2 509.5 840.6 509.5C836 509.4 832.6 511.8 832.1 511.3C831.8 511 832.4 510 833.9 508.9C835.3 507.9 837.8 506.8 840.7 506.8C843.5 506.8 845.9 507.9 847.3 509C848.7 510.1 849.2 511.1 849 511.3Z" fill="#263238"/>
	<path d="M865.7 545.5C865.7 545.3 868.5 544.8 873.2 544.2C874.4 544.1 875.5 543.8 875.7 543C876 542.2 875.5 540.9 874.9 539.5C873.767 536.7 872.6 533.733 871.4 530.6C866.6 517.8 863.1 507.3 863.6 507.1C864.1 506.9 868.4 517.1 873.3 529.9C874.433 533.033 875.533 536.033 876.6 538.9C877.1 540.2 877.8 541.7 877.2 543.5C876.9 544.4 876 545 875.3 545.2C874.5 545.5 873.9 545.5 873.3 545.5C868.6 545.8 865.7 545.8 865.7 545.5Z" fill="#263238"/>
	<path d="M868.4 608C835 611.1 824.1 588.2 824.1 588.2C846.4 601.5 868.9 600.1 868.9 600.1L868.4 608Z" fill="#ED9482"/>
	<path d="M852.7 552.7C853.8 552.1 854.9 551.4 856.1 551.3C857.3 551.1 858.7 551.6 859.2 552.8C859.4 553.1 859.5 553.6 859.7 553.9C860.4 554.8 861.8 554.5 862.9 554.8C864.6 555.3 865.3 557.6 864.7 559.2C864 560.9 862.4 562 860.8 562.7C858.5 563.6 856 564 853.6 563.7C851.9 563.5 850.1 562.9 849.2 561.5C848 559.8 848.4 557.4 849.5 555.7C850.7 554.1 852.4 552.9 854.1 551.8" fill="#ED9482"/>
	<path d="M852.1 548.7C852.9 548.7 852.9 553.7 857.2 557.2C861.5 560.8 866.8 560.2 866.8 560.9C866.9 561.2 865.6 561.9 863.4 562C861.2 562 858 561.3 855.3 559.2C852.7 557 851.6 554.1 851.4 552C851.2 549.9 851.8 548.7 852.1 548.7Z" fill="#263238"/>
	<path d="M851 503.3C850.6 504.5 846 503.9 840.6 504.6C835.2 505.1 830.8 506.7 830.1 505.6C829.8 505 830.5 503.9 832.3 502.6C834 501.4 836.8 500.3 840.1 499.9C843.3 499.6 846.3 500.1 848.3 500.9C850.2 501.7 851.2 502.7 851 503.3Z" fill="#263238"/>
	<path d="M892.6 500C891.8 501.1 888.6 500 884.8 500C881 499.8 877.7 500.7 877 499.6C876.7 499 877.2 498 878.6 497C880 496 882.3 495.2 884.9 495.3C887.6 495.4 889.8 496.3 891.2 497.4C892.5 498.5 893 499.5 892.6 500Z" fill="#263238"/>
	<path d="M880.7 458.4C878.2 470.2 870.8 480.9 860.6 487.4C850.4 493.8 837.6 496 825.8 493.2C824.1 507.8 814 521.2 800.4 527C809.7 543.6 813.5 563.1 811.2 582C810.2 590.1 807.9 598.5 801.8 604C792.5 612.3 776.9 610.3 768 601.6C759.4 593.3 756.4 580.2 758.8 568.5C761.2 556.8 768.6 546.6 777.8 539C770.1 537.7 763.3 531.7 761.1 524.2C758.8 516.7 761.2 508 766.9 502.7C769.5 500.2 772.8 498.4 774.8 495.3C776.7 492.5 777.1 489 778.3 485.7C781.2 477.3 788.8 471.5 795.9 466.1C802 461.6 808.6 456.9 816.2 456.9C820.2 456.9 824.2 458.3 828.2 457.8C833.7 457 838 452.9 842.6 449.7C849 445.2 857 442.5 864.7 443.7C872.4 444.9 879.6 450.7 881.1 458.4" fill="#263238"/>
	<path d="M876.4 460.3C883.1 461.3 888.8 465.8 892.7 471.3C896.6 476.7 899 483.1 901.3 489.4C895.3 486.7 889.3 483.9 884.5 479.3C879.8 474.8 876.5 468.2 877.7 461.7" fill="#263238"/>
	<path d="M730.7 538.8C730.7 538.8 730.4 538.1 730.5 536.7C730.7 535.3 731.5 533.2 733.5 531.5C735.6 529.8 738.9 528.9 742.7 529C746.4 529.1 750.5 530.3 755.1 530C759.7 529.7 764.5 527 767.3 522.5C768.7 520.2 769.4 517.5 769.6 514.6C769.8 511.7 769.5 508.7 769.7 505.6C769.8 502.5 770.6 499.2 772.6 496.5C774.6 493.8 777.5 491.8 780.6 490.5C786.9 487.6 794.1 487.6 800.9 486.3C804.4 485.6 807.8 484.6 810.7 482.9C813.6 481.2 815.9 478.7 817.9 476C821.8 470.7 824.4 464.7 828 459.6C831.5 454.4 836.3 450.6 841.2 448.1C846.2 445.6 851.3 444.5 856 444.4C860.7 444.3 865 445.2 868.5 446.5C872 447.8 874.8 449.4 876.9 451C881.1 454.1 882.8 456.5 882.8 456.5C882.8 456.5 882.667 456.4 882.4 456.2C882.067 455.867 881.7 455.5 881.3 455.1C880.3 454.1 878.8 452.8 876.7 451.3C872.5 448.4 865.3 444.9 856 445.1C851.4 445.2 846.4 446.4 841.6 448.9C836.8 451.3 832.2 455.1 828.8 460.2C825.3 465.2 822.7 471.1 818.7 476.7C816.7 479.4 814.2 482 811.2 483.8C808.1 485.6 804.7 486.7 801.1 487.3C794.1 488.6 787.1 488.7 781 491.4C778 492.7 775.2 494.6 773.4 497.1C771.5 499.6 770.8 502.7 770.6 505.7C770.4 508.7 770.7 511.7 770.5 514.7C770.3 517.6 769.6 520.6 768 522.9C765 527.7 759.9 530.5 755.2 530.7C750.4 531 746.3 529.7 742.6 529.6C739 529.4 735.8 530.2 733.8 531.8C731.8 533.4 730.9 535.4 730.7 536.7C730.5 538.1 730.8 538.8 730.7 538.8Z" fill="#FAFAFA"/>
	<path d="M840.499 694.3L844.499 795L787.899 797.4L782.499 746.4L780.399 693.2L840.499 694.3Z" fill="#263238"/>
	<path d="M832.1 694.2L836.2 795L779.6 797.4L774.2 746.4L772.1 693L832.1 694.2Z" fill="#646889"/>
	<path d="M750.2 762C752.8 760.4 761.5 751.2 764.9 748.7C767.9 746.5 770.4 743.9 772.5 740.8C774.7 737.6 777.4 733.4 778.6 730.2C778.7 729.9 778.8 729.6 778.8 729.3C779 728.7 779.2 728.2 779.5 727.7C781.2 724.7 785.7 724.5 787 727.7C788.2 731 786 740.8 778.9 750.4C778.833 750.6 778.733 750.767 778.6 750.9C771.8 760.9 789.8 755.4 796.4 753.5C803 751.6 823.8 746.8 825.9 748.3C829 750.7 827.1 754.6 820.4 756.3C813.7 758 794.2 764.6 795.2 768.1C796.3 771.5 829.9 761.4 829.9 761.4C829.9 761.4 836.7 758.1 838.1 762.1C840.6 769.2 804.2 777.3 800.7 777.9C798.3 778.4 799.3 782.2 801.9 781.6C804.5 780.9 835.1 770.8 837.7 778C839.7 783.6 807.8 784.9 802.6 790.6C797.3 796.2 826.7 787.1 828.4 792.5C829 794.5 829.2 796.1 811.6 798.9C802.2 800.4 781.9 803.4 766.8 803.7" fill="#FFAD9D"/>
	<path d="M753.8 758.9L783.7 803.7L734.4 854L736 772.4L753.8 758.9Z" fill="#76628B"/>
</svg>
