<svg version="1.2" xmlns="http://www.w3.org/2000/svg" viewBox="0 0 1500 1000" width="1500" height="1000">
	<title>aboutus-ai</title>
	<style>
		.s0 { fill: #e0e0e0 } 
		.s1 { fill: #ffffff } 
		.s2 { fill: #fafafa } 
		.s3 { fill: #263238 } 
		.s4 { fill: #455a64 } 
		.s5 { fill: #ebebeb } 
		.s6 { fill: #f5f5f5 } 
		.s7 { fill: #ffbe9d } 
		.s8 { fill: #eb996e } 
		.s9 { fill: #e8505b } 
		.s10 { fill: #02828b } 
		.s11 { fill: none;stroke: #4e585d;stroke-width: .4 } 
		.s12 { fill: #000000 } 
		.s13 { fill: #b78876 } 
		.s14 { fill: #aa6550 } 
		.s15 { fill: #008f99 } 
		.s16 { fill: #a36853 } 
		.s17 { fill: #8f5039 } 
		.s18 { fill: #ffad9d } 
		.s19 { fill: #ed9482 } 
	</style>
	<g id="Background Complete">
		<g id="&lt;Group&gt;">
			<g id="&lt;Group&gt;">
				<g id="&lt;Group&gt;">
					<g id="&lt;Group&gt;">
						<path id="&lt;Path&gt;" class="s0" d="m1197.9 708.9c0-3.2-0.2-235-0.4-609.8l0.4 0.4c-292 0-676.2 0.1-1095.6 0.1h-0.1l0.5-0.5c0 215.6 0 421.8 0 609.8l-0.5-0.5c641.7 0.3 1091.3 0.5 1095.7 0.5-4.4 0-454 0.2-1095.7 0.4h-0.5v-0.4c0-188 0-394.2 0-609.8v-0.5h0.5 0.1c419.4 0 803.6 0 1095.6 0.1h0.4v0.4c-0.3 374.8-0.4 606.6-0.4 609.8z"/>
					</g>
				</g>
			</g>
			<g id="&lt;Group&gt;">
				<g id="&lt;Group&gt;">
					<g id="&lt;Group&gt;">
						<path id="&lt;Path&gt;" class="s0" d="m1197.9 145.8h-1095.7v-46.7h1095.7z"/>
					</g>
				</g>
			</g>
			<g id="&lt;Group&gt;">
				<g id="&lt;Group&gt;">
					<g id="&lt;Group&gt;">
						<path id="&lt;Path&gt;" class="s1" d="m138 121c0 4.2-3.4 7.6-7.5 7.6-4.2 0-7.6-3.4-7.6-7.6 0-4.1 3.4-7.5 7.6-7.5 4.1 0 7.5 3.4 7.5 7.5z"/>
					</g>
				</g>
				<g id="&lt;Group&gt;">
					<g id="&lt;Group&gt;">
						<path id="&lt;Path&gt;" class="s1" d="m161.3 121c0 4.2-3.4 7.6-7.5 7.6-4.2 0-7.6-3.4-7.6-7.6 0-4.1 3.4-7.5 7.6-7.5 4.1 0 7.5 3.4 7.5 7.5z"/>
					</g>
				</g>
				<g id="&lt;Group&gt;">
					<g id="&lt;Group&gt;">
						<path id="&lt;Path&gt;" class="s1" d="m184.6 121c0 4.2-3.4 7.6-7.5 7.6-4.2 0-7.6-3.4-7.6-7.6 0-4.1 3.4-7.5 7.6-7.5 4.1 0 7.5 3.4 7.5 7.5z"/>
					</g>
				</g>
			</g>
		</g>
	</g>
	<g id="Window">
		<g id="&lt;Group&gt;">
			<g id="&lt;Group&gt;">
				<g id="&lt;Group&gt;">
					<g id="&lt;Group&gt;">
						<path id="&lt;Path&gt;" class="s2" d="m1292.5 931h-1108.2v-738.8h1108.2z"/>
					</g>
				</g>
				<g id="&lt;Group&gt;">
					<g id="&lt;Group&gt;">
						<g id="&lt;Group&gt;">
							<g id="&lt;Group&gt;">
								<path id="&lt;Path&gt;" class="s3" d="m1292.5 239.5h-1108.2v-47.3h1108.2z"/>
							</g>
						</g>
						<g id="&lt;Group&gt;">
							<g id="&lt;Group&gt;">
								<g id="&lt;Group&gt;">
									<path id="&lt;Path&gt;" class="s3" d="m1292.5 239.5c0-1 0-14.9-0.1-47.3l0.1 0.2c-131.3 0-578 0.2-1108.1 0.4h-0.1l0.6-0.6c0 16.2 0 32.3 0 47.3l-0.6-0.6c616.8 0.3 1102.6 0.6 1108.2 0.6-5.6 0-491.4 0.2-1108.2 0.5h-0.5v-0.5c0-15 0-31.1 0-47.3v-0.5h0.5 0.1c530.1 0.2 976.8 0.4 1108.1 0.4h0.1v0.1c-0.1 32.4-0.1 46.3-0.1 47.3z"/>
								</g>
							</g>
						</g>
					</g>
				</g>
				<g id="&lt;Group&gt;">
					<g id="&lt;Group&gt;">
						<g id="&lt;Group&gt;">
							<path id="&lt;Path&gt;" class="s0" d="m220.5 214.4c0 4.3-3.4 7.7-7.6 7.7-4.2 0-7.6-3.4-7.6-7.7 0-4.2 3.4-7.6 7.6-7.6 4.2 0 7.6 3.4 7.6 7.6z"/>
						</g>
					</g>
					<g id="&lt;Group&gt;">
						<g id="&lt;Group&gt;">
							<path id="&lt;Path&gt;" class="s0" d="m244.1 214.4c0 4.3-3.4 7.7-7.6 7.7-4.2 0-7.6-3.4-7.6-7.7 0-4.2 3.4-7.6 7.6-7.6 4.2 0 7.6 3.4 7.6 7.6z"/>
						</g>
					</g>
					<g id="&lt;Group&gt;">
						<g id="&lt;Group&gt;">
							<path id="&lt;Path&gt;" class="s0" d="m267.7 214.4c0 4.3-3.4 7.7-7.6 7.7-4.2 0-7.7-3.4-7.7-7.7 0-4.2 3.5-7.6 7.7-7.6 4.2 0 7.6 3.4 7.6 7.6z"/>
						</g>
					</g>
				</g>
			</g>
			<g id="&lt;Group&gt;">
				<g id="&lt;Group&gt;">
					<path id="&lt;Compound Path&gt;" fill-rule="evenodd" class="s4" d="m495.4 375.9h-44l-8.4 20.3h-22.5l42.3-94.8h21.7l42.3 94.8h-23zm-6.9-16.6l-15-36.3-15.1 36.3z"/>
				</g>
				<g id="&lt;Group&gt;">
					<path id="&lt;Compound Path&gt;" fill-rule="evenodd" class="s4" d="m614.6 359.8c0 22.9-15.8 37.5-36.3 37.5-9.7 0-17.6-3.1-22.9-9.5v8.4h-20.2v-100.5h21.2v35.4c5.4-6 12.8-8.8 21.9-8.8 20.5 0 36.3 14.6 36.3 37.5zm-21.4 0c0-12.6-8-20.2-18.5-20.2-10.6 0-18.6 7.6-18.6 20.2 0 12.6 8 20.2 18.6 20.2 10.5 0 18.5-7.6 18.5-20.2z"/>
				</g>
				<g id="&lt;Group&gt;">
					<path id="&lt;Compound Path&gt;" fill-rule="evenodd" class="s4" d="m623.3 359.8c0-21.9 16.9-37.5 40.1-37.5 23.1 0 39.9 15.6 39.9 37.5 0 21.9-16.8 37.5-39.9 37.5-23.2 0-40.1-15.6-40.1-37.5zm58.6 0c0-12.6-8-20.2-18.5-20.2-10.6 0-18.7 7.6-18.7 20.2 0 12.6 8.1 20.2 18.7 20.2 10.5 0 18.5-7.6 18.5-20.2z"/>
				</g>
				<g id="&lt;Group&gt;">
					<path id="&lt;Compound Path&gt;" class="s4" d="m790.8 323.4v72.8h-20v-8.6c-5.6 6.3-13.7 9.7-22.6 9.7-18.3 0-31.2-10.3-31.2-32.8v-41.1h21.1v38c0 12.2 5.4 17.6 14.8 17.6 9.7 0 16.8-6.2 16.8-19.6v-36z"/>
				</g>
				<g id="&lt;Group&gt;">
					<path id="&lt;Compound Path&gt;" class="s4" d="m857.4 392.7c-4.3 3.1-10.7 4.6-17.2 4.6-17.2 0-27.2-8.8-27.2-26.1v-29.9h-11.2v-16.3h11.2v-17.7h21.2v17.7h18.1v16.3h-18.1v29.6c0 6.2 3.3 9.6 9 9.6 3.1 0 6.3-0.9 8.6-2.7z"/>
				</g>
				<g id="&lt;Group&gt;">
					<path id="&lt;Compound Path&gt;" class="s4" d="m981.1 323.4v72.8h-20v-8.6c-5.6 6.3-13.7 9.7-22.7 9.7-18.2 0-31.1-10.3-31.1-32.8v-41.1h21.1v38c0 12.2 5.4 17.6 14.8 17.6 9.7 0 16.8-6.2 16.8-19.6v-36z"/>
				</g>
				<g id="&lt;Group&gt;">
					<path id="&lt;Compound Path&gt;" class="s4" d="m993.7 389.5l7-15.2c6.5 4.2 16.4 7 25.4 7 9.7 0 13.4-2.5 13.4-6.6 0-11.9-44 0.3-44-28.8 0-13.9 12.4-23.6 33.7-23.6 10 0 21.1 2.3 28 6.4l-7 15c-7.2-4.1-14.4-5.4-21-5.4-9.5 0-13.6 3-13.6 6.7 0 12.5 44.1 0.5 44.1 29.2 0 13.5-12.6 23.1-34.4 23.1-12.4 0-24.8-3.4-31.6-7.8z"/>
				</g>
			</g>
			<g id="&lt;Group&gt;">
				<g id="&lt;Group&gt;">
					<path id="&lt;Path&gt;" class="s5" d="m184.9 930.5l0.1-374.1c80.5-31.1 176.8-1.8 226.8 68.7 17 24 29.5 52.7 53.7 69.3 36 24.7 84.1 14.7 127.7 14.8 64.3 0.2 128.2 25.9 174.7 70.3 30.4 29 55.1 66.6 94.2 82.1 42.1 16.7 89.4 3.1 134.8 2.8 62.1-0.4 124.9 21.5 167.6 66.5z"/>
				</g>
			</g>
			<g id="&lt;Group&gt;">
				<g id="&lt;Group&gt;">
					<g id="&lt;Group&gt;">
						<path id="&lt;Path&gt;" class="s3" d="m1292.5 931c0-3.4-0.2-288.4-0.4-738.8l0.4 0.5c-305.1 0-690.4 0-1108.1 0.1h-0.1l0.6-0.6c-0.1 263.1-0.1 513.4-0.1 738.8l-0.5-0.5c652.8 0.3 1103.9 0.5 1108.2 0.5-4.3 0-455.4 0.2-1108.2 0.5h-0.4v-0.5c0-225.4-0.1-475.7-0.1-738.8v-0.5h0.5 0.1c417.7 0.1 803 0.1 1108.1 0.1h0.4v0.4c-0.2 450.4-0.4 735.4-0.4 738.8z"/>
					</g>
				</g>
			</g>
			<g id="&lt;Group&gt;">
				<g id="&lt;Group&gt;">
					<g id="&lt;Group&gt;">
						<g id="&lt;Group&gt;">
							<g id="&lt;Group&gt;">
								<g id="&lt;Group&gt;">
									<path id="&lt;Path&gt;" class="s3" d="m323.2 353.8c0 0.8-5.5 1.4-12.2 1.4-6.7 0-12.2-0.6-12.2-1.4 0-0.7 5.5-1.3 12.2-1.3 6.7 0 12.2 0.6 12.2 1.3z"/>
								</g>
							</g>
						</g>
						<g id="&lt;Group&gt;">
							<g id="&lt;Group&gt;">
								<g id="&lt;Group&gt;">
									<path id="&lt;Path&gt;" class="s3" d="m336.1 320.7c0.7 0 1.3 5.5 1.3 12.4 0 6.8-0.6 12.3-1.3 12.3-0.7 0-1.3-5.5-1.3-12.3 0-6.9 0.6-12.4 1.3-12.4z"/>
								</g>
							</g>
						</g>
					</g>
					<g id="&lt;Group&gt;">
						<g id="&lt;Group&gt;">
							<g id="&lt;Group&gt;">
								<g id="&lt;Group&gt;">
									<path id="&lt;Path&gt;" class="s3" d="m349.9 353.1c0-0.8 5.4-1.4 12.2-1.4 6.7 0 12.1 0.6 12.1 1.4 0 0.7-5.4 1.3-12.1 1.3-6.8 0-12.2-0.6-12.2-1.3z"/>
								</g>
							</g>
						</g>
						<g id="&lt;Group&gt;">
							<g id="&lt;Group&gt;">
								<g id="&lt;Group&gt;">
									<path id="&lt;Path&gt;" class="s3" d="m336.9 386.2c-0.7 0-1.3-5.6-1.3-12.4 0-6.8 0.6-12.3 1.3-12.3 0.8 0 1.4 5.5 1.4 12.3 0 6.8-0.6 12.4-1.4 12.4z"/>
								</g>
							</g>
						</g>
					</g>
					<g id="&lt;Group&gt;">
						<g id="&lt;Group&gt;">
							<g id="&lt;Group&gt;">
								<path id="&lt;Path&gt;" class="s3" d="m356.6 372c-0.5 0.4-2.9-1.5-5.3-4.4-2.4-2.8-3.9-5.5-3.3-6 0.5-0.5 2.9 1.5 5.3 4.3 2.4 2.9 3.9 5.6 3.3 6.1z"/>
							</g>
						</g>
					</g>
					<g id="&lt;Group&gt;">
						<g id="&lt;Group&gt;">
							<g id="&lt;Group&gt;">
								<path id="&lt;Path&gt;" class="s3" d="m355.5 334.4c0.5 0.5-1.1 3-3.6 5.5-2.4 2.5-4.9 4.1-5.4 3.6-0.5-0.6 1.1-3 3.5-5.5 2.5-2.5 5-4.1 5.5-3.6z"/>
							</g>
						</g>
					</g>
					<g id="&lt;Group&gt;">
						<g id="&lt;Group&gt;">
							<g id="&lt;Group&gt;">
								<path id="&lt;Path&gt;" class="s3" d="m327.6 344c-0.5 0.5-2.8-0.6-5.2-2.6-2.3-1.9-3.9-4-3.4-4.6 0.5-0.5 2.8 0.6 5.2 2.6 2.3 1.9 3.8 4 3.4 4.6z"/>
							</g>
						</g>
					</g>
					<g id="&lt;Group&gt;">
						<g id="&lt;Group&gt;">
							<g id="&lt;Group&gt;">
								<path id="&lt;Path&gt;" class="s3" d="m326.5 360.5c0.5 0.5-0.9 2.9-3.1 5.4-2.3 2.5-4.5 4.1-5.1 3.6-0.5-0.5 0.8-2.9 3.1-5.4 2.3-2.5 4.5-4.1 5.1-3.6z"/>
							</g>
						</g>
					</g>
				</g>
				<g id="&lt;Group&gt;">
					<g id="&lt;Group&gt;">
						<g id="&lt;Group&gt;">
							<g id="&lt;Group&gt;">
								<g id="&lt;Group&gt;">
									<path id="&lt;Path&gt;" class="s3" d="m1010.4 289.7c0 0.5-3.1 0.8-7 0.8-3.8 0-6.9-0.3-6.9-0.8 0-0.4 3.1-0.7 6.9-0.7 3.9 0 7 0.3 7 0.7z"/>
								</g>
							</g>
						</g>
						<g id="&lt;Group&gt;">
							<g id="&lt;Group&gt;">
								<g id="&lt;Group&gt;">
									<path id="&lt;Path&gt;" class="s3" d="m1017.7 270.9c0.4 0 0.8 3.2 0.8 7 0 3.9-0.4 7.1-0.8 7.1-0.4 0-0.8-3.2-0.8-7.1 0-3.8 0.4-7 0.8-7z"/>
								</g>
							</g>
						</g>
					</g>
					<g id="&lt;Group&gt;">
						<g id="&lt;Group&gt;">
							<g id="&lt;Group&gt;">
								<g id="&lt;Group&gt;">
									<path id="&lt;Path&gt;" class="s3" d="m1025.5 289.3c0-0.4 3.1-0.8 6.9-0.8 3.9 0 6.9 0.4 6.9 0.8 0 0.4-3 0.8-6.9 0.8-3.8 0-6.9-0.4-6.9-0.8z"/>
								</g>
							</g>
						</g>
						<g id="&lt;Group&gt;">
							<g id="&lt;Group&gt;">
								<g id="&lt;Group&gt;">
									<path id="&lt;Path&gt;" class="s3" d="m1018.2 308.1c-0.4 0-0.8-3.1-0.8-7 0-3.9 0.4-7 0.8-7 0.4 0 0.7 3.1 0.7 7 0 3.9-0.3 7-0.7 7z"/>
								</g>
							</g>
						</g>
					</g>
					<g id="&lt;Group&gt;">
						<g id="&lt;Group&gt;">
							<g id="&lt;Group&gt;">
								<path id="&lt;Path&gt;" class="s3" d="m1029.4 300c-0.4 0.3-1.7-0.8-3.1-2.4-1.4-1.6-2.2-3.2-1.9-3.5 0.4-0.2 1.7 0.9 3.1 2.5 1.3 1.6 2.2 3.2 1.9 3.4z"/>
							</g>
						</g>
					</g>
					<g id="&lt;Group&gt;">
						<g id="&lt;Group&gt;">
							<g id="&lt;Group&gt;">
								<path id="&lt;Path&gt;" class="s3" d="m1028.7 278.7c0.3 0.3-0.6 1.7-2 3.1-1.4 1.4-2.8 2.3-3.1 2-0.3-0.2 0.6-1.6 2-3.1 1.4-1.4 2.8-2.3 3.1-2z"/>
							</g>
						</g>
					</g>
					<g id="&lt;Group&gt;">
						<g id="&lt;Group&gt;">
							<g id="&lt;Group&gt;">
								<path id="&lt;Path&gt;" class="s3" d="m1012.9 284.1c-0.3 0.4-1.6-0.3-3-1.4-1.3-1.1-2.2-2.3-1.9-2.6 0.3-0.3 1.6 0.3 2.9 1.4 1.4 1.1 2.2 2.3 2 2.6z"/>
							</g>
						</g>
					</g>
					<g id="&lt;Group&gt;">
						<g id="&lt;Group&gt;">
							<g id="&lt;Group&gt;">
								<path id="&lt;Path&gt;" class="s3" d="m1012.2 293.5c0.3 0.3-0.4 1.7-1.7 3.1-1.3 1.4-2.6 2.3-2.9 2-0.3-0.3 0.5-1.6 1.8-3 1.2-1.4 2.5-2.3 2.8-2.1z"/>
							</g>
						</g>
					</g>
				</g>
				<g id="&lt;Group&gt;">
					<g id="&lt;Group&gt;">
						<g id="&lt;Group&gt;">
							<g id="&lt;Group&gt;">
								<g id="&lt;Group&gt;">
									<path id="&lt;Path&gt;" class="s3" d="m696.3 447.1c0 0.3-2.4 0.5-5.3 0.5-3 0-5.3-0.2-5.3-0.5 0-0.4 2.3-0.6 5.3-0.6 2.9 0 5.3 0.2 5.3 0.6z"/>
								</g>
							</g>
						</g>
						<g id="&lt;Group&gt;">
							<g id="&lt;Group&gt;">
								<g id="&lt;Group&gt;">
									<path id="&lt;Path&gt;" class="s3" d="m701.9 432.6c0.3 0 0.6 2.4 0.6 5.4 0 3-0.3 5.4-0.6 5.4-0.3 0-0.6-2.4-0.6-5.4 0-3 0.3-5.4 0.6-5.4z"/>
								</g>
							</g>
						</g>
					</g>
					<g id="&lt;Group&gt;">
						<g id="&lt;Group&gt;">
							<g id="&lt;Group&gt;">
								<g id="&lt;Group&gt;">
									<path id="&lt;Path&gt;" class="s3" d="m707.9 446.7c0-0.3 2.4-0.6 5.3-0.6 2.9 0 5.3 0.3 5.3 0.6 0 0.3-2.4 0.6-5.3 0.6-2.9 0-5.3-0.3-5.3-0.6z"/>
								</g>
							</g>
						</g>
						<g id="&lt;Group&gt;">
							<g id="&lt;Group&gt;">
								<g id="&lt;Group&gt;">
									<path id="&lt;Path&gt;" class="s3" d="m702.3 461.1c-0.4 0-0.6-2.4-0.6-5.4 0-2.9 0.2-5.3 0.6-5.3 0.3 0 0.5 2.4 0.5 5.3 0 3-0.2 5.4-0.5 5.4z"/>
								</g>
							</g>
						</g>
					</g>
					<g id="&lt;Group&gt;">
						<g id="&lt;Group&gt;">
							<g id="&lt;Group&gt;">
								<path id="&lt;Path&gt;" class="s3" d="m710.8 454.9c-0.2 0.2-1.3-0.6-2.3-1.8-1-1.3-1.7-2.5-1.4-2.7 0.2-0.2 1.3 0.7 2.3 1.9 1 1.3 1.7 2.4 1.4 2.6z"/>
							</g>
						</g>
					</g>
					<g id="&lt;Group&gt;">
						<g id="&lt;Group&gt;">
							<g id="&lt;Group&gt;">
								<path id="&lt;Path&gt;" class="s3" d="m710.3 438.6c0.3 0.2-0.4 1.3-1.5 2.4-1.1 1.1-2.2 1.8-2.4 1.5-0.2-0.2 0.5-1.3 1.6-2.3 1-1.1 2.1-1.8 2.3-1.6z"/>
							</g>
						</g>
					</g>
					<g id="&lt;Group&gt;">
						<g id="&lt;Group&gt;">
							<g id="&lt;Group&gt;">
								<path id="&lt;Path&gt;" class="s3" d="m698.2 442.8c-0.2 0.2-1.2-0.3-2.3-1.1-1-0.9-1.7-1.8-1.4-2 0.2-0.3 1.2 0.2 2.2 1.1 1 0.8 1.7 1.7 1.5 2z"/>
							</g>
						</g>
					</g>
					<g id="&lt;Group&gt;">
						<g id="&lt;Group&gt;">
							<g id="&lt;Group&gt;">
								<path id="&lt;Path&gt;" class="s3" d="m697.7 450c0.2 0.2-0.4 1.2-1.3 2.3-1 1.1-2 1.8-2.2 1.6-0.3-0.3 0.3-1.3 1.3-2.4 1-1.1 2-1.8 2.2-1.5z"/>
							</g>
						</g>
					</g>
				</g>
				<g id="&lt;Group&gt;">
					<g id="&lt;Group&gt;">
						<g id="&lt;Group&gt;">
							<g id="&lt;Group&gt;">
								<g id="&lt;Group&gt;">
									<path id="&lt;Path&gt;" class="s0" d="m977.8 469.5c0 0.4-3.1 0.7-6.9 0.7-3.8 0-6.9-0.3-6.9-0.7 0-0.5 3.1-0.8 6.9-0.8 3.8 0 6.9 0.3 6.9 0.8z"/>
								</g>
							</g>
						</g>
						<g id="&lt;Group&gt;">
							<g id="&lt;Group&gt;">
								<g id="&lt;Group&gt;">
									<path id="&lt;Path&gt;" class="s0" d="m985.2 450.7c0.4 0 0.7 3.1 0.7 7 0 3.9-0.3 7-0.7 7-0.4 0-0.8-3.1-0.8-7 0-3.9 0.4-7 0.8-7z"/>
								</g>
							</g>
						</g>
					</g>
					<g id="&lt;Group&gt;">
						<g id="&lt;Group&gt;">
							<g id="&lt;Group&gt;">
								<g id="&lt;Group&gt;">
									<path id="&lt;Path&gt;" class="s0" d="m993 469c0-0.4 3.1-0.7 6.9-0.7 3.8 0 6.9 0.3 6.9 0.7 0 0.4-3.1 0.8-6.9 0.8-3.8 0-6.9-0.4-6.9-0.8z"/>
								</g>
							</g>
						</g>
						<g id="&lt;Group&gt;">
							<g id="&lt;Group&gt;">
								<g id="&lt;Group&gt;">
									<path id="&lt;Path&gt;" class="s0" d="m985.7 487.8c-0.5 0-0.8-3.1-0.8-7 0-3.9 0.3-7 0.8-7 0.4 0 0.7 3.1 0.7 7 0 3.9-0.3 7-0.7 7z"/>
								</g>
							</g>
						</g>
					</g>
					<g id="&lt;Group&gt;">
						<g id="&lt;Group&gt;">
							<g id="&lt;Group&gt;">
								<path id="&lt;Path&gt;" class="s0" d="m996.8 479.8c-0.3 0.2-1.7-0.9-3-2.5-1.4-1.6-2.2-3.2-1.9-3.4 0.3-0.3 1.7 0.8 3.1 2.4 1.3 1.7 2.2 3.2 1.8 3.5z"/>
							</g>
						</g>
					</g>
					<g id="&lt;Group&gt;">
						<g id="&lt;Group&gt;">
							<g id="&lt;Group&gt;">
								<path id="&lt;Path&gt;" class="s0" d="m996.2 458.4c0.3 0.3-0.6 1.7-2 3.1-1.4 1.5-2.8 2.4-3.1 2.1-0.3-0.3 0.6-1.7 2-3.1 1.4-1.5 2.8-2.4 3.1-2.1z"/>
							</g>
						</g>
					</g>
					<g id="&lt;Group&gt;">
						<g id="&lt;Group&gt;">
							<g id="&lt;Group&gt;">
								<path id="&lt;Path&gt;" class="s0" d="m980.3 463.9c-0.2 0.3-1.5-0.3-2.9-1.5-1.3-1.1-2.2-2.3-1.9-2.6 0.2-0.3 1.6 0.3 2.9 1.5 1.3 1.1 2.2 2.2 1.9 2.6z"/>
							</g>
						</g>
					</g>
					<g id="&lt;Group&gt;">
						<g id="&lt;Group&gt;">
							<g id="&lt;Group&gt;">
								<path id="&lt;Path&gt;" class="s0" d="m979.7 473.3c0.3 0.3-0.5 1.6-1.7 3-1.3 1.4-2.6 2.3-2.9 2.1-0.3-0.3 0.5-1.7 1.7-3.1 1.3-1.4 2.6-2.3 2.9-2z"/>
							</g>
						</g>
					</g>
				</g>
				<g id="&lt;Group&gt;">
					<g id="&lt;Group&gt;">
						<path id="&lt;Path&gt;" class="s0" d="m613.4 291l0.9 2.1c1.5 3.8 4.5 6.8 8.3 8.3l2.4 1-2.3 0.9c-3.8 1.5-6.9 4.6-8.4 8.4l-0.6 1.6-1-2c-1.7-3.6-4.8-6.4-8.5-7.7l-2.1-0.8 2.7-1.3c3.4-1.6 6-4.4 7.4-7.9z"/>
					</g>
				</g>
				<g id="&lt;Group&gt;">
					<g id="&lt;Group&gt;">
						<path id="&lt;Path&gt;" class="s0" d="m262.1 452.8l0.6 1.4c1 2.5 3 4.5 5.6 5.5l1.5 0.7-1.5 0.6c-2.5 1-4.5 3-5.6 5.6l-0.4 1-0.6-1.3c-1.2-2.4-3.2-4.2-5.7-5.1l-1.4-0.5 1.8-0.9c2.2-1.1 4-2.9 5-5.2z"/>
					</g>
				</g>
				<g id="&lt;Group&gt;">
					<g id="&lt;Group&gt;">
						<path id="&lt;Path&gt;" class="s0" d="m1147.2 313.3l0.6 1.4c1 2.5 3 4.5 5.5 5.5l1.6 0.7-1.5 0.6c-2.5 1-4.6 3-5.6 5.6l-0.4 1-0.6-1.3c-1.2-2.4-3.2-4.2-5.7-5.1l-1.4-0.5 1.8-0.9c2.2-1.1 4-2.9 4.9-5.2z"/>
					</g>
				</g>
				<g id="&lt;Group&gt;">
					<g id="&lt;Group&gt;">
						<path id="&lt;Path&gt;" class="s3" d="m1149.9 373.9l0.9 2.2c1.5 3.7 4.5 6.7 8.3 8.3l2.4 0.9-2.3 0.9c-3.8 1.6-6.9 4.6-8.4 8.5l-0.6 1.5-1-1.9c-1.7-3.6-4.8-6.4-8.5-7.8l-2.1-0.7 2.7-1.3c3.4-1.6 6-4.5 7.4-7.9z"/>
					</g>
				</g>
				<g id="&lt;Group&gt;">
					<g id="&lt;Group&gt;">
						<path id="&lt;Path&gt;" class="s3" d="m780.3 277.9l0.4 1c0.8 1.7 2.2 3.1 4 3.9l1.1 0.4-1.1 0.4c-1.8 0.8-3.2 2.2-3.9 4l-0.3 0.7-0.5-0.9c-0.8-1.7-2.2-3-4-3.6l-1-0.4 1.3-0.6c1.6-0.7 2.8-2.1 3.5-3.7z"/>
					</g>
				</g>
				<g id="&lt;Group&gt;">
					<g id="&lt;Group&gt;">
						<path id="&lt;Path&gt;" class="s3" d="m501.5 443.7l0.6 1.3c0.9 2.2 2.7 4 5 5l1.4 0.5-1.3 0.6c-2.4 0.9-4.2 2.8-5.1 5.1l-0.4 0.9-0.6-1.2c-1-2.1-2.9-3.8-5.1-4.6l-1.3-0.5 1.6-0.8c2.1-0.9 3.7-2.6 4.5-4.7z"/>
					</g>
				</g>
			</g>
		</g>
	</g>
	<g id="Speech Bubble">
		<g id="&lt;Group&gt;">
			<g id="&lt;Group&gt;">
				<g id="&lt;Group&gt;">
					<path id="&lt;Path&gt;" class="s6" d="m1395.6 478.2c0 46.9-38 85-85 85-10.2 0-20-1.8-29.1-5.1l-40.6 22.2 11.5-40.2c-16.5-15.5-26.8-37.5-26.8-61.9 0-47 38.1-85 85-85 47 0 85 38 85 85z"/>
				</g>
			</g>
			<g id="&lt;Group&gt;">
				<g id="&lt;Group&gt;">
					<g id="&lt;Group&gt;">
						<path id="&lt;Path&gt;" class="s3" d="m1310.6 393.2q0 0 1.6 0 1.5 0.1 4.4 0.2c1 0 2.1 0 3.3 0.2q1.8 0.2 3.9 0.5c1.4 0.3 3 0.4 4.6 0.8q2.4 0.6 5.1 1.3c7.1 2 15.8 5.2 24.6 11.1 8.8 5.9 17.8 14.4 24.9 25.7q1.3 2.1 2.6 4.3 1.1 2.3 2.3 4.7c1.7 3.1 2.7 6.5 4 9.9 2.1 7 3.8 14.4 4 22.3 0.4 3.9-0.1 7.9-0.2 12-0.2 2-0.6 4-0.9 6.1q-0.2 1.5-0.4 3-0.4 1.5-0.8 3.1c-1.8 8.1-5.2 16.2-9.7 23.7-8.9 15.3-23.6 28.2-41.5 35.4-8.8 3.7-18.6 5.7-28.5 6-9.9 0.6-20.1-0.9-29.8-4q-1.4-0.5-2.8-0.9l0.5-0.1c-13.9 7.6-27.5 15-40.6 22.2l-1.1 0.6 0.3-1.2c4-13.8 7.8-27.3 11.5-40.2l0.2 0.5c-5.4-5.1-10.1-10.8-13.9-16.8-3.8-6.1-6.7-12.5-8.9-19-2.1-6.5-3.3-13.1-3.8-19.6q-0.2-2.4-0.3-4.8c0-1.7 0-3.2 0.1-4.8 0.2-3.2 0.3-6.3 0.9-9.4 1.7-12.2 6.1-23.2 11.7-32.4 5.7-9.1 12.6-16.5 19.6-22.1q2.7-2 5.3-3.9 2.7-1.7 5.3-3.3c1.7-1.1 3.5-1.9 5.2-2.7 1.7-0.8 3.3-1.7 5-2.3 6.6-2.5 12.5-4.1 17.3-4.9q3.6-0.5 6.4-0.9 2.8-0.1 4.8-0.2 1.8-0.1 2.9-0.1 0.9 0 0.9 0 0 0-0.9 0.1-1.1 0-2.9 0.2-2 0.1-4.7 0.2-2.8 0.5-6.4 1c-4.9 0.9-10.7 2.5-17.2 5.1-1.7 0.6-3.2 1.5-4.9 2.3-1.7 0.8-3.5 1.6-5.2 2.7q-2.6 1.6-5.3 3.2-2.5 2-5.2 4c-6.9 5.6-13.8 12.9-19.4 22-5.5 9.1-9.8 20-11.5 32.1-0.6 3.1-0.6 6.2-0.8 9.3-0.1 1.6-0.2 3.1-0.1 4.7q0 2.4 0.3 4.8c0.5 6.5 1.7 13 3.8 19.4 2.1 6.5 5.1 12.8 8.8 18.8 3.8 6 8.4 11.6 13.7 16.6l0.3 0.2-0.1 0.3c-3.7 12.9-7.5 26.3-11.5 40.2l-0.7-0.6c13.1-7.2 26.7-14.6 40.6-22.2l0.2-0.1 0.2 0.1q1.4 0.5 2.7 0.9c9.6 3.1 19.6 4.6 29.4 4 9.8-0.3 19.5-2.3 28.3-5.9 17.6-7.2 32.1-19.9 40.9-35 4.5-7.4 7.9-15.4 9.7-23.5q0.4-1.5 0.8-3 0.2-1.5 0.5-3c0.2-2 0.6-4 0.8-6 0.2-4 0.6-8 0.2-11.8-0.1-7.8-1.8-15.2-3.9-22.1-1.3-3.4-2.3-6.8-3.9-9.9q-1.1-2.3-2.2-4.6-1.4-2.2-2.6-4.3c-7-11.3-15.9-19.7-24.6-25.6-8.7-5.9-17.3-9.2-24.4-11.2q-2.7-0.7-5.1-1.4c-1.6-0.3-3.1-0.5-4.5-0.8q-2.2-0.3-3.9-0.6c-1.2-0.2-2.3-0.1-3.3-0.2q-2.9-0.2-4.4-0.3-1.6-0.1-1.6-0.1z"/>
					</g>
				</g>
			</g>
		</g>
		<g id="&lt;Group&gt;">
			<g id="&lt;Group&gt;">
				<g id="&lt;Group&gt;">
					<g id="&lt;Group&gt;">
						<g id="&lt;Group&gt;">
							<path id="&lt;Path&gt;" class="s3" d="m1292.1 466.6h6l13.1-18.3v-12c0 0 9.3-0.6 8.2 15.1-1.1 15.7 0.1 11.7 0.1 11.7 0 0 19.7 0.1 21.4 1.8 1.2 1.3 1.7 20.9 1.9 31.5 0.1 5.3-3.2 10.3-8.1 11.6q-1.1 0.3-2.2 0.3c-4.9 0-30-4-30-4h-10.4z"/>
						</g>
					</g>
				</g>
				<g id="&lt;Group&gt;">
					<g id="&lt;Group&gt;">
						<g id="&lt;Group&gt;">
							<path id="&lt;Path&gt;" class="s3" d="m1288.9 464.1v40.3h-10.3l-3.7-41.1z"/>
						</g>
					</g>
				</g>
			</g>
		</g>
	</g>
	<g id="Character 1">
		<g id="&lt;Group&gt;">
			<g id="&lt;Group&gt;">
				<g id="&lt;Group&gt;">
					<g id="&lt;Group&gt;">
						<path id="&lt;Path&gt;" class="s3" d="m448.3 480.1c-0.3 6.5-8.7 15-6.1 20.9 4.8 10.8 2 23.8-4.2 33.9-6.1 10.1-15.3 17.9-24.4 25.6 0.5-15.8-0.9-31.6-4.1-47.1-1-4.9-2.6-10.3-7.1-12.5-5.7-2.8-13 1.3-18.9-1.2-6.2-2.7-7.5-11.3-12.8-15.6-4.7-3.9-11.8-3.5-17.6-1.5-5.9 1.9-11.3 5.2-17.3 6.6-6 1.3-13.3 0.1-16.6-5.1-2.1-3.2-0.6-1.2-2.5-4.5 0 0-11.8 0.4-15.8-13.3 0 0-5.5-15.1 6.7-21.8 0 0 2.8-27.5 30.3-15.1 8 3.5 17.4-7.9 25.1-4 6.4 3.3 8.4 12.2 14.8 15.5 7.4 3.8 16-1.8 24.3-2.2 10.6-0.4 20.5 9.5 19.9 20.1 0 0 1.3-5.4 10.3-3 9 2.4 16.7 11.8 16 24.3z"/>
					</g>
				</g>
				<g id="&lt;Group&gt;">
					<g id="&lt;Group&gt;">
						<path id="&lt;Path&gt;" class="s7" d="m431.9 537.6c-2.1 2.2-5.1 3.7-8.1 3.9l-1.8 72c0.6 23.5-16.2 39.4-34.8 39.4-18.3 0-36.1-14.3-35.2-38.1l0.6-22.3c0 0-24.5-4.1-29.5-36.1-2.6-15.8-1.8-41.9-0.4-63.2 1.2-19.2 18.1-33.5 37.2-31.4l55.4 5.8c5.8 0.6 10.2 5.6 10.1 11.4l-0.7 28.3c4.7 0.3 9.1 5.6 10.2 8 1.4 2.7 1.8 5.9 1.7 9-0.1 4.8-1.4 9.8-4.7 13.3z"/>
					</g>
				</g>
				<g id="&lt;Group&gt;">
					<g id="&lt;Group&gt;">
						<g id="&lt;Group&gt;">
							<g id="&lt;Group&gt;">
								<g id="&lt;Group&gt;">
									<g id="&lt;Group&gt;">
										<g id="&lt;Group&gt;">
											<g id="&lt;Group&gt;">
												<g id="&lt;Group&gt;">
													<g id="&lt;Group&gt;">
														<g id="&lt;Group&gt;">
															<g id="&lt;Group&gt;">
																<g id="&lt;Group&gt;">
																	<path id="&lt;Path&gt;" class="s3" d="m339.3 506.8c2.3 0.2 4 2 3.9 4.2 0 2.1-1.9 3.8-4.2 3.7-2.2-0.1-4-2-3.9-4.2 0-2.1 1.9-3.8 4.2-3.7z"/>
																</g>
															</g>
														</g>
													</g>
												</g>
												<g id="&lt;Group&gt;">
													<g id="&lt;Group&gt;">
														<g id="&lt;Group&gt;">
															<g id="&lt;Group&gt;">
																<g id="&lt;Group&gt;">
																	<g id="&lt;Group&gt;">
																		<path id="&lt;Path&gt;" class="s3" d="m329.9 504.5c1.3-1 3.6-2 6.4-2 2.7-0.1 5.1 0.9 6.5 2 1.4 1 1.9 1.9 1.7 2.2-0.5 0.5-3.7-1.7-8.1-1.7-4.5 0-7.6 2.3-8.1 1.8-0.2-0.3 0.2-1.2 1.6-2.3z"/>
																	</g>
																</g>
															</g>
														</g>
													</g>
												</g>
											</g>
											<g id="&lt;Group&gt;">
												<g id="&lt;Group&gt;">
													<g id="&lt;Group&gt;">
														<g id="&lt;Group&gt;">
															<g id="&lt;Group&gt;">
																<g id="&lt;Group&gt;">
																	<path id="&lt;Path&gt;" class="s3" d="m381.9 507.7c2.2 0.1 4 1.9 3.9 4.1-0.1 2.2-2 3.8-4.2 3.7-2.3-0.1-4-2-4-4.1 0.1-2.2 2-3.9 4.3-3.7z"/>
																</g>
															</g>
														</g>
													</g>
												</g>
												<g id="&lt;Group&gt;">
													<g id="&lt;Group&gt;">
														<g id="&lt;Group&gt;">
															<g id="&lt;Group&gt;">
																<g id="&lt;Group&gt;">
																	<g id="&lt;Group&gt;">
																		<path id="&lt;Path&gt;" class="s3" d="m373.2 505.3c1.4-1 3.7-2 6.4-2 2.8 0 5.1 1 6.5 2 1.4 1 1.9 2 1.7 2.2-0.5 0.5-3.7-1.7-8.1-1.7-4.4 0-7.5 2.3-8 1.8-0.3-0.3 0.2-1.2 1.5-2.3z"/>
																	</g>
																</g>
															</g>
														</g>
													</g>
												</g>
											</g>
											<g id="&lt;Group&gt;">
												<g id="&lt;Group&gt;">
													<g id="&lt;Group&gt;">
														<g id="&lt;Group&gt;">
															<g id="&lt;Group&gt;">
																<g id="&lt;Group&gt;">
																	<path id="&lt;Path&gt;" class="s3" d="m348.4 540.3c-0.5-0.1-1.2-0.1-1.9-0.3-0.7-0.2-1.5-0.8-1.9-1.6-0.5-1.7 0.2-3.2 0.6-4.5q1.6-4.1 3.2-8.6c4.6-12.2 8.8-21.9 9.3-21.8 0.5 0.2-2.9 10.3-7.5 22.5q-1.7 4.5-3.3 8.5c-0.6 1.4-1 2.6-0.8 3.4 0.2 0.7 1.3 1 2.4 1.1 4.4 0.6 7.2 1 7.2 1.3 0 0.2-2.8 0.2-7.3 0z"/>
																</g>
															</g>
														</g>
													</g>
												</g>
											</g>
											<g id="&lt;Group&gt;">
												<g id="&lt;Group&gt;">
													<g id="&lt;Group&gt;">
														<g id="&lt;Group&gt;">
															<g id="&lt;Group&gt;">
																<path id="&lt;Path&gt;" class="s8" d="m352.6 592.5c0 0 21.5 1.3 42.8-11.5 0 0-11.1 24.1-43 21.1z"/>
															</g>
														</g>
													</g>
												</g>
											</g>
										</g>
									</g>
								</g>
								<g id="&lt;Group&gt;">
									<g id="&lt;Group&gt;">
										<g id="&lt;Group&gt;">
											<g id="&lt;Group&gt;">
												<g id="&lt;Group&gt;">
													<path id="&lt;Path&gt;" class="s3" d="m372.4 497.6c1.8-0.8 4.7-1.3 7.8-0.9 3.1 0.3 5.8 1.4 7.4 2.6 1.7 1.1 2.4 2.3 2.1 2.8-0.6 1.1-4.8-0.5-10-1-5.2-0.6-9.6 0-10-1.2-0.2-0.6 0.8-1.5 2.7-2.3z"/>
												</g>
											</g>
										</g>
									</g>
								</g>
								<g id="&lt;Group&gt;">
									<g id="&lt;Group&gt;">
										<g id="&lt;Group&gt;">
											<g id="&lt;Group&gt;">
												<g id="&lt;Group&gt;">
													<path id="&lt;Path&gt;" class="s3" d="m329 494c1.3-1.1 3.4-2 5.9-2.1 2.6 0 4.8 0.7 6.1 1.7 1.4 0.9 1.9 1.9 1.5 2.4-0.7 1.1-3.8 0.2-7.4 0.4-3.7 0.1-6.7 1.1-7.5 0.1-0.3-0.5 0.1-1.5 1.4-2.5z"/>
												</g>
											</g>
										</g>
									</g>
								</g>
							</g>
						</g>
					</g>
					<g id="&lt;Group&gt;">
						<g id="&lt;Group&gt;">
							<g id="&lt;Group&gt;">
								<path id="&lt;Path&gt;" class="s8" d="m356.6 565.2c-0.1-0.1 0.3-0.6 1.2-1.2 0.9-0.5 2.3-1 4-1 1.6 0 3 0.5 3.9 1 0.9 0.6 1.3 1.1 1.2 1.2-0.2 0.2-2.2-1.2-5.1-1.2-3 0-5 1.5-5.2 1.2z"/>
							</g>
						</g>
					</g>
					<g id="&lt;Group&gt;">
						<g id="&lt;Group&gt;">
							<g id="&lt;Group&gt;">
								<path id="&lt;Path&gt;" class="s8" d="m421.7 532.8c0-0.2 1.4-0.3 3.1-1.5 1.6-1.1 3.7-3.4 3.7-6.5 0-3.2-1.7-5.7-3.3-6.9-1.7-1.2-3.1-1-3.1-1.1-0.1-0.2 1.5-0.7 3.5 0.5 1.9 1.1 4 3.9 3.9 7.5 0 1.7-0.6 3.3-1.5 4.5-0.8 1.3-1.9 2.1-2.8 2.7-2 1-3.5 0.9-3.5 0.8z"/>
							</g>
						</g>
					</g>
					<g id="&lt;Group&gt;">
						<g id="&lt;Group&gt;">
							<path id="&lt;Path&gt;" class="s3" d="m316.7 453c28.8-0.9 57.7 0.6 86.3 4.6 6.8 0.9 14.1 2.3 18.5 7.6 4.3 5.2 4.3 12.7 4 19.5-0.4 7.7 1 16.9 0.4 24.6-0.5 5.4-3.9 10.6-9.1 12-5.4 1.5-10.4-4.3-11.1-9.8-0.7-5.6 1.2-11.1 1.3-16.7 0.1-4.6-1.7-9.9-6.1-11.1-3.4-0.9-6.9 1.1-10.4 1.6-7.2 1.1-13.7-4.2-20.5-6.9-9.1-3.5-23.3 4.9-36.7 1.8-9.5-2.3-21.8-12.3-16.6-26.1"/>
						</g>
					</g>
					<g id="&lt;Group&gt;">
						<g id="&lt;Group&gt;">
							<g id="&lt;Group&gt;">
								<path id="&lt;Path&gt;" class="s4" d="m299.8 457.1c0 0-0.2-0.5-0.2-1.5-0.1-0.9 0-2.4 0.8-4.1 0.8-1.6 2.3-3.6 4.8-4.6 1.3-0.5 2.7-0.6 4.2-0.5 1.5 0.2 3 0.6 4.6 0.7 1.6 0.1 3.2-0.3 4.7-1.1 1.6-0.7 3-1.9 4.4-3.1 1.4-1.3 2.9-2.6 4.6-3.9 1.7-1.2 3.7-2.1 5.9-2.5 4.4-0.9 9.1 0.2 13.3 2.2 4.3 2.2 8.1 5.3 11.9 8.5 3.8 3.1 7.5 6.3 11.8 8 2.1 0.8 4.3 1.2 6.5 1 2.1-0.3 4.2-1.1 6.1-2 3.7-1.9 7.3-4.2 11.1-5.1 3.8-1 7.5-1.2 10.7-0.4 3.3 0.8 5.9 2.4 7.8 4.2 1.9 1.8 3 3.8 3.7 5.6 0.6 1.7 0.8 3.1 0.8 4.1 0 0.5 0 0.8 0 1.1q-0.1 0.4-0.1 0.4c-0.2 0 0.3-2.1-1.1-5.5-0.7-1.6-1.8-3.5-3.7-5.3-1.9-1.7-4.4-3.2-7.5-3.9-3.2-0.7-6.7-0.5-10.4 0.5-3.6 0.9-7 3.2-10.9 5.1-1.9 1-4.1 1.9-6.4 2.1-2.3 0.3-4.7-0.1-7-1-4.5-1.8-8.3-5-12.1-8.1-3.8-3.2-7.5-6.3-11.6-8.3-4.1-2-8.6-3.1-12.8-2.3-4.1 0.7-7.2 3.6-10 6.1-1.5 1.2-3 2.4-4.6 3.2-1.7 0.9-3.5 1.3-5.2 1.1-1.6-0.1-3.1-0.5-4.6-0.7-1.4-0.2-2.7-0.1-3.9 0.4-2.3 0.9-3.8 2.6-4.6 4.2-0.9 1.6-1 3-1 3.9 0 1 0.1 1.5 0 1.5z"/>
							</g>
						</g>
					</g>
					<g id="&lt;Group&gt;">
						<g id="&lt;Group&gt;">
							<g id="&lt;Group&gt;">
								<path id="&lt;Path&gt;" class="s4" d="m315.3 479.3c0 0-0.5 0.2-1.4 0.1-0.9-0.1-2.3-0.8-3.2-2.3-1-1.6-1.2-3.9-0.8-6.3 0.4-2.5 1.4-5.2 3.3-7.7 1.8-2.6 4.6-4.9 8.1-6.2 3.5-1.3 7.7-1.5 11.7-0.3 4 1.3 7.6 3.8 11.2 6.4 3.6 2.6 7.3 5.3 11.8 6.6 4.4 1.3 9.1 0.6 13.2-0.7 4.2-1.4 7.9-3.5 11.4-5.5 3.6-2 7-4 10.3-5.4 3.4-1.4 6.7-2.4 9.9-2.5 6.3-0.4 11.2 2.1 13.7 4.6 1.3 1.2 1.9 2.4 2.3 3.2q0.6 1.3 0.5 1.3c-0.1 0.1-0.6-1.9-3.1-4.2-2.4-2.4-7.3-4.6-13.4-4.2-3 0.2-6.2 1.2-9.5 2.6-3.3 1.4-6.7 3.4-10.2 5.5-3.5 2-7.3 4.1-11.6 5.5-4.2 1.5-9.1 2.2-13.8 0.8-4.7-1.3-8.5-4.2-12.1-6.8-3.6-2.6-7.1-5-10.9-6.2-3.8-1.3-7.8-1-11.1 0.1-3.3 1.2-6 3.4-7.8 5.8-1.9 2.4-2.9 5-3.3 7.4-0.5 2.4-0.3 4.5 0.5 6 0.8 1.4 2.1 2.1 2.9 2.3 0.9 0.2 1.4 0.1 1.4 0.1z"/>
							</g>
						</g>
					</g>
					<g id="&lt;Group&gt;">
						<g id="&lt;Group&gt;">
							<g id="&lt;Group&gt;">
								<path id="&lt;Path&gt;" class="s4" d="m437.8 532.6c-0.1 0 0.7-0.9 1.8-2.8 1-1.8 2.2-4.8 2.3-8.5 0.1-1.9-0.1-4-0.7-6.1-0.6-2.1-1.8-4.2-3.2-6.3-1.4-2.1-3.1-4.2-4.5-6.6-1.5-2.4-2.8-5.2-2.7-8.3 0.1-3.2 1.6-5.9 2.7-8.3 1.2-2.5 2.2-4.9 2.3-7.4 0.1-4.9-2.8-9.1-5.9-11-3.3-1.9-6.6-1.9-8.6-1.6-2.1 0.3-3.2 0.8-3.2 0.7q0 0 0.7-0.4c0.6-0.2 1.3-0.5 2.4-0.7 2.1-0.5 5.5-0.6 9 1.4 3.5 1.9 6.6 6.3 6.5 11.6 0 2.7-1.1 5.3-2.3 7.8-1.1 2.5-2.5 5.1-2.5 7.9-0.1 2.8 1.1 5.5 2.4 7.8 1.4 2.3 3.1 4.4 4.5 6.6 1.4 2.1 2.6 4.3 3.2 6.5 0.7 2.3 0.8 4.4 0.7 6.4-0.3 3.9-1.6 6.9-2.8 8.7-0.6 0.9-1.1 1.6-1.5 2q-0.6 0.7-0.6 0.6z"/>
							</g>
						</g>
					</g>
					<g id="&lt;Group&gt;">
						<g id="&lt;Group&gt;">
							<g id="&lt;Group&gt;">
								<path id="&lt;Path&gt;" class="s3" d="m353.9 509.3c-0.1 0 0-1.9-0.8-5-0.8-3.1-2.9-7.6-7.5-11.1-2.3-1.7-5.2-3.1-8.5-3.7-3.3-0.6-7.1-0.4-10.6 0.9-1.8 0.6-3.5 1.6-5.1 2.8-1.6 1.1-3 2.6-4.2 4.2-2.5 3.3-3.9 7.5-3.9 11.9 0 4.3 1.4 8.5 3.9 11.8 1.2 1.7 2.6 3.1 4.2 4.3 1.6 1.2 3.3 2.1 5.1 2.7 3.5 1.4 7.3 1.5 10.6 1 3.3-0.6 6.2-2.1 8.5-3.8 4.6-3.5 6.7-8 7.5-11.1 0.8-3.1 0.7-4.9 0.8-4.9 0 0 0.3 1.8-0.4 5-0.7 3.2-2.7 7.9-7.5 11.6-2.3 1.8-5.3 3.4-8.8 4-3.4 0.6-7.3 0.5-11-0.9-1.9-0.6-3.7-1.6-5.4-2.8-1.6-1.2-3.2-2.7-4.4-4.5-2.6-3.4-4.1-7.9-4.1-12.4 0-4.6 1.5-9 4.1-12.5 1.2-1.7 2.8-3.2 4.4-4.4 1.7-1.3 3.5-2.3 5.4-2.9 3.7-1.4 7.6-1.5 11-0.9 3.5 0.7 6.5 2.2 8.8 4 4.8 3.7 6.8 8.4 7.5 11.6 0.7 3.2 0.4 5.1 0.4 5.1z"/>
							</g>
						</g>
					</g>
					<g id="&lt;Group&gt;">
						<g id="&lt;Group&gt;">
							<g id="&lt;Group&gt;">
								<path id="&lt;Path&gt;" class="s3" d="m400.9 509.3c-0.1 0 0-1.9-0.9-5-0.8-3.1-2.8-7.6-7.5-11.1-2.3-1.7-5.1-3.1-8.5-3.7-3.3-0.6-7-0.4-10.5 0.9-1.8 0.6-3.5 1.6-5.1 2.8-1.6 1.1-3 2.6-4.2 4.2-2.5 3.3-3.9 7.5-3.9 11.9 0 4.3 1.4 8.5 3.9 11.8 1.2 1.7 2.6 3.1 4.2 4.3 1.6 1.2 3.3 2.1 5.1 2.7 3.5 1.4 7.2 1.5 10.5 1 3.4-0.6 6.2-2.1 8.5-3.8 4.7-3.5 6.7-8 7.5-11.1 0.9-3.1 0.8-4.9 0.9-4.9 0 0 0.3 1.8-0.5 5-0.7 3.2-2.7 7.9-7.4 11.6-2.4 1.8-5.3 3.4-8.8 4-3.4 0.6-7.3 0.5-11-0.9-1.9-0.6-3.7-1.6-5.4-2.8-1.7-1.2-3.2-2.7-4.5-4.5-2.6-3.4-4-7.9-4.1-12.4 0.1-4.6 1.5-9 4.1-12.5 1.3-1.7 2.8-3.2 4.5-4.4 1.7-1.3 3.5-2.3 5.4-2.9 3.7-1.4 7.6-1.5 11-0.9 3.5 0.7 6.4 2.2 8.8 4 4.7 3.7 6.7 8.4 7.4 11.6 0.8 3.2 0.5 5.1 0.5 5.1z"/>
							</g>
						</g>
					</g>
					<g id="&lt;Group&gt;">
						<g id="&lt;Group&gt;">
							<g id="&lt;Group&gt;">
								<path id="&lt;Path&gt;" class="s3" d="m360.9 505.8q0 0 0 0v-0.1h0.1v0.2q-0.1 0.1-0.1 0.1h-0.1v-0.3l0.1-0.1v0.4c-0.6 0.2-1.9 0.4-3.4 0.4-2 0-3.6-0.3-3.6-0.6 0-0.2 1.6-0.5 3.6-0.5 1.5 0 2.8 0.1 3.4 0.3v0.4h-0.1v-0.3h0.1q0 0 0.1 0v0.2h-0.1q0 0 0-0.1z"/>
							</g>
						</g>
					</g>
					<g id="&lt;Group&gt;">
						<g id="&lt;Group&gt;">
							<g id="&lt;Group&gt;">
								<path id="&lt;Path&gt;" class="s3" d="m425.6 510.4c0 0.3-5.7 0.1-12.6-0.4-7-0.5-12.6-1.1-12.5-1.4 0-0.3 5.6-0.1 12.6 0.3 6.9 0.5 12.5 1.2 12.5 1.5z"/>
							</g>
						</g>
					</g>
					<g id="&lt;Group&gt;">
						<g id="&lt;Group&gt;">
							<g id="&lt;Group&gt;">
								<path id="&lt;Path&gt;" class="s3" d="m374.1 539.2c0.1-0.1 0.4 1.2 0.1 3.2-0.3 2-1.5 4.8-3.9 6.8-2.5 2-5.4 2.6-7.4 2.5-2.1-0.1-3.2-0.7-3.2-0.8 0.1-0.2 1.3 0.1 3.2 0 1.9-0.1 4.5-0.7 6.7-2.5 2.3-1.8 3.4-4.3 3.9-6.1 0.5-1.9 0.4-3.1 0.6-3.1z"/>
							</g>
						</g>
					</g>
				</g>
			</g>
			<g id="&lt;Group&gt;">
				<g id="&lt;Group&gt;">
					<g id="&lt;Group&gt;">
						<g id="&lt;Group&gt;">
							<path id="&lt;Path&gt;" class="s3" d="m294.8 682.8q0 0 0 0.6 0.1 0.7 0.1 1.9 0 2.6 0.1 7.2c0 6.4 0.1 15.4 0.1 26.6 0.1 22.4-0.7 53.4-2.4 87.6-1.9 34.2-3.5 65.1-4.8 87.6-0.5 11.2-1 20.2-1.3 26.6q-0.2 4.6-0.4 7.2 0 1.1-0.1 1.8 0 0.7-0.1 0.7 0 0 0-0.7 0-0.7 0-1.8 0.1-2.6 0.2-7.3c0.2-6.2 0.5-15.3 1-26.5 0.9-22.4 2.8-53.4 4.5-87.6 1.7-34.2 2.6-65.2 2.7-87.6 0.1-11.2 0.1-20.2 0.2-26.6q0-4.6 0.1-7.2 0-1.2 0-1.9 0.1-0.6 0.1-0.6z"/>
						</g>
					</g>
				</g>
				<g id="&lt;Group&gt;">
					<g id="&lt;Group&gt;">
						<path id="&lt;Path&gt;" class="s9" d="m585.2 820.3l-54.2 57.5-65.5 52.8-31.9-50.4 77.1-75.3-40-52.5c-15.5-17.5-25.9-31.3-32.9-48.4-4.4-10.6-7.3-22.1-6.4-33.5 1-11.5 6.2-22.9 15.5-29.7 9.3-6.7 30.3-4.9 41.1 7.5"/>
					</g>
				</g>
				<g id="&lt;Group&gt;">
					<g id="&lt;Group&gt;">
						<g id="&lt;Group&gt;">
							<path id="&lt;Path&gt;" class="s3" d="m209.2 810c0-0.1 1.5-1.1 4.2-2 2.7-1 6.6-1.7 11-1.5 4.4 0.3 8.2 1.4 10.8 2.7 2.6 1.2 4 2.3 3.9 2.4-0.1 0.2-1.6-0.7-4.2-1.7-2.6-1.1-6.3-2.1-10.5-2.4-4.3-0.2-8.1 0.5-10.8 1.2-2.7 0.7-4.3 1.5-4.4 1.3z"/>
						</g>
					</g>
				</g>
				<g id="&lt;Group&gt;">
					<g id="&lt;Group&gt;">
						<path id="&lt;Compound Path&gt;" fill-rule="evenodd" class="s10" d="m590.2 807.5c-3 33.3-124.7 123.1-124.7 123.1h-179.5l0.4-8.4-75.2-48.7c-27.1-18.4-41.3-34.4-44.7-58.7-3.1-21.6 10.2-43.8 24.8-60l71.5-83.9c2.8-2.8 5.3-5.2 6.5-6.7 24.2-27.9 43.5-37.8 79.7-38.8v-14c0 0 5.7 0.6 12.7 2.8 11.7 3.7 20.9 12.9 24.9 24.5l7.6-10.5c7.7-7 22.6-16.8 33.5-16.8v15.6c14.8 0.4 43.7-2.5 70.6 33.2l0.1-0.1c52.2 65.5 94.1 121.2 91.8 147.4zm-296.5-54.9l-56.9 58.9 52.7 39.2zm216.9 52.3c0-5.1-27.7-39.3-42.7-56.5l-7.6 76.4 1.5 29z"/>
					</g>
				</g>
				<g id="&lt;Group&gt;">
					<g id="&lt;Group&gt;">
						<g id="&lt;Group&gt;">
							<path id="&lt;Path&gt;" class="s11" d=""/>
						</g>
					</g>
				</g>
				<g id="&lt;Group&gt;">
					<g id="&lt;Group&gt;">
						<g id="&lt;Group&gt;">
							<path id="&lt;Path&gt;" class="s3" d="m427.7 627c0.1 0.1-0.4 0.9-1.3 2.4-1 1.5-2.4 3.6-4.2 6.2-3.6 5.2-8.9 12.1-15.7 19-1.7 1.7-3.5 3.3-5.1 4.8l-0.9 0.8v-1.1c0-3.9-1-7.5-2.4-10.5-1.4-3-3.2-5.3-5-7-1.7-1.8-3.3-3-4.5-3.3-1.4-0.2-2 0.5-2 0.4 0 0 0.5-0.9 2-0.7 1.5 0.1 3.2 1.4 5 3.1 1.8 1.7 3.8 4.1 5.3 7.1 1.5 3.1 2.5 6.8 2.6 10.9l-0.8-0.4c1.6-1.6 3.3-3.2 5-4.9 6.8-6.8 12.2-13.6 15.9-18.6q2.7-3.7 4.4-6c1.1-1.5 1.7-2.2 1.7-2.2z"/>
						</g>
					</g>
				</g>
				<g id="&lt;Group&gt;">
					<g id="&lt;Group&gt;">
						<g id="&lt;Group&gt;">
							<path id="&lt;Path&gt;" class="s3" d="m349 625.4c0-0.1 0.6 0.6 1.5 1.8q1.7 2.1 4 5.3c3.4 4.5 7.9 10.7 12.8 17.6q1.7 2.3 3.3 4.5l-0.9 0.2c1.1-3.4 2.3-6.7 4-9.3 1.6-2.6 3.8-4.6 5.8-5.7 2-1.1 3.9-1.4 5.2-1.4 1.3 0 1.9 0.2 1.9 0.3 0 0-0.7-0.1-1.9 0-1.2 0.1-3 0.6-4.9 1.7-1.9 1.1-3.8 3-5.3 5.6-1.6 2.5-2.7 5.7-3.9 9.1l-0.3 0.9-0.6-0.8q-1.5-2.2-3.2-4.5c-5-6.9-9.4-13.2-12.6-17.8q-2.2-3.2-3.7-5.4c-0.8-1.4-1.3-2.1-1.2-2.1z"/>
						</g>
					</g>
				</g>
				<g id="&lt;Group&gt;" style="opacity: .1">
					<g id="&lt;Group&gt;">
						<g id="&lt;Group&gt;">
							<path id="&lt;Path&gt;" class="s12" d="m396.3 644.9c3.3 4 5 9.2 4.7 14.7 8.3-9.5 17.5-19.5 25.8-29.1 0.6-0.7 1.2-1.4 2.1-1.5 1.2-0.1 2.2 1.1 2.3 2.4 0.1 1.2-0.4 2.4-1 3.5-6.9 13.2-16.6 25-28.2 34.4-1.6 1.2-3.7 2.5-5.6 1.8-2.7-1.1-2.4-5-2-7.9 1.1-8.5-1.8-18.4-7.8-24.5 2.8-2 6.4 2.1 9.7 6.2z"/>
						</g>
					</g>
				</g>
				<g id="&lt;Group&gt;">
					<g id="&lt;Group&gt;">
						<g id="&lt;Group&gt;">
							<path id="&lt;Path&gt;" class="s3" d="m463.3 927.2q0 0.1-0.6-0.8-0.6-1-1.7-2.5c-1.4-2.3-3.5-5.5-6.1-9.5-5.2-8.3-12.5-19.9-21-33.3l-0.2-0.3 0.3-0.3c5.8-5.8 12.1-12.1 18.7-18.7 15.9-15.7 30.3-30 40.8-40.4 5.2-5.1 9.5-9.2 12.5-12.2q2.1-2 3.4-3.2 1.2-1.1 1.3-1.1 0 0-1.1 1.2-1.3 1.3-3.3 3.4c-3 3-7.1 7.2-12.2 12.4-10.5 10.5-24.8 24.8-40.6 40.6-6.7 6.6-13 12.9-18.8 18.7v-0.6c8.4 13.5 15.6 25.1 20.7 33.4 2.5 4.1 4.5 7.4 5.9 9.7q1 1.6 1.6 2.6 0.5 0.9 0.4 0.9z"/>
						</g>
					</g>
				</g>
				<g id="&lt;Group&gt;">
					<g id="&lt;Group&gt;">
						<g id="&lt;Group&gt;">
							<path id="&lt;Path&gt;" class="s3" d="m441.3 647.3q0 0-0.3 0.4-0.4 0.4-0.9 1.1c-0.9 0.9-2 2.3-3.5 4.2-2.7 3.8-6.3 9.9-7.6 18.3-1.4 8.3-0.1 18.6 4.4 28.8 2.2 5.1 5.1 10.3 8.8 15.1 3.9 4.7 7.9 9.6 11.9 14.7 16.1 20.3 30 39.3 40.2 52.9 5 6.7 9.1 12.2 12 16.1q2.1 2.8 3.3 4.4 0.5 0.7 0.8 1.2 0.3 0.4 0.3 0.4-0.1 0-0.4-0.4-0.3-0.4-0.9-1.1-1.2-1.5-3.4-4.2c-2.9-3.8-7.1-9.2-12.3-16-10.3-13.5-24.3-32.3-40.4-52.6-4-5.1-8-10-11.9-14.8-3.8-4.9-6.6-10.1-8.9-15.3-4.5-10.4-5.7-20.9-4.3-29.4 1.5-8.5 5.2-14.6 8.1-18.3 1.5-1.9 2.7-3.3 3.6-4.2q0.6-0.6 1-1 0.4-0.3 0.4-0.3z"/>
						</g>
					</g>
				</g>
				<g id="&lt;Group&gt;">
					<g id="&lt;Group&gt;">
						<g id="&lt;Group&gt;">
							<path id="&lt;Path&gt;" class="s2" d="m508.7 673.1c0.1 0.1-1.1 0.5-2.9 1.5-1.9 1-4.5 2.7-7.1 5.5-2.7 2.7-5.4 6.3-8 10.6-2.7 4.3-5.4 9.3-9 14-3.5 4.7-8.1 8.4-12.8 10.5-4.6 2.3-9.2 3.1-13.1 3.3-3.9 0.2-7-0.3-9.1-0.8-1-0.3-1.8-0.6-2.4-0.7q-0.8-0.3-0.8-0.4c0.1-0.3 4.6 1.7 12.3 1.2 3.7-0.3 8.2-1.2 12.7-3.4 4.6-2.2 8.9-5.7 12.4-10.4 3.5-4.6 6.2-9.5 8.9-13.8 2.7-4.3 5.5-8 8.3-10.7 2.8-2.7 5.5-4.4 7.5-5.3q1.5-0.6 2.3-0.9 0.8-0.2 0.8-0.2z"/>
						</g>
					</g>
				</g>
				<g id="&lt;Group&gt;">
					<g id="&lt;Group&gt;">
						<g id="&lt;Group&gt;">
							<path id="&lt;Path&gt;" class="s2" d="m461 849q0 0-0.4-0.1-0.6-0.1-1.4-0.3c-0.6-0.2-1.3-0.3-2.2-0.4-0.9-0.2-1.9-0.3-3-0.3-4.6-0.4-11.4 0.2-19.3 2.4-4 1.2-8.3 2.7-12.7 4.7-4.5 2-9.1 4.4-14.1 6.8-4.9 2.3-10.3 4.6-16.1 6.1-2.9 0.7-6 1.2-9.1 1.4-3.1 0.2-6.3 0-9.5-0.7-6.3-1.3-12-4-17.1-7-5.2-3.1-9.8-6.6-14.2-9.9-8.8-6.5-17.1-12-25.1-14.3-3.9-1.2-7.6-1.7-10.9-1.8-3.3-0.1-6.1 0.4-8.3 1-4.5 1.1-6.6 2.8-6.7 2.6q0 0 0.4-0.3 0.5-0.2 1.2-0.7c1.1-0.6 2.7-1.4 5-2 2.2-0.7 5.1-1.2 8.4-1.2 3.3 0 7.1 0.5 11.1 1.7 8.1 2.3 16.6 7.7 25.4 14.3 4.5 3.2 9.1 6.6 14.2 9.7 5.1 3 10.7 5.7 16.8 6.9 3.1 0.6 6.2 0.8 9.2 0.7 3.1-0.2 6.1-0.7 8.9-1.4 5.8-1.4 11.1-3.7 16-6 5-2.3 9.6-4.8 14.1-6.7 4.5-2 8.8-3.5 12.9-4.6 8-2.2 14.8-2.6 19.5-2.1 4.6 0.4 7 1.5 7 1.5z"/>
						</g>
					</g>
				</g>
				<g id="&lt;Group&gt;">
					<g id="&lt;Group&gt;">
						<g id="&lt;Group&gt;">
							<path id="&lt;Path&gt;" class="s2" d="m263.3 831.2q0.1 0 0.2 0.7c0.1 0.5 0.2 1.1 0.2 2 0.2 1.8 0.2 4.3-0.3 7.4-0.5 3.2-1.7 6.8-4.1 10.3-2.4 3.5-6.2 6.3-10.3 8.8-4.1 2.4-8.1 4.5-11.4 6.9-3.3 2.4-6.1 4.9-7.8 7.4-1.7 2.6-2.2 5.1-2.3 6.8 0 1.7 0.3 2.6 0.2 2.6q-0.1 0.1-0.3-0.6-0.2-0.7-0.3-2c-0.1-1.8 0.4-4.5 2.1-7.2 1.7-2.7 4.5-5.3 7.8-7.8 3.4-2.5 7.4-4.6 11.5-7 4-2.4 7.7-5.2 10-8.5 2.4-3.3 3.6-6.8 4.2-9.8 0.6-3 0.6-5.5 0.6-7.3 0-1.7 0-2.7 0-2.7z"/>
						</g>
					</g>
				</g>
				<g id="&lt;Group&gt;">
					<g id="&lt;Group&gt;">
						<g id="&lt;Group&gt;">
							<path id="&lt;Path&gt;" class="s2" d="m565.2 748.4c0 0.3-5 0.3-11.9 3.8-3.4 1.6-7.3 4.3-10.7 8-1.6 1.9-3.2 4.1-4.5 6.5-1.3 2.4-2.2 5.2-3.5 7.9-1.2 2.7-3 5.2-5.3 7-2.2 1.9-4.7 3.1-7.1 4-5 1.7-9.7 1.9-13.6 1.7-3.9-0.2-7-0.8-9.2-1.1-2.1-0.4-3.3-0.6-3.3-0.7 0-0.1 1.2 0 3.4 0.3 2.1 0.2 5.2 0.6 9.1 0.7 3.8 0.1 8.5-0.1 13.3-1.8 4.7-1.7 9.5-5.1 11.8-10.6 1.2-2.6 2.1-5.4 3.5-7.9 1.3-2.5 3-4.7 4.7-6.6 3.5-3.8 7.5-6.5 11.1-8.1 3.5-1.7 6.6-2.4 8.8-2.8 1.1-0.2 1.9-0.2 2.5-0.3q0.8 0 0.9 0z"/>
						</g>
					</g>
				</g>
				<g id="&lt;Group&gt;">
					<g id="&lt;Group&gt;">
						<g id="&lt;Group&gt;">
							<path id="&lt;Path&gt;" class="s2" d="m465.8 765.3q0 0.1-0.5 0.2-0.5 0.1-1.4 0.3-1.8 0.4-5.3 0.9c-4.6 0.7-11.3 1.5-19.7 1.4-8.3-0.2-18.4-1.2-28.9-4.9-5.2-1.8-10.5-4.4-15.7-7.4-5.3-2.9-10.7-6-16.6-8.1-3-1-6-1.7-9-2-3.1-0.2-6.1-0.2-9 0.4-5.9 1.1-11.2 3.3-16.1 5.8-9.7 5.2-17.9 10.9-25.2 14.9-7.3 4-13.8 6.4-18.4 7.1-2.3 0.6-4.2 0.6-5.4 0.6q-0.8 0.1-1.4 0.1-0.5 0-0.5 0 0-0.1 0.5-0.1 0.6-0.1 1.4-0.2c1.2-0.1 3-0.2 5.3-0.8 4.5-0.9 10.9-3.2 18.1-7.4 7.3-4 15.4-9.8 25.2-15 4.9-2.6 10.3-4.9 16.3-6 3-0.6 6.1-0.6 9.2-0.5 3.2 0.3 6.3 1.1 9.3 2.1 6.1 2.2 11.5 5.3 16.8 8.2 5.2 3 10.4 5.6 15.5 7.4 10.4 3.7 20.3 4.8 28.6 5.1 8.3 0.2 15.1-0.5 19.7-1.1q3.5-0.5 5.3-0.8 0.8-0.1 1.4-0.1 0.5-0.1 0.5-0.1z"/>
						</g>
					</g>
				</g>
				<g id="&lt;Group&gt;">
					<g id="&lt;Group&gt;">
						<g id="&lt;Group&gt;">
							<path id="&lt;Path&gt;" class="s2" d="m270.3 776.9c-0.2 0 0.4-1.2-0.2-3.1-0.5-1.9-2.8-4.2-6.2-5.1-1.8-0.6-3.8-0.9-5.9-1.3-2.1-0.5-4.5-1.3-6.4-3-1.9-1.6-3.4-3.9-4.4-6.4-1.1-2.5-1.7-5.2-2.3-7.9-0.6-2.8-1.3-5.4-2.3-7.8-1-2.4-2.3-4.6-3.8-6.5-2.8-3.8-6.4-6.5-9.6-8.1-3.2-1.7-6.1-2.5-8.1-2.9-2-0.4-3.2-0.4-3.2-0.5q0.1-0.1 0.9-0.1c0.5 0.1 1.3 0.1 2.3 0.2 2.1 0.3 5.1 1 8.4 2.6 3.4 1.6 7.1 4.3 10.1 8.2 1.5 2 2.9 4.2 3.9 6.7 1.1 2.5 1.8 5.2 2.4 7.9 0.6 2.8 1.2 5.4 2.2 7.8 1 2.4 2.4 4.6 4.1 6.1 1.8 1.6 3.9 2.3 6 2.8 2.1 0.5 4.1 0.9 5.9 1.5 3.6 1.1 5.9 3.6 6.4 5.7 0.3 1 0.2 1.9 0.1 2.4-0.2 0.5-0.3 0.8-0.3 0.8z"/>
						</g>
					</g>
				</g>
				<g id="&lt;Group&gt;">
					<g id="&lt;Group&gt;">
						<g id="&lt;Group&gt;">
							<path id="&lt;Path&gt;" class="s2" d="m428.2 674.3c-0.1 0.2-1.9-1.4-5.9-2.4-1.9-0.4-4.5-0.6-7.3-0.1-2.9 0.5-6 1.6-9.4 3.2-3.3 1.5-6.8 3.4-10.7 5.4-3.8 2-8 4.1-12.8 5.4-4.8 1.2-10.1 1.3-15.4 0.5-5.3-0.9-10.6-2.8-15.7-5.2-10.2-5-18.7-11.7-26.9-16.9-8.1-5.3-16.1-9.1-23.3-10.6-7.2-1.7-13.2-1.2-17.2-0.2-4 1-6 2.1-6 2 0 0 1.9-1.3 5.9-2.4 4-1.1 10.2-1.7 17.5-0.1 7.3 1.4 15.4 5.2 23.6 10.5 8.3 5.2 16.8 11.9 26.9 16.8 5 2.4 10.2 4.2 15.4 5.1 5.1 0.8 10.3 0.7 14.9-0.5 4.7-1.1 8.9-3.2 12.7-5.1 3.9-2 7.4-3.9 10.8-5.4 3.4-1.5 6.6-2.6 9.6-3.1 2.9-0.5 5.5-0.2 7.5 0.3 2.1 0.6 3.5 1.3 4.4 1.9q1.4 0.9 1.4 0.9z"/>
						</g>
					</g>
				</g>
				<g id="&lt;Group&gt;">
					<g id="&lt;Group&gt;">
						<g id="&lt;Group&gt;">
							<g id="&lt;Group&gt;">
								<path id="&lt;Path&gt;" class="s7" d="m405.1 928.9c-0.8-0.5-1.2-1.5-1.4-2.6-0.5-2.9 0.8-5.7 3-7.6 6.3-5.3 16-14.1 5.4-14.1q-0.3 0-0.5-0.1c-12.1 0.4-21.5-3.4-23.5-6.3-2-2.9 0.8-6.5 4.2-6.2 0.6 0 1.2 0.1 1.8 0.4 0.2 0.1 0.6 0.2 0.8 0.3 3.4 0.8 8.5 1 12.4 1 3.7 0 7.4-0.6 10.9-1.9 4-1.4 16.6-3.3 19.5-4.6l23.3 38.5-6.4 5.2-32.1 0.1c-5.8-2.9-3.6-1.8-5.6-2.8 0 0-9.1 2.4-11.8 0.7z"/>
							</g>
						</g>
					</g>
				</g>
				<g id="&lt;Group&gt;">
					<g id="&lt;Group&gt;">
						<g id="&lt;Group&gt;">
							<path id="&lt;Path&gt;" class="s3" d="m286.3 923.4q0 0 0-0.5 0-0.7 0.1-1.7 0-2.3 0.2-6.4c0.2-5.6 0.5-13.5 1-23.4 0.8-19.8 1.9-47.1 3.2-77.2 1.2-30.2 2.1-57.6 2.5-77.3 0.3-9.9 0.4-17.9 0.5-23.5q0.1-4 0.2-6.4 0-1 0-1.6 0.1-0.6 0.1-0.6 0 0 0 0.6 0.1 0.6 0.1 1.6 0 2.4 0 6.4c0.1 5.6 0 13.6-0.1 23.5-0.3 19.8-1.1 47.1-2.3 77.3-1.1 30.2-2.5 57.5-3.5 77.3-0.6 9.8-1 17.8-1.3 23.4q-0.3 4-0.4 6.3-0.1 1-0.2 1.7 0 0.5-0.1 0.5z"/>
						</g>
					</g>
				</g>
				<g id="&lt;Group&gt;">
					<g id="&lt;Group&gt;">
						<g id="&lt;Group&gt;">
							<path id="&lt;Path&gt;" class="s3" d="m373.4 927.2q0 0-0.1-0.7-0.1-0.8-0.2-2.2-0.2-3-0.6-8.4c-0.2-3.6-0.5-8.1-0.7-13.3-0.1-5.2-0.5-11.1-0.5-17.7-0.1-6.5-0.3-13.7-0.2-21.4 0-3.8 0-7.8 0.1-11.9q0.1-6.1 0.2-12.6c0.5-17.3 1.4-36.3 2.8-56.3 2.8-39.8 6.4-75.8 8.7-101.9 1.1-13 2-23.5 2.7-30.8q0.4-5.4 0.7-8.4 0.1-1.4 0.2-2.2 0.1-0.7 0.1-0.7 0 0 0 0.7 0 0.8-0.1 2.2-0.2 3-0.5 8.4c-0.5 7.3-1.3 17.9-2.4 30.9-2.1 26.1-5.5 62.1-8.3 101.9-1.4 19.9-2.3 38.9-2.9 56.2q-0.2 6.5-0.3 12.6c-0.1 4.1-0.1 8.1-0.2 11.9-0.1 7.7 0 14.9 0.1 21.4 0 6.6 0.3 12.5 0.4 17.7 0.1 5.2 0.4 9.6 0.5 13.3q0.3 5.4 0.4 8.4 0.1 1.4 0.1 2.2 0 0.7 0 0.7z"/>
						</g>
					</g>
				</g>
				<g id="&lt;Group&gt;">
					<g id="&lt;Group&gt;">
						<g id="&lt;Group&gt;">
							<path id="&lt;Path&gt;" class="s3" d="m388.1 730.2c-0.1-0.1 1-0.6 2.3 0.5 0.5 0.5 1.1 1.4 1 2.5-0.2 1.2-1.3 2.2-2.5 2.3-1.2 0.3-2.5-0.3-3-1.4-0.5-1-0.3-2 0.1-2.7 0.8-1.4 2-1.3 2-1.2 0 0.2-0.9 0.4-1.3 1.6-0.2 0.5-0.3 1.3 0 1.9 0.4 0.6 1.2 0.9 2.1 0.8 0.8-0.1 1.5-0.7 1.6-1.4 0.1-0.7-0.2-1.4-0.5-1.9-0.9-0.9-1.8-0.8-1.8-1z"/>
						</g>
					</g>
				</g>
				<g id="&lt;Group&gt;">
					<g id="&lt;Group&gt;">
						<g id="&lt;Group&gt;">
							<path id="&lt;Path&gt;" class="s3" d="m382.5 820c-0.1-0.1 1-0.6 2.3 0.5 0.5 0.5 1.1 1.4 0.9 2.5-0.1 1.2-1.2 2.1-2.4 2.3-1.2 0.2-2.5-0.3-3-1.4-0.5-1-0.3-2 0.1-2.7 0.8-1.4 2-1.3 2-1.2 0 0.2-0.9 0.4-1.3 1.5-0.3 0.6-0.3 1.3 0 2 0.4 0.6 1.2 0.9 2.1 0.8 0.8-0.2 1.5-0.8 1.6-1.5 0.1-0.6-0.2-1.4-0.6-1.8-0.8-1-1.7-0.9-1.7-1z"/>
						</g>
					</g>
				</g>
				<g id="&lt;Group&gt;">
					<g id="&lt;Group&gt;">
						<g id="&lt;Group&gt;">
							<path id="&lt;Path&gt;" class="s2" d="m526 881.7c0 0.1-1 0-2.7-0.3-1.7-0.4-4.2-1.1-7.1-2.3-5.7-2.5-13.1-7.7-18-16.1-2.4-4.2-3.7-8.6-5-12.5-1.2-3.9-2.6-7.2-4.4-9.8-1.7-2.5-3.6-4.1-5.1-5-1.4-0.9-2.3-1.2-2.3-1.3q0-0.1 0.7 0.1c0.4 0.1 1.1 0.4 1.8 0.8 1.6 0.8 3.7 2.5 5.5 5 1.9 2.6 3.4 6 4.8 9.9 1.3 3.9 2.5 8.3 4.9 12.3 4.7 8.1 11.9 13.3 17.4 15.9 5.6 2.6 9.5 3.1 9.5 3.3z"/>
						</g>
					</g>
				</g>
			</g>
		</g>
	</g>
	<g id="Character 2">
		<g id="&lt;Group&gt;">
			<g id="&lt;Group&gt;">
				<g id="&lt;Group&gt;">
					<g id="&lt;Group&gt;">
						<path id="&lt;Path&gt;" class="s4" d="m539.6 930.5l8.1-88.9c0 0-6.3-13.6-12.1-28.6l-11.9 35.3c-6.4 21.4-28.9 29.5-51.1 33.7l-110.6 20.8 0.7-22-0.7-16.2 83.1-28.4c8.2-1.8 14.9-7.4 19-15.4l21.6-66.1 15.6-63.2c14.4-35.5 40.8-57.3 82-61.9 5.2-1.3 52.7 0.3 58.9 1.9 30.2 7.9 52.4 11 70.7 45.2 6.9 12.8 4.3 35.3-0.3 60.9l-15.7 94.7 34 98.6z"/>
					</g>
				</g>
				<g id="&lt;Group&gt;">
					<g id="&lt;Group&gt;">
						<g id="&lt;Group&gt;">
							<path id="&lt;Path&gt;" class="s4" d="m702.4 755.6l-31.6 105.7c-4.9 16.3-17.7 29.2-34 34.1l-131.5 35.1-17.5-45.4 118.9-44.2 29.2-105.8c0 0 6.7-59.2 60.2-56.1"/>
						</g>
					</g>
					<g id="&lt;Group&gt;">
						<g id="&lt;Group&gt;">
							<g id="&lt;Group&gt;">
								<path id="&lt;Path&gt;" class="s3" d="m696.1 679q0 0-1.6 0c-1 0-2.6-0.1-4.7 0-4 0.2-10.2 0.8-17.5 3.6-3.7 1.5-7.6 3.5-11.4 6.4-3.8 2.9-7.5 6.6-10.8 11.1-6.6 9-11.7 21.1-13.9 35v0.1c-8.1 29.4-18 65.4-29 105.8l-0.1 0.3h-0.2c-36.5 13.6-76.7 28.6-118.9 44.3l0.3-0.7c1 2.5 2.1 5.3 3.1 8.1 4.9 12.8 9.8 25.4 14.3 37.3l-0.6-0.3c40.4-10.8 78.6-20.9 113-30.1q6.5-1.7 12.8-3.4c2-0.5 4.1-1 6.2-1.6q3-1 5.9-2.3c7.6-3.4 14-8.7 18.8-14.8 2.4-3.1 4.4-6.4 6-9.8 1.6-3.4 2.7-7 3.7-10.5q3.2-10.4 6-20c7.7-25.5 13.9-45.9 18.2-60.1 2.1-7 3.8-12.4 4.9-16.2q0.9-2.7 1.3-4.2 0.5-1.4 0.5-1.4 0 0-0.4 1.5-0.4 1.4-1.2 4.2c-1.1 3.7-2.7 9.2-4.8 16.2-4.2 14.2-10.2 34.7-17.8 60.2q-2.8 9.6-6 20c-1 3.5-2 7.1-3.7 10.6-1.6 3.5-3.6 6.8-6 10-4.9 6.2-11.4 11.6-19.2 15.1q-2.9 1.3-6 2.3c-2 0.6-4.1 1.1-6.2 1.7q-6.3 1.7-12.7 3.4c-34.5 9.2-72.6 19.4-113 30.2l-0.5 0.1-0.1-0.4c-4.6-12-9.4-24.6-14.4-37.4-1-2.7-2.1-5.5-3.1-8l-0.1-0.5 0.4-0.2c42.3-15.7 82.5-30.6 118.9-44.2l-0.3 0.4c11.2-40.4 21.2-76.4 29.3-105.8 2.2-14.1 7.5-26.2 14.2-35.3 3.3-4.5 7.1-8.2 10.9-11.1 3.9-2.9 7.8-4.9 11.5-6.3 7.4-2.9 13.6-3.4 17.7-3.5 2.1-0.1 3.7 0.1 4.7 0.1q1.6 0.1 1.6 0.1z"/>
							</g>
						</g>
					</g>
				</g>
				<g id="&lt;Group&gt;">
					<g id="&lt;Group&gt;">
						<g id="&lt;Group&gt;">
							<path id="&lt;Path&gt;" class="s3" d="m613.3 817.1c0 0.1-0.6 0.1-1.6 0.2-1 0-2.5-0.2-4.3-0.5-3.5-0.8-8.3-2.9-12.5-6.6-4.1-3.7-6.8-8.2-8.1-11.6q-0.5-1.2-0.8-2.3-0.3-1-0.4-1.8c-0.1-1-0.2-1.6-0.1-1.6 0.2 0 0.5 2.2 2 5.4 1.4 3.3 4.1 7.5 8.1 11.1 4 3.6 8.6 5.7 12 6.6 3.4 1 5.7 0.9 5.7 1.1z"/>
						</g>
					</g>
				</g>
				<g id="&lt;Group&gt;">
					<g id="&lt;Group&gt;">
						<g id="&lt;Group&gt;">
							<path id="&lt;Path&gt;" class="s3" d="m535.2 736.8c0 0-0.4 1.1-1.1 3.1-0.8 2-2 4.8-3.3 8.4-2.6 7-6.3 17-6.6 28.6-0.2 5.7 0.6 11.2 2.1 15.9 1.5 4.8 3.5 8.8 5.5 12.1 1.9 3.2 3.7 5.7 4.9 7.4 1.3 1.7 2.1 2.6 2 2.7q0 0-0.6-0.6-0.6-0.6-1.7-1.9c-1.3-1.6-3.3-4-5.3-7.3-2-3.2-4.1-7.3-5.7-12.1-1.6-4.8-2.4-10.4-2.3-16.3 0.4-11.7 4.2-21.8 7-28.8 1.4-3.5 2.7-6.3 3.6-8.3 0.9-1.9 1.4-3 1.5-2.9z"/>
						</g>
					</g>
				</g>
				<g id="&lt;Group&gt;">
					<g id="&lt;Group&gt;">
						<g id="&lt;Group&gt;">
							<path id="&lt;Path&gt;" class="s3" d="m618.3 855c-0.3 0.1-1.4-4.2-4.9-8.2-3.4-4-7.5-5.7-7.3-6 0-0.1 1.1 0.1 2.7 0.9 1.6 0.9 3.6 2.3 5.4 4.4 1.8 2.1 3 4.3 3.5 6 0.6 1.7 0.7 2.8 0.6 2.9z"/>
						</g>
					</g>
				</g>
			</g>
			<g id="&lt;Group&gt;">
				<g id="&lt;Group&gt;">
					<path id="&lt;Path&gt;" class="s13" d="m500 916.8l-46.8 2.4c-0.6-24.4 37.1-27.8 37.1-27.8z"/>
				</g>
			</g>
			<g id="&lt;Group&gt;">
				<g id="&lt;Group&gt;">
					<path id="&lt;Path&gt;" class="s3" d="m573.9 467.6c16.5 6.7 27.7 22.9 32.7 40 4.9 17 4.5 35.2 3.9 52.9-0.7 17.7-1.7 35.4-6 52.5-2.2 8.7-5.5 17.6-12 23.9-6.4 6.4-16.7 9.5-24.8 5.5-5.9-2.9-9.6-9-13-14.7-5.9-10.2-12-20.5-15.3-31.9-5.9-20.7-2.3-42.8 1.7-63.9q4.6-25.1 9.8-50"/>
				</g>
			</g>
			<g id="&lt;Group&gt;">
				<g id="&lt;Group&gt;">
					<path id="&lt;Path&gt;" class="s3" d="m553.6 468.5c4.7-3.7 10.5-5.8 16.5-6.1 4.8-9.7 16.2-14.2 26.8-16.2 15.7-3.1 14-3.5 28.6 2.9 14.6 6.4 35.3 24.7 37.9 40.4 2.5 14.7 6.8 26.4 13.2 39.8 3.9 8.3 11.8 14.1 16.4 22 5 8.6 5.8 19.6 1.9 28.8-3.8 9-11.7 17-11 26.7 0.5 5.6 0.2 9.7 2.5 14.9 7.6 17.7 4 41.2-12.3 51.4-16.3 10.2-39.8 6.7-52.4-7.9-10.9-12.6-13-30.7-12-47.3 1.1-16.7 4.9-33.3 3.8-50"/>
				</g>
			</g>
			<g id="&lt;Group&gt;">
				<g id="&lt;Group&gt;">
					<g id="&lt;Group&gt;">
						<g id="&lt;Group&gt;">
							<g id="&lt;Group&gt;">
								<g id="&lt;Group&gt;">
									<g id="&lt;Group&gt;">
										<g id="&lt;Group&gt;">
											<path id="&lt;Path&gt;" class="s3" d="m339.1 930.5l-48.1-125.1 159.1 3.6 37.2 106.8 84.8 8.9 0.2 5.8c-76.8 0.6-154.5 0.6-233.2 0z"/>
										</g>
									</g>
								</g>
							</g>
							<g id="&lt;Group&gt;">
								<g id="&lt;Group&gt;">
									<g id="&lt;Group&gt;">
										<g id="&lt;Group&gt;">
											<path id="&lt;Path&gt;" class="s1" d="m382.3 858.3c4-2.3 9.1-0.9 11.4 3 2.3 4 0.9 9.1-3.1 11.4-4 2.3-9 0.9-11.3-3.1-2.3-3.9-1-9 3-11.3z"/>
										</g>
									</g>
								</g>
							</g>
						</g>
					</g>
				</g>
			</g>
			<g id="&lt;Group&gt;">
				<g id="&lt;Group&gt;">
					<g id="&lt;Group&gt;">
						<g id="&lt;Group&gt;">
							<g id="&lt;Group&gt;">
								<g id="&lt;Group&gt;">
									<g id="&lt;Group&gt;">
										<g id="&lt;Group&gt;">
											<g id="&lt;Group&gt;">
												<g id="&lt;Group&gt;">
													<g id="&lt;Group&gt;">
														<path id="&lt;Path&gt;" class="s13" d="m574.8 633.8l0.6-22.9c0 0-25.1-4.2-30.3-37-2.6-16.3-1.8-43-0.4-64.9 1.2-19.7 18.6-34.3 38.2-32.3l56.8 6.1c6 0.6 10.5 5.7 10.3 11.7l-3.4 137.9c0.6 24.2-16.6 40.4-35.7 40.4-18.8 0-37.1-14.6-36.1-39z"/>
													</g>
												</g>
											</g>
										</g>
									</g>
									<g id="&lt;Group&gt;">
										<g id="&lt;Group&gt;">
											<g id="&lt;Group&gt;">
												<g id="&lt;Group&gt;">
													<g id="&lt;Group&gt;">
														<g id="&lt;Group&gt;">
															<path id="&lt;Path&gt;" class="s3" d="m561.7 523c2.3 0.1 4.1 2 4.1 4.3-0.1 2.2-2.1 3.9-4.4 3.7-2.3-0.1-4.1-2-4-4.2 0.1-2.2 2-3.9 4.3-3.8z"/>
														</g>
													</g>
												</g>
											</g>
										</g>
										<g id="&lt;Group&gt;">
											<g id="&lt;Group&gt;">
												<g id="&lt;Group&gt;">
													<g id="&lt;Group&gt;">
														<g id="&lt;Group&gt;">
															<g id="&lt;Group&gt;">
																<path id="&lt;Path&gt;" class="s3" d="m552.1 520.6c1.3-1 3.7-2.1 6.5-2.1 2.8 0 5.3 1 6.7 2.1 1.4 1 2 2 1.7 2.2-0.5 0.6-3.8-1.7-8.3-1.7-4.5 0-7.7 2.4-8.2 1.8-0.3-0.2 0.2-1.2 1.6-2.3z"/>
															</g>
														</g>
													</g>
												</g>
											</g>
										</g>
									</g>
									<g id="&lt;Group&gt;">
										<g id="&lt;Group&gt;">
											<g id="&lt;Group&gt;">
												<g id="&lt;Group&gt;">
													<g id="&lt;Group&gt;">
														<g id="&lt;Group&gt;">
															<path id="&lt;Path&gt;" class="s3" d="m605.4 523.9c2.3 0.1 4.1 2 4 4.2 0 2.2-2 3.9-4.3 3.8-2.3-0.1-4.1-2-4-4.3 0-2.2 2-3.9 4.3-3.7z"/>
														</g>
													</g>
												</g>
											</g>
										</g>
										<g id="&lt;Group&gt;">
											<g id="&lt;Group&gt;">
												<g id="&lt;Group&gt;">
													<g id="&lt;Group&gt;">
														<g id="&lt;Group&gt;">
															<g id="&lt;Group&gt;">
																<path id="&lt;Path&gt;" class="s3" d="m596.5 521.5c1.4-1.1 3.8-2.1 6.6-2.2 2.8 0 5.2 1.1 6.7 2.1 1.4 1.1 1.9 2 1.7 2.3-0.5 0.5-3.8-1.8-8.3-1.7-4.6 0-7.7 2.3-8.3 1.8-0.2-0.3 0.3-1.3 1.6-2.3z"/>
															</g>
														</g>
													</g>
												</g>
											</g>
										</g>
									</g>
									<g id="&lt;Group&gt;">
										<g id="&lt;Group&gt;">
											<g id="&lt;Group&gt;">
												<g id="&lt;Group&gt;">
													<g id="&lt;Group&gt;">
														<g id="&lt;Group&gt;">
															<path id="&lt;Path&gt;" class="s3" d="m571.1 557.3c-0.6 0-1.3 0-2-0.3-0.7-0.2-1.6-0.8-1.9-1.7-0.6-1.7 0.2-3.2 0.6-4.5q1.6-4.2 3.3-8.8c4.7-12.6 9-22.6 9.5-22.4 0.5 0.2-2.9 10.5-7.7 23q-1.8 4.6-3.4 8.8c-0.6 1.4-1 2.6-0.8 3.5 0.2 0.7 1.3 1 2.5 1.1 4.5 0.6 7.3 1.1 7.3 1.3 0 0.3-2.8 0.3-7.4 0z"/>
														</g>
													</g>
												</g>
											</g>
										</g>
									</g>
									<g id="&lt;Group&gt;">
										<g id="&lt;Group&gt;">
											<g id="&lt;Group&gt;">
												<g id="&lt;Group&gt;">
													<g id="&lt;Group&gt;">
														<path id="&lt;Path&gt;" class="s14" d="m575.4 610.9c0 0 22 1.4 43.9-11.8 0 0-10.7 22.6-43.5 19.5z"/>
													</g>
												</g>
											</g>
										</g>
									</g>
									<g id="&lt;Group&gt;">
										<g id="&lt;Group&gt;">
											<g id="&lt;Group&gt;">
												<g id="&lt;Group&gt;">
													<g id="&lt;Group&gt;">
														<path id="&lt;Path&gt;" class="s14" d="m580.4 568.2c1.7-2.1 4.5-3.3 7.3-3 2 0.2 4 1.2 5.2 2.7 1.2 1.6 1.4 3.9 0.3 5.4-1.2 1.8-3.7 2.2-5.9 1.5-2.2-0.6-4-2-5.8-3.4-0.5-0.4-1-0.8-1.3-1.3-0.3-0.6-0.3-1.3 0-1.7"/>
													</g>
												</g>
											</g>
										</g>
									</g>
									<g id="&lt;Group&gt;">
										<g id="&lt;Group&gt;">
											<g id="&lt;Group&gt;">
												<g id="&lt;Group&gt;">
													<g id="&lt;Group&gt;">
														<g id="&lt;Group&gt;">
															<path id="&lt;Path&gt;" class="s3" d="m592.5 563.7c-0.1 2-1.2 4.9-3.8 7-2.6 2.1-5.7 2.8-7.9 2.7-2.2 0-3.5-0.7-3.4-1 0.1-0.7 5.3-0.1 9.5-3.6 4.2-3.5 4.2-8.4 4.9-8.4 0.4 0 0.9 1.2 0.7 3.3z"/>
														</g>
													</g>
												</g>
											</g>
										</g>
									</g>
								</g>
							</g>
						</g>
						<g id="&lt;Group&gt;">
							<g id="&lt;Group&gt;">
								<g id="&lt;Group&gt;">
									<g id="&lt;Group&gt;">
										<g id="&lt;Group&gt;">
											<path id="&lt;Path&gt;" class="s3" d="m595.6 513.5c2-0.8 4.9-1.3 8.1-0.9 3.2 0.3 5.9 1.4 7.6 2.6 1.7 1.2 2.5 2.4 2.2 2.9-0.7 1.1-5-0.4-10.3-1-5.3-0.6-9.9 0-10.3-1.3-0.2-0.5 0.8-1.5 2.7-2.3z"/>
										</g>
									</g>
								</g>
							</g>
						</g>
						<g id="&lt;Group&gt;">
							<g id="&lt;Group&gt;">
								<g id="&lt;Group&gt;">
									<g id="&lt;Group&gt;">
										<g id="&lt;Group&gt;">
											<path id="&lt;Path&gt;" class="s3" d="m553.5 507.2c1.3-1 3.6-2 6.1-2.1 2.6 0 4.9 0.8 6.3 1.7 1.4 1 1.9 2 1.5 2.6-0.7 1-3.9 0.2-7.6 0.3-3.8 0.1-6.9 1.2-7.7 0.1-0.3-0.5 0.1-1.5 1.4-2.6z"/>
										</g>
									</g>
								</g>
							</g>
						</g>
					</g>
				</g>
				<g id="&lt;Group&gt;">
					<g id="&lt;Group&gt;">
						<path id="&lt;Path&gt;" class="s3" d="m567 459.5l58.5-6.4 46.2 42.9-0.4 54.4 4.3 76.9-29.7 17.3c-6.8-14.3-13.7-29.2-13.4-44.9 0.3-11.5 4.5-22.8 3.8-34.3-0.6-8.6-3.8-16.8-5.2-25.3-1.5-8.5-0.6-18.2 5.5-24.2-12.2-3.6-24.5-7.3-35.6-13.7-11-6.5-19.3-12.4-23.6-24.4-7.7 12-19.7 18.6-32.1 25.8z"/>
					</g>
				</g>
			</g>
			<g id="&lt;Group&gt;">
				<g id="&lt;Group&gt;">
					<g id="&lt;Group&gt;">
						<g id="&lt;Group&gt;">
							<path id="&lt;Compound Path&gt;" fill-rule="evenodd" class="s15" d="m530.3 649.3c2.4-5.7 11.1-5.5 14.9-10.3 4.2-5.4 0.5-13-2.6-19-15.1-29-13.5-63.6-10.8-96.2 1.2-14 2.6-28.2 8.6-40.9 12.1-25.2 36.8-42.6 73.1-41 40.6 2.4 49.6 30.2 65.6 55.1 16 24.8 31.3 59 26.1 88.1-2.6 14.5-18.3 25.7-15.5 40.3 1.8 9.1 11.4 20.1 9.6 29.2-2.6 12.5-20.7 16.8-31.3 23.9-10.9 7.2-20 16.9-29.5 25.8-9.6 9-20.1 17.5-32.5 21.7-12.4 4.2-27.2 3.4-37.3-4.9-16.5-13.6-14.9-40.7-29.9-55.8-4.6-4.6-11.1-10.1-8.5-16zm23.3-157.3c-6.1 9.1-9.6 21-11 31.8-2.4 18.4-0.7 37.1 2.4 55.3 3 18.3 10.7 36.3 24.1 49 13.4 12.8 29.2 16 47.1 11.4 14.6-3.8 12.5-46.9 12.5-46.9 0 0-0.2-34 0-47.5 0.2-18.1 0.2-38.8-9.4-51.7-16.1-21.4-30.5-21.6-35.4-21.4 0 0-18.2 1.7-30.3 20z"/>
						</g>
					</g>
					<g id="&lt;Group&gt;" style="opacity: .3">
						<g id="&lt;Group&gt;">
							<g id="&lt;Group&gt;">
								<path id="&lt;Path&gt;" class="s10" d="m696.1 640.5c-12 6.6-20.3 16.3-30 25.8-9.8 9.6-20.7 18.8-34 22.3-13.2 3.4-29.3-0.7-35.9-12.7 37.5 6.4 81.1-23.5 93.9-59.4 0 0-1.4 5.1-0.2 9.5 1.2 4.4 6.2 14.5 6.2 14.5z"/>
							</g>
						</g>
					</g>
					<g id="&lt;Group&gt;" style="opacity: .3">
						<g id="&lt;Group&gt;">
							<g id="&lt;Group&gt;">
								<path id="&lt;Path&gt;" class="s10" d="m546.9 630.6c2.4 9.5 9.4 18.6 18.1 23 2 1 4.1 1.8 5.7 3.3 1.6 1.6 2.7 4 1.8 6-1 2.3-4.1 3.1-6.5 2.4-2.4-0.7-4.3-2.5-6.1-4.2-6.5-6.4-13.2-12.8-15.1-21.6 0 0 2-2.4 2.2-4.5 0.2-2.1-0.1-4.4-0.1-4.4z"/>
							</g>
						</g>
					</g>
				</g>
				<g id="&lt;Group&gt;">
					<g id="&lt;Group&gt;">
						<g id="&lt;Group&gt;">
							<path id="&lt;Path&gt;" class="s3" d="m687.1 623.6q0.1 0-0.5 1.2c-0.4 0.7-1 1.8-1.8 3.2-1.7 2.8-4.3 6.7-7.8 11.2-3.5 4.6-8.1 9.8-13.7 15-5.6 5.1-12.4 10.3-20.4 14.1-4 1.8-8.1 3.2-12.1 4.4-4 1.1-8 2-11.7 2.6-7.6 1.2-14.5 1.2-20.3 0.7-5.7-0.5-10.3-1.6-13.4-2.5-1.6-0.5-2.7-0.9-3.5-1.2q-1.2-0.5-1.2-0.5c0-0.1 1.7 0.5 4.8 1.3 3.1 0.8 7.7 1.7 13.4 2.2 5.7 0.4 12.5 0.3 20-1 3.8-0.6 7.6-1.5 11.6-2.6 3.9-1.2 8-2.5 12-4.3 7.8-3.8 14.5-8.9 20.2-13.9 5.6-5.1 10.1-10.2 13.7-14.7 3.6-4.5 6.3-8.3 8-11 0.9-1.3 1.5-2.4 2-3.1q0.7-1.1 0.7-1.1z"/>
						</g>
					</g>
				</g>
				<g id="&lt;Group&gt;">
					<g id="&lt;Group&gt;">
						<g id="&lt;Group&gt;">
							<path id="&lt;Path&gt;" class="s3" d="m595.1 660.7c0 0.1-0.8 0.3-2.4 0.6-1.6 0.3-3.8 0.6-6.7 0.6-5.6 0.1-13.7-1.3-21.2-5.8-7.6-4.5-12.6-11-15.2-16-1.3-2.5-2.1-4.7-2.6-6.2-0.5-1.5-0.6-2.4-0.6-2.4 0.2-0.1 1.1 3.4 3.9 8.2 2.7 4.9 7.7 11.1 15 15.5 7.3 4.4 15.2 5.9 20.7 6 5.6 0.1 9.1-0.7 9.1-0.5z"/>
						</g>
					</g>
				</g>
				<g id="&lt;Group&gt;">
					<g id="&lt;Group&gt;">
						<g id="&lt;Group&gt;">
							<path id="&lt;Path&gt;" class="s3" d="m587.3 710.3q0-0.1 1.2-0.3c0.7-0.2 1.9-0.4 3.3-0.7 2.9-0.6 7.1-1.7 12.2-3.4 10.1-3.4 23.4-9.9 36.5-19.6 13.1-9.6 23.8-19.8 31.5-27.2 3.8-3.6 6.8-6.6 9.1-8.8q1.5-1.4 2.5-2.4 0.8-0.8 0.9-0.7 0 0-0.8 0.9-0.9 1-2.3 2.5c-2.1 2.2-5.1 5.3-8.9 9-7.5 7.6-18.2 17.9-31.4 27.6-13.2 9.7-26.7 16.2-36.9 19.4-5.1 1.6-9.3 2.6-12.3 3.1-1.5 0.3-2.6 0.4-3.4 0.5q-1.2 0.1-1.2 0.1z"/>
						</g>
					</g>
				</g>
			</g>
		</g>
	</g>
	<g id="Character 3">
		<g id="&lt;Group&gt;">
			<g id="&lt;Group&gt;">
				<g id="&lt;Group&gt;">
					<g id="&lt;Group&gt;">
						<path id="&lt;Compound Path&gt;" fill-rule="evenodd" class="s4" d="m1316.2 811.6c-3.4 24-17.4 39.8-44.2 58l-74.4 48.2 0.3 13.1-172.5 0.2c0 0-125.4-93.8-128.4-126.7-2.3-26 39.1-81.1 90.8-145.9l0.1 0.1c28.3-37.6 59-31.9 72.5-33l72.8-1.5c37.4 0.6 56.8 10.2 81.2 38.5 1.3 1.4 3.7 3.8 6.5 6.6l0.2-0.2 70.5 83.2c14.5 16 27.6 38 24.6 59.4zm-292.1 38.6l1.3-28.8-7.7-73.6c-14.8 17-42 48.9-42 53.9zm222.5-41.9l-56.2-58.2 4.2 97.1z"/>
					</g>
				</g>
				<g id="&lt;Group&gt;">
					<g id="&lt;Group&gt;">
						<g id="&lt;Group&gt;">
							<g id="&lt;Group&gt;">
								<path id="&lt;Path&gt;" class="s0" d="m1133.9 888.6l-127.5 63c-3.4 1.7-7.5 0.3-9.2-3.1l-41.2-83.4c-1.6-3.4-0.2-7.5 3.1-9.1l127.5-63c3.4-1.7 7.5-0.3 9.2 3.1l41.2 83.3c1.7 3.4 0.3 7.5-3.1 9.2z"/>
							</g>
						</g>
						<g id="&lt;Group&gt;">
							<g id="&lt;Group&gt;">
								<path id="&lt;Path&gt;" class="s1" d="m1045.9 864.4c3.7-2.3 8.6-1.1 10.9 2.6 2.2 3.7 1.1 8.6-2.6 10.8-3.8 2.3-8.6 1.2-10.9-2.6-2.3-3.7-1.1-8.5 2.6-10.8z"/>
							</g>
						</g>
					</g>
					<g id="&lt;Group&gt;">
						<g id="&lt;Group&gt;">
							<g id="&lt;Group&gt;">
								<path id="&lt;Path&gt;" class="s3" d="m1189.3 680.9q0 0 0 0.7 0 0.7 0.1 1.8 0 2.6 0.1 7.2c0 6.2 0.1 15.2 0.2 26.3 0.1 22.2 0.9 52.8 2.7 86.6 1.6 33.9 3.4 64.5 4.4 86.7 0.5 11.1 0.8 20 1 26.3q0.1 4.5 0.1 7.1 0 1.2 0 1.9 0 0.6 0 0.6 0 0-0.1-0.6 0-0.7-0.1-1.9-0.1-2.6-0.3-7.1c-0.4-6.3-0.8-15.3-1.4-26.3-1.2-22.2-2.8-52.8-4.7-86.6-1.7-33.9-2.5-64.5-2.4-86.7 0.1-11.1 0.1-20.1 0.2-26.3q0-4.6 0.1-7.2 0-1.1 0-1.8 0-0.7 0.1-0.7z"/>
							</g>
						</g>
					</g>
					<g id="&lt;Group&gt;">
						<g id="&lt;Group&gt;">
							<g id="&lt;Group&gt;">
								<path id="&lt;Path&gt;" class="s4" d="m1009.7 637.4c9.2-6.7 19.9-4.7 29.1 2 9.2 6.7 14.3 18 15.3 29.4 0.9 11.3-2 22.7-6.3 33.2-7 16.8-17.2 30.5-32.6 47.8l-39.5 51.9 76.3 74.5-31.6 49.9-63.9-51.4c-21.8-18.4-40.4-37.3-54-56.8"/>
							</g>
						</g>
						<g id="&lt;Group&gt;">
							<g id="&lt;Group&gt;">
								<g id="&lt;Group&gt;">
									<path id="&lt;Path&gt;" class="s3" d="m902.5 817.9q0 0 0.4 0.6 0.5 0.7 1.4 1.8c1.2 1.6 2.9 4 5.3 7 4.7 5.9 12 14.4 22.1 24.3 5 5 10.7 10.4 17 16 6.4 5.6 13.6 11.3 21.2 17.4 15.2 12.2 32.3 25.9 50.8 40.7l-0.7 0.1c9.8-15.5 20.4-32.3 31.5-49.9l0.1 0.7c-12.7-12.4-25.9-25.3-39.3-38.4-12.7-12.4-25-24.4-37-36.1l-0.3-0.3 0.3-0.4c13.9-18.3 27.2-35.7 39.5-51.8l0.1-0.1c7.7-8.7 14.9-17.3 20.9-26.2 5.9-8.8 10.5-18 13.7-27 3.2-9 4.8-17.9 4.3-26.2-0.4-8.3-3-15.7-6.7-21.5-3.8-5.8-8.8-9.7-13.6-12.2-4.8-2.4-9.5-3.2-13.2-2.9-3.7 0.3-6.4 1.5-8.1 2.4-1.7 0.9-2.5 1.6-2.5 1.5q0 0 0.6-0.4c0.4-0.3 1-0.8 1.8-1.2 1.7-1 4.4-2.2 8.2-2.6 3.7-0.3 8.5 0.4 13.4 2.9 4.9 2.3 10 6.3 13.8 12.2 3.9 5.8 6.5 13.4 7 21.7 0.5 8.4-1.1 17.5-4.3 26.6-3.1 9.1-7.7 18.3-13.7 27.2-6 8.9-13.2 17.6-20.9 26.4v-0.1c-12.3 16.2-25.6 33.6-39.5 52l-0.1-0.7c12 11.6 24.3 23.7 37 36 13.5 13.2 26.6 26 39.3 38.4l0.3 0.3-0.2 0.4c-11.1 17.5-21.8 34.4-31.6 49.8l-0.3 0.5-0.4-0.3c-18.5-14.9-35.6-28.7-50.7-40.9-7.6-6.2-14.8-11.8-21.1-17.5-6.4-5.7-12-11-17-16-10-10.1-17.3-18.6-21.9-24.7-2.4-3-4.1-5.4-5.2-7q-0.9-1.2-1.3-1.8-0.4-0.7-0.4-0.7z"/>
								</g>
							</g>
						</g>
					</g>
					<g id="&lt;Group&gt;">
						<g id="&lt;Group&gt;">
							<g id="&lt;Group&gt;">
								<path id="&lt;Path&gt;" class="s3" d="m1273.9 806.8c-0.1 0.2-1.5-0.5-4-1.2-2.4-0.8-5.9-1.5-9.8-1.3-3.9 0.2-7.3 1.3-9.7 2.3-2.3 1-3.7 1.8-3.8 1.6-0.1-0.1 1.2-1.1 3.5-2.3 2.4-1.2 5.9-2.4 9.9-2.6 4.1-0.2 7.7 0.6 10.1 1.6 2.5 0.9 3.9 1.8 3.8 1.9z"/>
							</g>
						</g>
					</g>
					<g id="&lt;Group&gt;">
						<g id="&lt;Group&gt;">
							<g id="&lt;Group&gt;">
								<g id="&lt;Group&gt;">
									<path id="&lt;Path&gt;" class="s16" d="m1067.6 923.8c-2 1-8.1 4-13.9 6.9-6.8 3.4-15.1 2.5-21-2.4l-8.7-7.1 24-37.7c2.8 1.2 14.4 2.9 18.4 4.3 3.4 1.2 7.1 1.8 10.8 1.8 3.8 0 8.8-0.2 12.2-1 0.2-0.1 0.6-0.2 0.8-0.3 0.6-0.3 1.2-0.3 1.7-0.3 3.5-0.4 6.2 3.2 4.3 6.1-2 2.9-11.3 6.6-23.3 6.2q-0.3 0-0.5 0.1c-10.5-0.1-0.9 8.7 5.3 14 2.2 1.8 3.5 4.6 3 7.5-0.1 1-0.5 2-1.4 2.5-2.6 1.7-11.7-0.6-11.7-0.6z"/>
								</g>
							</g>
						</g>
					</g>
				</g>
			</g>
			<g id="&lt;Group&gt;">
				<g id="&lt;Group&gt;">
					<g id="&lt;Group&gt;">
						<g id="&lt;Group&gt;">
							<g id="&lt;Group&gt;">
								<g id="&lt;Group&gt;">
									<g id="&lt;Group&gt;">
										<g id="&lt;Group&gt;">
											<g id="&lt;Group&gt;">
												<g id="&lt;Group&gt;">
													<g id="&lt;Group&gt;">
														<path id="&lt;Path&gt;" class="s16" d="m1099.7 658.8c-18.4 0-34.9-15.7-34.7-39l-3.4-133.1 0.4 0.1c-0.1-5.8 4.2-10.7 10-11.3l54.8-5.8c18.9-2 35.6 12.2 36.8 31.1 1.3 21.1 2.1 46.9-0.4 62.6-5 31.6-29.2 35.6-29.2 35.6l0.6 22.1c0.9 23.5-16.7 37.7-34.9 37.7z"/>
													</g>
												</g>
											</g>
										</g>
									</g>
									<g id="&lt;Group&gt;">
										<g id="&lt;Group&gt;">
											<g id="&lt;Group&gt;">
												<g id="&lt;Group&gt;">
													<g id="&lt;Group&gt;">
														<g id="&lt;Group&gt;">
															<path id="&lt;Path&gt;" class="s3" d="m1151.4 518c0 2.1-1.7 4-3.9 4.1-2.3 0.1-4.2-1.5-4.2-3.7-0.1-2.1 1.6-3.9 3.9-4.1 2.2-0.1 4.1 1.6 4.2 3.7z"/>
														</g>
													</g>
												</g>
											</g>
										</g>
										<g id="&lt;Group&gt;">
											<g id="&lt;Group&gt;">
												<g id="&lt;Group&gt;">
													<g id="&lt;Group&gt;">
														<g id="&lt;Group&gt;">
															<g id="&lt;Group&gt;">
																<path id="&lt;Path&gt;" class="s3" d="m1158 514.2c-0.5 0.6-3.5-1.7-7.9-1.7-4.4 0-7.6 2.2-8 1.7-0.3-0.3 0.2-1.2 1.6-2.2 1.4-1 3.7-2 6.5-2 2.7 0 5 1 6.3 2 1.3 1.1 1.8 2 1.5 2.2z"/>
															</g>
														</g>
													</g>
												</g>
											</g>
										</g>
									</g>
									<g id="&lt;Group&gt;">
										<g id="&lt;Group&gt;">
											<g id="&lt;Group&gt;">
												<g id="&lt;Group&gt;">
													<g id="&lt;Group&gt;">
														<g id="&lt;Group&gt;">
															<path id="&lt;Path&gt;" class="s3" d="m1109.3 518.8c0 2.1-1.7 4-4 4.1-2.2 0.1-4.1-1.5-4.1-3.7-0.1-2.1 1.6-3.9 3.9-4.1 2.2-0.1 4.1 1.6 4.2 3.7z"/>
														</g>
													</g>
												</g>
											</g>
										</g>
										<g id="&lt;Group&gt;">
											<g id="&lt;Group&gt;">
												<g id="&lt;Group&gt;">
													<g id="&lt;Group&gt;">
														<g id="&lt;Group&gt;">
															<g id="&lt;Group&gt;">
																<path id="&lt;Path&gt;" class="s3" d="m1115.1 515.1c-0.5 0.5-3.5-1.8-7.9-1.8-4.3 0-7.5 2.2-8 1.7-0.3-0.2 0.3-1.2 1.7-2.2 1.3-1 3.7-2 6.4-2 2.7 0 5 1 6.3 2 1.3 1.1 1.8 2 1.5 2.3z"/>
															</g>
														</g>
													</g>
												</g>
											</g>
										</g>
									</g>
									<g id="&lt;Group&gt;">
										<g id="&lt;Group&gt;">
											<g id="&lt;Group&gt;">
												<g id="&lt;Group&gt;">
													<g id="&lt;Group&gt;">
														<g id="&lt;Group&gt;">
															<path id="&lt;Path&gt;" class="s3" d="m1131 547.4c0-0.2 2.7-0.7 7.1-1.3 1.1-0.1 2.1-0.3 2.3-1.1 0.3-0.8-0.2-2-0.7-3.3q-1.6-4-3.3-8.4c-4.6-12.1-7.9-22.1-7.4-22.2 0.5-0.2 4.6 9.4 9.1 21.5q1.7 4.5 3.2 8.5c0.4 1.3 1.2 2.7 0.6 4.4-0.3 0.8-1.1 1.4-1.8 1.6-0.8 0.3-1.4 0.3-1.9 0.3-4.5 0.2-7.2 0.3-7.2 0z"/>
														</g>
													</g>
												</g>
											</g>
										</g>
									</g>
									<g id="&lt;Group&gt;">
										<g id="&lt;Group&gt;">
											<g id="&lt;Group&gt;">
												<g id="&lt;Group&gt;">
													<g id="&lt;Group&gt;">
														<path id="&lt;Path&gt;" class="s17" d="m1134.2 608.6c-31.6 2.9-42.5-20.9-42.5-20.9 21 12.7 42.3 11.3 42.3 11.3z"/>
													</g>
												</g>
											</g>
										</g>
									</g>
								</g>
							</g>
						</g>
						<g id="&lt;Group&gt;">
							<g id="&lt;Group&gt;">
								<g id="&lt;Group&gt;">
									<g id="&lt;Group&gt;">
										<g id="&lt;Group&gt;">
											<path id="&lt;Path&gt;" class="s3" d="m1117.1 507.4c-0.4 1.2-4.8 0.6-9.9 1.3-5.1 0.5-9.3 2-9.9 0.9-0.3-0.5 0.4-1.6 2.1-2.8 1.6-1.1 4.2-2.2 7.3-2.5 3.1-0.4 5.9 0.1 7.8 0.9 1.8 0.7 2.8 1.7 2.6 2.2z"/>
										</g>
									</g>
								</g>
							</g>
						</g>
						<g id="&lt;Group&gt;">
							<g id="&lt;Group&gt;">
								<g id="&lt;Group&gt;">
									<g id="&lt;Group&gt;">
										<g id="&lt;Group&gt;">
											<path id="&lt;Path&gt;" class="s3" d="m1156.4 501.6c-0.7 1-3.8 0-7.4-0.1-3.6-0.1-6.6 0.7-7.3-0.3-0.4-0.5 0.1-1.5 1.5-2.5 1.3-0.9 3.5-1.7 6-1.6 2.5 0.1 4.6 1 5.9 2 1.2 1 1.7 2 1.3 2.5z"/>
										</g>
									</g>
								</g>
							</g>
						</g>
					</g>
				</g>
			</g>
			<g id="&lt;Group&gt;">
				<g id="&lt;Group&gt;">
					<path id="&lt;Path&gt;" class="s3" d="m1063.9 564.2c-8.7-2.6-13.4-16.1-13.7-25.2-0.3-5.5 1.4-11.5-1.3-16.2-2.5-4.2-7.9-6.2-9.8-10.7-3.3-8.1 7.1-16 6.4-24.7-0.4-4.5-3.7-8.1-5.1-12.4-3.6-10.2 4.7-21.7 15.1-24.7 10.4-3 21.6 0.6 30.9 6.2 2.7-12.1 18.1-19.4 29.2-13.9 3.5 1.7 7.1 4.6 11 3.8 4.4-0.9 4.7-7.5 7.4-11 6.9-9 24.6-10.7 33.4-3.6 8.9 7.1 10.4 22.7 7.3 33.6-1.8 6.1-8 14.6-14.1 16.3-3.9 1.1-10.7-0.8-13.6-6.4-10.2 5.7-23.7 4.8-33-2.3-4.7 11.5-20 18.4-31.1 14.8 1.9 18.2-2.6 31.7-0.6 49.9q-4 1.2-8 2.4c-0.4-5.4 1.2-9.3-1.1-17.2-1.5-5.2-5.8-6.9-11.2-5.9"/>
				</g>
			</g>
			<g id="&lt;Group&gt;">
				<g id="&lt;Group&gt;">
					<g id="&lt;Group&gt;">
						<path id="&lt;Path&gt;" class="s16" d="m1070.2 543.9c-3.7 1.8-8.5 0.3-11.2-2.8-2.8-3.1-3.8-7.5-3.8-11.6-0.1-2.7 0.3-5.4 1.6-7.8 1.2-2.4 2.8-4.5 6-4.8"/>
					</g>
				</g>
				<g id="&lt;Group&gt;">
					<g id="&lt;Group&gt;">
						<g id="&lt;Group&gt;">
							<path id="&lt;Path&gt;" class="s17" d="m1068.3 537.1c0 0.1-1.2 0.5-3.1-0.2-0.9-0.3-1.9-0.9-2.7-2-0.8-1-1.3-2.4-1.5-3.9-0.1-1.4 0.3-2.9 0.9-4 0.6-1.2 1.4-2 2.2-2.6 1.6-1 2.9-1 2.9-0.9 0 0.2-1.1 0.4-2.4 1.5-1.4 1.1-2.8 3.3-2.5 6 0.1 2.6 1.9 4.6 3.4 5.3 1.6 0.7 2.8 0.6 2.8 0.8z"/>
						</g>
					</g>
				</g>
			</g>
			<g id="&lt;Group&gt;">
				<g id="&lt;Group&gt;">
					<path id="&lt;Path&gt;" class="s2" d="m1114.8 547.8c5 4.8 10.6 9 16.7 12.3-2.8 4.1-10.5 5.5-14.4 2.8-8-5.7-2.3-15.1-2.3-15.1z"/>
				</g>
			</g>
			<g id="&lt;Group&gt;">
				<g id="&lt;Group&gt;">
					<g id="&lt;Group&gt;">
						<path id="&lt;Path&gt;" class="s14" d="m1130 572.1c-0.1 0.2-2.2-1.2-5.1-1.2-2.9-0.1-4.9 1.4-5 1.1-0.1 0 0.3-0.6 1.2-1.1 0.8-0.6 2.2-1.1 3.9-1 1.6 0 3 0.5 3.8 1 0.9 0.6 1.3 1.1 1.2 1.2z"/>
					</g>
				</g>
			</g>
		</g>
	</g>
	<g id="Character 4">
		<g id="&lt;Group&gt;">
			<g id="&lt;Group&gt;">
				<g id="&lt;Group&gt;">
					<g id="&lt;Group&gt;">
						<g id="&lt;Group&gt;">
							<path id="&lt;Path&gt;" class="s18" d="m1038 688.5c0.3-3.1-1.9-15.5-1.8-19.7 0-3.7-0.6-7.3-1.8-10.8-1.2-3.7-3-8.4-4.9-11.3-0.1-0.2-0.3-0.5-0.5-0.7-0.4-0.4-0.7-1-0.9-1.5-1.4-3.1 1.1-6.9 4.5-5.9 3.3 0.9 9.8 8.5 13.4 20q0.1 0.2 0.2 0.5c3.8 11.5 10.2-6.3 12.7-12.7 2.4-6.4 10.9-26 13.5-26.7 3.7-1.1 5.6 2.8 3.1 9.1-2.7 6.5-9.1 26-5.7 27.2 3.4 1.2 15.4-31.7 15.4-31.7 0 0 1.5-7.4 5.5-6.2 7.2 2.3-8.1 36.3-9.7 39.5-1.1 2.2 2.6 3.7 3.6 1.2 1.1-2.5 11.3-33.1 18.6-30.8 5.7 1.7-12.3 28-10.9 35.6 1.3 7.6 11.6-21.4 16.9-19.5 2 0.7 3.4 1.5-4.9 17.3-4.4 8.4-14.1 26.4-23 38.8"/>
						</g>
					</g>
				</g>
			</g>
			<g id="&lt;Group&gt;">
				<g id="&lt;Group&gt;">
					<g id="&lt;Group&gt;">
						<g id="&lt;Group&gt;">
							<path id="&lt;Path&gt;" class="s15" d="m1089.3 701.4l-49 123.3c-9.9 21.9-31.9 35.8-56 35.2-23.6-0.5-44.6-14.9-53.8-36.6l-14.3-34.2-8.4 44.5 37.8 97-209.5 0.4 20.4-81.9-0.4-13.2-18.3 17.1c-5.3 4.6-17.4 16.3-31.6 18.5-34.4 4-59.2-28.5-41.9-86.8 2.5-9.3 16.6-61.3 29.2-95.2 14-37.7 42.9-45.5 42.9-45.5 55.7-19.5 103.8-24.6 154.8-9.9 1.3 0.2 12.3 2.6 24.4 8.3q1.1 0.5 2.2 0.9v0.3c10.9 5.5 22.1 13.8 27.8 25.8 14.7 31.5 42.1 110.6 42.1 110.6l48.4-95.9z"/>
						</g>
					</g>
					<g id="&lt;Group&gt;">
						<g id="&lt;Group&gt;">
							<g id="&lt;Group&gt;">
								<path id="&lt;Path&gt;" class="s3" d="m783.7 803.7c0.1 0-0.6 1-1.8 2.7-1.3 1.7-3.2 4.1-5.6 7-4.8 5.8-11.8 13.6-19.8 21.9-8.1 8.2-15.8 15.3-21.5 20.2-2.9 2.5-5.3 4.4-7 5.7-1.6 1.3-2.6 2-2.6 1.9-0.1 0 0.8-0.8 2.4-2.2 1.6-1.4 3.9-3.4 6.7-5.9 5.6-5.1 13.2-12.2 21.2-20.5 8.1-8.2 15.1-15.9 20-21.6 2.5-2.8 4.5-5.2 5.8-6.8 1.4-1.6 2.2-2.5 2.2-2.4z"/>
							</g>
						</g>
					</g>
					<g id="&lt;Group&gt;">
						<g id="&lt;Group&gt;">
							<g id="&lt;Group&gt;">
								<path id="&lt;Path&gt;" class="s3" d="m908.4 830.5q-0.1 0 0.1-1.2 0.2-1.2 0.5-3.1c0.5-2.9 1.3-6.9 2.2-11.7 1.8-9.8 4.3-23.3 6.3-38.4q0.8-5.7 1.4-11.1c0.4-3.6 0.8-6.9 0.6-10.2-0.3-6.6-1.6-12.4-2.6-17.3-1.1-4.9-2.1-8.8-2.6-11.5q-0.4-2.1-0.5-3.2-0.1-1.1-0.1-1.1 0.1 0 0.3 1.1 0.2 1.1 0.7 3.1c0.6 2.7 1.7 6.6 2.9 11.5 1.2 4.8 2.5 10.7 2.8 17.3 0.2 3.4-0.1 6.9-0.5 10.4q-0.6 5.4-1.3 11.1c-2 15.1-4.7 28.7-6.7 38.5-1 4.8-1.9 8.7-2.5 11.6q-0.4 1.9-0.7 3.1-0.3 1.1-0.3 1.1z"/>
							</g>
						</g>
					</g>
					<g id="&lt;Group&gt;">
						<g id="&lt;Group&gt;">
							<g id="&lt;Group&gt;">
								<path id="&lt;Path&gt;" class="s3" d="m983.4 803.5c-0.3-0.1 0.4-5.3 1.6-11.8 1.2-6.4 2.4-11.6 2.7-11.5 0.3 0-0.5 5.3-1.7 11.7-1.2 6.4-2.4 11.6-2.6 11.6z"/>
							</g>
						</g>
					</g>
					<g id="&lt;Group&gt;">
						<g id="&lt;Group&gt;">
							<g id="&lt;Group&gt;">
								<path id="&lt;Path&gt;" class="s3" d="m990.7 806.3c-0.2 0-1.2-6-2-13.5-0.9-7.5-1.4-13.6-1.1-13.6 0.3 0 1.2 6 2.1 13.5 0.9 7.5 1.3 13.6 1 13.6z"/>
							</g>
						</g>
					</g>
					<g id="&lt;Group&gt;">
						<g id="&lt;Group&gt;">
							<g id="&lt;Group&gt;">
								<path id="&lt;Path&gt;" class="s3" d="m836.2 930.6c-0.3 0-0.5-32.2-0.5-71.8 0-39.7 0.2-71.9 0.5-71.9 0.3 0 0.5 32.2 0.5 71.9 0 39.6-0.2 71.8-0.5 71.8z"/>
							</g>
						</g>
					</g>
					<g id="&lt;Group&gt;" style="opacity: .2">
						<g id="&lt;Group&gt;">
							<g id="&lt;Group&gt;">
								<path id="&lt;Path&gt;" class="s15" d="m914.8 727.5c9.8 18.8 18.4 37.5 19.2 58.7 0.6 16.5-6 30.3 0.8 45.3-0.4 0.3-6.2-12.7-8.8-18.8-5.3-12.5-9.9-23.7-9.9-23.7 0 0 3.6-28.2 3.9-33 0.3-4.9-5.2-28.5-5.2-28.5z"/>
							</g>
						</g>
					</g>
					<g id="&lt;Group&gt;" style="opacity: .2">
						<g id="&lt;Group&gt;">
							<g id="&lt;Group&gt;">
								<path id="&lt;Path&gt;" class="s15" d="m671.8 823.1c0 9.4-5.9-21.7-0.4-29.4 3.8-5.4 10.4-7.9 16.8-9.6 6.4-1.6 13.1-2.6 18.8-6 7.4-4.3 12-11.9 17.2-18.7 5.1-6.8 11.9-35.5 20.4-36.1v42c-20 12.5-41.1 25.2-63.2 35.4 0 0-9.6 7.6-9.6 22.4z"/>
							</g>
						</g>
					</g>
					<g id="&lt;Group&gt;" style="opacity: .2">
						<g id="&lt;Group&gt;">
							<g id="&lt;Group&gt;">
								<path id="&lt;Path&gt;" class="s15" d="m794.9 790.8l43.2 0.5q1.2 11.4 2.5 22.9c-15.1 1.1-30.5-1.6-45.4 1-15.4 2.7-25.4 13-39.1 20.7z"/>
							</g>
						</g>
					</g>
					<g id="&lt;Group&gt;">
						<g id="&lt;Group&gt;">
							<g id="&lt;Group&gt;">
								<path id="&lt;Path&gt;" class="s3" d="m744.6 722.8c0.3 0 0.6 9.3 0.6 20.9 0 11.5-0.3 20.8-0.6 20.8-0.3 0-0.5-9.3-0.5-20.8 0-11.6 0.2-20.9 0.5-20.9z"/>
							</g>
						</g>
					</g>
					<g id="&lt;Group&gt;">
						<g id="&lt;Group&gt;">
							<g id="&lt;Group&gt;">
								<path id="&lt;Path&gt;" class="s3" d="m671.7 822.9c-0.1 0-0.3-1.5-0.2-3.8 0.1-2.3 0.7-5.4 2.1-8.7 1.4-3.2 3.3-5.9 4.9-7.5 1.6-1.7 2.8-2.5 2.8-2.4 0.3 0.2-4.1 4-6.7 10.3-2.8 6.3-2.6 12.1-2.9 12.1z"/>
							</g>
						</g>
					</g>
					<g id="&lt;Group&gt;">
						<g id="&lt;Group&gt;">
							<g id="&lt;Group&gt;">
								<path id="&lt;Path&gt;" class="s3" d="m683.3 799.6c2.1-1 4.9-2.4 8.2-4 6.9-3.4 16.3-8.2 26.4-14.1 10.1-6 19-11.8 25.3-16.2 3-2.1 5.5-3.8 7.4-5.2 1.8-1.2 2.8-1.9 2.8-1.8 0 0.1-0.9 0.8-2.5 2.2-1.7 1.3-4.2 3.2-7.3 5.5-6.1 4.5-14.9 10.5-25.1 16.4-10.1 5.9-19.6 10.7-26.6 13.9-3.5 1.6-6.4 2.9-8.4 3.7-2 0.8-3.1 1.2-3.2 1.1 0 0 1.1-0.6 3-1.5z"/>
							</g>
						</g>
					</g>
				</g>
				<g id="&lt;Group&gt;">
					<g id="&lt;Group&gt;">
						<g id="&lt;Group&gt;">
							<g id="&lt;Group&gt;">
								<path id="&lt;Compound Path&gt;" fill-rule="evenodd" class="s3" d="m945.4 564.8c-2.9 6.1-8.9 10.4-15.5 11.5-0.6 8.1-5 16-12.1 20.2-10.3 6.2-25 3.4-32.5-6.1-1.7 5.3-6.6 9.4-12.1 10.2-5.5 0.7-11.3-1.9-14.4-6.5-4.5 8.1-10.7 15.6-19.1 19.4-8.4 3.8-19.3 3-25.7-3.6-2.4-2.5-4.5-5.9-7.9-6.5-3.5-0.5-6.5 2.2-9.5 4.1-7.4 4.8-17.5 5.2-25.2 1-7.8-4.2-12.9-12.9-12.8-21.7-3.7 6-12.5 7.7-18.7 4.4-6.3-3.2-9.9-10.5-9.8-17.5 0-3.3 0.7-6.5 1.8-9.5-4.1 1.5-8.9 1.1-12.2-1.7-4-3.6-4.8-9.9-2.8-14.8 2-5 6.3-8.8 10.9-11.4 1.8-1 3.7-2.1 4.5-4 1-2.4-0.5-5-1.7-7.3-5.6-10.5-7.3-23.2-3.3-34.4 4-11.1 14.2-20.1 26-21.5 7.1-0.8 15.2 0.9 20.9-3.4 4.3-3.3 5.8-8.9 8.1-13.7 4.2-9.1 12.8-16.4 21.2-21.7 6.6-4.2 22.1-7.3 32.9-6.7 3-0.3 6.1-0.2 9.1 0.3 15.6 2.2 29.7 13.2 35.6 27.9l-2.3 1.6c5-3.4 12.3-0.7 15.9 4.2 1.1 1.4 2 3 2.6 4.7l-0.2-2q0.3 1.4 0.5 2.7c1.3 3.3 1.9 6.8 2.4 10.4q0.8 2.4 1.7 4.8c2.4 5.7 6.2 11 11.5 14.1 4.4 2.7 9.6 3.6 14.4 5.6 4.7 1.9 9.4 5.5 10.3 10.5 1.2 7.4-6.1 14.4-4.7 21.7 1 5.6 6.5 9 9.9 13.5 4.6 6 5.4 14.5 2.3 21.2zm-66.7-111.4h0.1q-0.1 0-0.1 0zm-136.5 96.2q-0.2 0.1-0.2 0.1 0 0.1 0 0.1 0.1-0.1 0.2-0.2z"/>
							</g>
						</g>
					</g>
					<g id="&lt;Group&gt;">
						<g id="&lt;Group&gt;">
							<g id="&lt;Group&gt;">
								<g id="&lt;Group&gt;">
									<g id="&lt;Group&gt;">
										<g id="&lt;Group&gt;">
											<g id="&lt;Group&gt;">
												<path id="&lt;Path&gt;" class="s18" d="m867.8 628.3c13.9 2.7 23.3 5.7 23.3 5.7 0 0-43.9 94.9-54.9 96-11 1.2-55.8-99-55.8-99 4.7-1.4 14.3-3.5 18.5-4.4l-6.1-145.1c-0.1-6.1 4.5-11.3 10.5-12l58-6.1c20-2.1 37.6 12.9 38.9 32.9 1.4 22.3 2.2 49.5-0.4 66.1-5.3 33.4-30.9 37.7-30.9 37.7 0 0-1.3 12.9-1.1 28.2z"/>
											</g>
										</g>
										<g id="&lt;Group&gt;">
											<g id="&lt;Group&gt;">
												<g id="&lt;Group&gt;">
													<g id="&lt;Group&gt;">
														<g id="&lt;Group&gt;">
															<g id="&lt;Group&gt;">
																<path id="&lt;Path&gt;" class="s3" d="m887.2 514.4c0.1 2.3-1.7 4.2-4.1 4.3-2.3 0.2-4.3-1.6-4.4-3.8-0.1-2.3 1.8-4.2 4.1-4.3 2.4-0.2 4.4 1.6 4.4 3.8z"/>
															</g>
														</g>
													</g>
												</g>
											</g>
											<g id="&lt;Group&gt;">
												<g id="&lt;Group&gt;">
													<g id="&lt;Group&gt;">
														<g id="&lt;Group&gt;">
															<g id="&lt;Group&gt;">
																<g id="&lt;Group&gt;">
																	<path id="&lt;Path&gt;" class="s3" d="m894.3 510.5c-0.5 0.5-3.8-1.9-8.4-1.9-4.6 0-8 2.4-8.5 1.8-0.2-0.3 0.3-1.3 1.8-2.3 1.4-1.1 3.9-2.1 6.8-2.1 2.9 0 5.3 1 6.7 2.1 1.4 1.1 1.9 2.1 1.6 2.4z"/>
																</g>
															</g>
														</g>
													</g>
												</g>
											</g>
										</g>
										<g id="&lt;Group&gt;">
											<g id="&lt;Group&gt;">
												<g id="&lt;Group&gt;">
													<g id="&lt;Group&gt;">
														<g id="&lt;Group&gt;">
															<g id="&lt;Group&gt;">
																<path id="&lt;Path&gt;" class="s3" d="m842.7 515.3c0.1 2.2-1.7 4.2-4.1 4.3-2.4 0.1-4.3-1.6-4.4-3.9-0.1-2.2 1.8-4.2 4.1-4.3 2.4-0.1 4.4 1.6 4.4 3.9z"/>
															</g>
														</g>
													</g>
												</g>
											</g>
											<g id="&lt;Group&gt;">
												<g id="&lt;Group&gt;">
													<g id="&lt;Group&gt;">
														<g id="&lt;Group&gt;">
															<g id="&lt;Group&gt;">
																<g id="&lt;Group&gt;">
																	<path id="&lt;Path&gt;" class="s3" d="m849 511.3c-0.6 0.6-3.8-1.8-8.4-1.8-4.6-0.1-8 2.3-8.5 1.8-0.3-0.3 0.3-1.3 1.8-2.4 1.4-1 3.9-2.1 6.8-2.1 2.8 0 5.2 1.1 6.6 2.2 1.4 1.1 1.9 2.1 1.7 2.3z"/>
																</g>
															</g>
														</g>
													</g>
												</g>
											</g>
										</g>
										<g id="&lt;Group&gt;">
											<g id="&lt;Group&gt;">
												<g id="&lt;Group&gt;">
													<g id="&lt;Group&gt;">
														<g id="&lt;Group&gt;">
															<g id="&lt;Group&gt;">
																<path id="&lt;Path&gt;" class="s3" d="m865.7 545.5c0-0.2 2.8-0.7 7.5-1.3 1.2-0.1 2.3-0.4 2.5-1.2 0.3-0.8-0.2-2.1-0.8-3.5q-1.7-4.2-3.5-8.9c-4.8-12.8-8.3-23.3-7.8-23.5 0.5-0.2 4.8 10 9.7 22.8q1.7 4.7 3.3 9c0.5 1.3 1.2 2.8 0.6 4.6-0.3 0.9-1.2 1.5-1.9 1.7-0.8 0.3-1.4 0.3-2 0.3-4.7 0.3-7.6 0.3-7.6 0z"/>
															</g>
														</g>
													</g>
												</g>
											</g>
										</g>
										<g id="&lt;Group&gt;">
											<g id="&lt;Group&gt;">
												<g id="&lt;Group&gt;">
													<g id="&lt;Group&gt;">
														<g id="&lt;Group&gt;">
															<path id="&lt;Path&gt;" class="s19" d="m868.4 608c-33.4 3.1-44.3-19.8-44.3-19.8 22.3 13.3 44.8 11.9 44.8 11.9z"/>
														</g>
													</g>
												</g>
											</g>
										</g>
										<g id="&lt;Group&gt;">
											<g id="&lt;Group&gt;">
												<path id="&lt;Path&gt;" class="s19" d="m852.7 552.7c1.1-0.6 2.2-1.3 3.4-1.4 1.2-0.2 2.6 0.3 3.1 1.5 0.2 0.3 0.3 0.8 0.5 1.1 0.7 0.9 2.1 0.6 3.2 0.9 1.7 0.5 2.4 2.8 1.8 4.4-0.7 1.7-2.3 2.8-3.9 3.5-2.3 0.9-4.8 1.3-7.2 1-1.7-0.2-3.5-0.8-4.4-2.2-1.2-1.7-0.8-4.1 0.3-5.8 1.2-1.6 2.9-2.8 4.6-3.9"/>
											</g>
										</g>
										<g id="&lt;Group&gt;">
											<g id="&lt;Group&gt;">
												<g id="&lt;Group&gt;">
													<g id="&lt;Group&gt;">
														<g id="&lt;Group&gt;">
															<g id="&lt;Group&gt;">
																<path id="&lt;Path&gt;" class="s3" d="m852.1 548.7c0.8 0 0.8 5 5.1 8.5 4.3 3.6 9.6 3 9.6 3.7 0.1 0.3-1.2 1-3.4 1.1-2.2 0-5.4-0.7-8.1-2.8-2.6-2.2-3.7-5.1-3.9-7.2-0.2-2.1 0.4-3.3 0.7-3.3z"/>
															</g>
														</g>
													</g>
												</g>
											</g>
										</g>
									</g>
								</g>
							</g>
							<g id="&lt;Group&gt;">
								<g id="&lt;Group&gt;">
									<g id="&lt;Group&gt;">
										<g id="&lt;Group&gt;">
											<g id="&lt;Group&gt;">
												<path id="&lt;Path&gt;" class="s3" d="m851 503.3c-0.4 1.2-5 0.6-10.4 1.3-5.4 0.5-9.8 2.1-10.5 1-0.3-0.6 0.4-1.7 2.2-3 1.7-1.2 4.5-2.3 7.8-2.7 3.2-0.3 6.2 0.2 8.2 1 1.9 0.8 2.9 1.8 2.7 2.4z"/>
											</g>
										</g>
									</g>
								</g>
							</g>
							<g id="&lt;Group&gt;">
								<g id="&lt;Group&gt;">
									<g id="&lt;Group&gt;">
										<g id="&lt;Group&gt;">
											<g id="&lt;Group&gt;">
												<path id="&lt;Path&gt;" class="s3" d="m892.6 500c-0.8 1.1-4 0-7.8 0-3.8-0.2-7.1 0.7-7.8-0.4-0.3-0.6 0.2-1.6 1.6-2.6 1.4-1 3.7-1.8 6.3-1.7 2.7 0.1 4.9 1 6.3 2.1 1.3 1.1 1.8 2.1 1.4 2.6z"/>
											</g>
										</g>
									</g>
								</g>
							</g>
						</g>
					</g>
					<g id="&lt;Group&gt;">
						<g id="&lt;Group&gt;">
							<path id="&lt;Path&gt;" class="s3" d="m880.7 458.4c-2.5 11.8-9.9 22.5-20.1 29-10.2 6.4-23 8.6-34.8 5.8-1.7 14.6-11.8 28-25.4 33.8 9.3 16.6 13.1 36.1 10.8 55-1 8.1-3.3 16.5-9.4 22-9.3 8.3-24.9 6.3-33.8-2.4-8.6-8.3-11.6-21.4-9.2-33.1 2.4-11.7 9.8-21.9 19-29.5-7.7-1.3-14.5-7.3-16.7-14.8-2.3-7.5 0.1-16.2 5.8-21.5 2.6-2.5 5.9-4.3 7.9-7.4 1.9-2.8 2.3-6.3 3.5-9.6 2.9-8.4 10.5-14.2 17.6-19.6 6.1-4.5 12.7-9.2 20.3-9.2 4 0 8 1.4 12 0.9 5.5-0.8 9.8-4.9 14.4-8.1 6.4-4.5 14.4-7.2 22.1-6 7.7 1.2 14.9 7 16.4 14.7"/>
						</g>
					</g>
					<g id="&lt;Group&gt;">
						<g id="&lt;Group&gt;">
							<path id="&lt;Path&gt;" class="s3" d="m876.4 460.3c6.7 1 12.4 5.5 16.3 11 3.9 5.4 6.3 11.8 8.6 18.1-6-2.7-12-5.5-16.8-10.1-4.7-4.5-8-11.1-6.8-17.6"/>
						</g>
					</g>
					<g id="&lt;Group&gt;">
						<g id="&lt;Group&gt;">
							<g id="&lt;Group&gt;">
								<path id="&lt;Path&gt;" class="s2" d="m730.7 538.8c0 0-0.3-0.7-0.2-2.1 0.2-1.4 1-3.5 3-5.2 2.1-1.7 5.4-2.6 9.2-2.5 3.7 0.1 7.8 1.3 12.4 1 4.6-0.3 9.4-3 12.2-7.5 1.4-2.3 2.1-5 2.3-7.9 0.2-2.9-0.1-5.9 0.1-9 0.1-3.1 0.9-6.4 2.9-9.1 2-2.7 4.9-4.7 8-6 6.3-2.9 13.5-2.9 20.3-4.2 3.5-0.7 6.9-1.7 9.8-3.4 2.9-1.7 5.2-4.2 7.2-6.9 3.9-5.3 6.5-11.3 10.1-16.4 3.5-5.2 8.3-9 13.2-11.5 5-2.5 10.1-3.6 14.8-3.7 4.7-0.1 9 0.8 12.5 2.1 3.5 1.3 6.3 2.9 8.4 4.5 4.2 3.1 5.9 5.5 5.9 5.5q0 0-0.4-0.3-0.5-0.5-1.1-1.1c-1-1-2.5-2.3-4.6-3.8-4.2-2.9-11.4-6.4-20.7-6.2-4.6 0.1-9.6 1.3-14.4 3.8-4.8 2.4-9.4 6.2-12.8 11.3-3.5 5-6.1 10.9-10.1 16.5-2 2.7-4.5 5.3-7.5 7.1-3.1 1.8-6.5 2.9-10.1 3.5-7 1.3-14 1.4-20.1 4.1-3 1.3-5.8 3.2-7.6 5.7-1.9 2.5-2.6 5.6-2.8 8.6-0.2 3 0.1 6-0.1 9-0.2 2.9-0.9 5.9-2.5 8.2-3 4.8-8.1 7.6-12.8 7.8-4.8 0.3-8.9-1-12.6-1.1-3.6-0.2-6.8 0.6-8.8 2.2-2 1.6-2.9 3.6-3.1 4.9-0.2 1.4 0.1 2.1 0 2.1z"/>
							</g>
						</g>
					</g>
				</g>
			</g>
			<g id="&lt;Group&gt;">
				<g id="&lt;Group&gt;">
					<g id="&lt;Group&gt;">
						<g id="&lt;Group&gt;">
							<g id="&lt;Group&gt;">
								<path id="&lt;Path&gt;" class="s3" d="m840.5 694.3l4 100.7-56.6 2.4-5.4-51-2.1-53.2z"/>
							</g>
						</g>
					</g>
					<g id="&lt;Group&gt;">
						<g id="&lt;Group&gt;">
							<g id="&lt;Group&gt;">
								<path id="&lt;Path&gt;" class="s4" d="m832.1 694.2l4.1 100.8-56.6 2.4-5.4-51-2.1-53.4z"/>
							</g>
						</g>
					</g>
				</g>
				<g id="&lt;Group&gt;">
					<g id="&lt;Group&gt;">
						<g id="&lt;Group&gt;">
							<g id="&lt;Group&gt;">
								<path id="&lt;Path&gt;" class="s18" d="m750.2 762c2.6-1.6 11.3-10.8 14.7-13.3 3-2.2 5.5-4.8 7.6-7.9 2.2-3.2 4.9-7.4 6.1-10.6 0.1-0.3 0.2-0.6 0.2-0.9 0.2-0.6 0.4-1.1 0.7-1.6 1.7-3 6.2-3.2 7.5 0 1.2 3.3-1 13.1-8.1 22.7q-0.1 0.3-0.3 0.5c-6.8 10 11.2 4.5 17.8 2.6 6.6-1.9 27.4-6.7 29.5-5.2 3.1 2.4 1.2 6.3-5.5 8-6.7 1.7-26.2 8.3-25.2 11.8 1.1 3.4 34.7-6.7 34.7-6.7 0 0 6.8-3.3 8.2 0.7 2.5 7.1-33.9 15.2-37.4 15.8-2.4 0.5-1.4 4.3 1.2 3.7 2.6-0.7 33.2-10.8 35.8-3.6 2 5.6-29.9 6.9-35.1 12.6-5.3 5.6 24.1-3.5 25.8 1.9 0.6 2 0.8 3.6-16.8 6.4-9.4 1.5-29.7 4.5-44.8 4.8"/>
							</g>
						</g>
					</g>
				</g>
				<g id="&lt;Group&gt;">
					<g id="&lt;Group&gt;">
						<path id="&lt;Path&gt;" class="s15" d="m753.8 758.9l29.9 44.8-49.3 50.3 1.6-81.6z"/>
					</g>
				</g>
			</g>
		</g>
	</g>
</svg>