<svg width="1500" height="1000" viewBox="0 0 1500 1000" fill="none" xmlns="http://www.w3.org/2000/svg">
	<path d="M1310.9 490.8C1310.9 490.8 1327.4 493.2 1318 528.5C1308.5 563.7 1300.6 581.8 1300.6 581.8C1300.6 581.8 1299.3 589.8 1305.8 589.7C1312.3 589.5 1325.5 584.4 1329.9 591.4C1334.4 598.7 1330.3 607.3 1320 616.3C1309.8 625.3 1288.1 645.9 1286.2 647.7C1284.3 649.6 1282.8 653.5 1287.2 654.1C1291.6 654.7 1323.1 651.3 1323.8 666.3C1324.5 681.4 1291.9 701.8 1288.3 704.1C1284.8 706.3 1284.2 708.2 1285 710.2C1285.8 712.3 1296.2 710.1 1305.2 709.5C1314.2 709 1324.7 709.9 1324.4 718.6C1324.1 727.3 1306.8 749.1 1257 764.9L1233.4 770.8L1216.3 753.7C1181.8 714.5 1178.3 686.9 1182.5 679.3C1186.7 671.6 1196.2 676.3 1203.6 681.4C1210.9 686.6 1218.8 693.8 1220.5 692.4C1222.2 691.1 1222.7 689.2 1220.9 685.4C1219 681.7 1201.6 647.4 1210 634.9C1218.3 622.3 1243.5 641.4 1247.6 643.2C1251.7 645 1252.5 640.9 1251.8 638.3C1251 635.7 1243.1 606.9 1239 594C1234.8 581 1235.8 571.4 1243.4 567.5C1250.8 563.8 1259.5 575 1264.9 578.5C1270.4 581.9 1273.4 574.4 1273.4 574.4C1273.4 574.4 1276 554.8 1286.1 519.7C1296.2 484.7 1311.2 490.9 1311.2 490.9" fill="#EBEBEB"/>
	<path d="M1302.1 522.3C1302.1 522.3 1302.07 522.567 1302 523.1C1301.87 523.567 1301.67 524.267 1301.4 525.2C1300.9 527.2 1300.2 530 1299.3 533.6C1297.4 540.8 1294.6 551.3 1291 564.3C1284 590.1 1274 625.8 1262.8 665.1C1251.5 704.4 1241.4 740.1 1234.2 765.9C1230.7 778.8 1227.8 789.2 1225.8 796.5C1224.8 800.1 1224 802.8 1223.5 804.8C1223.23 805.733 1223 806.433 1222.8 806.9C1222.67 807.433 1222.6 807.7 1222.6 807.7C1222.6 807.7 1222.63 807.433 1222.7 806.9C1222.83 806.367 1223.03 805.633 1223.3 804.7C1223.8 802.8 1224.5 800 1225.5 796.4C1227.3 789.1 1230.2 778.7 1233.7 765.7C1240.7 739.9 1250.8 704.2 1262 664.9C1273.2 625.5 1283.3 589.9 1290.5 564.1C1294 551.2 1296.9 540.8 1299 533.5C1299.9 529.9 1300.7 527.1 1301.3 525.2C1301.57 524.267 1301.77 523.533 1301.9 523C1302.03 522.533 1302.1 522.3 1302.1 522.3Z" fill="#E0E0E0"/>
	<path d="M1254.9 583.7C1255 583.6 1255.3 584.2 1255.9 585.2C1256.4 586.1 1257.2 587.6 1258.1 589.4C1259.9 593 1262.3 598 1264.8 603.6C1267.3 609.1 1269.5 614.1 1271.2 618C1272 619.667 1272.67 621.1 1273.2 622.3C1273.7 623.4 1273.9 623.9 1273.8 624C1273.8 624 1273.5 623.5 1272.9 622.5C1272.3 621.5 1271.6 620 1270.7 618.2C1268.9 614.6 1266.6 609.6 1264.1 604C1261.6 598.5 1259.3 593.5 1257.6 589.6C1256.8 587.933 1256.13 586.5 1255.6 585.3C1255.1 584.3 1254.9 583.7 1254.9 583.7Z" fill="#E0E0E0"/>
	<path d="M1276.1 624C1276 623.8 1286.2 618.4 1298.8 611.9C1311.4 605.5 1321.7 600.5 1321.8 600.7C1321.9 600.9 1311.8 606.3 1299.2 612.7C1286.5 619.1 1276.2 624.2 1276.1 624Z" fill="#E0E0E0"/>
	<path d="M1256.2 683.6C1256.2 683.5 1256.8 683.4 1257.9 683.2C1259.23 682.933 1260.83 682.6 1262.7 682.2C1266.7 681.5 1272.3 680.4 1278.4 678.9C1284.5 677.5 1290 676.1 1293.9 675C1295.77 674.467 1297.33 674.033 1298.6 673.7C1299.7 673.4 1300.4 673.3 1300.4 673.3C1300.4 673.4 1299.8 673.6 1298.7 674C1297.6 674.4 1296.1 674.9 1294.1 675.5C1290.2 676.8 1284.7 678.3 1278.6 679.8C1272.5 681.2 1266.9 682.2 1262.8 682.8C1260.7 683.1 1259.1 683.4 1258 683.5C1256.8 683.6 1256.2 683.7 1256.2 683.6Z" fill="#E0E0E0"/>
	<path d="M1229 651.4C1229 651.3 1229.5 651.7 1230.2 652.5C1230.9 653.3 1232 654.4 1233.2 655.8C1235.8 658.7 1239.3 662.6 1243.1 667C1246.8 671.4 1250.2 675.4 1252.7 678.3C1253.9 679.7 1254.9 680.9 1255.5 681.8C1256.2 682.6 1256.5 683.1 1256.5 683.1C1256.4 683.2 1256 682.8 1255.3 682C1254.5 681.2 1253.5 680.1 1252.2 678.7C1249.7 675.8 1246.2 671.9 1242.4 667.5C1238.6 663.1 1235.2 659.1 1232.8 656.2C1231.6 654.7 1230.6 653.6 1230 652.7C1229.3 651.9 1229 651.4 1229 651.4Z" fill="#E0E0E0"/>
	<path d="M1204.7 701.8C1204.8 701.7 1205.3 702.3 1206.2 703.3C1207.27 704.367 1208.57 705.767 1210.1 707.5C1213.4 711.1 1217.9 716.1 1222.8 721.7C1227.7 727.3 1232.1 732.3 1235.3 736C1236.77 737.8 1238 739.267 1239 740.4C1239.9 741.5 1240.3 742.1 1240.3 742.1C1240.3 742.2 1239.7 741.6 1238.8 740.7C1237.73 739.567 1236.43 738.133 1234.9 736.4C1231.6 732.8 1227.1 727.8 1222.2 722.2C1217.3 716.7 1212.9 711.6 1209.7 707.9C1208.23 706.1 1207 704.633 1206 703.5C1205.1 702.4 1204.7 701.8 1204.7 701.8Z" fill="#E0E0E0"/>
	<path d="M1239.7 740.9C1239.7 740.9 1240.5 740.7 1241.9 740.3C1243.5 739.967 1245.5 739.5 1247.9 738.9C1253 737.8 1260 736.1 1267.7 734.1C1275.4 732.1 1282.3 730.1 1287.3 728.6C1289.7 727.933 1291.67 727.367 1293.2 726.9C1294.6 726.5 1295.4 726.3 1295.4 726.4C1295.5 726.4 1294.7 726.7 1293.3 727.2C1292 727.7 1290 728.4 1287.5 729.2C1282.5 730.8 1275.6 732.9 1267.9 734.9C1260.2 737 1253.2 738.5 1248.1 739.5C1245.5 740 1243.4 740.4 1242 740.6C1240.5 740.9 1239.7 741 1239.7 740.9Z" fill="#E0E0E0"/>
	<path d="M1250.6 825.7C1255.1 820.3 1262.7 818.1 1269.5 819.4C1276.4 820.8 1282.3 825.4 1286.1 831.3C1287.8 834 1289.1 837.3 1288.1 840.4C1287.2 843.3 1284.3 845.2 1281.3 845.7C1278.4 846.2 1275.3 845.4 1272.5 844.4C1262.9 840.7 1254.2 835.4 1250.6 825.7Z" fill="#E0E0E0"/>
	<path d="M1233.3 816.5C1223.8 804.2 1222.9 785.9 1231.2 772.6C1233.1 769.4 1236.4 766.2 1240 767C1243.7 767.7 1245.5 771.8 1246.2 775.5C1249.1 789.9 1244.5 805.6 1234.2 816.1" fill="#E0E0E0"/>
	<path d="M1313 766.3C1314.5 772.3 1312.8 778.9 1309.4 784.1C1305.9 789.3 1300.9 793.3 1295.6 796.5C1285.2 802.6 1271.4 804.5 1259.4 804.4C1260.3 791 1271.2 779.9 1277.1 774.6C1286.3 766.3 1308.2 756.8 1313 766.3Z" fill="#E0E0E0"/>
	<path d="M1215.4 835.8C1216.9 835.1 1217.9 833.8 1220.6 832.6C1225.9 830.3 1233.4 827.1 1242.3 825.7C1251.2 824.4 1259.5 825.8 1264.9 828.1C1267.6 829.3 1269.6 830.5 1270.9 831.6C1272.2 832.6 1272.9 833.2 1272.8 833.3C1272.7 833.5 1269.9 831 1264.5 829C1259.2 826.9 1251.2 825.8 1242.5 827.1C1233.8 828.4 1226.3 831.4 1220.9 833.5" fill="#FAFAFA"/>
	<path d="M1215.2 835.9C1217.6 834.2 1220.7 831.9 1224.5 829.2C1232.2 823.6 1243 815.8 1254.7 807C1266.4 798.3 1277 790.2 1284.6 784.3C1288.2 781.5 1291.3 779.2 1293.6 777.4C1295.7 775.8 1296.9 774.9 1297 775C1297.1 775 1296 776 1293.9 777.8C1291.9 779.5 1288.9 782 1285.2 785.1C1277.7 791.1 1267.3 799.3 1255.5 808.1C1243.8 816.9 1232.9 824.6 1225 830C1221 832.7 1217.8 834.9 1215.5 836.4" fill="#FAFAFA"/>
	<path d="M1238.1 783.6C1238.2 783.6 1238.4 784.4 1238.7 786C1238.9 786.7 1239.1 787.7 1239.1 788.8C1239.3 789.9 1239.5 791.1 1239.4 792.5C1239.6 795.3 1239.3 798.7 1238.8 802.4C1238.1 806 1237 810 1235.4 813.9C1233.6 817.9 1231.5 821.4 1229.4 824.4C1227.1 827.4 1224.9 829.9 1222.8 831.7C1221.8 832.7 1220.7 833.4 1219.9 834.1C1219 834.8 1218.2 835.3 1217.5 835.7C1216.2 836.6 1215.6 836.4 1215.5 836.4C1215.4 836.1 1218.2 834.9 1222.1 831C1224.1 829.1 1226.2 826.6 1228.4 823.7C1230.4 820.7 1232.4 817.2 1234.1 813.4C1235.7 809.5 1236.8 805.7 1237.5 802.1C1238.2 798.6 1238.5 795.3 1238.5 792.5C1238.5 787 1237.8 783.7 1238.1 783.6Z" fill="#FAFAFA"/>
	<path d="M263.7 822.6C242.8 821.5 222.4 814.1 204.8 802.5C199.8 799.2 194.9 795.5 191.5 790.5C188.2 785.4 186.6 778.9 188.7 773.2C191.8 764.6 202.2 761 211.3 761.7C216.1 762.1 221 763.3 225.8 762.9C230.6 762.4 235.7 759.4 236.6 754.6C237.5 749.8 233.8 745.1 229.4 743C225 741 220 740.9 215.1 740.6C201.6 739.7 188.3 736.4 175.8 731C169.6 728.3 162.6 723.4 163.3 716.6C163.8 711.7 168.2 708.2 172.7 706.3C177.1 704.4 182.1 703.5 186.1 700.7C189.6 698.3 192.2 693.2 189.8 689.6C188.4 687.6 186 686.8 183.7 686C171.1 681.7 159.2 675.5 148.4 667.7C141 662.5 133.7 655.4 133.4 646.4C133.1 637.4 140.6 629.5 149.3 627.5C157.9 625.5 167.2 628.4 174.6 633.4C182.1 638.3 188.2 645.1 194.4 651.6C200.5 658.2 206.9 664.7 214.8 668.9C217.1 670.1 220 671.1 222.1 669.7C224.3 668.3 224.6 665.3 224.1 662.8C223.5 660.2 222.3 657.9 222.1 655.3C221.6 649.1 227.6 643.8 233.7 643.8C239.9 643.7 245.5 647.7 249 652.8C252.5 657.9 254.2 664 255.9 670C259.1 681.067 262.3 692.167 265.5 703.3C267.2 709.3 269.8 716.2 275.8 717.5C280.2 718.5 284.6 715.9 287.8 712.8C292.7 708.1 296.3 702 297.9 695.3C299.1 690.3 299.6 684.6 303.4 681.2C308 677.1 315.7 678.8 320.1 683.2C324.4 687.6 325.6 694.1 327.6 700C339.3 735.5 343.9 777.4 319.5 807.8C302.7 820.2 284.6 823.6 263.7 822.6Z" fill="#EBEBEB"/>
	<path d="M140.4 636C140.933 636.267 141.667 636.6 142.6 637C144.6 637.8 147.6 639.1 151.3 640.9C158.7 644.5 169.3 650.1 181.4 658.5C187.5 662.7 194 667.6 200.8 673C207.6 678.3 214.9 684.1 222.3 690.5C229.7 696.9 237.3 703.9 244.5 711.7C248.2 715.6 251.6 719.8 255.1 724C258.633 728.267 262.2 732.567 265.8 736.9C280 754.4 293.1 771.6 303.7 788.1C314.3 804.6 322.3 820.5 327.7 834.3C333.2 848.1 336.2 859.8 337.8 867.9C338.6 872 339.1 875.2 339.4 877.3C339.467 878.367 339.567 879.2 339.7 879.8C339.7 880.333 339.7 880.6 339.7 880.6C339.7 880.6 339.633 880.333 339.5 879.8C339.433 879.2 339.3 878.4 339.1 877.4C338.8 875.2 338.2 872 337.4 868C335.6 859.9 332.5 848.3 327 834.6C321.5 820.8 313.4 805.1 302.8 788.7C292.2 772.2 279.2 755.1 264.9 737.6C261.3 733.267 257.767 728.967 254.3 724.7C250.8 720.5 247.3 716.3 243.7 712.4C236.5 704.7 229 697.7 221.6 691.3C214.2 684.9 207 679.1 200.2 673.7C193.4 668.3 187 663.4 181 659.2C168.9 650.7 158.4 645 151.1 641.3C147.4 639.5 144.5 638.1 142.6 637.2C141.667 636.733 140.9 636.367 140.3 636.1C139.833 635.9 139.6 635.8 139.6 635.8C139.6 635.733 139.867 635.8 140.4 636Z" fill="#E0E0E0"/>
	<path d="M243.6 709.1C243.267 707.167 242.833 704.733 242.3 701.8C241.1 695.5 239.6 687.1 237.8 677.9C236.1 668.6 234.9 660 234.3 653.8C234 650.7 233.8 648.2 233.7 646.5C233.7 644.7 233.7 643.8 233.7 643.8C233.8 643.8 234 644.7 234.2 646.4C234.4 648.2 234.7 650.7 235.1 653.7C235.9 659.9 237.3 668.4 239 677.7C240.7 687.1 242.2 695.5 243.1 701.7C243.5 704.8 243.9 707.3 244 709C244.2 710.8 244.3 711.7 244.2 711.7C244.1 711.7 243.9 710.8 243.6 709.1Z" fill="#E0E0E0"/>
	<path d="M166.6 718.8C168.6 718.3 171.5 717.6 175.1 716.9C182.3 715.3 192.4 713.8 203.5 712.7C214.7 711.6 224.9 711.2 232.3 711.2C236 711.2 238.9 711.3 241 711.4C243.1 711.5 244.2 711.6 244.2 711.7C244.2 711.8 243 711.9 241 711.9C238.9 711.9 236 711.9 232.3 712C224.9 712.2 214.8 712.8 203.7 713.8C192.5 714.9 182.5 716.4 175.2 717.7C171.6 718.3 168.7 718.9 166.7 719.3C164.7 719.7 163.6 719.9 163.5 719.8C163.5 719.7 164.6 719.4 166.6 718.8Z" fill="#E0E0E0"/>
	<path d="M302.4 785.8C302.467 785 302.533 783.967 302.6 782.7C302.9 779.7 303.3 775.8 303.8 771C304.7 761.2 305.7 747.5 306.7 732.5C307.8 717.4 308.9 703.7 310 693.9C310.6 689 311.1 685 311.5 682.3C311.7 681.033 311.867 679.967 312 679.1C312.133 678.367 312.233 678 312.3 678C312.3 678.067 312.3 678.467 312.3 679.2C312.167 680 312.067 681.033 312 682.3C311.7 685.3 311.3 689.2 310.8 694C309.9 703.8 308.9 717.5 307.9 732.6C306.8 747.6 305.7 761.3 304.6 771.1C304 776 303.5 780 303.1 782.7C302.9 783.967 302.733 785.033 302.6 785.9C302.467 786.633 302.367 787 302.3 787C302.3 786.933 302.333 786.533 302.4 785.8Z" fill="#E0E0E0"/>
	<path d="M192.3 783.8C193.167 783.8 194.233 783.767 195.5 783.7C198.3 783.6 202.4 783.6 207.4 783.7C217.5 783.8 231.4 784.2 246.8 784.9C262.1 785.5 276 786.1 286.1 786.4C291 786.5 295 786.6 298 786.7C299.267 786.767 300.333 786.8 301.2 786.8C301.933 786.867 302.3 786.933 302.3 787C302.3 787 301.933 787.033 301.2 787.1C300.333 787.1 299.267 787.133 298 787.2C295.1 787.2 291.1 787.2 286 787.2C276 787.1 262.1 786.7 246.7 786C231.4 785.4 217.5 784.8 207.4 784.5C202.5 784.4 198.5 784.2 195.5 784.2C194.233 784.133 193.167 784.067 192.3 784C191.567 784 191.2 783.967 191.2 783.9C191.2 783.833 191.567 783.8 192.3 783.8Z" fill="#E0E0E0"/>
	<path d="M598.4 389.6L591.6 447.6H563.3L557.7 389.6H598.4Z" fill="#F5F5F5"/>
	<path d="M598.4 382.1C601.9 385 601 389.7 601 389.7H555C555.3 384.4 557.7 382.1 557.7 382.1H598.4Z" fill="#E0E0E0"/>
	<path d="M593.8 376.7L596.1 382.7L561.4 382.5L562.9 376.7H593.8Z" fill="#E0E0E0"/>
	<path d="M598.4 404.1L595.1 433.3H560.5C560.5 433.3 557.1 404.6 557.1 404.1H598.4Z" fill="#EBEBEB"/>
	<path d="M1383 888.6C1383 888.9 1099.6 889.1 750 889.1C400.4 889.1 117 888.9 117 888.6C117 888.3 400.4 888 750 888C1099.6 888 1383 888.3 1383 888.6Z" fill="#263238"/>
	<path d="M1084.7 228.7C1087.7 184.3 1126 150.7 1170.3 153.6C1214.7 156.6 1248.3 194.9 1245.4 239.2C1242.5 283.6 1204.1 317.2 1159.8 314.3C1115.4 311.4 1081.8 273 1084.7 228.7Z" fill="#76628B"/>
	<path d="M1201.6 236.4C1201.6 236.5 1200.6 236.6 1198.8 236.6C1196.73 236.667 1194.1 236.733 1190.9 236.8C1184.3 236.9 1175 236.9 1164.6 236.9H1164.1V236.4C1164.1 234.8 1164.1 233 1164.1 231.2C1164.1 219.6 1164.1 209 1164.2 201.4C1164.3 197.7 1164.4 194.6 1164.4 192.3C1164.5 190.2 1164.5 189 1164.6 189C1164.7 189 1164.8 190.2 1164.8 192.3C1164.9 194.6 1164.9 197.7 1165 201.4C1165.1 209 1165.1 219.6 1165.1 231.2C1165.1 233 1165.1 234.8 1165.1 236.4L1164.6 235.9C1175 235.9 1184.3 236 1190.9 236.1C1194.1 236.167 1196.73 236.2 1198.8 236.2C1200.6 236.3 1201.6 236.4 1201.6 236.4Z" fill="#FAFAFA"/>
	<path d="M1164.9 166.7C1165.1 166.7 1165.4 169.7 1165.4 173.4C1165.4 177.2 1165.1 180.2 1164.9 180.2C1164.6 180.2 1164.3 177.2 1164.3 173.4C1164.3 169.7 1164.6 166.7 1164.9 166.7Z" fill="#FAFAFA"/>
	<path d="M1201.5 177.5C1201.7 177.7 1199.8 180 1197.2 182.6C1194.6 185.2 1192.3 187.2 1192.1 187C1191.9 186.8 1193.8 184.5 1196.4 181.9C1199.1 179.3 1201.3 177.3 1201.5 177.5Z" fill="#FAFAFA"/>
	<path d="M1223 201C1223.1 201.2 1220.5 202.8 1217.4 204.7C1214.3 206.6 1211.8 208.1 1211.6 207.9C1211.4 207.7 1213.7 205.7 1216.9 203.8C1220.1 201.9 1222.8 200.7 1223 201Z" fill="#FAFAFA"/>
	<path d="M1235.5 235.7C1235.5 236 1231.4 236.3 1226.3 236.3C1221.2 236.3 1217.1 236 1217.1 235.7C1217.1 235.4 1221.2 235.2 1226.3 235.2C1231.4 235.2 1235.5 235.4 1235.5 235.7Z" fill="#FAFAFA"/>
	<path d="M1107.7 234.5C1107.7 234.8 1103.8 235 1099 235C1094.2 235 1090.3 234.8 1090.3 234.5C1090.3 234.2 1094.2 234 1099 234C1103.8 234 1107.7 234.2 1107.7 234.5Z" fill="#FAFAFA"/>
	<path d="M1116.7 260.4C1116.9 260.6 1114 263.3 1110.2 266.3C1106.3 269.4 1103.1 271.7 1102.9 271.5C1102.8 271.3 1105.7 268.6 1109.5 265.5C1113.3 262.5 1116.5 260.2 1116.7 260.4Z" fill="#FAFAFA"/>
	<path d="M1139 280.4C1139.3 280.6 1137.1 283.9 1134.6 288.2C1132 292.4 1130.1 295.9 1129.8 295.8C1129.6 295.6 1131.1 291.9 1133.7 287.6C1136.2 283.3 1138.8 280.2 1139 280.4Z" fill="#FAFAFA"/>
	<path d="M1164.9 306.2C1164.6 306.2 1164.3 302.1 1164.3 297C1164.3 291.9 1164.6 287.8 1164.9 287.8C1165.1 287.8 1165.4 291.9 1165.4 297C1165.4 302.1 1165.1 306.2 1164.9 306.2Z" fill="#FAFAFA"/>
	<path d="M1204.6 293.9C1204.5 294.2 1200.8 292.1 1197 288.7C1193.1 285.4 1190.6 282.1 1190.8 281.9C1191 281.7 1193.9 284.6 1197.7 287.9C1201.5 291.2 1204.8 293.7 1204.6 293.9Z" fill="#FAFAFA"/>
	<path d="M1223.2 273.8C1223 274 1220.3 271.6 1217.1 268.5C1214 265.3 1211.6 262.6 1211.8 262.4C1212 262.2 1214.7 264.6 1217.9 267.7C1221 270.9 1223.4 273.6 1223.2 273.8Z" fill="#FAFAFA"/>
	<path d="M1115.9 209.7C1115.7 209.9 1113.3 207.8 1110.5 205.1C1107.7 202.3 1105.6 199.9 1105.9 199.7C1106.1 199.5 1108.5 201.6 1111.2 204.3C1114 207.1 1116.1 209.5 1115.9 209.7Z" fill="#FAFAFA"/>
	<path d="M1138.9 185.5C1138.7 185.7 1136.3 183.6 1133.6 180.9C1130.9 178.2 1128.8 175.9 1129.1 175.7C1129.3 175.4 1131.6 177.5 1134.3 180.2C1137.1 182.9 1139.1 185.3 1138.9 185.5Z" fill="#FAFAFA"/>
	<path d="M1196.9 888.6L1050.3 887.9C1032.7 887.8 1018.5 873.5 1018.6 856L1020.1 489.7C1020.2 472.1 1034.6 457.9 1052.2 458L1198.7 458.7C1216.3 458.8 1230.5 473.1 1230.5 490.6L1228.9 856.9C1228.8 874.5 1214.5 888.7 1196.9 888.6Z" fill="#263238"/>
	<path d="M1220.7 493.7L1219.2 851.2C1219.2 863.5 1209.1 873.5 1196.8 873.4L1050.6 872.7C1038.2 872.7 1028.3 862.6 1028.3 850.3L1029.8 492.8C1029.9 480.5 1039.9 470.6 1052.3 470.6L1077.1 470.8H1087.1C1090.9 470.8 1094 474.1 1094 478V483.2C1094 487.1 1097 490.4 1100.8 490.4L1156.2 490.6C1160 490.7 1163.1 487.4 1163.1 483.5L1163.2 478.3C1163.2 474.4 1166.3 471.2 1170.1 471.2L1198.5 471.3C1210.8 471.4 1220.8 481.4 1220.7 493.7Z" fill="white"/>
	<path d="M1099.8 764.6L1112.2 764.7C1112.7 764.7 1113.2 764.9 1113.5 765.2L1118.6 770.3C1118.9 770.6 1119.4 770.8 1119.8 770.8H1149.2C1150.2 770.8 1151 771.7 1151 772.6L1150.9 793.3C1150.9 794.3 1150.1 795.1 1149.1 795.1L1101.3 794.8C1100.3 794.8 1099.5 794 1099.5 793.1L1098 766.5C1098 765.5 1098.8 764.6 1099.8 764.6Z" fill="#76628B"/>
	<path d="M1150.8 798.9L1098.6 798.5L1098.8 767.3L1151.1 767.7L1150.8 798.9Z" fill="#F5F5F5"/>
	<path d="M1095.8 768.8L1153.3 769.2C1153.9 769.2 1154.5 769.8 1154.4 770.5L1151.6 803C1151.5 803.6 1151 804.1 1150.4 804.1L1099.5 803.7C1099 803.7 1098.5 803.3 1098.4 802.7L1094.6 770.1C1094.6 769.4 1095.1 768.8 1095.8 768.8Z" fill="#76628B"/>
	<path d="M1181.1 666.4C1180.8 666.4 1180.5 664.4 1180.2 660.8C1179.8 659 1179.5 656.8 1178.8 654.3C1178.47 653.1 1178.1 651.8 1177.7 650.4C1177.3 649 1176.6 647.6 1176.1 646.1C1173.6 640.2 1169.6 633.5 1163.6 627.5C1157.7 621.6 1149.6 616.4 1140.3 613.5C1131 610.8 1121.5 610.5 1113.2 612.1C1104.9 613.7 1097.8 617 1092.5 620.5C1087.1 624.1 1083.4 627.8 1080.9 630.5C1079.7 631.8 1078.8 632.9 1078.1 633.6C1077.5 634.333 1077.13 634.667 1077 634.6C1076.93 634.533 1077.13 634.067 1077.6 633.2C1078.1 632.4 1078.9 631.2 1080 629.7C1082.2 626.8 1085.8 622.6 1091.2 618.7C1096.6 614.8 1103.9 611.1 1112.6 609.3C1121.3 607.4 1131.4 607.6 1141.3 610.5C1151.1 613.6 1159.5 619.1 1165.7 625.5C1171.9 631.9 1175.8 639 1178.1 645.3C1178.6 646.9 1179.2 648.4 1179.6 649.8C1179.93 651.267 1180.23 652.667 1180.5 654C1181 656.6 1181.2 658.8 1181.4 660.7C1181.4 664.4 1181.3 666.4 1181.1 666.4Z" fill="#76628B"/>
	<path d="M1153.9 646.2C1154.4 645.6 1166.8 654.1 1181.6 665.3C1181.87 665.567 1182.13 665.8 1182.4 666L1180 666.7C1186 649.6 1191.4 636.2 1192.2 636.5C1193 636.8 1188.9 650.6 1182.9 667.7L1182.2 669.7L1180.5 668.4C1180.23 668.2 1179.97 668 1179.7 667.8C1164.9 656.6 1153.4 646.9 1153.9 646.2Z" fill="#76628B"/>
	<path d="M1073.9 657C1074.1 657 1074.2 659 1074.1 662.5C1074.2 664.3 1074.3 666.4 1074.6 668.9C1075 671.4 1075.3 674.2 1076.2 677.2C1077.8 683.2 1080.8 690.1 1085.7 696.7C1090.5 703.3 1097.5 709.4 1106 713.6L1107.6 714.4L1109.2 715C1110.33 715.467 1111.43 715.9 1112.5 716.3C1113.6 716.6 1114.7 716.9 1115.7 717.2C1116.8 717.5 1117.9 717.9 1119 718.1C1123.4 719 1127.7 719.4 1131.8 719.3C1140 719.2 1147.3 717.3 1153 714.9C1158.8 712.5 1163.1 709.6 1165.9 707.5C1167.3 706.5 1168.4 705.7 1169.2 705.1C1169.93 704.5 1170.33 704.233 1170.4 704.3C1170.47 704.367 1170.2 704.767 1169.6 705.5C1169 706.233 1168.03 707.233 1166.7 708.5C1164 710.9 1159.8 714.1 1153.9 716.9C1148.1 719.7 1140.5 721.9 1131.9 722.2C1127.5 722.4 1123 722 1118.4 721.1C1117.2 720.9 1116.1 720.5 1114.9 720.2C1113.8 719.9 1112.6 719.6 1111.5 719.2C1110.37 718.8 1109.2 718.367 1108 717.9L1106.3 717.2L1104.6 716.4C1103.53 715.8 1102.43 715.233 1101.3 714.7C1100.3 714 1099.3 713.4 1098.2 712.7C1096.1 711.5 1094.4 709.8 1092.5 708.4C1091.6 707.7 1090.8 706.8 1090 706C1089.1 705.2 1088.3 704.5 1087.5 703.6C1086.77 702.733 1086.07 701.867 1085.4 701L1084.3 699.8L1083.4 698.4C1078.3 691.4 1075.5 684 1074.1 677.7C1073.3 674.6 1073.1 671.6 1072.8 669.1C1072.8 666.5 1072.8 664.3 1072.9 662.5C1073.3 658.9 1073.7 657 1073.9 657Z" fill="#76628B"/>
	<path d="M1098.4 680.3C1097.8 680.9 1086.5 671 1073.3 658C1073.03 657.733 1072.77 657.5 1072.5 657.3L1075 656.9C1067 673.1 1060 685.7 1059.2 685.3C1058.4 685 1064.2 671.7 1072.2 655.5L1073.2 653.6L1074.7 655.1C1074.9 655.3 1075.13 655.533 1075.4 655.8C1088.7 668.7 1099 679.7 1098.4 680.3Z" fill="#76628B"/>
	<path d="M914.2 882.7H315.9C299.8 882.7 286.7 869.6 286.7 853.6V464C286.7 455.4 293.7 448.5 302.2 448.5H929.9C937.3 448.5 943.3 454.5 943.3 462V853.6C943.3 869.6 930.3 882.7 914.2 882.7Z" fill="#263238"/>
	<path d="M943.2 888.6H286.7C271.6 888.6 259.3 876.3 259.3 861.1V850.6H970.7V861.1C970.7 876.3 958.4 888.6 943.2 888.6Z" fill="#263238"/>
	<path d="M923.9 832.4H304.4V465.7H923.9V832.4Z" fill="#455A64"/>
	<path d="M691.5 850.6L683.3 864.6H559.1L550.3 850.6H691.5Z" fill="#455A64"/>
	<path d="M895.4 832.3H325V490.2H895.4V832.3Z" fill="white"/>
	<path d="M349.4 507C349.4 509.7 347.2 511.8 344.6 511.8C341.9 511.8 339.8 509.7 339.8 507C339.8 504.4 341.9 502.2 344.6 502.2C347.2 502.2 349.4 504.4 349.4 507Z" fill="#263238"/>
	<path d="M368.9 507C368.9 509.7 366.7 511.8 364.1 511.8C361.5 511.8 359.3 509.7 359.3 507C359.3 504.4 361.5 502.2 364.1 502.2C366.7 502.2 368.9 504.4 368.9 507Z" fill="#263238"/>
	<path d="M388.4 507C388.4 509.7 386.3 511.8 383.6 511.8C381 511.8 378.8 509.7 378.8 507C378.8 504.4 381 502.2 383.6 502.2C386.3 502.2 388.4 504.4 388.4 507Z" fill="#263238"/>
	<path d="M895.4 528C895.4 528.3 767.7 528.5 610.2 528.5C452.7 528.5 325 528.3 325 528C325 527.7 452.7 527.4 610.2 527.4C767.7 527.4 895.4 527.7 895.4 528Z" fill="#263238"/>
	<path d="M943.3 853H286.7V850.9H943.3V853Z" fill="#455A64"/>
	<path d="M522.8 596.9L572.1 597.2C573.9 597.2 575.7 598 577 599.3L597.2 619.5C598.5 620.8 600.4 621.5 602.2 621.5L719.1 621.6C723.1 621.6 726.3 624.9 726.2 628.8L725.6 711C725.6 715 722.4 718.1 718.5 718.1L528.4 716.7C524.7 716.7 521.6 713.7 521.4 710L515.6 604.4C515.4 600.3 518.7 596.8 522.8 596.9Z" fill="#76628B"/>
	<path d="M725.5 733.3L517.8 731.8L518.8 607.7L726.4 609.2L725.5 733.3Z" fill="#F5F5F5"/>
	<path d="M506.7 613.6L735.1 615.3C737.8 615.3 739.9 617.6 739.7 620.3L728.5 749.6C728.3 751.9 726.3 753.8 723.9 753.8L521.6 752.3C519.3 752.3 517.3 750.5 517.1 748.2L502.2 618.7C501.8 616 504 613.6 506.7 613.6Z" fill="#76628B"/>
	<path d="M665.2 684.5C664.5 684.6 664.9 678.9 661.4 670.8C659.7 666.8 657 662.4 653 658.3C648.9 654.3 643.5 650.9 637.3 649C631 647.1 624.6 646.9 619 648C613.4 649 608.7 651.2 605 653.6C597.7 658.4 594.7 663.2 594.3 662.9C594.1 662.8 594.7 661.4 596.1 659.4C597.6 657.3 600.1 654.5 603.8 651.7C607.5 649 612.4 646.4 618.4 645.1C624.4 643.8 631.4 644 638.2 646C645 648.1 650.8 651.9 655 656.3C659.2 660.8 661.9 665.7 663.5 670C665.1 674.3 665.4 678.1 665.6 680.6C665.5 683.1 665.4 684.5 665.2 684.5Z" fill="#E0E0E0"/>
	<path d="M646.7 670.8C647.2 670.1 655.8 675.7 665.8 683.4C666 683.533 666.2 683.667 666.4 683.8L663.9 684.5C668 672.9 671.9 663.8 672.7 664.1C673.5 664.4 670.9 673.9 666.9 685.6L666.2 687.6L664.5 686.3C664.3 686.167 664.1 686.033 663.9 685.9C653.9 678.2 646.1 671.5 646.7 670.8Z" fill="#E0E0E0"/>
	<path d="M592.2 678.1C592.8 678.1 591.8 683.6 594.1 691.8C595.2 695.8 597.2 700.5 600.6 704.9C603.8 709.3 608.6 713.4 614.3 716.2C615.6 717 617.2 717.4 618.6 718C620.1 718.4 621.5 718.9 623 719.2C625.9 719.8 628.8 720.2 631.6 720.1C637.1 720.1 642 718.8 645.9 717.2C649.8 715.6 652.7 713.7 654.7 712.4C656.7 711 657.7 710.2 657.9 710.3C658 710.5 657.3 711.6 655.5 713.3C653.7 715 650.9 717.3 646.8 719.2C642.8 721.2 637.6 722.8 631.7 723C628.7 723.1 625.5 722.9 622.4 722.2C620.8 721.9 619.2 721.4 617.6 721C616 720.3 614.4 719.9 612.9 719C606.7 716 601.6 711.5 598.3 706.6C594.8 701.7 592.9 696.6 591.9 692.3C591.4 690.1 591.3 688.1 591.2 686.3C591.1 684.6 591.2 683.1 591.3 681.8C591.6 679.4 591.9 678.1 592.2 678.1Z" fill="#E0E0E0"/>
	<path d="M608.8 694C608.2 694.6 600.4 688 591.4 679.1C591.2 678.967 591.033 678.833 590.9 678.7L593.4 678.2C587.9 689.3 582.9 697.8 582.1 697.4C581.4 697 585.1 687.9 590.6 676.8L591.5 674.9L593 676.4C593.2 676.6 593.4 676.767 593.6 676.9C602.6 685.7 609.4 693.4 608.8 694Z" fill="#E0E0E0"/>
	<path d="M436.3 313.7L426.6 344.1C422.9 356.6 412.4 366 399.4 368.4L334.7 380.6L317 380L334.7 358.2L383.3 341.6C388.1 340.6 391.9 337 393.2 332.3L412.6 290.1L437.1 305.2L436.3 313.7Z" fill="#B78876"/>
	<path d="M531.8 284C530.9 288.7 517.2 322.9 517.2 322.9C517.2 322.9 463.9 304.8 464.6 302.2C465.2 300 475.4 265.8 487.7 246.8C492.5 239.5 500.3 234.5 509.1 234C511.5 233.8 516.7 236.3 518.1 237.1C529.3 243.4 538.9 247.7 531.8 284Z" fill="#455A64"/>
	<path d="M460.5 216.1C463.6 215.3 481.2 215.3 484.9 216.2C502.6 220.8 528.4 228.1 534.9 252.9C537 260.8 533.9 275.8 532.8 283.9L517.8 343L528.2 380.7L415.7 391.3L429.9 347.4L431 301.3L401.1 283L417.3 253C428.6 236.8 432.5 220.4 456.6 217.7" fill="#76628B"/>
	<path d="M530.7 284.2C530.567 284.667 530.4 285.3 530.2 286.1C529.7 287.8 528.9 290.3 528 293.4C526.1 299.8 523.4 308.8 520.1 319.8L520 320.1L519.7 320C505.7 314.9 488.3 308.6 469.5 301.6C469.1 301.4 468.7 301.233 468.3 301.1L468 301L468.1 300.7C471.3 288.6 475.4 277.5 479.9 267.6C484.4 257.9 489.4 249.4 495 243.4C497.8 240.5 500.7 238.1 503.6 236.6C506.5 235.1 509.3 234.4 511.6 234.4C512.1 234.4 512.7 234.3 513.2 234.4C513.667 234.467 514.133 234.533 514.6 234.6C515 234.6 515.4 234.6 515.8 234.7C516.133 234.833 516.433 234.933 516.7 235C517.3 235.2 517.733 235.333 518 235.4C518.333 235.533 518.5 235.6 518.5 235.6C518.5 235.6 518.333 235.567 518 235.5C517.667 235.433 517.233 235.333 516.7 235.2C516.433 235.067 516.1 234.967 515.7 234.9C515.4 234.8 515 234.8 514.6 234.8C514.133 234.733 513.667 234.667 513.2 234.6C512.7 234.6 512.1 234.6 511.6 234.7C509.3 234.7 506.6 235.4 503.8 237C501 238.5 498.1 240.8 495.4 243.8C489.9 249.7 484.9 258.2 480.5 267.9C476.1 277.7 472 288.9 468.8 300.8L468.6 300.4C469 300.6 469.4 300.767 469.8 300.9C488.6 307.9 505.9 314.3 519.9 319.4L519.5 319.6C522.9 308.7 525.7 299.6 527.7 293.3C528.7 290.2 529.5 287.8 530 286.1C530.267 285.3 530.467 284.667 530.6 284.2C530.733 283.733 530.833 283.5 530.9 283.5C530.9 283.5 530.833 283.733 530.7 284.2Z" fill="#263238"/>
	<path d="M496.7 302.3C511.1 307 522.6 311 522.6 311.2C522.5 311.4 510.8 307.7 496.5 303C482.2 298.2 470.6 294.2 470.7 294C470.7 293.8 482.4 297.5 496.7 302.3Z" fill="#263238"/>
	<path d="M421.9 395.5L432.2 285.9H468.9L464.6 389.9L421.9 395.5Z" fill="#263238"/>
	<g opacity="0.3">
		<path d="M517.1 318.8C515.1 327.2 512 339.6 508.7 347.6C506.3 353.5 503.7 359.4 499.7 364.3C494.1 371 486.2 375.4 477.8 377.6C469.5 379.8 460.7 379.9 452.1 378.9L494.9 354.7L506.3 315.1L517.1 318.8Z" fill="black"/>
	</g>
	<path d="M512.1 316.6L501.6 351.1C497.9 363.8 487.3 373.3 474.4 375.8L409.6 388.1L392 387.5L409.6 365.5L458.3 348.7C463.1 347.6 466.8 343.9 468.1 339.2L477.1 304.4L512.1 316.6Z" fill="#B78876"/>
	<path d="M429.8 342.8C429.9 340.5 429.9 337.5 430 333.9C430.1 326.3 430.3 315.9 430.7 304.4C431 292.9 431.4 282.5 431.7 274.9C431.9 271.3 432.1 268.3 432.2 266C432.3 263.9 432.4 262.7 432.5 262.7C432.5 262.7 432.6 263.9 432.6 266C432.5 268.3 432.5 271.3 432.5 275C432.3 282.5 432.1 292.9 431.7 304.4C431.4 315.9 431 326.4 430.7 333.9C430.5 337.5 430.4 340.5 430.3 342.8C430.1 344.9 430 346.1 429.9 346.1C429.9 346.1 429.8 344.9 429.8 342.8Z" fill="#263238"/>
	<path d="M418.6 282.1C425.7 286.3 431.4 289.9 431.2 290.1C431.1 290.4 425.2 287.2 418.1 283C410.9 278.8 405.3 275.2 405.4 275C405.6 274.7 411.5 277.9 418.6 282.1Z" fill="#263238"/>
	<path d="M257.2 615.2L256.8 595.4L294.8 581.9L296.3 609.5L294.2 610.5C284.7 615 245.4 632.8 238.1 633.4C229.9 634.2 257.2 615.2 257.2 615.2Z" fill="#E8505B"/>
	<path d="M257.2 615.2L256.8 595.4L294.8 581.9L296.3 609.5L294.2 610.5C284.7 615 245.4 632.8 238.1 633.4C229.9 634.2 257.2 615.2 257.2 615.2Z" fill="#76628B"/>
	<g opacity="0.4">
		<path d="M249.1 628.3L296 608.7L296.3 609.5C279.2 618.3 238.9 634.7 236.8 633.5C234.8 632.3 244.1 625 244.1 625C246.2 624.3 249.1 628.3 249.1 628.3Z" fill="white"/>
	</g>
	<path d="M296.5 608.5C296.5 608.5 296.3 608.6 295.9 608.8C295.433 609.067 294.867 609.333 294.2 609.6C292.533 610.4 290.433 611.367 287.9 612.5C282.6 614.9 275.2 618.1 266.9 621.5C258.6 624.9 251 627.8 245.5 629.8C242.967 630.733 240.8 631.5 239 632.1C238.333 632.367 237.733 632.567 237.2 632.7C237.733 632.433 238.3 632.2 238.9 632C240.7 631.333 242.867 630.5 245.4 629.5C250.9 627.4 258.4 624.4 266.7 621.1C275 617.7 282.4 614.5 287.8 612.2C290.333 611.133 292.467 610.2 294.2 609.4C294.8 609.133 295.367 608.9 295.9 608.7C296.3 608.567 296.5 608.5 296.5 608.5Z" fill="#263238"/>
	<path d="M249.3 628.8C249.2 628.9 248.5 627.4 246.9 626.2C245.3 625.1 243.7 624.8 243.7 624.7C243.7 624.6 245.4 624.6 247.1 625.9C248.9 627.1 249.4 628.8 249.3 628.8Z" fill="#263238"/>
	<path d="M257.6 619.3C257.5 619.4 256.8 619 255.9 618.4C255.1 617.8 254.4 617.2 254.5 617.1C254.6 617 255.3 617.4 256.2 618C257 618.6 257.7 619.2 257.6 619.3Z" fill="#263238"/>
	<path d="M259.8 616.6C259.8 616.7 259.1 616.6 258.2 616.3C257.4 616 256.8 615.7 256.8 615.5C256.9 615.4 257.6 615.6 258.4 615.9C259.2 616.2 259.9 616.5 259.8 616.6Z" fill="#263238"/>
	<path d="M260.3 612.5C260.3 612.7 259.6 613.1 258.5 613.5C257.5 614 256.7 614.2 256.6 614.1C256.6 614 257.3 613.5 258.4 613.1C259.4 612.7 260.2 612.4 260.3 612.5Z" fill="#263238"/>
	<path d="M259.9 609.9C260 610 259.3 610.8 258.1 611.4C257 612 255.9 612.1 255.9 612C255.9 611.8 256.8 611.5 257.9 611C259 610.4 259.9 609.8 259.9 609.9Z" fill="#263238"/>
	<path d="M255.1 616.7C255.2 616.7 254.3 617.2 252.9 617.6C252.1 617.8 251.2 618 250.2 618.1C249.7 618.1 249.2 618.2 248.6 618.1C248.3 618 248 617.9 247.8 617.6C247.5 617.3 247.6 616.8 247.7 616.5C249.4 614.5 252.1 614.9 253.4 615.7C254.1 616 254.5 616.5 254.7 616.9C255 617.2 255.1 617.4 255 617.5C255 617.5 254.5 616.6 253.2 615.9C252.6 615.6 251.7 615.4 250.8 615.5C249.9 615.6 248.7 616 248.1 616.8C247.9 617.2 248.2 617.5 248.7 617.6C249.2 617.7 249.7 617.6 250.2 617.6C251.2 617.6 252.1 617.4 252.8 617.3C254.2 617 255.1 616.6 255.1 616.7Z" fill="#263238"/>
	<path d="M254.6 617.1C254.6 617.1 254 616.6 253.7 615.6C253.5 615.1 253.5 614.4 253.6 613.7C253.8 613 254.1 612.1 255.1 611.7C255.6 611.6 256.1 612.1 256.2 612.5C256.3 612.9 256.3 613.3 256.2 613.7C256.1 614.4 255.9 615 255.7 615.5C255.3 616.5 254.8 617 254.8 616.9C254.7 616.9 255.1 616.3 255.4 615.4C255.6 614.9 255.7 614.3 255.8 613.6C255.9 613 255.8 612.1 255.2 612.2C254.6 612.4 254.2 613.2 254 613.8C253.9 614.4 253.9 615 254 615.5C254.2 616.5 254.7 617 254.6 617.1Z" fill="#263238"/>
	<path d="M291.9 599.1C291.9 599.2 290.8 599.4 289.3 600.3C287.8 601.1 285.8 602.6 284.5 604.9C283.3 607.2 282.9 609.7 283 611.4C283.1 613.1 283.5 614.2 283.4 614.2C283.4 614.2 283.3 614 283.1 613.5C283 613 282.8 612.3 282.7 611.4C282.5 609.7 282.8 607.1 284.1 604.7C285.5 602.3 287.5 600.7 289.1 600C289.9 599.6 290.6 599.3 291.1 599.2C291.6 599.1 291.9 599.1 291.9 599.1Z" fill="#263238"/>
	<path d="M282.2 585.9C282.3 585.8 283.8 589 285.5 593C287.2 597 288.4 600.3 288.3 600.3C288.2 600.4 286.7 597.2 285 593.2C283.4 589.2 282.1 585.9 282.2 585.9Z" fill="#263238"/>
	<path d="M277.6 612.8C277.6 612.9 275.5 614.2 272.6 615.4C269.8 616.6 267.3 617.2 267.3 617.1C267.3 617 269.6 616.2 272.4 615C275.3 613.8 277.5 612.7 277.6 612.8Z" fill="#263238"/>
	<path d="M284.5 610C284.6 610 284.5 610.5 284.5 611.1C284.5 611.8 284.5 612.3 284.4 612.3C284.3 612.4 284 611.9 284 611.1C284 610.4 284.4 609.9 284.5 610Z" fill="#263238"/>
	<path d="M285.8 605.6C285.9 605.7 285.8 606.2 285.6 606.7C285.4 607.2 285.1 607.6 285 607.5C284.9 607.5 285 607 285.2 606.5C285.4 606 285.7 605.6 285.8 605.6Z" fill="#263238"/>
	<path d="M288.9 602.6C288.9 602.8 288.5 603 288 603.4C287.6 603.7 287.3 604.2 287.2 604.1C287.1 604.1 287.2 603.5 287.7 603C288.3 602.5 288.9 602.5 288.9 602.6Z" fill="#263238"/>
	<path d="M291.3 600.9C291.4 601 291.2 601.2 291 601.5C290.7 601.7 290.5 601.8 290.4 601.7C290.3 601.6 290.4 601.3 290.7 601.1C290.9 600.9 291.2 600.8 291.3 600.9Z" fill="#263238"/>
	<path d="M408.1 451H320.2L301.7 606.1H241.2L263.3 426.5C265.5 408.8 280.3 395.4 298.1 395.1L409.6 393L408.1 451Z" fill="#263238"/>
	<path d="M271.5 594.4C287.9 594.5 303 594.9 301.2 595.1C300.9 595.1 287.9 595.5 271.5 595.4C255.2 595.3 241.9 595 241.9 594.7C241.9 594.4 255.2 594.3 271.5 594.4Z" fill="#455A64"/>
	<path d="M333.6 452C318 452 305.4 439.4 305.4 423.8C305.4 408.2 318.1 395.6 333.7 395.7L528.2 377.4C528.2 377.4 558.7 436.3 514.2 451L333.6 452Z" fill="#263238"/>
	<path d="M318.4 395.5L287 327.2L380 320.8L404.4 382.4L454.2 384.4L454.8 388.6L318.4 395.5Z" fill="#455A64"/>
	<path d="M344.9 354.1C347.2 352.6 350.2 353.3 351.6 355.6C353.1 357.8 352.4 360.9 350.1 362.3C347.9 363.7 344.8 363.1 343.4 360.8C342 358.5 342.6 355.5 344.9 354.1Z" fill="white"/>
	<path d="M470.3 387.4C469.9 387.467 469.367 387.533 468.7 387.6C467.167 387.667 465.067 387.8 462.4 388C456.9 388.3 449.1 388.8 439.4 389.4C419.9 390.5 393.1 392 363.4 393.6C359.7 393.8 356 394.1 352.4 394.2C348.8 394.2 345.267 394.3 341.8 394.5C338.267 394.7 334.833 394.967 331.5 395.3C328.1 395.7 324.9 396 321.9 397.1C318.9 398.2 316.2 399.8 314.1 401.8C311.9 403.9 310.3 406.4 309.3 409C308.2 411.6 307.7 414.3 307.3 416.9C306.9 419.567 306.7 422.1 306.7 424.5C306.7 429.3 307.5 433.7 309.1 437.2C310.6 440.7 312.8 443.3 314.9 445C317 446.7 318.9 447.6 320.2 448C321.6 448.5 321.6 448.6 320.2 448.2C318.8 447.8 316.8 447 314.6 445.3C312.5 443.6 310.2 441 308.6 437.4C306.9 433.9 306 429.4 306 424.5C305.933 422.033 306.1 419.467 306.5 416.8C306.9 414.2 307.5 411.4 308.5 408.7C309.6 406 311.2 403.3 313.5 401.2C315.7 399 318.5 397.4 321.6 396.3C324.7 395.1 328.1 394.7 331.4 394.3C334.733 393.967 338.167 393.733 341.7 393.6C345.233 393.333 348.8 393.2 352.4 393.2C356 393.1 359.7 392.8 363.4 392.6C393 391.1 419.9 389.7 439.4 388.7C449 388.2 456.9 387.9 462.4 387.6C465.067 387.533 467.167 387.467 468.7 387.4C469.367 387.333 469.9 387.3 470.3 387.3C470.7 387.3 470.9 387.333 470.9 387.4C470.9 387.4 470.7 387.4 470.3 387.4Z" fill="#455A64"/>
	<path d="M463.4 285.9C463.4 285.9 468.3 237.9 511.2 225.4C514.6 226.8 517.5 228.6 519.8 230.8C519.8 230.8 479.4 229.1 468.9 285.9H463.4Z" fill="#263238"/>
	<path d="M432.6 288.3C432.6 288.3 422.7 243.9 458.5 217.2C462.1 217.2 465.4 217.9 468.4 219.2C468.4 219.2 427.9 231.7 438.1 288.6L432.6 288.3Z" fill="#263238"/>
	<path d="M506 131.2C507.8 126 512.8 122 518.2 121.4C523.7 120.7 529.5 123.3 532.5 127.9C534.4 130.9 535.3 134.4 536.5 137.7C537.7 141 539.5 144.3 542.6 146C546.2 148 551 147.3 554.3 149.8C557.9 152.5 558 158.5 554.9 161.9C551.9 165.3 546.5 166.1 542.3 164.4C543.2 167.1 544.1 169.9 544 172.7C544 175.6 542.8 178.6 540.4 180.1C537.9 181.7 534.6 181.3 532 180C529.5 178.6 527.5 176.4 525.8 174.1C525.2 176.1 524.7 178.1 523.6 179.8C522.6 181.6 520.9 183.1 518.8 183.4C516.4 183.8 513.8 182.3 512.4 180.2C511 178.2 510.4 175.6 510.1 173.1C509.3 166.9 509.8 160.6 511.3 154.5C512.2 150.6 513.6 146.6 512.8 142.7C512.1 138.8 508.2 135.1 504.4 136.3" fill="#263238"/>
	<path d="M556.2 158C556.2 158.067 555.967 158.167 555.5 158.3C555.1 158.5 554.433 158.7 553.5 158.9C551.8 159.3 549.2 159.6 546 159C542.8 158.4 539.1 156.9 536 153.9C534.5 152.4 533.1 150.6 532 148.5C531 146.5 530.3 144.1 529.8 141.7C529.3 139.4 528.8 137.1 527.9 135.1C527.1 133 525.8 131.3 524.1 130.2C520.9 127.8 516.9 127.4 513.9 128.2C510.9 128.9 508.8 130.5 507.6 131.6C506.3 132.8 505.7 133.6 505.6 133.6C505.6 133.533 505.733 133.3 506 132.9C506.2 132.5 506.7 132 507.3 131.3C508.5 130.1 510.6 128.4 513.8 127.5C516.9 126.6 521.1 126.8 524.7 129.4C526.5 130.6 528 132.5 528.9 134.7C529.8 136.8 530.3 139.2 530.8 141.5C531.3 143.9 531.9 146.1 533 148.1C533.9 150 535.3 151.8 536.7 153.2C539.6 156.1 543.1 157.6 546.1 158.3C549.2 158.9 551.7 158.7 553.5 158.5C555.2 158.2 556.1 157.9 556.2 158Z" fill="#455A64"/>
	<path d="M522.6 181.5C522.6 181.567 522.433 181.467 522.1 181.2C521.767 180.933 521.367 180.5 520.9 179.9C519.9 178.7 518.9 176.7 518.6 173.9C518.3 171.2 518.6 167.9 519.7 164.5C520.7 161 522.1 157.4 522.7 153.4C523.3 149.5 522.4 145.6 520.6 142.6C518.9 139.7 516.3 137.6 514 136.5C511.6 135.4 509.5 135 508 134.8C506.5 134.7 505.7 134.8 505.7 134.7C505.7 134.6 506.5 134.4 508 134.4C509.5 134.5 511.8 134.7 514.3 135.9C516.8 136.9 519.5 139 521.5 142.1C523.4 145.2 524.4 149.4 523.7 153.6C523.1 157.7 521.6 161.4 520.6 164.7C519.5 168.1 519.1 171.2 519.3 173.8C519.5 176.5 520.4 178.5 521.2 179.7C522 180.9 522.7 181.4 522.6 181.5Z" fill="#455A64"/>
	<path d="M437.6 157.4C427.6 134.3 441.3 120.3 450.2 115.2C455.5 112.2 461.8 111.6 467.9 111.5C474 111.3 480 111.6 485.9 113.1C491.7 114.6 497.3 117.5 501.4 121.9C508.7 129.7 510.3 141.2 509.7 151.9C508.9 164.5 505.3 176.9 499 187.8C498.2 189.2 497.3 190.6 495.9 191.4C494.5 192.2 492.4 192 491.6 190.6" fill="#263238"/>
	<path d="M491.4 130.5C494.8 130.8 497.3 133.7 497.3 137.1L493.6 225C493.4 235.4 474.6 247.7 463.5 247.5C452.2 247.2 454.6 235.3 455.4 225.4C456.2 214.3 455.1 202.8 455.1 202.8C455.1 202.8 440.9 200.5 438 181.9C436.5 172.7 437 157.6 437.7 145.3C438.4 134.2 448.2 125.9 459.3 127.1L491.4 130.5Z" fill="#B78876"/>
	<path d="M445 155.1C446.3 155.2 447.3 156.3 447.3 157.5C447.2 158.8 446.2 159.8 444.8 159.7C443.5 159.6 442.5 158.5 442.6 157.3C442.6 156 443.7 155.1 445 155.1Z" fill="#263238"/>
	<path d="M441.9 151.9C442.7 151.3 444 150.7 445.6 150.7C447.2 150.7 448.6 151.2 449.4 151.8C450.2 152.4 450.5 153 450.4 153.1C450.1 153.4 448.2 152.1 445.7 152.1C443.1 152.1 441.3 153.5 441 153.2C440.9 153 441.1 152.5 441.9 151.9Z" fill="#263238"/>
	<path d="M470 155.1C471.3 155.2 472.3 156.3 472.3 157.5C472.2 158.8 471.1 159.8 469.8 159.7C468.5 159.6 467.5 158.5 467.5 157.3C467.6 156 468.7 155.1 470 155.1Z" fill="#263238"/>
	<path d="M467 152.3C467.8 151.7 469.2 151.1 470.7 151.1C472.3 151.1 473.7 151.7 474.5 152.3C475.3 152.9 475.6 153.5 475.5 153.6C475.2 153.9 473.3 152.6 470.8 152.6C468.2 152.6 466.4 153.9 466.1 153.6C466 153.5 466.3 152.9 467 152.3Z" fill="#263238"/>
	<path d="M452.7 172.6C452.3 172.6 452 172.5 451.5 172.4C451.1 172.3 450.7 172 450.5 171.5C450.1 170.5 450.6 169.6 450.8 168.9C451.4 167.3 452.033 165.633 452.7 163.9C455.3 156.8 457.7 151.2 458 151.3C458.3 151.4 456.4 157.2 453.7 164.3C453.033 166.033 452.4 167.7 451.8 169.3C451.5 170 451.2 170.7 451.3 171.2C451.4 171.6 452.1 171.8 452.7 171.8C455.3 172.2 456.9 172.4 456.9 172.6C456.9 172.7 455.2 172.7 452.7 172.6Z" fill="#263238"/>
	<path d="M455.1 202.8C455.1 202.8 467.6 203.6 479.9 196.2C479.9 196.2 473.9 208.9 455.3 207.2L455.1 202.8Z" fill="#AA6550"/>
	<path d="M457.9 178.7C458.9 177.5 460.5 176.9 462.1 177C463.2 177.1 464.3 177.7 465 178.6C465.6 179.5 465.8 180.8 465.2 181.6C464.5 182.6 463 182.8 461.8 182.5C460.6 182.1 459.6 181.3 458.6 180.5C458.3 180.3 458 180.1 457.8 179.8C457.7 179.5 457.6 179.1 457.8 178.8" fill="#AA6550"/>
	<path d="M464.8 176.2C464.7 177.3 464.1 178.9 462.6 180.1C461.2 181.3 459.4 181.7 458.1 181.7C456.9 181.7 456.2 181.3 456.2 181.1C456.3 180.7 459.2 181 461.6 179.1C464 177.1 464 174.3 464.4 174.3C464.6 174.3 464.9 175 464.8 176.2Z" fill="#263238"/>
	<path d="M466.5 147.8C467.6 147.4 469.3 147.1 471.1 147.3C472.9 147.5 474.4 148.1 475.4 148.8C476.4 149.5 476.8 150.1 476.6 150.4C476.2 151.1 473.8 150.2 470.8 149.9C467.8 149.5 465.2 149.9 465 149.2C464.9 148.8 465.4 148.3 466.5 147.8Z" fill="#263238"/>
	<path d="M442.8 144.3C443.5 143.7 444.8 143.2 446.2 143.1C447.7 143.1 449 143.5 449.7 144.1C450.5 144.6 450.8 145.2 450.6 145.5C450.2 146.1 448.4 145.6 446.3 145.7C444.2 145.7 442.4 146.3 442 145.8C441.8 145.5 442 144.9 442.8 144.3Z" fill="#263238"/>
	<path d="M434.2 140.4C435.5 130.2 442.9 125.7 452.6 122.1C462.2 118.5 472.9 119 483 120.8C487.1 121.6 491.3 122.6 494.6 125.2C499.1 128.8 501 134.8 502.1 140.5C504.9 154.5 504.3 169.5 498.2 182.3C494 178.7 491.5 173.6 490.2 168.2C489 162.9 488.9 157.4 488.9 151.9C488.9 149.9 488.8 147.7 487.2 146.5C486.4 145.9 485.3 145.7 484.3 145.6C474.1 143.9 457.6 135.5 450.4 128.2C445.4 135.8 441 129.5 437.7 145.3" fill="#263238"/>
	<path d="M507.7 134.2C507.7 134.3 507 134.7 505.6 135.3C505 135.7 504.1 136 503.1 136.4C502.567 136.533 502 136.7 501.4 136.9C500.8 137.1 500.2 137.267 499.6 137.4C496.9 138.1 493.7 138.5 490.1 138.7C486.5 138.9 482.5 138.6 478.4 138C474.3 137.3 470.5 136.1 467.1 134.9C465.5 134.2 463.9 133.6 462.5 132.7C461.767 132.367 461.067 132.033 460.4 131.7C459.8 131.3 459.2 130.9 458.6 130.5C457.5 129.8 456.5 129 455.7 128.3C455.3 127.967 454.9 127.667 454.5 127.4C454.167 127.067 453.867 126.767 453.6 126.5C452.5 125.4 452 124.7 452 124.7C452.2 124.5 454.5 127.1 459 129.9C459.6 130.233 460.2 130.6 460.8 131C461.467 131.333 462.167 131.667 462.9 132C464.2 132.7 465.8 133.3 467.5 134C470.8 135.2 474.5 136.3 478.6 136.9C482.6 137.6 486.5 137.8 490.1 137.8C493.6 137.6 496.8 137.3 499.4 136.7C504.6 135.6 507.6 134 507.7 134.2Z" fill="#455A64"/>
	<path d="M502.5 121.7C502.5 121.8 502 122.3 500.9 123C500.4 123.5 499.7 123.9 498.8 124.3C498.4 124.567 497.967 124.8 497.5 125C496.967 125.267 496.433 125.5 495.9 125.7C491.5 127.6 485 128.9 477.7 129C470.5 129 464 128 459.4 126.9C457.1 126.4 455.2 125.9 454 125.4C452.7 125 452 124.8 452 124.7C452.1 124.5 454.9 125.3 459.5 126.2C464.1 127.1 470.6 128 477.7 127.9C484.9 127.9 491.3 126.7 495.7 125C500 123.4 502.3 121.6 502.5 121.7Z" fill="#455A64"/>
	<path d="M445.6 117.7C445.6 117.6 446.2 117.5 447.2 117.7C448.2 118 449.5 118.7 450.5 119.9C451.5 121.1 452 122.5 452 123.5C452.1 124.6 451.8 125.2 451.7 125.1C451.4 125.1 451.5 122.7 449.7 120.6C447.9 118.4 445.5 118 445.6 117.7Z" fill="#455A64"/>
	<path d="M541.2 137.7C541.2 137.7 541.3 137.4 541.8 137C542.2 136.6 543 136.1 544.1 136C545.1 135.9 546.6 136 547.9 136.9C549.3 137.7 550.4 139.5 550.2 141.6C550 143.6 548.7 145.7 546.6 146.8C544.5 148 541.6 147.6 539.4 146.1C538.3 145.3 537.4 144.3 536.8 143C536.1 141.7 535.9 140.3 535.8 138.9C535.6 136.1 536.1 133.3 535.6 130.5C534.5 125 530.2 120.7 525.7 119.1C521 117.4 516.4 118.7 513.3 120.7C510.1 122.6 508.3 125.2 507.4 127.1C506.5 129 506.3 130.1 506.2 130.1C506.2 130.1 506.233 129.833 506.3 129.3C506.4 128.7 506.6 127.9 507.1 126.9C507.9 125 509.6 122.2 512.9 120C514.5 119 516.5 118.1 518.7 117.7C521 117.2 523.5 117.4 526 118.2C530.8 119.9 535.5 124.4 536.6 130.4C537.1 133.4 536.6 136.2 536.8 138.9C536.9 140.2 537.1 141.4 537.7 142.6C538.2 143.7 539 144.6 540 145.3C541.9 146.7 544.4 147 546.2 146C548.1 145.1 549.2 143.2 549.4 141.5C549.7 139.7 548.8 138.1 547.6 137.4C546.4 136.5 545.1 136.3 544.1 136.4C542 136.6 541.3 137.8 541.2 137.7Z" fill="#263238"/>
	<path d="M492.6 146C492.6 146.1 491.9 146.1 490.7 146.2C489.4 146.2 487.6 146.2 485.4 146.1C481 145.9 474.8 145.5 468.3 143.2C461.8 140.8 456.8 136.6 454.3 132.9C453 131.1 452.2 129.4 451.8 128.2C451.4 127.1 451.3 126.4 451.3 126.4C451.5 126.3 452.2 129 454.9 132.5C457.5 136 462.4 139.9 468.6 142.2C474.9 144.5 481.1 145 485.5 145.4C489.9 145.7 492.6 145.9 492.6 146Z" fill="#263238"/>
	<path d="M518.9 191.2C518.9 191.2 518.8 192 518 193C517.2 194 515.6 195.2 513.2 195.3C510.9 195.5 508.1 194.6 505.8 192.5C504.7 191.5 503.7 190 503.5 188.2C503.4 186.5 504.1 184.5 505.9 183.6C507.7 182.8 510 183.5 510.8 185.3C511.2 186.2 511.1 187.3 510.6 188C510.2 188.8 509.6 189.4 508.8 189.8C507.3 190.5 505.7 190.3 504.4 189.8C503.1 189.4 502 188.6 501.2 187.8C499.6 186.1 499 184.3 498.9 183C498.8 181.7 499 181 499 181.1C499.1 181.1 499 181.8 499.3 182.9C499.6 184.1 500.2 185.8 501.8 187.3C502.5 188 503.5 188.7 504.7 189C505.8 189.4 507.2 189.5 508.4 188.9C509.5 188.4 510.4 186.9 509.9 185.7C509.4 184.5 507.6 183.9 506.4 184.5C505.1 185.2 504.4 186.8 504.5 188.2C504.6 189.6 505.5 190.9 506.4 191.8C508.5 193.7 511.1 194.7 513.2 194.6C515.3 194.6 516.9 193.6 517.7 192.7C518.5 191.9 518.8 191.2 518.9 191.2Z" fill="#263238"/>
	<path d="M433.7 288C433.8 288.1 433.6 288.4 433.6 288.9C433.7 289.3 434 289.7 434.5 289.5C435.1 289.2 435 288.8 434.7 288.4C434.4 288 434.1 288 434 287.9C434 287.8 434.5 287.4 435.2 287.8C435.5 288 435.9 288.4 435.9 289C436 289.6 435.5 290.2 434.9 290.4C434.4 290.7 433.6 290.6 433.2 290.1C432.8 289.6 432.8 289.1 432.9 288.8C433.1 288 433.7 287.9 433.7 288Z" fill="#455A64"/>
	<path d="M465.7 287.4C465.8 287.5 465.3 287.7 465.1 288.2C464.8 288.8 464.9 289.6 465.8 289.6C466.6 289.8 466.9 289 466.8 288.4C466.6 287.8 466.2 287.6 466.3 287.4C466.3 287.3 467 287.3 467.5 288.1C467.7 288.5 467.8 289.1 467.5 289.8C467.2 290.4 466.4 290.8 465.7 290.7C464.9 290.6 464.2 290.1 464.1 289.4C463.9 288.7 464.2 288.1 464.5 287.8C465.1 287.1 465.8 287.3 465.7 287.4Z" fill="#455A64"/>
	<path d="M435.8 305.2C435.9 305.2 435.8 306.2 435.9 308.1C435.9 310 436.1 312.8 437.2 316C437.7 317.5 438.6 319.2 439.9 320.6C441.2 322 443.1 323 445.2 323.3C447.3 323.8 449.7 323.5 451.7 322.4C453.8 321.3 455.5 319.4 456.7 317.2C458.8 313.3 459.7 309 460.1 305.2L460.6 305.7C453.4 305.6 447.3 305.5 442.9 305.4C440.833 305.4 439.1 305.367 437.7 305.3C436.5 305.3 435.8 305.2 435.8 305.2C435.8 305.1 436.4 305.1 437.5 305.1C438.9 305.033 440.6 304.967 442.6 304.9C447 304.8 453.2 304.7 460.6 304.7H461.1V305.2C460.7 309.2 459.8 313.6 457.6 317.7C456.3 320.1 454.5 322.1 452.2 323.3C449.9 324.5 447.3 324.8 445 324.3C442.7 323.9 440.6 322.8 439.2 321.2C437.9 319.6 437 317.8 436.5 316.2C435.5 312.9 435.4 310 435.5 308.1C435.5 306.2 435.7 305.2 435.8 305.2Z" fill="#455A64"/>
	<path d="M513.7 405.9C513.7 406 513.2 406.3 512.1 406.7C511.1 407.1 509.5 407.5 507.5 407.6C503.6 407.9 497.7 406.7 493.3 402.2C488.9 397.7 487.9 391.8 488.3 387.9C488.4 385.9 488.9 384.3 489.3 383.3C489.7 382.2 490.1 381.7 490.1 381.8C490.3 381.8 489.2 384 489 387.9C488.8 391.7 489.9 397.3 494 401.5C498.1 405.7 503.7 407 507.5 406.9C511.4 406.8 513.6 405.7 513.7 405.9Z" fill="#455A64"/>
	<path d="M325 448.5C325 448.2 368.4 448 421.9 448C475.4 448 518.8 448.2 518.8 448.5C518.8 448.8 475.4 449 421.9 449C368.4 449 325 448.8 325 448.5Z" fill="#455A64"/>
	<path d="M983.9 359.1C983.9 359.1 983.3 359.2 982.1 359.2C980.833 359.2 979 359.233 976.6 359.3C971.7 359.3 964.5 359.3 955.2 359.4C936.5 359.5 909.2 359.6 875 359.7C806.4 359.8 709.8 359.9 598.2 360.1H597.4L597.2 359.4C591.5 339.8 595 316.9 607.8 299.4C620.6 281.9 642.5 270.8 665.1 271.3L664.1 272.7C662.4 266.9 661.7 260.5 661.9 254.1C662.8 232.7 675 212 693.6 202.4C712.1 192.7 734.8 193.1 752.3 202.7L750.9 203.3C760.8 179 781.8 161.4 804.6 153.2C827.4 144.9 852.8 146 872.7 156.4C892.7 166.7 907 184.2 914.9 202.5C923 220.9 924.1 240.7 920 257.7L919.3 256.8C930.7 255.6 941.8 257.5 951.3 261.4C960.8 265.3 968.9 271.1 975.1 277.7C978.1 281 980.8 284.6 982.6 288.5C984.3 292.3 985.7 296.1 986.6 299.9C988.4 307.4 989.1 314.4 989.3 320.7C989.7 333.3 988.2 343 986.8 349.5C986.067 352.7 985.4 355.1 984.8 356.7C984.2 358.3 983.9 359.1 983.9 359.1Z" fill="#76628B"/>
	<g opacity="0.3">
		<path d="M983.9 359.1C983.9 359.1 983.3 359.2 982.1 359.2C980.833 359.2 979 359.233 976.6 359.3C971.7 359.3 964.5 359.3 955.2 359.4C936.5 359.5 909.2 359.6 875 359.7C806.4 359.8 709.8 359.9 598.2 360.1H597.4L597.2 359.4C591.5 339.8 595 316.9 607.8 299.4C620.6 281.9 642.5 270.8 665.1 271.3L664.1 272.7C662.4 266.9 661.7 260.5 661.9 254.1C662.8 232.7 675 212 693.6 202.4C712.1 192.7 734.8 193.1 752.3 202.7L750.9 203.3C760.8 179 781.8 161.4 804.6 153.2C827.4 144.9 852.8 146 872.7 156.4C892.7 166.7 907 184.2 914.9 202.5C923 220.9 924.1 240.7 920 257.7L919.3 256.8C930.7 255.6 941.8 257.5 951.3 261.4C960.8 265.3 968.9 271.1 975.1 277.7C978.1 281 980.8 284.6 982.6 288.5C984.3 292.3 985.7 296.1 986.6 299.9C988.4 307.4 989.1 314.4 989.3 320.7C989.7 333.3 988.2 343 986.8 349.5C986.067 352.7 985.4 355.1 984.8 356.7C984.2 358.3 983.9 359.1 983.9 359.1Z" fill="black"/>
	</g>
	<path d="M953.4 359.1C953.4 359.1 952.8 359.2 951.6 359.2C950.267 359.2 948.433 359.233 946.1 359.3C941.1 359.3 934 359.3 924.7 359.4C905.9 359.5 878.7 359.6 844.5 359.7C775.8 359.8 679.3 359.9 567.6 360.1H566.9L566.7 359.4C561 339.8 564.5 316.9 577.3 299.4C590 281.9 612 270.8 634.6 271.3L633.5 272.7C631.9 266.9 631.1 260.5 631.4 254.1C632.2 232.7 644.4 212 663.1 202.4C681.5 192.7 704.3 193.1 721.7 202.7L720.3 203.3C730.3 179 751.3 161.4 774 153.2C796.9 144.9 822.2 146 842.1 156.4C862.2 166.7 876.4 184.2 884.3 202.5C892.4 220.9 893.5 240.7 889.5 257.7L888.7 256.8C900.2 255.6 911.3 257.5 920.8 261.4C930.3 265.3 938.4 271.1 944.5 277.7C947.6 281 950.2 284.6 952 288.5C953.8 292.3 955.1 296.1 956 299.9C957.9 307.4 958.5 314.4 958.7 320.7C959.1 333.3 957.6 343 956.2 349.5C955.467 352.7 954.833 355.1 954.3 356.7C953.7 358.3 953.4 359.1 953.4 359.1Z" fill="#76628B"/>
	<path d="M833.6 269.8C833.4 269.8 833.1 267.7 832.7 264.1C832.4 262.3 832 260.1 831.4 257.6C831.067 256.333 830.7 255 830.3 253.6C829.8 252.2 829.2 250.8 828.6 249.2C826.1 243.3 822.1 236.5 816 230.4C810 224.4 801.9 219.3 792.5 216.3C783 213.6 773.4 213.2 765 214.9C756.6 216.4 749.5 219.8 744.1 223.4C738.7 227 734.9 230.8 732.4 233.4C731.2 234.8 730.2 235.9 729.6 236.6C728.933 237.333 728.567 237.667 728.5 237.6C728.367 237.533 728.567 237.1 729.1 236.3C729.6 235.4 730.3 234.2 731.5 232.7C733.7 229.7 737.4 225.5 742.9 221.6C748.3 217.7 755.6 213.9 764.5 212C773.3 210.2 783.4 210.4 793.4 213.3C803.3 216.4 811.9 222 818.1 228.4C824.3 234.9 828.3 242.1 830.7 248.4C831.2 250 831.8 251.5 832.2 253C832.533 254.467 832.833 255.867 833.1 257.2C833.6 259.8 833.7 262.1 833.9 264C834 267.7 833.8 269.8 833.6 269.8Z" fill="#FAFAFA"/>
	<path d="M806.2 249.4C806.7 248.7 819.2 257.3 834.1 268.7C834.433 268.9 834.733 269.1 835 269.3L832.6 270.1C838.6 252.8 844.1 239.2 844.9 239.5C845.7 239.8 841.5 253.8 835.5 271.1L834.8 273.1L833.1 271.8C832.833 271.6 832.567 271.4 832.3 271.2C817.3 259.8 805.7 250.1 806.2 249.4Z" fill="#FAFAFA"/>
	<path d="M725.3 260.3C725.5 260.3 725.6 262.3 725.5 265.8C725.6 267.6 725.8 269.8 726 272.3C726.4 274.8 726.8 277.6 727.7 280.7C729.3 286.7 732.3 293.8 737.3 300.4C742.1 307.1 749.2 313.2 757.8 317.5L759.4 318.3L761 318.9C762.133 319.367 763.233 319.8 764.3 320.2C765.4 320.6 766.5 320.8 767.6 321.2C768.7 321.5 769.8 321.9 770.9 322C775.3 322.9 779.7 323.4 783.8 323.3C792.1 323.2 799.5 321.3 805.3 318.8C811.2 316.3 815.5 313.4 818.3 311.3C819.8 310.3 820.9 309.4 821.6 308.8C822.4 308.267 822.833 308.033 822.9 308.1C822.967 308.167 822.667 308.567 822 309.3C821.4 310.1 820.5 311.1 819.1 312.3C816.4 314.7 812.2 318 806.2 320.8C800.3 323.6 792.6 325.9 783.9 326.2C779.6 326.3 775 325.9 770.3 325C769.1 324.9 768 324.5 766.8 324.2C765.7 323.8 764.5 323.5 763.3 323.1C762.167 322.7 761 322.267 759.8 321.8L758.1 321.1L756.4 320.3C755.267 319.7 754.167 319.1 753.1 318.5C752 317.9 751 317.2 749.9 316.5C747.8 315.3 746 313.6 744.1 312.2C743.2 311.5 742.4 310.6 741.6 309.8C740.8 309 739.9 308.2 739.1 307.3C738.367 306.433 737.633 305.567 736.9 304.7L735.9 303.5L734.9 302.1C729.8 295 726.9 287.6 725.5 281.2C724.7 278 724.5 275 724.3 272.5C724.2 269.9 724.2 267.6 724.3 265.8C724.8 262.2 725.1 260.2 725.3 260.3Z" fill="#FAFAFA"/>
	<path d="M750.1 283.8C749.5 284.5 738.1 274.4 724.7 261.3C724.433 261.033 724.167 260.767 723.9 260.5L726.4 260.1C718.3 276.5 711.2 289.3 710.5 288.9C709.7 288.5 715.6 275.1 723.6 258.7L724.6 256.8L726.1 258.3C726.367 258.567 726.633 258.8 726.9 259C740.3 272.1 750.7 283.2 750.1 283.8Z" fill="#FAFAFA"/>
	<path d="M1124.5 459.9C1124.5 459.9 1124.5 459.567 1124.5 458.9C1124.5 458.233 1124.47 457.233 1124.4 455.9C1124.4 453.2 1124.4 449.3 1124.3 444.3C1124.3 434.1 1124.2 419.4 1124.2 401.1L1124.5 401.4C1084.5 401.5 1026.3 401.5 961.7 401.6C887 401.5 821 401.4 781.1 401.4H780.8V401.1C780.8 388.1 780.9 377.9 780.9 370.9C780.9 367.433 780.933 364.767 781 362.9C781 361.967 781 361.267 781 360.8C781 360.333 781.033 360.1 781.1 360.1C781.1 360.1 781.1 360.333 781.1 360.8C781.1 361.267 781.1 361.967 781.1 362.9C781.167 364.767 781.2 367.433 781.2 370.9C781.2 377.9 781.3 388.1 781.4 401.1L781.1 400.8C821 400.7 887 400.6 961.7 400.6C1026.3 400.6 1084.5 400.7 1124.5 400.7H1124.9V401.1C1124.8 419.4 1124.7 434.1 1124.7 444.3C1124.7 449.3 1124.6 453.2 1124.6 455.9C1124.6 457.233 1124.6 458.233 1124.6 458.9C1124.53 459.567 1124.5 459.9 1124.5 459.9Z" fill="#76628B"/>
	<path d="M620.9 448.5C620.6 448.5 620.4 428.6 620.4 404.2C620.4 379.7 620.6 359.8 620.9 359.8C621.2 359.8 621.4 379.7 621.4 404.2C621.4 428.6 621.2 448.5 620.9 448.5Z" fill="#76628B"/>
</svg>
