<svg version="1.2" xmlns="http://www.w3.org/2000/svg" viewBox="0 0 1500 1000" width="1500" height="1000">
	<title>cloudsync-ai</title>
	<style>
		.s0 { fill: #ebebeb } 
		.s1 { fill: #e0e0e0 } 
		.s2 { fill: #fafafa } 
		.s3 { fill: #f5f5f5 } 
		.s4 { fill: #263238 } 
		.s5 { fill: #008f99 } 
		.s6 { fill: #ffffff } 
		.s7 { fill: #455a64 } 
		.s8 { fill: #b78876 } 
		.s9 { fill: #000000 } 
		.s10 { fill: none;stroke: #000000;stroke-width: .5 } 
		.s11 { fill: #e8505b } 
		.s12 { fill: #aa6550 } 
	</style>
	<g id="Background Complete">
		<g id="&lt;Group&gt;">
			<g id="&lt;Group&gt;">
				<path id="&lt;Path&gt;" class="s0" d="m1310.9 490.8c0 0 16.5 2.4 7.1 37.7-9.5 35.2-17.4 53.3-17.4 53.3 0 0-1.3 8 5.2 7.9 6.5-0.2 19.7-5.3 24.1 1.7 4.5 7.3 0.4 15.9-9.9 24.9-10.2 9-31.9 29.6-33.8 31.4-1.9 1.9-3.4 5.8 1 6.4 4.4 0.6 35.9-2.8 36.6 12.2 0.7 15.1-31.9 35.5-35.5 37.8-3.5 2.2-4.1 4.1-3.3 6.1 0.8 2.1 11.2-0.1 20.2-0.7 9-0.5 19.5 0.4 19.2 9.1-0.3 8.7-17.6 30.5-67.4 46.3l-23.6 5.9-17.1-17.1c-34.5-39.2-38-66.8-33.8-74.4 4.2-7.7 13.7-3 21.1 2.1 7.3 5.2 15.2 12.4 16.9 11 1.7-1.3 2.2-3.2 0.4-7-1.9-3.7-19.3-38-10.9-50.5 8.3-12.6 33.5 6.5 37.6 8.3 4.1 1.8 4.9-2.3 4.2-4.9-0.8-2.6-8.7-31.4-12.8-44.3-4.2-13-3.2-22.6 4.4-26.5 7.4-3.7 16.1 7.5 21.5 11 5.5 3.4 8.5-4.1 8.5-4.1 0 0 2.6-19.6 12.7-54.7 10.1-35 25.1-28.8 25.1-28.8"/>
			</g>
			<g id="&lt;Group&gt;">
				<g id="&lt;Group&gt;">
					<path id="&lt;Path&gt;" class="s1" d="m1302.1 522.3q0 0-0.1 0.8-0.2 0.7-0.6 2.1c-0.5 2-1.2 4.8-2.1 8.4-1.9 7.2-4.7 17.7-8.3 30.7-7 25.8-17 61.5-28.2 100.8-11.3 39.3-21.4 75-28.6 100.8-3.5 12.9-6.4 23.3-8.4 30.6-1 3.6-1.8 6.3-2.3 8.3q-0.4 1.4-0.7 2.1-0.2 0.8-0.2 0.8 0 0 0.1-0.8 0.2-0.8 0.6-2.2c0.5-1.9 1.2-4.7 2.2-8.3 1.8-7.3 4.7-17.7 8.2-30.7 7-25.8 17.1-61.5 28.3-100.8 11.2-39.4 21.3-75 28.5-100.8 3.5-12.9 6.4-23.3 8.5-30.6 0.9-3.6 1.7-6.4 2.3-8.3q0.4-1.4 0.6-2.2 0.2-0.7 0.2-0.7z"/>
				</g>
			</g>
			<g id="&lt;Group&gt;">
				<g id="&lt;Group&gt;">
					<path id="&lt;Path&gt;" class="s1" d="m1254.9 583.7c0.1-0.1 0.4 0.5 1 1.5 0.5 0.9 1.3 2.4 2.2 4.2 1.8 3.6 4.2 8.6 6.7 14.2 2.5 5.5 4.7 10.5 6.4 14.4q1.2 2.5 2 4.3c0.5 1.1 0.7 1.6 0.6 1.7 0 0-0.3-0.5-0.9-1.5-0.6-1-1.3-2.5-2.2-4.3-1.8-3.6-4.1-8.6-6.6-14.2-2.5-5.5-4.8-10.5-6.5-14.4q-1.2-2.5-2-4.3c-0.5-1-0.7-1.6-0.7-1.6z"/>
				</g>
			</g>
			<g id="&lt;Group&gt;">
				<g id="&lt;Group&gt;">
					<path id="&lt;Path&gt;" class="s1" d="m1276.1 624c-0.1-0.2 10.1-5.6 22.7-12.1 12.6-6.4 22.9-11.4 23-11.2 0.1 0.2-10 5.6-22.6 12-12.7 6.4-23 11.5-23.1 11.3z"/>
				</g>
			</g>
			<g id="&lt;Group&gt;">
				<g id="&lt;Group&gt;">
					<path id="&lt;Path&gt;" class="s1" d="m1256.2 683.6c0-0.1 0.6-0.2 1.7-0.4q2-0.4 4.8-1c4-0.7 9.6-1.8 15.7-3.3 6.1-1.4 11.6-2.8 15.5-3.9q2.8-0.8 4.7-1.3c1.1-0.3 1.8-0.4 1.8-0.4 0 0.1-0.6 0.3-1.7 0.7-1.1 0.4-2.6 0.9-4.6 1.5-3.9 1.3-9.4 2.8-15.5 4.3-6.1 1.4-11.7 2.4-15.8 3-2.1 0.3-3.7 0.6-4.8 0.7-1.2 0.1-1.8 0.2-1.8 0.1z"/>
				</g>
			</g>
			<g id="&lt;Group&gt;">
				<g id="&lt;Group&gt;">
					<path id="&lt;Path&gt;" class="s1" d="m1229 651.4c0-0.1 0.5 0.3 1.2 1.1 0.7 0.8 1.8 1.9 3 3.3 2.6 2.9 6.1 6.8 9.9 11.2 3.7 4.4 7.1 8.4 9.6 11.3 1.2 1.4 2.2 2.6 2.8 3.5 0.7 0.8 1 1.3 1 1.3-0.1 0.1-0.5-0.3-1.2-1.1-0.8-0.8-1.8-1.9-3.1-3.3-2.5-2.9-6-6.8-9.8-11.2-3.8-4.4-7.2-8.4-9.6-11.3-1.2-1.5-2.2-2.6-2.8-3.5-0.7-0.8-1-1.3-1-1.3z"/>
				</g>
			</g>
			<g id="&lt;Group&gt;">
				<g id="&lt;Group&gt;">
					<path id="&lt;Path&gt;" class="s1" d="m1204.7 701.8c0.1-0.1 0.6 0.5 1.5 1.5q1.6 1.6 3.9 4.2c3.3 3.6 7.8 8.6 12.7 14.2 4.9 5.6 9.3 10.6 12.5 14.3q2.2 2.7 3.7 4.4c0.9 1.1 1.3 1.7 1.3 1.7 0 0.1-0.6-0.5-1.5-1.4q-1.6-1.7-3.9-4.3c-3.3-3.6-7.8-8.6-12.7-14.2-4.9-5.5-9.3-10.6-12.5-14.3q-2.2-2.7-3.7-4.4c-0.9-1.1-1.3-1.7-1.3-1.7z"/>
				</g>
			</g>
			<g id="&lt;Group&gt;">
				<g id="&lt;Group&gt;">
					<path id="&lt;Path&gt;" class="s1" d="m1239.7 740.9c0 0 0.8-0.2 2.2-0.6q2.4-0.5 6-1.4c5.1-1.1 12.1-2.8 19.8-4.8 7.7-2 14.6-4 19.6-5.5q3.6-1 5.9-1.7c1.4-0.4 2.2-0.6 2.2-0.5 0.1 0-0.7 0.3-2.1 0.8-1.3 0.5-3.3 1.2-5.8 2-5 1.6-11.9 3.7-19.6 5.7-7.7 2.1-14.7 3.6-19.8 4.6-2.6 0.5-4.7 0.9-6.1 1.1-1.5 0.3-2.3 0.4-2.3 0.3z"/>
				</g>
			</g>
		</g>
		<g id="&lt;Group&gt;">
			<g id="&lt;Group&gt;">
				<path id="&lt;Path&gt;" class="s1" d="m1250.6 825.7c4.5-5.4 12.1-7.6 18.9-6.3 6.9 1.4 12.8 6 16.6 11.9 1.7 2.7 3 6 2 9.1-0.9 2.9-3.8 4.8-6.8 5.3-2.9 0.5-6-0.3-8.8-1.3-9.6-3.7-18.3-9-21.9-18.7z"/>
			</g>
			<g id="&lt;Group&gt;">
				<path id="&lt;Path&gt;" class="s1" d="m1233.3 816.5c-9.5-12.3-10.4-30.6-2.1-43.9 1.9-3.2 5.2-6.4 8.8-5.6 3.7 0.7 5.5 4.8 6.2 8.5 2.9 14.4-1.7 30.1-12 40.6"/>
			</g>
			<g id="&lt;Group&gt;">
				<path id="&lt;Path&gt;" class="s1" d="m1313 766.3c1.5 6-0.2 12.6-3.6 17.8-3.5 5.2-8.5 9.2-13.8 12.4-10.4 6.1-24.2 8-36.2 7.9 0.9-13.4 11.8-24.5 17.7-29.8 9.2-8.3 31.1-17.8 35.9-8.3z"/>
			</g>
			<g id="&lt;Group&gt;">
				<g id="&lt;Group&gt;">
					<path id="&lt;Path&gt;" class="s2" d="m1215.4 835.8c1.5-0.7 2.5-2 5.2-3.2 5.3-2.3 12.8-5.5 21.7-6.9 8.9-1.3 17.2 0.1 22.6 2.4 2.7 1.2 4.7 2.4 6 3.5 1.3 1 2 1.6 1.9 1.7-0.1 0.2-2.9-2.3-8.3-4.3-5.3-2.1-13.3-3.2-22-1.9-8.7 1.3-16.2 4.3-21.6 6.4"/>
				</g>
			</g>
			<g id="&lt;Group&gt;">
				<g id="&lt;Group&gt;">
					<path id="&lt;Path&gt;" class="s2" d="m1215.2 835.9c2.4-1.7 5.5-4 9.3-6.7 7.7-5.6 18.5-13.4 30.2-22.2 11.7-8.7 22.3-16.8 29.9-22.7 3.6-2.8 6.7-5.1 9-6.9 2.1-1.6 3.3-2.5 3.4-2.4 0.1 0-1 1-3.1 2.8-2 1.7-5 4.2-8.7 7.3-7.5 6-17.9 14.2-29.7 23-11.7 8.8-22.6 16.5-30.5 21.9-4 2.7-7.2 4.9-9.5 6.4"/>
				</g>
			</g>
			<g id="&lt;Group&gt;">
				<g id="&lt;Group&gt;">
					<path id="&lt;Path&gt;" class="s2" d="m1238.1 783.6c0.1 0 0.3 0.8 0.6 2.4 0.2 0.7 0.4 1.7 0.4 2.8 0.2 1.1 0.4 2.3 0.3 3.7 0.2 2.8-0.1 6.2-0.6 9.9-0.7 3.6-1.8 7.6-3.4 11.5-1.8 4-3.9 7.5-6 10.5-2.3 3-4.5 5.5-6.6 7.3-1 1-2.1 1.7-2.9 2.4-0.9 0.7-1.7 1.2-2.4 1.6-1.3 0.9-1.9 0.7-2 0.7-0.1-0.3 2.7-1.5 6.6-5.4 2-1.9 4.1-4.4 6.3-7.3 2-3 4-6.5 5.7-10.3 1.6-3.9 2.7-7.7 3.4-11.3 0.7-3.5 1-6.8 1-9.6 0-5.5-0.7-8.8-0.4-8.9z"/>
				</g>
			</g>
		</g>
		<g id="&lt;Group&gt;">
			<g id="&lt;Group&gt;">
				<g id="&lt;Group&gt;">
					<g id="&lt;Group&gt;">
						<path id="&lt;Path&gt;" class="s0" d="m263.7 822.6c-20.9-1.1-41.3-8.5-58.9-20.1-5-3.3-9.9-7-13.3-12-3.3-5.1-4.9-11.6-2.8-17.3 3.1-8.6 13.5-12.2 22.6-11.5 4.8 0.4 9.7 1.6 14.5 1.2 4.8-0.5 9.9-3.5 10.8-8.3 0.9-4.8-2.8-9.5-7.2-11.6-4.4-2-9.4-2.1-14.3-2.4-13.5-0.9-26.8-4.2-39.3-9.6-6.2-2.7-13.2-7.6-12.5-14.4 0.5-4.9 4.9-8.4 9.4-10.3 4.4-1.9 9.4-2.8 13.4-5.6 3.5-2.4 6.1-7.5 3.7-11.1-1.4-2-3.8-2.8-6.1-3.6-12.6-4.3-24.5-10.5-35.3-18.3-7.4-5.2-14.7-12.3-15-21.3-0.3-9 7.2-16.9 15.9-18.9 8.6-2 17.9 0.9 25.3 5.9 7.5 4.9 13.6 11.7 19.8 18.2 6.1 6.6 12.5 13.1 20.4 17.3 2.3 1.2 5.2 2.2 7.3 0.8 2.2-1.4 2.5-4.4 2-6.9-0.6-2.6-1.8-4.9-2-7.5-0.5-6.2 5.5-11.5 11.6-11.5 6.2-0.1 11.8 3.9 15.3 9 3.5 5.1 5.2 11.2 6.9 17.2q4.8 16.6 9.6 33.3c1.7 6 4.3 12.9 10.3 14.2 4.4 1 8.8-1.6 12-4.7 4.9-4.7 8.5-10.8 10.1-17.5 1.2-5 1.7-10.7 5.5-14.1 4.6-4.1 12.3-2.4 16.7 2 4.3 4.4 5.5 10.9 7.5 16.8 11.7 35.5 16.3 77.4-8.1 107.8-16.8 12.4-34.9 15.8-55.8 14.8z"/>
					</g>
				</g>
			</g>
			<g id="&lt;Group&gt;">
				<g id="&lt;Group&gt;">
					<g id="&lt;Group&gt;">
						<g id="&lt;Group&gt;">
							<path id="&lt;Path&gt;" class="s1" d="m140.4 636q0.8 0.4 2.2 1c2 0.8 5 2.1 8.7 3.9 7.4 3.6 18 9.2 30.1 17.6 6.1 4.2 12.6 9.1 19.4 14.5 6.8 5.3 14.1 11.1 21.5 17.5 7.4 6.4 15 13.4 22.2 21.2 3.7 3.9 7.1 8.1 10.6 12.3q5.3 6.4 10.7 12.9c14.2 17.5 27.3 34.7 37.9 51.2 10.6 16.5 18.6 32.4 24 46.2 5.5 13.8 8.5 25.5 10.1 33.6 0.8 4.1 1.3 7.3 1.6 9.4q0.1 1.6 0.3 2.5 0 0.8 0 0.8 0 0-0.2-0.8-0.1-0.9-0.4-2.4c-0.3-2.2-0.9-5.4-1.7-9.4-1.8-8.1-4.9-19.7-10.4-33.4-5.5-13.8-13.6-29.5-24.2-45.9-10.6-16.5-23.6-33.6-37.9-51.1q-5.4-6.5-10.6-12.9c-3.5-4.2-7-8.4-10.6-12.3-7.2-7.7-14.7-14.7-22.1-21.1-7.4-6.4-14.6-12.2-21.4-17.6-6.8-5.4-13.2-10.3-19.2-14.5-12.1-8.5-22.6-14.2-29.9-17.9-3.7-1.8-6.6-3.2-8.5-4.1q-1.4-0.7-2.3-1.1-0.7-0.3-0.7-0.3 0-0.1 0.8 0.2z"/>
						</g>
					</g>
				</g>
			</g>
			<g id="&lt;Group&gt;">
				<g id="&lt;Group&gt;">
					<g id="&lt;Group&gt;">
						<g id="&lt;Group&gt;">
							<path id="&lt;Path&gt;" class="s1" d="m243.6 709.1q-0.5-2.9-1.3-7.3c-1.2-6.3-2.7-14.7-4.5-23.9-1.7-9.3-2.9-17.9-3.5-24.1-0.3-3.1-0.5-5.6-0.6-7.3 0-1.8 0-2.7 0-2.7 0.1 0 0.3 0.9 0.5 2.6 0.2 1.8 0.5 4.3 0.9 7.3 0.8 6.2 2.2 14.7 3.9 24 1.7 9.4 3.2 17.8 4.1 24 0.4 3.1 0.8 5.6 0.9 7.3 0.2 1.8 0.3 2.7 0.2 2.7-0.1 0-0.3-0.9-0.6-2.6z"/>
						</g>
					</g>
				</g>
			</g>
			<g id="&lt;Group&gt;">
				<g id="&lt;Group&gt;">
					<g id="&lt;Group&gt;">
						<g id="&lt;Group&gt;">
							<path id="&lt;Path&gt;" class="s1" d="m166.6 718.8c2-0.5 4.9-1.2 8.5-1.9 7.2-1.6 17.3-3.1 28.4-4.2 11.2-1.1 21.4-1.5 28.8-1.5 3.7 0 6.6 0.1 8.7 0.2 2.1 0.1 3.2 0.2 3.2 0.3 0 0.1-1.2 0.2-3.2 0.2-2.1 0-5 0-8.7 0.1-7.4 0.2-17.5 0.8-28.6 1.8-11.2 1.1-21.2 2.6-28.5 3.9-3.6 0.6-6.5 1.2-8.5 1.6-2 0.4-3.1 0.6-3.2 0.5 0-0.1 1.1-0.4 3.1-1z"/>
						</g>
					</g>
				</g>
			</g>
			<g id="&lt;Group&gt;">
				<g id="&lt;Group&gt;">
					<g id="&lt;Group&gt;">
						<g id="&lt;Group&gt;">
							<path id="&lt;Path&gt;" class="s1" d="m302.4 785.8q0.1-1.2 0.2-3.1c0.3-3 0.7-6.9 1.2-11.7 0.9-9.8 1.9-23.5 2.9-38.5 1.1-15.1 2.2-28.8 3.3-38.6 0.6-4.9 1.1-8.9 1.5-11.6q0.3-1.9 0.5-3.2 0.2-1.1 0.3-1.1 0 0.1 0 1.2-0.2 1.2-0.3 3.1c-0.3 3-0.7 6.9-1.2 11.7-0.9 9.8-1.9 23.5-2.9 38.6-1.1 15-2.2 28.7-3.3 38.5-0.6 4.9-1.1 8.9-1.5 11.6q-0.3 1.9-0.5 3.2-0.2 1.1-0.3 1.1 0-0.1 0.1-1.2z"/>
						</g>
					</g>
				</g>
			</g>
			<g id="&lt;Group&gt;">
				<g id="&lt;Group&gt;">
					<g id="&lt;Group&gt;">
						<g id="&lt;Group&gt;">
							<path id="&lt;Path&gt;" class="s1" d="m192.3 783.8q1.3 0 3.2-0.1c2.8-0.1 6.9-0.1 11.9 0 10.1 0.1 24 0.5 39.4 1.2 15.3 0.6 29.2 1.2 39.3 1.5 4.9 0.1 8.9 0.2 11.9 0.3q1.9 0.1 3.2 0.1 1.1 0.1 1.1 0.2 0 0-1.1 0.1-1.3 0-3.2 0.1c-2.9 0-6.9 0-12 0-10-0.1-23.9-0.5-39.3-1.2-15.3-0.6-29.2-1.2-39.3-1.5-4.9-0.1-8.9-0.3-11.9-0.3q-1.9-0.1-3.2-0.2-1.1 0-1.1-0.1 0-0.1 1.1-0.1z"/>
						</g>
					</g>
				</g>
			</g>
		</g>
		<g id="&lt;Group&gt;">
			<g id="&lt;Group&gt;">
				<path id="&lt;Path&gt;" class="s3" d="m598.4 389.6l-6.8 58h-28.3l-5.6-58z"/>
			</g>
			<g id="&lt;Group&gt;">
				<path id="&lt;Path&gt;" class="s1" d="m598.4 382.1c3.5 2.9 2.6 7.6 2.6 7.6h-46c0.3-5.3 2.7-7.6 2.7-7.6z"/>
			</g>
			<g id="&lt;Group&gt;">
				<path id="&lt;Path&gt;" class="s1" d="m593.8 376.7l2.3 6-34.7-0.2 1.5-5.8z"/>
			</g>
			<g id="&lt;Group&gt;">
				<path id="&lt;Path&gt;" class="s0" d="m598.4 404.1l-3.3 29.2h-34.6c0 0-3.4-28.7-3.4-29.2z"/>
			</g>
		</g>
	</g>
	<g id="Floor">
		<g id="&lt;Group&gt;">
			<g id="&lt;Group&gt;">
				<path id="&lt;Path&gt;" class="s4" d="m1383 888.6c0 0.3-283.4 0.5-633 0.5-349.6 0-633-0.2-633-0.5 0-0.3 283.4-0.6 633-0.6 349.6 0 633 0.3 633 0.6z"/>
			</g>
		</g>
	</g>
	<g id="Clock">
		<g id="&lt;Group&gt;">
			<g id="&lt;Group&gt;">
				<path id="&lt;Path&gt;" class="s5" d="m1084.7 228.7c3-44.4 41.3-78 85.6-75.1 44.4 3 78 41.3 75.1 85.6-2.9 44.4-41.3 78-85.6 75.1-44.4-2.9-78-41.3-75.1-85.6z"/>
			</g>
			<g id="&lt;Group&gt;">
				<g id="&lt;Group&gt;">
					<path id="&lt;Path&gt;" class="s2" d="m1201.6 236.4c0 0.1-1 0.2-2.8 0.2q-3.1 0.1-7.9 0.2c-6.6 0.1-15.9 0.1-26.3 0.1h-0.5v-0.5c0-1.6 0-3.4 0-5.2 0-11.6 0-22.2 0.1-29.8 0.1-3.7 0.2-6.8 0.2-9.1 0.1-2.1 0.1-3.3 0.2-3.3 0.1 0 0.2 1.2 0.2 3.3 0.1 2.3 0.1 5.4 0.2 9.1 0.1 7.6 0.1 18.2 0.1 29.8 0 1.8 0 3.6 0 5.2l-0.5-0.5c10.4 0 19.7 0.1 26.3 0.2q4.8 0.1 7.9 0.1c1.8 0.1 2.8 0.2 2.8 0.2z"/>
				</g>
			</g>
			<g id="&lt;Group&gt;">
				<g id="&lt;Group&gt;">
					<path id="&lt;Path&gt;" class="s2" d="m1164.9 166.7c0.2 0 0.5 3 0.5 6.7 0 3.8-0.3 6.8-0.5 6.8-0.3 0-0.6-3-0.6-6.8 0-3.7 0.3-6.7 0.6-6.7z"/>
				</g>
			</g>
			<g id="&lt;Group&gt;">
				<g id="&lt;Group&gt;">
					<path id="&lt;Path&gt;" class="s2" d="m1201.5 177.5c0.2 0.2-1.7 2.5-4.3 5.1-2.6 2.6-4.9 4.6-5.1 4.4-0.2-0.2 1.7-2.5 4.3-5.1 2.7-2.6 4.9-4.6 5.1-4.4z"/>
				</g>
			</g>
			<g id="&lt;Group&gt;">
				<g id="&lt;Group&gt;">
					<path id="&lt;Path&gt;" class="s2" d="m1223 201c0.1 0.2-2.5 1.8-5.6 3.7-3.1 1.9-5.6 3.4-5.8 3.2-0.2-0.2 2.1-2.2 5.3-4.1 3.2-1.9 5.9-3.1 6.1-2.8z"/>
				</g>
			</g>
			<g id="&lt;Group&gt;">
				<g id="&lt;Group&gt;">
					<path id="&lt;Path&gt;" class="s2" d="m1235.5 235.7c0 0.3-4.1 0.6-9.2 0.6-5.1 0-9.2-0.3-9.2-0.6 0-0.3 4.1-0.5 9.2-0.5 5.1 0 9.2 0.2 9.2 0.5z"/>
				</g>
			</g>
			<g id="&lt;Group&gt;">
				<g id="&lt;Group&gt;">
					<path id="&lt;Path&gt;" class="s2" d="m1107.7 234.5c0 0.3-3.9 0.5-8.7 0.5-4.8 0-8.7-0.2-8.7-0.5 0-0.3 3.9-0.5 8.7-0.5 4.8 0 8.7 0.2 8.7 0.5z"/>
				</g>
			</g>
			<g id="&lt;Group&gt;">
				<g id="&lt;Group&gt;">
					<path id="&lt;Path&gt;" class="s2" d="m1116.7 260.4c0.2 0.2-2.7 2.9-6.5 5.9-3.9 3.1-7.1 5.4-7.3 5.2-0.1-0.2 2.8-2.9 6.6-6 3.8-3 7-5.3 7.2-5.1z"/>
				</g>
			</g>
			<g id="&lt;Group&gt;">
				<g id="&lt;Group&gt;">
					<path id="&lt;Path&gt;" class="s2" d="m1139 280.4c0.3 0.2-1.9 3.5-4.4 7.8-2.6 4.2-4.5 7.7-4.8 7.6-0.2-0.2 1.3-3.9 3.9-8.2 2.5-4.3 5.1-7.4 5.3-7.2z"/>
				</g>
			</g>
			<g id="&lt;Group&gt;">
				<g id="&lt;Group&gt;">
					<path id="&lt;Path&gt;" class="s2" d="m1164.9 306.2c-0.3 0-0.6-4.1-0.6-9.2 0-5.1 0.3-9.2 0.6-9.2 0.2 0 0.5 4.1 0.5 9.2 0 5.1-0.3 9.2-0.5 9.2z"/>
				</g>
			</g>
			<g id="&lt;Group&gt;">
				<g id="&lt;Group&gt;">
					<path id="&lt;Path&gt;" class="s2" d="m1204.6 293.9c-0.1 0.3-3.8-1.8-7.6-5.2-3.9-3.3-6.4-6.6-6.2-6.8 0.2-0.2 3.1 2.7 6.9 6 3.8 3.3 7.1 5.8 6.9 6z"/>
				</g>
			</g>
			<g id="&lt;Group&gt;">
				<g id="&lt;Group&gt;">
					<path id="&lt;Path&gt;" class="s2" d="m1223.2 273.8c-0.2 0.2-2.9-2.2-6.1-5.3-3.1-3.2-5.5-5.9-5.3-6.1 0.2-0.2 2.9 2.2 6.1 5.3 3.1 3.2 5.5 5.9 5.3 6.1z"/>
				</g>
			</g>
			<g id="&lt;Group&gt;">
				<g id="&lt;Group&gt;">
					<path id="&lt;Path&gt;" class="s2" d="m1115.9 209.7c-0.2 0.2-2.6-1.9-5.4-4.6-2.8-2.8-4.9-5.2-4.6-5.4 0.2-0.2 2.6 1.9 5.3 4.6 2.8 2.8 4.9 5.2 4.7 5.4z"/>
				</g>
			</g>
			<g id="&lt;Group&gt;">
				<g id="&lt;Group&gt;">
					<path id="&lt;Path&gt;" class="s2" d="m1138.9 185.5c-0.2 0.2-2.6-1.9-5.3-4.6-2.7-2.7-4.8-5-4.5-5.2 0.2-0.3 2.5 1.8 5.2 4.5 2.8 2.7 4.8 5.1 4.6 5.3z"/>
				</g>
			</g>
		</g>
	</g>
	<g id="Mobile">
		<g id="&lt;Group&gt;">
			<g id="&lt;Group&gt;">
				<g id="&lt;Group&gt;">
					<g id="&lt;Group&gt;">
						<g id="&lt;Group&gt;">
							<g id="&lt;Group&gt;">
								<g id="&lt;Group&gt;">
									<path id="&lt;Path&gt;" class="s4" d="m1196.9 888.6l-146.6-0.7c-17.6-0.1-31.8-14.4-31.7-31.9l1.5-366.3c0.1-17.6 14.5-31.8 32.1-31.7l146.5 0.7c17.6 0.1 31.8 14.4 31.8 31.9l-1.6 366.3c-0.1 17.6-14.4 31.8-32 31.7z"/>
								</g>
							</g>
						</g>
						<g id="&lt;Group&gt;">
							<g id="&lt;Group&gt;">
								<g id="&lt;Group&gt;">
									<path id="&lt;Path&gt;" class="s6" d="m1220.7 493.7l-1.5 357.5c0 12.3-10.1 22.3-22.4 22.2l-146.2-0.7c-12.4 0-22.3-10.1-22.3-22.4l1.5-357.5c0.1-12.3 10.1-22.2 22.5-22.2l24.8 0.2h10c3.8 0 6.9 3.3 6.9 7.2v5.2c0 3.9 3 7.2 6.8 7.2l55.4 0.2c3.8 0.1 6.9-3.2 6.9-7.1l0.1-5.2c0-3.9 3.1-7.1 6.9-7.1l28.4 0.1c12.3 0.1 22.3 10.1 22.2 22.4z"/>
								</g>
							</g>
						</g>
					</g>
				</g>
			</g>
			<g id="&lt;Group&gt;">
				<g id="&lt;Group&gt;">
					<path id="&lt;Path&gt;" class="s5" d="m1099.8 764.6l12.4 0.1c0.5 0 1 0.2 1.3 0.5l5.1 5.1c0.3 0.3 0.8 0.5 1.2 0.5h29.4c1 0 1.8 0.9 1.8 1.8l-0.1 20.7c0 1-0.8 1.8-1.8 1.8l-47.8-0.3c-1 0-1.8-0.8-1.8-1.7l-1.5-26.6c0-1 0.8-1.9 1.8-1.9z"/>
				</g>
				<g id="&lt;Group&gt;">
					<path id="&lt;Path&gt;" class="s3" d="m1150.8 798.9l-52.2-0.4 0.2-31.2 52.3 0.4z"/>
				</g>
				<g id="&lt;Group&gt;">
					<path id="&lt;Path&gt;" class="s5" d="m1095.8 768.8l57.5 0.4c0.6 0 1.2 0.6 1.1 1.3l-2.8 32.5c-0.1 0.6-0.6 1.1-1.2 1.1l-50.9-0.4c-0.5 0-1-0.4-1.1-1l-3.8-32.6c0-0.7 0.5-1.3 1.2-1.3z"/>
				</g>
			</g>
			<g id="&lt;Group&gt;">
				<g id="&lt;Group&gt;">
					<g id="&lt;Group&gt;">
						<g id="&lt;Group&gt;">
							<path id="&lt;Path&gt;" class="s5" d="m1181.1 666.4c-0.3 0-0.6-2-0.9-5.6-0.4-1.8-0.7-4-1.4-6.5q-0.5-1.8-1.1-3.9c-0.4-1.4-1.1-2.8-1.6-4.3-2.5-5.9-6.5-12.6-12.5-18.6-5.9-5.9-14-11.1-23.3-14-9.3-2.7-18.8-3-27.1-1.4-8.3 1.6-15.4 4.9-20.7 8.4-5.4 3.6-9.1 7.3-11.6 10-1.2 1.3-2.1 2.4-2.8 3.1q-0.9 1.1-1.1 1-0.1-0.1 0.6-1.4c0.5-0.8 1.3-2 2.4-3.5 2.2-2.9 5.8-7.1 11.2-11 5.4-3.9 12.7-7.6 21.4-9.4 8.7-1.9 18.8-1.7 28.7 1.2 9.8 3.1 18.2 8.6 24.4 15 6.2 6.4 10.1 13.5 12.4 19.8 0.5 1.6 1.1 3.1 1.5 4.5q0.5 2.2 0.9 4.2c0.5 2.6 0.7 4.8 0.9 6.7 0 3.7-0.1 5.7-0.3 5.7z"/>
						</g>
					</g>
					<g id="&lt;Group&gt;">
						<g id="&lt;Group&gt;">
							<path id="&lt;Path&gt;" class="s5" d="m1153.9 646.2c0.5-0.6 12.9 7.9 27.7 19.1q0.4 0.4 0.8 0.7l-2.4 0.7c6-17.1 11.4-30.5 12.2-30.2 0.8 0.3-3.3 14.1-9.3 31.2l-0.7 2-1.7-1.3q-0.4-0.3-0.8-0.6c-14.8-11.2-26.3-20.9-25.8-21.6z"/>
						</g>
					</g>
				</g>
				<g id="&lt;Group&gt;">
					<g id="&lt;Group&gt;">
						<g id="&lt;Group&gt;">
							<path id="&lt;Path&gt;" class="s5" d="m1073.9 657c0.2 0 0.3 2 0.2 5.5 0.1 1.8 0.2 3.9 0.5 6.4 0.4 2.5 0.7 5.3 1.6 8.3 1.6 6 4.6 12.9 9.5 19.5 4.8 6.6 11.8 12.7 20.3 16.9l1.6 0.8 1.6 0.6q1.7 0.7 3.3 1.3c1.1 0.3 2.2 0.6 3.2 0.9 1.1 0.3 2.2 0.7 3.3 0.9 4.4 0.9 8.7 1.3 12.8 1.2 8.2-0.1 15.5-2 21.2-4.4 5.8-2.4 10.1-5.3 12.9-7.4 1.4-1 2.5-1.8 3.3-2.4q1.1-0.9 1.2-0.8 0.1 0.1-0.8 1.2-0.9 1.1-2.9 3c-2.7 2.4-6.9 5.6-12.8 8.4-5.8 2.8-13.4 5-22 5.3-4.4 0.2-8.9-0.2-13.5-1.1-1.2-0.2-2.3-0.6-3.5-0.9-1.1-0.3-2.3-0.6-3.4-1q-1.7-0.6-3.5-1.3l-1.7-0.7-1.7-0.8q-1.6-0.9-3.3-1.7c-1-0.7-2-1.3-3.1-2-2.1-1.2-3.8-2.9-5.7-4.3-0.9-0.7-1.7-1.6-2.5-2.4-0.9-0.8-1.7-1.5-2.5-2.4q-1.1-1.3-2.1-2.6l-1.1-1.2-0.9-1.4c-5.1-7-7.9-14.4-9.3-20.7-0.8-3.1-1-6.1-1.3-8.6 0-2.6 0-4.8 0.1-6.6 0.4-3.6 0.8-5.5 1-5.5z"/>
						</g>
					</g>
					<g id="&lt;Group&gt;">
						<g id="&lt;Group&gt;">
							<path id="&lt;Path&gt;" class="s5" d="m1098.4 680.3c-0.6 0.6-11.9-9.3-25.1-22.3q-0.4-0.4-0.8-0.7l2.5-0.4c-8 16.2-15 28.8-15.8 28.4-0.8-0.3 5-13.6 13-29.8l1-1.9 1.5 1.5q0.3 0.3 0.7 0.7c13.3 12.9 23.6 23.9 23 24.5z"/>
						</g>
					</g>
				</g>
			</g>
		</g>
	</g>
	<g id="Computer">
		<g id="&lt;Group&gt;">
			<g id="&lt;Group&gt;">
				<g id="&lt;Group&gt;">
					<g id="&lt;Group&gt;">
						<g id="&lt;Group&gt;">
							<g id="&lt;Group&gt;">
								<g id="&lt;Group&gt;">
									<path id="&lt;Path&gt;" class="s4" d="m914.2 882.7h-598.3c-16.1 0-29.2-13.1-29.2-29.1v-389.6c0-8.6 7-15.5 15.5-15.5h627.7c7.4 0 13.4 6 13.4 13.5v391.6c0 16-13 29.1-29.1 29.1z"/>
								</g>
							</g>
							<g id="&lt;Group&gt;">
								<g id="&lt;Group&gt;">
									<path id="&lt;Path&gt;" class="s4" d="m943.2 888.6h-656.5c-15.1 0-27.4-12.3-27.4-27.5v-10.5h711.4v10.5c0 15.2-12.3 27.5-27.5 27.5z"/>
								</g>
							</g>
							<g id="&lt;Group&gt;">
								<g id="&lt;Group&gt;">
									<path id="&lt;Path&gt;" class="s7" d="m923.9 832.4h-619.5v-366.7h619.5z"/>
								</g>
							</g>
							<g id="&lt;Group&gt;">
								<g id="&lt;Group&gt;">
									<path id="&lt;Path&gt;" class="s7" d="m691.5 850.6l-8.2 14h-124.2l-8.8-14z"/>
								</g>
							</g>
						</g>
						<g id="&lt;Group&gt;">
							<g id="&lt;Group&gt;">
								<path id="&lt;Path&gt;" class="s6" d="m895.4 832.3h-570.4v-342.1h570.4z"/>
							</g>
						</g>
						<g id="&lt;Group&gt;">
							<g id="&lt;Group&gt;">
								<path id="&lt;Path&gt;" class="s4" d="m349.4 507c0 2.7-2.2 4.8-4.8 4.8-2.7 0-4.8-2.1-4.8-4.8 0-2.6 2.1-4.8 4.8-4.8 2.6 0 4.8 2.2 4.8 4.8z"/>
							</g>
						</g>
						<g id="&lt;Group&gt;">
							<g id="&lt;Group&gt;">
								<path id="&lt;Path&gt;" class="s4" d="m368.9 507c0 2.7-2.2 4.8-4.8 4.8-2.6 0-4.8-2.1-4.8-4.8 0-2.6 2.2-4.8 4.8-4.8 2.6 0 4.8 2.2 4.8 4.8z"/>
							</g>
						</g>
						<g id="&lt;Group&gt;">
							<g id="&lt;Group&gt;">
								<path id="&lt;Path&gt;" class="s4" d="m388.4 507c0 2.7-2.1 4.8-4.8 4.8-2.6 0-4.8-2.1-4.8-4.8 0-2.6 2.2-4.8 4.8-4.8 2.7 0 4.8 2.2 4.8 4.8z"/>
							</g>
						</g>
						<g id="&lt;Group&gt;">
							<g id="&lt;Group&gt;">
								<g id="&lt;Group&gt;">
									<path id="&lt;Path&gt;" class="s4" d="m895.4 528c0 0.3-127.7 0.5-285.2 0.5-157.5 0-285.2-0.2-285.2-0.5 0-0.3 127.7-0.6 285.2-0.6 157.5 0 285.2 0.3 285.2 0.6z"/>
								</g>
							</g>
						</g>
						<g id="&lt;Group&gt;">
							<g id="&lt;Group&gt;">
								<path id="&lt;Path&gt;" class="s7" d="m943.3 853h-656.6v-2.1h656.6z"/>
							</g>
						</g>
					</g>
				</g>
				<g id="&lt;Group&gt;">
					<g id="&lt;Group&gt;">
						<path id="&lt;Path&gt;" class="s5" d="m522.8 596.9l49.3 0.3c1.8 0 3.6 0.8 4.9 2.1l20.2 20.2c1.3 1.3 3.2 2 5 2l116.9 0.1c4 0 7.2 3.3 7.1 7.2l-0.6 82.2c0 4-3.2 7.1-7.1 7.1l-190.1-1.4c-3.7 0-6.8-3-7-6.7l-5.8-105.6c-0.2-4.1 3.1-7.6 7.2-7.5z"/>
					</g>
					<g id="&lt;Group&gt;">
						<path id="&lt;Path&gt;" class="s3" d="m725.5 733.3l-207.7-1.5 1-124.1 207.6 1.5z"/>
					</g>
					<g id="&lt;Group&gt;">
						<path id="&lt;Path&gt;" class="s5" d="m506.7 613.6l228.4 1.7c2.7 0 4.8 2.3 4.6 5l-11.2 129.3c-0.2 2.3-2.2 4.2-4.6 4.2l-202.3-1.5c-2.3 0-4.3-1.8-4.5-4.1l-14.9-129.5c-0.4-2.7 1.8-5.1 4.5-5.1z"/>
					</g>
				</g>
			</g>
			<g id="&lt;Group&gt;">
				<g id="&lt;Group&gt;">
					<g id="&lt;Group&gt;">
						<g id="&lt;Group&gt;">
							<path id="&lt;Path&gt;" class="s1" d="m665.2 684.5c-0.7 0.1-0.3-5.6-3.8-13.7-1.7-4-4.4-8.4-8.4-12.5-4.1-4-9.5-7.4-15.7-9.3-6.3-1.9-12.7-2.1-18.3-1-5.6 1-10.3 3.2-14 5.6-7.3 4.8-10.3 9.6-10.7 9.3-0.2-0.1 0.4-1.5 1.8-3.5 1.5-2.1 4-4.9 7.7-7.7 3.7-2.7 8.6-5.3 14.6-6.6 6-1.3 13-1.1 19.8 0.9 6.8 2.1 12.6 5.9 16.8 10.3 4.2 4.5 6.9 9.4 8.5 13.7 1.6 4.3 1.9 8.1 2.1 10.6-0.1 2.5-0.2 3.9-0.4 3.9z"/>
						</g>
					</g>
					<g id="&lt;Group&gt;">
						<g id="&lt;Group&gt;">
							<path id="&lt;Path&gt;" class="s1" d="m646.7 670.8c0.5-0.7 9.1 4.9 19.1 12.6q0.3 0.2 0.6 0.4l-2.5 0.7c4.1-11.6 8-20.7 8.8-20.4 0.8 0.3-1.8 9.8-5.8 21.5l-0.7 2-1.7-1.3q-0.3-0.2-0.6-0.4c-10-7.7-17.8-14.4-17.2-15.1z"/>
						</g>
					</g>
				</g>
				<g id="&lt;Group&gt;">
					<g id="&lt;Group&gt;">
						<g id="&lt;Group&gt;">
							<path id="&lt;Path&gt;" class="s1" d="m592.2 678.1c0.6 0-0.4 5.5 1.9 13.7 1.1 4 3.1 8.7 6.5 13.1 3.2 4.4 8 8.5 13.7 11.3 1.3 0.8 2.9 1.2 4.3 1.8 1.5 0.4 2.9 0.9 4.4 1.2 2.9 0.6 5.8 1 8.6 0.9 5.5 0 10.4-1.3 14.3-2.9 3.9-1.6 6.8-3.5 8.8-4.8 2-1.4 3-2.2 3.2-2.1 0.1 0.2-0.6 1.3-2.4 3-1.8 1.7-4.6 4-8.7 5.9-4 2-9.2 3.6-15.1 3.8-3 0.1-6.2-0.1-9.3-0.8-1.6-0.3-3.2-0.8-4.8-1.2-1.6-0.7-3.2-1.1-4.7-2-6.2-3-11.3-7.5-14.6-12.4-3.5-4.9-5.4-10-6.4-14.3-0.5-2.2-0.6-4.2-0.7-6-0.1-1.7 0-3.2 0.1-4.5 0.3-2.4 0.6-3.7 0.9-3.7z"/>
						</g>
					</g>
					<g id="&lt;Group&gt;">
						<g id="&lt;Group&gt;">
							<path id="&lt;Path&gt;" class="s1" d="m608.8 694c-0.6 0.6-8.4-6-17.4-14.9q-0.3-0.2-0.5-0.4l2.5-0.5c-5.5 11.1-10.5 19.6-11.3 19.2-0.7-0.4 3-9.5 8.5-20.6l0.9-1.9 1.5 1.5q0.3 0.3 0.6 0.5c9 8.8 15.8 16.5 15.2 17.1z"/>
						</g>
					</g>
				</g>
			</g>
		</g>
	</g>
	<g id="Character">
		<g id="&lt;Group&gt;">
			<g id="&lt;Group&gt;">
				<g id="&lt;Group&gt;">
					<g id="&lt;Group&gt;">
						<g id="&lt;Group&gt;">
							<path id="&lt;Path&gt;" class="s8" d="m436.3 313.7l-9.7 30.4c-3.7 12.5-14.2 21.9-27.2 24.3l-64.7 12.2-17.7-0.6 17.7-21.8 48.6-16.6c4.8-1 8.6-4.6 9.9-9.3l19.4-42.2 24.5 15.1z"/>
						</g>
					</g>
					<g id="&lt;Group&gt;">
						<g id="&lt;Group&gt;">
							<path id="&lt;Path&gt;" class="s7" d="m531.8 284c-0.9 4.7-14.6 38.9-14.6 38.9 0 0-53.3-18.1-52.6-20.7 0.6-2.2 10.8-36.4 23.1-55.4 4.8-7.3 12.6-12.3 21.4-12.8 2.4-0.2 7.6 2.3 9 3.1 11.2 6.3 20.8 10.6 13.7 46.9z"/>
						</g>
					</g>
					<g id="&lt;Group&gt;">
						<g id="&lt;Group&gt;">
							<g id="&lt;Group&gt;">
								<g id="&lt;Group&gt;">
									<path id="&lt;Path&gt;" class="s5" d="m460.5 216.1c3.1-0.8 20.7-0.8 24.4 0.1 17.7 4.6 43.5 11.9 50 36.7 2.1 7.9-1 22.9-2.1 31l-15 59.1 10.4 37.7-112.5 10.6 14.2-43.9 1.1-46.1-29.9-18.3 16.2-30c11.3-16.2 15.2-32.6 39.3-35.3"/>
								</g>
							</g>
						</g>
						<g id="&lt;Group&gt;">
							<g id="&lt;Group&gt;">
								<g id="&lt;Group&gt;">
									<path id="&lt;Path&gt;" class="s4" d="m530.7 284.2q-0.2 0.7-0.5 1.9c-0.5 1.7-1.3 4.2-2.2 7.3-1.9 6.4-4.6 15.4-7.9 26.4l-0.1 0.3-0.3-0.1c-14-5.1-31.4-11.4-50.2-18.4q-0.6-0.3-1.2-0.5l-0.3-0.1 0.1-0.3c3.2-12.1 7.3-23.2 11.8-33.1 4.5-9.7 9.5-18.2 15.1-24.2 2.8-2.9 5.7-5.3 8.6-6.8 2.9-1.5 5.7-2.2 8-2.2 0.5 0 1.1-0.1 1.6 0q0.7 0.1 1.4 0.2c0.4 0 0.8 0 1.2 0.1q0.5 0.2 0.9 0.3 0.9 0.3 1.3 0.4 0.5 0.2 0.5 0.2 0 0-0.5-0.1-0.5-0.1-1.3-0.3-0.4-0.2-1-0.3c-0.3-0.1-0.7-0.1-1.1-0.1q-0.7-0.1-1.4-0.2c-0.5 0-1.1 0-1.6 0.1-2.3 0-5 0.7-7.8 2.3-2.8 1.5-5.7 3.8-8.4 6.8-5.5 5.9-10.5 14.4-14.9 24.1-4.4 9.8-8.5 21-11.7 32.9l-0.2-0.4q0.6 0.3 1.2 0.5c18.8 7 36.1 13.4 50.1 18.5l-0.4 0.2c3.4-10.9 6.2-20 8.2-26.3 1-3.1 1.8-5.5 2.3-7.2q0.4-1.2 0.6-1.9 0.2-0.7 0.3-0.7 0 0-0.2 0.7z"/>
								</g>
							</g>
						</g>
						<g id="&lt;Group&gt;">
							<g id="&lt;Group&gt;">
								<g id="&lt;Group&gt;">
									<path id="&lt;Path&gt;" class="s4" d="m496.7 302.3c14.4 4.7 25.9 8.7 25.9 8.9-0.1 0.2-11.8-3.5-26.1-8.2-14.3-4.8-25.9-8.8-25.8-9 0-0.2 11.7 3.5 26 8.3z"/>
								</g>
							</g>
						</g>
					</g>
					<g id="&lt;Group&gt;">
						<path id="&lt;Path&gt;" class="s4" d="m421.9 395.5l10.3-109.6h36.7l-4.3 104z"/>
					</g>
					<g id="&lt;Group&gt;" style="opacity: .3">
						<g id="&lt;Group&gt;">
							<g id="&lt;Group&gt;">
								<path id="&lt;Path&gt;" class="s9" d="m517.1 318.8c-2 8.4-5.1 20.8-8.4 28.8-2.4 5.9-5 11.8-9 16.7-5.6 6.7-13.5 11.1-21.9 13.3-8.3 2.2-17.1 2.3-25.7 1.3l42.8-24.2 11.4-39.6z"/>
							</g>
						</g>
					</g>
					<g id="&lt;Group&gt;">
						<g id="&lt;Group&gt;">
							<path id="&lt;Path&gt;" class="s8" d="m512.1 316.6l-10.5 34.5c-3.7 12.7-14.3 22.2-27.2 24.7l-64.8 12.3-17.6-0.6 17.6-22 48.7-16.8c4.8-1.1 8.5-4.8 9.8-9.5l9-34.8z"/>
						</g>
					</g>
					<g id="&lt;Group&gt;">
						<g id="&lt;Group&gt;">
							<g id="&lt;Group&gt;">
								<path id="&lt;Path&gt;" class="s4" d="m429.8 342.8c0.1-2.3 0.1-5.3 0.2-8.9 0.1-7.6 0.3-18 0.7-29.5 0.3-11.5 0.7-21.9 1-29.5 0.2-3.6 0.4-6.6 0.5-8.9 0.1-2.1 0.2-3.3 0.3-3.3 0 0 0.1 1.2 0.1 3.3-0.1 2.3-0.1 5.3-0.1 9-0.2 7.5-0.4 17.9-0.8 29.4-0.3 11.5-0.7 22-1 29.5-0.2 3.6-0.3 6.6-0.4 8.9-0.2 2.1-0.3 3.3-0.4 3.3 0 0-0.1-1.2-0.1-3.3z"/>
							</g>
						</g>
					</g>
					<g id="&lt;Group&gt;" style="opacity: .3">
						<g id="&lt;Group&gt;">
							<g id="&lt;Group&gt;">
								<path id="&lt;Path&gt;" class="s10" d=""/>
							</g>
						</g>
					</g>
					<g id="&lt;Group&gt;">
						<g id="&lt;Group&gt;">
							<g id="&lt;Group&gt;">
								<path id="&lt;Path&gt;" class="s4" d="m418.6 282.1c7.1 4.2 12.8 7.8 12.6 8-0.1 0.3-6-2.9-13.1-7.1-7.2-4.2-12.8-7.8-12.7-8 0.2-0.3 6.1 2.9 13.2 7.1z"/>
							</g>
						</g>
					</g>
				</g>
				<g id="&lt;Group&gt;">
					<g id="&lt;Group&gt;">
						<g id="&lt;Group&gt;">
							<g id="&lt;Group&gt;">
								<g id="&lt;Group&gt;">
									<g id="&lt;Group&gt;">
										<g id="&lt;Group&gt;">
											<g id="&lt;Group&gt;">
												<g id="&lt;Group&gt;">
													<path id="&lt;Path&gt;" class="s11" d="m257.2 615.2l-0.4-19.8 38-13.5 1.5 27.6-2.1 1c-9.5 4.5-48.8 22.3-56.1 22.9-8.2 0.8 19.1-18.2 19.1-18.2z"/>
													<path id="&lt;Path&gt;" class="s5" d="m257.2 615.2l-0.4-19.8 38-13.5 1.5 27.6-2.1 1c-9.5 4.5-48.8 22.3-56.1 22.9-8.2 0.8 19.1-18.2 19.1-18.2z"/>
												</g>
											</g>
										</g>
									</g>
								</g>
							</g>
							<g id="&lt;Group&gt;" style="opacity: .4">
								<g id="&lt;Group&gt;">
									<g id="&lt;Group&gt;">
										<g id="&lt;Group&gt;">
											<g id="&lt;Group&gt;">
												<path id="&lt;Path&gt;" class="s6" d="m249.1 628.3l46.9-19.6 0.3 0.8c-17.1 8.8-57.4 25.2-59.5 24-2-1.2 7.3-8.5 7.3-8.5 2.1-0.7 5 3.3 5 3.3z"/>
											</g>
										</g>
									</g>
								</g>
							</g>
							<g id="&lt;Group&gt;">
								<g id="&lt;Group&gt;">
									<g id="&lt;Group&gt;">
										<g id="&lt;Group&gt;">
											<g id="&lt;Group&gt;">
												<g id="&lt;Group&gt;">
													<path id="&lt;Path&gt;" class="s4" d="m296.5 608.5q0 0-0.6 0.3-0.7 0.4-1.7 0.8-2.5 1.2-6.3 2.9c-5.3 2.4-12.7 5.6-21 9-8.3 3.4-15.9 6.3-21.4 8.3q-3.8 1.4-6.5 2.3-1 0.4-1.8 0.6-0.6 0.2-0.6 0.2 0 0 0.6-0.2 0.8-0.4 1.7-0.7 2.7-1 6.5-2.5c5.5-2.1 13-5.1 21.3-8.4 8.3-3.4 15.7-6.6 21.1-8.9q3.8-1.6 6.4-2.8 0.9-0.4 1.7-0.7 0.6-0.2 0.6-0.2z"/>
												</g>
											</g>
										</g>
									</g>
								</g>
							</g>
							<g id="&lt;Group&gt;">
								<g id="&lt;Group&gt;">
									<g id="&lt;Group&gt;">
										<g id="&lt;Group&gt;">
											<g id="&lt;Group&gt;">
												<g id="&lt;Group&gt;">
													<path id="&lt;Path&gt;" class="s4" d="m249.3 628.8c-0.1 0.1-0.8-1.4-2.4-2.6-1.6-1.1-3.2-1.4-3.2-1.5 0-0.1 1.7-0.1 3.4 1.2 1.8 1.2 2.3 2.9 2.2 2.9z"/>
												</g>
											</g>
										</g>
									</g>
								</g>
							</g>
							<g id="&lt;Group&gt;">
								<g id="&lt;Group&gt;">
									<g id="&lt;Group&gt;">
										<g id="&lt;Group&gt;">
											<g id="&lt;Group&gt;">
												<g id="&lt;Group&gt;">
													<path id="&lt;Path&gt;" class="s4" d="m257.6 619.3c-0.1 0.1-0.8-0.3-1.7-0.9-0.8-0.6-1.5-1.2-1.4-1.3 0.1-0.1 0.8 0.3 1.7 0.9 0.8 0.6 1.5 1.2 1.4 1.3z"/>
												</g>
											</g>
										</g>
									</g>
								</g>
							</g>
							<g id="&lt;Group&gt;">
								<g id="&lt;Group&gt;">
									<g id="&lt;Group&gt;">
										<g id="&lt;Group&gt;">
											<g id="&lt;Group&gt;">
												<g id="&lt;Group&gt;">
													<path id="&lt;Path&gt;" class="s4" d="m259.8 616.6c0 0.1-0.7 0-1.6-0.3-0.8-0.3-1.4-0.6-1.4-0.8 0.1-0.1 0.8 0.1 1.6 0.4 0.8 0.3 1.5 0.6 1.4 0.7z"/>
												</g>
											</g>
										</g>
									</g>
								</g>
							</g>
							<g id="&lt;Group&gt;">
								<g id="&lt;Group&gt;">
									<g id="&lt;Group&gt;">
										<g id="&lt;Group&gt;">
											<g id="&lt;Group&gt;">
												<g id="&lt;Group&gt;">
													<path id="&lt;Path&gt;" class="s4" d="m260.3 612.5c0 0.2-0.7 0.6-1.8 1-1 0.5-1.8 0.7-1.9 0.6 0-0.1 0.7-0.6 1.8-1 1-0.4 1.8-0.7 1.9-0.6z"/>
												</g>
											</g>
										</g>
									</g>
								</g>
							</g>
							<g id="&lt;Group&gt;">
								<g id="&lt;Group&gt;">
									<g id="&lt;Group&gt;">
										<g id="&lt;Group&gt;">
											<g id="&lt;Group&gt;">
												<g id="&lt;Group&gt;">
													<path id="&lt;Path&gt;" class="s4" d="m259.9 609.9c0.1 0.1-0.6 0.9-1.8 1.5-1.1 0.6-2.2 0.7-2.2 0.6 0-0.2 0.9-0.5 2-1 1.1-0.6 2-1.2 2-1.1z"/>
												</g>
											</g>
										</g>
									</g>
								</g>
							</g>
							<g id="&lt;Group&gt;">
								<g id="&lt;Group&gt;">
									<g id="&lt;Group&gt;">
										<g id="&lt;Group&gt;">
											<g id="&lt;Group&gt;">
												<g id="&lt;Group&gt;">
													<path id="&lt;Path&gt;" class="s4" d="m255.1 616.7c0.1 0-0.8 0.5-2.2 0.9-0.8 0.2-1.7 0.4-2.7 0.5-0.5 0-1 0.1-1.6 0-0.3-0.1-0.6-0.2-0.8-0.5-0.3-0.3-0.2-0.8-0.1-1.1 1.7-2 4.4-1.6 5.7-0.8 0.7 0.3 1.1 0.8 1.3 1.2 0.3 0.3 0.4 0.5 0.3 0.6 0 0-0.5-0.9-1.8-1.6-0.6-0.3-1.5-0.5-2.4-0.4-0.9 0.1-2.1 0.5-2.7 1.3-0.2 0.4 0.1 0.7 0.6 0.8 0.5 0.1 1 0 1.5 0 1 0 1.9-0.2 2.6-0.3 1.4-0.3 2.3-0.7 2.3-0.6z"/>
												</g>
											</g>
										</g>
									</g>
								</g>
							</g>
							<g id="&lt;Group&gt;">
								<g id="&lt;Group&gt;">
									<g id="&lt;Group&gt;">
										<g id="&lt;Group&gt;">
											<g id="&lt;Group&gt;">
												<g id="&lt;Group&gt;">
													<path id="&lt;Path&gt;" class="s4" d="m254.6 617.1c0 0-0.6-0.5-0.9-1.5-0.2-0.5-0.2-1.2-0.1-1.9 0.2-0.7 0.5-1.6 1.5-2 0.5-0.1 1 0.4 1.1 0.8 0.1 0.4 0.1 0.8 0 1.2-0.1 0.7-0.3 1.3-0.5 1.8-0.4 1-0.9 1.5-0.9 1.4-0.1 0 0.3-0.6 0.6-1.5 0.2-0.5 0.3-1.1 0.4-1.8 0.1-0.6 0-1.5-0.6-1.4-0.6 0.2-1 1-1.2 1.6-0.1 0.6-0.1 1.2 0 1.7 0.2 1 0.7 1.5 0.6 1.6z"/>
												</g>
											</g>
										</g>
									</g>
								</g>
							</g>
							<g id="&lt;Group&gt;">
								<g id="&lt;Group&gt;">
									<g id="&lt;Group&gt;">
										<g id="&lt;Group&gt;">
											<g id="&lt;Group&gt;">
												<g id="&lt;Group&gt;">
													<path id="&lt;Path&gt;" class="s4" d="m291.9 599.1c0 0.1-1.1 0.3-2.6 1.2-1.5 0.8-3.5 2.3-4.8 4.6-1.2 2.3-1.6 4.8-1.5 6.5 0.1 1.7 0.5 2.8 0.4 2.8 0 0-0.1-0.2-0.3-0.7-0.1-0.5-0.3-1.2-0.4-2.1-0.2-1.7 0.1-4.3 1.4-6.7 1.4-2.4 3.4-4 5-4.7 0.8-0.4 1.5-0.7 2-0.8 0.5-0.1 0.8-0.1 0.8-0.1z"/>
												</g>
											</g>
										</g>
									</g>
								</g>
							</g>
							<g id="&lt;Group&gt;">
								<g id="&lt;Group&gt;">
									<g id="&lt;Group&gt;">
										<g id="&lt;Group&gt;">
											<g id="&lt;Group&gt;">
												<g id="&lt;Group&gt;">
													<path id="&lt;Path&gt;" class="s4" d="m282.2 585.9c0.1-0.1 1.6 3.1 3.3 7.1 1.7 4 2.9 7.3 2.8 7.3-0.1 0.1-1.6-3.1-3.3-7.1-1.6-4-2.9-7.3-2.8-7.3z"/>
												</g>
											</g>
										</g>
									</g>
								</g>
							</g>
							<g id="&lt;Group&gt;">
								<g id="&lt;Group&gt;">
									<g id="&lt;Group&gt;">
										<g id="&lt;Group&gt;">
											<g id="&lt;Group&gt;">
												<g id="&lt;Group&gt;">
													<path id="&lt;Path&gt;" class="s4" d="m277.6 612.8c0 0.1-2.1 1.4-5 2.6-2.8 1.2-5.3 1.8-5.3 1.7 0-0.1 2.3-0.9 5.1-2.1 2.9-1.2 5.1-2.3 5.2-2.2z"/>
												</g>
											</g>
										</g>
									</g>
								</g>
							</g>
							<g id="&lt;Group&gt;">
								<g id="&lt;Group&gt;">
									<g id="&lt;Group&gt;">
										<g id="&lt;Group&gt;">
											<g id="&lt;Group&gt;">
												<g id="&lt;Group&gt;">
													<path id="&lt;Path&gt;" class="s4" d="m284.5 610c0.1 0 0 0.5 0 1.1 0 0.7 0 1.2-0.1 1.2-0.1 0.1-0.4-0.4-0.4-1.2 0-0.7 0.4-1.2 0.5-1.1z"/>
												</g>
											</g>
										</g>
									</g>
								</g>
							</g>
							<g id="&lt;Group&gt;">
								<g id="&lt;Group&gt;">
									<g id="&lt;Group&gt;">
										<g id="&lt;Group&gt;">
											<g id="&lt;Group&gt;">
												<g id="&lt;Group&gt;">
													<path id="&lt;Path&gt;" class="s4" d="m285.8 605.6c0.1 0.1 0 0.6-0.2 1.1-0.2 0.5-0.5 0.9-0.6 0.8-0.1 0 0-0.5 0.2-1 0.2-0.5 0.5-0.9 0.6-0.9z"/>
												</g>
											</g>
										</g>
									</g>
								</g>
							</g>
							<g id="&lt;Group&gt;">
								<g id="&lt;Group&gt;">
									<g id="&lt;Group&gt;">
										<g id="&lt;Group&gt;">
											<g id="&lt;Group&gt;">
												<g id="&lt;Group&gt;">
													<path id="&lt;Path&gt;" class="s4" d="m288.9 602.6c0 0.2-0.4 0.4-0.9 0.8-0.4 0.3-0.7 0.8-0.8 0.7-0.1 0 0-0.6 0.5-1.1 0.6-0.5 1.2-0.5 1.2-0.4z"/>
												</g>
											</g>
										</g>
									</g>
								</g>
							</g>
							<g id="&lt;Group&gt;">
								<g id="&lt;Group&gt;">
									<g id="&lt;Group&gt;">
										<g id="&lt;Group&gt;">
											<g id="&lt;Group&gt;">
												<g id="&lt;Group&gt;">
													<path id="&lt;Path&gt;" class="s4" d="m291.3 600.9c0.1 0.1-0.1 0.3-0.3 0.6-0.3 0.2-0.5 0.3-0.6 0.2-0.1-0.1 0-0.4 0.3-0.6 0.2-0.2 0.5-0.3 0.6-0.2z"/>
												</g>
											</g>
										</g>
									</g>
								</g>
							</g>
						</g>
					</g>
				</g>
				<g id="&lt;Group&gt;">
					<g id="&lt;Group&gt;">
						<g id="&lt;Group&gt;">
							<g id="&lt;Group&gt;">
								<path id="&lt;Path&gt;" class="s4" d="m408.1 451h-87.9l-18.5 155.1h-60.5l22.1-179.6c2.2-17.7 17-31.1 34.8-31.4l111.5-2.1z"/>
							</g>
						</g>
						<g id="&lt;Group&gt;">
							<g id="&lt;Group&gt;">
								<g id="&lt;Group&gt;">
									<path id="&lt;Path&gt;" class="s7" d="m271.5 594.4c16.4 0.1 31.5 0.5 29.7 0.7-0.3 0-13.3 0.4-29.7 0.3-16.3-0.1-29.6-0.4-29.6-0.7 0-0.3 13.3-0.4 29.6-0.3z"/>
								</g>
							</g>
						</g>
					</g>
					<g id="&lt;Group&gt;">
						<g id="&lt;Group&gt;">
							<g id="&lt;Group&gt;">
								<g id="&lt;Group&gt;">
									<path id="&lt;Path&gt;" class="s4" d="m333.6 452c-15.6 0-28.2-12.6-28.2-28.2 0-15.6 12.7-28.2 28.3-28.1l194.5-18.3c0 0 30.5 58.9-14 73.6z"/>
								</g>
							</g>
							<g id="&lt;Group&gt;">
								<g id="&lt;Group&gt;">
									<g id="&lt;Group&gt;">
										<path id="&lt;Path&gt;" class="s7" d="m318.4 395.5l-31.4-68.3 93-6.4 24.4 61.6 49.8 2 0.6 4.2z"/>
									</g>
								</g>
								<g id="&lt;Group&gt;">
									<g id="&lt;Group&gt;">
										<path id="&lt;Path&gt;" class="s6" d="m344.9 354.1c2.3-1.5 5.3-0.8 6.7 1.5 1.5 2.2 0.8 5.3-1.5 6.7-2.2 1.4-5.3 0.8-6.7-1.5-1.4-2.3-0.8-5.3 1.5-6.7z"/>
									</g>
								</g>
							</g>
						</g>
						<g id="&lt;Group&gt;">
							<g id="&lt;Group&gt;">
								<g id="&lt;Group&gt;">
									<path id="&lt;Path&gt;" class="s7" d="m470.3 387.4q-0.6 0.1-1.6 0.2-2.3 0.1-6.3 0.4c-5.5 0.3-13.3 0.8-23 1.4-19.5 1.1-46.3 2.6-76 4.2-3.7 0.2-7.4 0.5-11 0.6q-5.4 0-10.6 0.3-5.3 0.3-10.3 0.8c-3.4 0.4-6.6 0.7-9.6 1.8-3 1.1-5.7 2.7-7.8 4.7-2.2 2.1-3.8 4.6-4.8 7.2-1.1 2.6-1.6 5.3-2 7.9q-0.6 4-0.6 7.6c0 4.8 0.8 9.2 2.4 12.7 1.5 3.5 3.7 6.1 5.8 7.8 2.1 1.7 4 2.6 5.3 3 1.4 0.5 1.4 0.6 0 0.2-1.4-0.4-3.4-1.2-5.6-2.9-2.1-1.7-4.4-4.3-6-7.9-1.7-3.5-2.6-8-2.6-12.9q-0.1-3.7 0.5-7.7c0.4-2.6 1-5.4 2-8.1 1.1-2.7 2.7-5.4 5-7.5 2.2-2.2 5-3.8 8.1-4.9 3.1-1.2 6.5-1.6 9.8-2q5-0.5 10.3-0.7 5.3-0.4 10.7-0.4c3.6-0.1 7.3-0.4 11-0.6 29.6-1.5 56.5-2.9 76-3.9 9.6-0.5 17.5-0.8 23-1.1q4-0.1 6.3-0.2 1-0.1 1.6-0.1 0.6 0 0.6 0.1 0 0-0.6 0z"/>
								</g>
							</g>
						</g>
					</g>
				</g>
				<g id="&lt;Group&gt;">
					<path id="&lt;Path&gt;" class="s4" d="m463.4 285.9c0 0 4.9-48 47.8-60.5 3.4 1.4 6.3 3.2 8.6 5.4 0 0-40.4-1.7-50.9 55.1z"/>
				</g>
				<g id="&lt;Group&gt;">
					<path id="&lt;Path&gt;" class="s4" d="m432.6 288.3c0 0-9.9-44.4 25.9-71.1 3.6 0 6.9 0.7 9.9 2 0 0-40.5 12.5-30.3 69.4z"/>
				</g>
				<g id="&lt;Group&gt;">
					<g id="&lt;Group&gt;">
						<g id="&lt;Group&gt;">
							<path id="&lt;Path&gt;" class="s4" d="m506 131.2c1.8-5.2 6.8-9.2 12.2-9.8 5.5-0.7 11.3 1.9 14.3 6.5 1.9 3 2.8 6.5 4 9.8 1.2 3.3 3 6.6 6.1 8.3 3.6 2 8.4 1.3 11.7 3.8 3.6 2.7 3.7 8.7 0.6 12.1-3 3.4-8.4 4.2-12.6 2.5 0.9 2.7 1.8 5.5 1.7 8.3 0 2.9-1.2 5.9-3.6 7.4-2.5 1.6-5.8 1.2-8.4-0.1-2.5-1.4-4.5-3.6-6.2-5.9-0.6 2-1.1 4-2.2 5.7-1 1.8-2.7 3.3-4.8 3.6-2.4 0.4-5-1.1-6.4-3.2-1.4-2-2-4.6-2.3-7.1-0.8-6.2-0.3-12.5 1.2-18.6 0.9-3.9 2.3-7.9 1.5-11.8-0.7-3.9-4.6-7.6-8.4-6.4"/>
						</g>
						<g id="&lt;Group&gt;">
							<g id="&lt;Group&gt;">
								<path id="&lt;Path&gt;" class="s7" d="m556.2 158q0 0.1-0.7 0.3-0.6 0.3-2 0.6c-1.7 0.4-4.3 0.7-7.5 0.1-3.2-0.6-6.9-2.1-10-5.1-1.5-1.5-2.9-3.3-4-5.4-1-2-1.7-4.4-2.2-6.8-0.5-2.3-1-4.6-1.9-6.6-0.8-2.1-2.1-3.8-3.8-4.9-3.2-2.4-7.2-2.8-10.2-2-3 0.7-5.1 2.3-6.3 3.4-1.3 1.2-1.9 2-2 2q0-0.1 0.4-0.7c0.2-0.4 0.7-0.9 1.3-1.6 1.2-1.2 3.3-2.9 6.5-3.8 3.1-0.9 7.3-0.7 10.9 1.9 1.8 1.2 3.3 3.1 4.2 5.3 0.9 2.1 1.4 4.5 1.9 6.8 0.5 2.4 1.1 4.6 2.2 6.6 0.9 1.9 2.3 3.7 3.7 5.1 2.9 2.9 6.4 4.4 9.4 5.1 3.1 0.6 5.6 0.4 7.4 0.2 1.7-0.3 2.6-0.6 2.7-0.5z"/>
							</g>
						</g>
						<g id="&lt;Group&gt;">
							<g id="&lt;Group&gt;">
								<path id="&lt;Path&gt;" class="s7" d="m522.6 181.5q0 0.1-0.5-0.3-0.5-0.4-1.2-1.3c-1-1.2-2-3.2-2.3-6-0.3-2.7 0-6 1.1-9.4 1-3.5 2.4-7.1 3-11.1 0.6-3.9-0.3-7.8-2.1-10.8-1.7-2.9-4.3-5-6.6-6.1-2.4-1.1-4.5-1.5-6-1.7-1.5-0.1-2.3 0-2.3-0.1 0-0.1 0.8-0.3 2.3-0.3 1.5 0.1 3.8 0.3 6.3 1.5 2.5 1 5.2 3.1 7.2 6.2 1.9 3.1 2.9 7.3 2.2 11.5-0.6 4.1-2.1 7.8-3.1 11.1-1.1 3.4-1.5 6.5-1.3 9.1 0.2 2.7 1.1 4.7 1.9 5.9 0.8 1.2 1.5 1.7 1.4 1.8z"/>
							</g>
						</g>
					</g>
					<g id="&lt;Group&gt;">
						<path id="&lt;Path&gt;" class="s4" d="m437.6 157.4c-10-23.1 3.7-37.1 12.6-42.2 5.3-3 11.6-3.6 17.7-3.7 6.1-0.2 12.1 0.1 18 1.6 5.8 1.5 11.4 4.4 15.5 8.8 7.3 7.8 8.9 19.3 8.3 30-0.8 12.6-4.4 25-10.7 35.9-0.8 1.4-1.7 2.8-3.1 3.6-1.4 0.8-3.5 0.6-4.3-0.8"/>
					</g>
					<g id="&lt;Group&gt;">
						<g id="&lt;Group&gt;">
							<g id="&lt;Group&gt;">
								<g id="&lt;Group&gt;">
									<g id="&lt;Group&gt;">
										<g id="&lt;Group&gt;">
											<g id="&lt;Group&gt;">
												<g id="&lt;Group&gt;">
													<path id="&lt;Path&gt;" class="s8" d="m491.4 130.5c3.4 0.3 5.9 3.2 5.9 6.6l-3.7 87.9c-0.2 10.4-19 22.7-30.1 22.5-11.3-0.3-8.9-12.2-8.1-22.1 0.8-11.1-0.3-22.6-0.3-22.6 0 0-14.2-2.3-17.1-20.9-1.5-9.2-1-24.3-0.3-36.6 0.7-11.1 10.5-19.4 21.6-18.2z"/>
												</g>
											</g>
										</g>
										<g id="&lt;Group&gt;">
											<g id="&lt;Group&gt;">
												<g id="&lt;Group&gt;">
													<g id="&lt;Group&gt;">
														<path id="&lt;Path&gt;" class="s4" d="m445 155.1c1.3 0.1 2.3 1.2 2.3 2.4-0.1 1.3-1.1 2.3-2.5 2.2-1.3-0.1-2.3-1.2-2.2-2.4 0-1.3 1.1-2.2 2.4-2.2z"/>
													</g>
												</g>
											</g>
											<g id="&lt;Group&gt;">
												<g id="&lt;Group&gt;">
													<g id="&lt;Group&gt;">
														<g id="&lt;Group&gt;">
															<path id="&lt;Path&gt;" class="s4" d="m441.9 151.9c0.8-0.6 2.1-1.2 3.7-1.2 1.6 0 3 0.5 3.8 1.1 0.8 0.6 1.1 1.2 1 1.3-0.3 0.3-2.2-1-4.7-1-2.6 0-4.4 1.4-4.7 1.1-0.1-0.2 0.1-0.7 0.9-1.3z"/>
														</g>
													</g>
												</g>
											</g>
										</g>
										<g id="&lt;Group&gt;">
											<g id="&lt;Group&gt;">
												<g id="&lt;Group&gt;">
													<g id="&lt;Group&gt;">
														<path id="&lt;Path&gt;" class="s4" d="m470 155.1c1.3 0.1 2.3 1.2 2.3 2.4-0.1 1.3-1.2 2.3-2.5 2.2-1.3-0.1-2.3-1.2-2.3-2.4 0.1-1.3 1.2-2.2 2.5-2.2z"/>
													</g>
												</g>
											</g>
											<g id="&lt;Group&gt;">
												<g id="&lt;Group&gt;">
													<g id="&lt;Group&gt;">
														<g id="&lt;Group&gt;">
															<path id="&lt;Path&gt;" class="s4" d="m467 152.3c0.8-0.6 2.2-1.2 3.7-1.2 1.6 0 3 0.6 3.8 1.2 0.8 0.6 1.1 1.2 1 1.3-0.3 0.3-2.2-1-4.7-1-2.6 0-4.4 1.3-4.7 1-0.1-0.1 0.2-0.7 0.9-1.3z"/>
														</g>
													</g>
												</g>
											</g>
										</g>
										<g id="&lt;Group&gt;">
											<g id="&lt;Group&gt;">
												<g id="&lt;Group&gt;">
													<g id="&lt;Group&gt;">
														<path id="&lt;Path&gt;" class="s4" d="m452.7 172.6c-0.4 0-0.7-0.1-1.2-0.2-0.4-0.1-0.8-0.4-1-0.9-0.4-1 0.1-1.9 0.3-2.6q0.9-2.4 1.9-5c2.6-7.1 5-12.7 5.3-12.6 0.3 0.1-1.6 5.9-4.3 13q-1 2.6-1.9 5c-0.3 0.7-0.6 1.4-0.5 1.9 0.1 0.4 0.8 0.6 1.4 0.6 2.6 0.4 4.2 0.6 4.2 0.8 0 0.1-1.7 0.1-4.2 0z"/>
													</g>
												</g>
											</g>
										</g>
										<g id="&lt;Group&gt;">
											<g id="&lt;Group&gt;">
												<g id="&lt;Group&gt;">
													<path id="&lt;Path&gt;" class="s12" d="m455.1 202.8c0 0 12.5 0.8 24.8-6.6 0 0-6 12.7-24.6 11z"/>
												</g>
											</g>
										</g>
										<g id="&lt;Group&gt;">
											<g id="&lt;Group&gt;">
												<g id="&lt;Group&gt;">
													<path id="&lt;Path&gt;" class="s12" d="m457.9 178.7c1-1.2 2.6-1.8 4.2-1.7 1.1 0.1 2.2 0.7 2.9 1.6 0.6 0.9 0.8 2.2 0.2 3-0.7 1-2.2 1.2-3.4 0.9-1.2-0.4-2.2-1.2-3.2-2-0.3-0.2-0.6-0.4-0.8-0.7-0.1-0.3-0.2-0.7 0-1"/>
												</g>
											</g>
										</g>
										<g id="&lt;Group&gt;">
											<g id="&lt;Group&gt;">
												<g id="&lt;Group&gt;">
													<g id="&lt;Group&gt;">
														<path id="&lt;Path&gt;" class="s4" d="m464.8 176.2c-0.1 1.1-0.7 2.7-2.2 3.9-1.4 1.2-3.2 1.6-4.5 1.6-1.2 0-1.9-0.4-1.9-0.6 0.1-0.4 3-0.1 5.4-2 2.4-2 2.4-4.8 2.8-4.8 0.2 0 0.5 0.7 0.4 1.9z"/>
													</g>
												</g>
											</g>
										</g>
									</g>
								</g>
							</g>
							<g id="&lt;Group&gt;">
								<g id="&lt;Group&gt;">
									<g id="&lt;Group&gt;">
										<path id="&lt;Path&gt;" class="s4" d="m466.5 147.8c1.1-0.4 2.8-0.7 4.6-0.5 1.8 0.2 3.3 0.8 4.3 1.5 1 0.7 1.4 1.3 1.2 1.6-0.4 0.7-2.8-0.2-5.8-0.5-3-0.4-5.6 0-5.8-0.7-0.1-0.4 0.4-0.9 1.5-1.4z"/>
									</g>
								</g>
							</g>
							<g id="&lt;Group&gt;">
								<g id="&lt;Group&gt;">
									<g id="&lt;Group&gt;">
										<path id="&lt;Path&gt;" class="s4" d="m442.8 144.3c0.7-0.6 2-1.1 3.4-1.2 1.5 0 2.8 0.4 3.5 1 0.8 0.5 1.1 1.1 0.9 1.4-0.4 0.6-2.2 0.1-4.3 0.2-2.1 0-3.9 0.6-4.3 0.1-0.2-0.3 0-0.9 0.8-1.5z"/>
									</g>
								</g>
							</g>
						</g>
					</g>
					<g id="&lt;Group&gt;">
						<path id="&lt;Path&gt;" class="s4" d="m434.2 140.4c1.3-10.2 8.7-14.7 18.4-18.3 9.6-3.6 20.3-3.1 30.4-1.3 4.1 0.8 8.3 1.8 11.6 4.4 4.5 3.6 6.4 9.6 7.5 15.3 2.8 14 2.2 29-3.9 41.8-4.2-3.6-6.7-8.7-8-14.1-1.2-5.3-1.3-10.8-1.3-16.3 0-2-0.1-4.2-1.7-5.4-0.8-0.6-1.9-0.8-2.9-0.9-10.2-1.7-26.7-10.1-33.9-17.4-5 7.6-9.4 1.3-12.7 17.1"/>
					</g>
					<g id="&lt;Group&gt;">
						<g id="&lt;Group&gt;">
							<path id="&lt;Path&gt;" class="s7" d="m507.7 134.2c0 0.1-0.7 0.5-2.1 1.1-0.6 0.4-1.5 0.7-2.5 1.1q-0.8 0.2-1.7 0.5-0.9 0.3-1.8 0.5c-2.7 0.7-5.9 1.1-9.5 1.3-3.6 0.2-7.6-0.1-11.7-0.7-4.1-0.7-7.9-1.9-11.3-3.1-1.6-0.7-3.2-1.3-4.6-2.2q-1.1-0.5-2.1-1-0.9-0.6-1.8-1.2c-1.1-0.7-2.1-1.5-2.9-2.2q-0.6-0.5-1.2-0.9-0.5-0.5-0.9-0.9c-1.1-1.1-1.6-1.8-1.6-1.8 0.2-0.2 2.5 2.4 7 5.2q0.9 0.5 1.8 1.1 1 0.5 2.1 1c1.3 0.7 2.9 1.3 4.6 2 3.3 1.2 7 2.3 11.1 2.9 4 0.7 7.9 0.9 11.5 0.9 3.5-0.2 6.7-0.5 9.3-1.1 5.2-1.1 8.2-2.7 8.3-2.5z"/>
						</g>
					</g>
					<g id="&lt;Group&gt;">
						<g id="&lt;Group&gt;">
							<path id="&lt;Path&gt;" class="s7" d="m502.5 121.7c0 0.1-0.5 0.6-1.6 1.3-0.5 0.5-1.2 0.9-2.1 1.3q-0.6 0.4-1.3 0.7-0.8 0.4-1.6 0.7c-4.4 1.9-10.9 3.2-18.2 3.3-7.2 0-13.7-1-18.3-2.1-2.3-0.5-4.2-1-5.4-1.5-1.3-0.4-2-0.6-2-0.7 0.1-0.2 2.9 0.6 7.5 1.5 4.6 0.9 11.1 1.8 18.2 1.7 7.2 0 13.6-1.2 18-2.9 4.3-1.6 6.6-3.4 6.8-3.3z"/>
						</g>
					</g>
					<g id="&lt;Group&gt;">
						<g id="&lt;Group&gt;">
							<path id="&lt;Path&gt;" class="s7" d="m445.6 117.7c0-0.1 0.6-0.2 1.6 0 1 0.3 2.3 1 3.3 2.2 1 1.2 1.5 2.6 1.5 3.6 0.1 1.1-0.2 1.7-0.3 1.6-0.3 0-0.2-2.4-2-4.5-1.8-2.2-4.2-2.6-4.1-2.9z"/>
						</g>
					</g>
					<g id="&lt;Group&gt;">
						<g id="&lt;Group&gt;">
							<path id="&lt;Path&gt;" class="s4" d="m541.2 137.7c0 0 0.1-0.3 0.6-0.7 0.4-0.4 1.2-0.9 2.3-1 1-0.1 2.5 0 3.8 0.9 1.4 0.8 2.5 2.6 2.3 4.7-0.2 2-1.5 4.1-3.6 5.2-2.1 1.2-5 0.8-7.2-0.7-1.1-0.8-2-1.8-2.6-3.1-0.7-1.3-0.9-2.7-1-4.1-0.2-2.8 0.3-5.6-0.2-8.4-1.1-5.5-5.4-9.8-9.9-11.4-4.7-1.7-9.3-0.4-12.4 1.6-3.2 1.9-5 4.5-5.9 6.4-0.9 1.9-1.1 3-1.2 3q0 0 0.1-0.8c0.1-0.6 0.3-1.4 0.8-2.4 0.8-1.9 2.5-4.7 5.8-6.9 1.6-1 3.6-1.9 5.8-2.3 2.3-0.5 4.8-0.3 7.3 0.5 4.8 1.7 9.5 6.2 10.6 12.2 0.5 3 0 5.8 0.2 8.5 0.1 1.3 0.3 2.5 0.9 3.7 0.5 1.1 1.3 2 2.3 2.7 1.9 1.4 4.4 1.7 6.2 0.7 1.9-0.9 3-2.8 3.2-4.5 0.3-1.8-0.6-3.4-1.8-4.1-1.2-0.9-2.5-1.1-3.5-1-2.1 0.2-2.8 1.4-2.9 1.3z"/>
						</g>
					</g>
					<g id="&lt;Group&gt;">
						<g id="&lt;Group&gt;">
							<path id="&lt;Path&gt;" class="s4" d="m492.6 146c0 0.1-0.7 0.1-1.9 0.2-1.3 0-3.1 0-5.3-0.1-4.4-0.2-10.6-0.6-17.1-2.9-6.5-2.4-11.5-6.6-14-10.3-1.3-1.8-2.1-3.5-2.5-4.7-0.4-1.1-0.5-1.8-0.5-1.8 0.2-0.1 0.9 2.6 3.6 6.1 2.6 3.5 7.5 7.4 13.7 9.7 6.3 2.3 12.5 2.8 16.9 3.2 4.4 0.3 7.1 0.5 7.1 0.6z"/>
						</g>
					</g>
					<g id="&lt;Group&gt;">
						<g id="&lt;Group&gt;">
							<path id="&lt;Path&gt;" class="s4" d="m518.9 191.2c0 0-0.1 0.8-0.9 1.8-0.8 1-2.4 2.2-4.8 2.3-2.3 0.2-5.1-0.7-7.4-2.8-1.1-1-2.1-2.5-2.3-4.3-0.1-1.7 0.6-3.7 2.4-4.6 1.8-0.8 4.1-0.1 4.9 1.7 0.4 0.9 0.3 2-0.2 2.7-0.4 0.8-1 1.4-1.8 1.8-1.5 0.7-3.1 0.5-4.4 0-1.3-0.4-2.4-1.2-3.2-2-1.6-1.7-2.2-3.5-2.3-4.8-0.1-1.3 0.1-2 0.1-1.9 0.1 0 0 0.7 0.3 1.8 0.3 1.2 0.9 2.9 2.5 4.4 0.7 0.7 1.7 1.4 2.9 1.7 1.1 0.4 2.5 0.5 3.7-0.1 1.1-0.5 2-2 1.5-3.2-0.5-1.2-2.3-1.8-3.5-1.2-1.3 0.7-2 2.3-1.9 3.7 0.1 1.4 1 2.7 1.9 3.6 2.1 1.9 4.7 2.9 6.8 2.8 2.1 0 3.7-1 4.5-1.9 0.8-0.8 1.1-1.5 1.2-1.5z"/>
						</g>
					</g>
				</g>
				<g id="&lt;Group&gt;">
					<g id="&lt;Group&gt;">
						<path id="&lt;Path&gt;" class="s7" d="m433.7 288c0.1 0.1-0.1 0.4-0.1 0.9 0.1 0.4 0.4 0.8 0.9 0.6 0.6-0.3 0.5-0.7 0.2-1.1-0.3-0.4-0.6-0.4-0.7-0.5 0-0.1 0.5-0.5 1.2-0.1 0.3 0.2 0.7 0.6 0.7 1.2 0.1 0.6-0.4 1.2-1 1.4-0.5 0.3-1.3 0.2-1.7-0.3-0.4-0.5-0.4-1-0.3-1.3 0.2-0.8 0.8-0.9 0.8-0.8z"/>
					</g>
				</g>
				<g id="&lt;Group&gt;">
					<g id="&lt;Group&gt;">
						<path id="&lt;Path&gt;" class="s7" d="m465.7 287.4c0.1 0.1-0.4 0.3-0.6 0.8-0.3 0.6-0.2 1.4 0.7 1.4 0.8 0.2 1.1-0.6 1-1.2-0.2-0.6-0.6-0.8-0.5-1 0-0.1 0.7-0.1 1.2 0.7 0.2 0.4 0.3 1 0 1.7-0.3 0.6-1.1 1-1.8 0.9-0.8-0.1-1.5-0.6-1.6-1.3-0.2-0.7 0.1-1.3 0.4-1.6 0.6-0.7 1.3-0.5 1.2-0.4z"/>
					</g>
				</g>
				<g id="&lt;Group&gt;">
					<g id="&lt;Group&gt;">
						<path id="&lt;Path&gt;" class="s7" d="m435.8 305.2c0.1 0 0 1 0.1 2.9 0 1.9 0.2 4.7 1.3 7.9 0.5 1.5 1.4 3.2 2.7 4.6 1.3 1.4 3.2 2.4 5.3 2.7 2.1 0.5 4.5 0.2 6.5-0.9 2.1-1.1 3.8-3 5-5.2 2.1-3.9 3-8.2 3.4-12l0.5 0.5c-7.2-0.1-13.3-0.2-17.7-0.3q-3.1 0-5.2-0.1c-1.2 0-1.9-0.1-1.9-0.1 0-0.1 0.6-0.1 1.7-0.1q2.1-0.1 5.1-0.2c4.4-0.1 10.6-0.2 18-0.2h0.5v0.5c-0.4 4-1.3 8.4-3.5 12.5-1.3 2.4-3.1 4.4-5.4 5.6-2.3 1.2-4.9 1.5-7.2 1-2.3-0.4-4.4-1.5-5.8-3.1-1.3-1.6-2.2-3.4-2.7-5-1-3.3-1.1-6.2-1-8.1 0-1.9 0.2-2.9 0.3-2.9z"/>
					</g>
				</g>
				<g id="&lt;Group&gt;">
					<g id="&lt;Group&gt;">
						<path id="&lt;Path&gt;" class="s7" d="m513.7 405.9c0 0.1-0.5 0.4-1.6 0.8-1 0.4-2.6 0.8-4.6 0.9-3.9 0.3-9.8-0.9-14.2-5.4-4.4-4.5-5.4-10.4-5-14.3 0.1-2 0.6-3.6 1-4.6 0.4-1.1 0.8-1.6 0.8-1.5 0.2 0-0.9 2.2-1.1 6.1-0.2 3.8 0.9 9.4 5 13.6 4.1 4.2 9.7 5.5 13.5 5.4 3.9-0.1 6.1-1.2 6.2-1z"/>
					</g>
				</g>
			</g>
			<g id="&lt;Group&gt;">
				<g id="&lt;Group&gt;">
					<path id="&lt;Path&gt;" class="s7" d="m325 448.5c0-0.3 43.4-0.5 96.9-0.5 53.5 0 96.9 0.2 96.9 0.5 0 0.3-43.4 0.5-96.9 0.5-53.5 0-96.9-0.2-96.9-0.5z"/>
				</g>
			</g>
		</g>
	</g>
	<g id="Cloud">
		<g id="&lt;Group&gt;">
			<g id="&lt;Group&gt;">
				<path id="&lt;Path&gt;" class="s5" d="m983.9 359.1c0 0-0.6 0.1-1.8 0.1q-1.9 0-5.5 0.1c-4.9 0-12.1 0-21.4 0.1-18.7 0.1-46 0.2-80.2 0.3-68.6 0.1-165.2 0.2-276.8 0.4h-0.8l-0.2-0.7c-5.7-19.6-2.2-42.5 10.6-60 12.8-17.5 34.7-28.6 57.3-28.1l-1 1.4c-1.7-5.8-2.4-12.2-2.2-18.6 0.9-21.4 13.1-42.1 31.7-51.7 18.5-9.7 41.2-9.3 58.7 0.3l-1.4 0.6c9.9-24.3 30.9-41.9 53.7-50.1 22.8-8.3 48.2-7.2 68.1 3.2 20 10.3 34.3 27.8 42.2 46.1 8.1 18.4 9.2 38.2 5.1 55.2l-0.7-0.9c11.4-1.2 22.5 0.7 32 4.6 9.5 3.9 17.6 9.7 23.8 16.3 3 3.3 5.7 6.9 7.5 10.8 1.7 3.8 3.1 7.6 4 11.4 1.8 7.5 2.5 14.5 2.7 20.8 0.4 12.6-1.1 22.3-2.5 28.8q-1.1 4.8-2 7.2c-0.6 1.6-0.9 2.4-0.9 2.4z"/>
			</g>
			<g id="&lt;Group&gt;" style="opacity: .3">
				<path id="&lt;Path&gt;" class="s9" d="m983.9 359.1c0 0-0.6 0.1-1.8 0.1q-1.9 0-5.5 0.1c-4.9 0-12.1 0-21.4 0.1-18.7 0.1-46 0.2-80.2 0.3-68.6 0.1-165.2 0.2-276.8 0.4h-0.8l-0.2-0.7c-5.7-19.6-2.2-42.5 10.6-60 12.8-17.5 34.7-28.6 57.3-28.1l-1 1.4c-1.7-5.8-2.4-12.2-2.2-18.6 0.9-21.4 13.1-42.1 31.7-51.7 18.5-9.7 41.2-9.3 58.7 0.3l-1.4 0.6c9.9-24.3 30.9-41.9 53.7-50.1 22.8-8.3 48.2-7.2 68.1 3.2 20 10.3 34.3 27.8 42.2 46.1 8.1 18.4 9.2 38.2 5.1 55.2l-0.7-0.9c11.4-1.2 22.5 0.7 32 4.6 9.5 3.9 17.6 9.7 23.8 16.3 3 3.3 5.7 6.9 7.5 10.8 1.7 3.8 3.1 7.6 4 11.4 1.8 7.5 2.5 14.5 2.7 20.8 0.4 12.6-1.1 22.3-2.5 28.8q-1.1 4.8-2 7.2c-0.6 1.6-0.9 2.4-0.9 2.4z"/>
			</g>
			<g id="&lt;Group&gt;">
				<path id="&lt;Path&gt;" class="s5" d="m953.4 359.1c0 0-0.6 0.1-1.8 0.1q-2 0-5.5 0.1c-5 0-12.1 0-21.4 0.1-18.8 0.1-46 0.2-80.2 0.3-68.7 0.1-165.2 0.2-276.9 0.4h-0.7l-0.2-0.7c-5.7-19.6-2.2-42.5 10.6-60 12.7-17.5 34.7-28.6 57.3-28.1l-1.1 1.4c-1.6-5.8-2.4-12.2-2.1-18.6 0.8-21.4 13-42.1 31.7-51.7 18.4-9.7 41.2-9.3 58.6 0.3l-1.4 0.6c10-24.3 31-41.9 53.7-50.1 22.9-8.3 48.2-7.2 68.1 3.2 20.1 10.3 34.3 27.8 42.2 46.1 8.1 18.4 9.2 38.2 5.2 55.2l-0.8-0.9c11.5-1.2 22.6 0.7 32.1 4.6 9.5 3.9 17.6 9.7 23.7 16.3 3.1 3.3 5.7 6.9 7.5 10.8 1.8 3.8 3.1 7.6 4 11.4 1.9 7.5 2.5 14.5 2.7 20.8 0.4 12.6-1.1 22.3-2.5 28.8q-1.1 4.8-1.9 7.2c-0.6 1.6-0.9 2.4-0.9 2.4z"/>
			</g>
			<g id="&lt;Group&gt;">
				<g id="&lt;Group&gt;">
					<g id="&lt;Group&gt;">
						<g id="&lt;Group&gt;">
							<path id="&lt;Path&gt;" class="s2" d="m833.6 269.8c-0.2 0-0.5-2.1-0.9-5.7-0.3-1.8-0.7-4-1.3-6.5q-0.5-1.9-1.1-4c-0.5-1.4-1.1-2.8-1.7-4.4-2.5-5.9-6.5-12.7-12.6-18.8-6-6-14.1-11.1-23.5-14.1-9.5-2.7-19.1-3.1-27.5-1.4-8.4 1.5-15.5 4.9-20.9 8.5-5.4 3.6-9.2 7.4-11.7 10-1.2 1.4-2.2 2.5-2.8 3.2q-1 1.1-1.1 1-0.2-0.1 0.6-1.3c0.5-0.9 1.2-2.1 2.4-3.6 2.2-3 5.9-7.2 11.4-11.1 5.4-3.9 12.7-7.7 21.6-9.6 8.8-1.8 18.9-1.6 28.9 1.3 9.9 3.1 18.5 8.7 24.7 15.1 6.2 6.5 10.2 13.7 12.6 20 0.5 1.6 1.1 3.1 1.5 4.6q0.5 2.2 0.9 4.2c0.5 2.6 0.6 4.9 0.8 6.8 0.1 3.7-0.1 5.8-0.3 5.8z"/>
						</g>
					</g>
					<g id="&lt;Group&gt;">
						<g id="&lt;Group&gt;">
							<path id="&lt;Path&gt;" class="s2" d="m806.2 249.4c0.5-0.7 13 7.9 27.9 19.3q0.5 0.3 0.9 0.6l-2.4 0.8c6-17.3 11.5-30.9 12.3-30.6 0.8 0.3-3.4 14.3-9.4 31.6l-0.7 2-1.7-1.3q-0.4-0.3-0.8-0.6c-15-11.4-26.6-21.1-26.1-21.8z"/>
						</g>
					</g>
				</g>
				<g id="&lt;Group&gt;">
					<g id="&lt;Group&gt;">
						<g id="&lt;Group&gt;">
							<path id="&lt;Path&gt;" class="s2" d="m725.3 260.3c0.2 0 0.3 2 0.2 5.5 0.1 1.8 0.3 4 0.5 6.5 0.4 2.5 0.8 5.3 1.7 8.4 1.6 6 4.6 13.1 9.6 19.7 4.8 6.7 11.9 12.8 20.5 17.1l1.6 0.8 1.6 0.6q1.7 0.7 3.3 1.3c1.1 0.4 2.2 0.6 3.3 1 1.1 0.3 2.2 0.7 3.3 0.8 4.4 0.9 8.8 1.4 12.9 1.3 8.3-0.1 15.7-2 21.5-4.5 5.9-2.5 10.2-5.4 13-7.5 1.5-1 2.6-1.9 3.3-2.5q1.2-0.8 1.3-0.7 0.1 0.1-0.9 1.2c-0.6 0.8-1.5 1.8-2.9 3-2.7 2.4-6.9 5.7-12.9 8.5-5.9 2.8-13.6 5.1-22.3 5.4-4.3 0.1-8.9-0.3-13.6-1.2-1.2-0.1-2.3-0.5-3.5-0.8-1.1-0.4-2.3-0.7-3.5-1.1q-1.7-0.6-3.5-1.3l-1.7-0.7-1.7-0.8q-1.7-0.9-3.3-1.8c-1.1-0.6-2.1-1.3-3.2-2-2.1-1.2-3.9-2.9-5.8-4.3-0.9-0.7-1.7-1.6-2.5-2.4-0.8-0.8-1.7-1.6-2.5-2.5q-1.1-1.3-2.2-2.6l-1-1.2-1-1.4c-5.1-7.1-8-14.5-9.4-20.9-0.8-3.2-1-6.2-1.2-8.7-0.1-2.6-0.1-4.9 0-6.7 0.5-3.6 0.8-5.6 1-5.5z"/>
						</g>
					</g>
					<g id="&lt;Group&gt;">
						<g id="&lt;Group&gt;">
							<path id="&lt;Path&gt;" class="s2" d="m750.1 283.8c-0.6 0.7-12-9.4-25.4-22.5q-0.4-0.4-0.8-0.8l2.5-0.4c-8.1 16.4-15.2 29.2-15.9 28.8-0.8-0.4 5.1-13.8 13.1-30.2l1-1.9 1.5 1.5q0.4 0.4 0.8 0.7c13.4 13.1 23.8 24.2 23.2 24.8z"/>
						</g>
					</g>
				</g>
			</g>
		</g>
		<g id="&lt;Group&gt;">
			<g id="&lt;Group&gt;">
				<path id="&lt;Path&gt;" class="s5" d="m1124.5 459.9q0 0 0-1 0-1-0.1-3c0-2.7 0-6.6-0.1-11.6 0-10.2-0.1-24.9-0.1-43.2l0.3 0.3c-40 0.1-98.2 0.1-162.8 0.2-74.7-0.1-140.7-0.2-180.6-0.2h-0.3v-0.3c0-13 0.1-23.2 0.1-30.2q0-5.2 0.1-8 0-1.4 0-2.1 0-0.7 0.1-0.7 0 0 0 0.7 0 0.7 0 2.1 0.1 2.8 0.1 8c0 7 0.1 17.2 0.2 30.2l-0.3-0.3c39.9-0.1 105.9-0.2 180.6-0.2 64.6 0 122.8 0.1 162.8 0.1h0.4v0.4c-0.1 18.3-0.2 33-0.2 43.2 0 5-0.1 8.9-0.1 11.6q0 2 0 3-0.1 1-0.1 1z"/>
			</g>
		</g>
		<g id="&lt;Group&gt;">
			<g id="&lt;Group&gt;">
				<path id="&lt;Path&gt;" class="s5" d="m620.9 448.5c-0.3 0-0.5-19.9-0.5-44.3 0-24.5 0.2-44.4 0.5-44.4 0.3 0 0.5 19.9 0.5 44.4 0 24.4-0.2 44.3-0.5 44.3z"/>
			</g>
		</g>
	</g>
</svg>