<svg version="1.2" xmlns="http://www.w3.org/2000/svg" viewBox="0 0 1500 1000" width="1500" height="1000">
	<title>location-ai</title>
	<style>
		.s0 { fill: #ebebeb } 
		.s1 { fill: #e0e0e0 } 
		.s2 { fill: #f5f5f5 } 
		.s3 { fill: #263238 } 
		.s4 { fill: #008f99 } 
		.s5 { opacity: .4;fill: #000000 } 
		.s6 { fill: #ffbe9d } 
		.s7 { fill: #455a64 } 
		.s8 { fill: #eb996e } 
	</style>
	<g id="Background Complete">
		<g id="&lt;Group&gt;">
			<path id="&lt;Path&gt;" class="s0" d="m693.8 856c-1.5-17.6 7.2-35.7 21.9-45.5 14.7-9.8 34.8-10.8 50.4-2.6 3.8-10.2 7.7-20.5 14.4-29 6.7-8.5 16.9-15 27.7-14.6v91.7z"/>
		</g>
		<g id="&lt;Group&gt;">
			<g id="&lt;Group&gt;">
				<g id="&lt;Group&gt;">
					<path id="&lt;Path&gt;" class="s0" d="m458.2 617.6l-17.7 1 47.9 93.7-24 1 50 83.3h-226.9l40.6-83.3h-26l49.5-93.7-17.4-0.6 58.4-117.9z"/>
				</g>
				<g id="&lt;Group&gt;">
					<g id="&lt;Group&gt;">
						<path id="&lt;Path&gt;" class="s1" d="m402.5 637.8c0.3 0.1-0.2 50-1.1 111.6-0.9 61.6-1.9 111.5-2.2 111.5-0.2 0 0.3-50 1.2-111.6 0.9-61.5 1.8-111.5 2.1-111.5z"/>
					</g>
				</g>
			</g>
			<g id="&lt;Group&gt;">
				<g id="&lt;Group&gt;">
					<path id="&lt;Path&gt;" class="s1" d="m430.3 665.3c0.1 0.1-1.3 2.2-3.8 5.5-2.5 3.3-6 7.7-10 12.5-3.8 4.7-7.4 9-10.2 12.4-2.6 3.1-4.2 5-4.3 5-0.1-0.1 1.3-2.2 3.8-5.5 2.4-3.3 6-7.7 9.9-12.5 3.9-4.7 7.4-9 10.2-12.4 2.7-3.1 4.3-5.1 4.4-5z"/>
				</g>
			</g>
			<g id="&lt;Group&gt;">
				<g id="&lt;Group&gt;">
					<path id="&lt;Path&gt;" class="s1" d="m402 700.7c-0.2 0.2-5.9-4-12.8-9.4-6.9-5.3-12.4-9.9-12.2-10.1 0.2-0.2 5.9 3.9 12.8 9.3 6.9 5.4 12.3 9.9 12.2 10.2z"/>
				</g>
			</g>
			<g id="&lt;Group&gt;">
				<g id="&lt;Group&gt;">
					<path id="&lt;Path&gt;" class="s1" d="m400.4 758.5c-0.1 0.1-1.7-1.2-4.3-3.4-2.5-2.2-6.1-5.2-10-8.4-4-3.3-7.7-6.1-10.3-8.2-2.7-2.1-4.3-3.4-4.2-3.5 0.1-0.1 1.9 1 4.6 2.9 2.8 1.9 6.5 4.7 10.5 8 4 3.2 7.5 6.3 9.9 8.6 2.5 2.4 3.9 3.9 3.8 4z"/>
				</g>
			</g>
			<g id="&lt;Group&gt;">
				<g id="&lt;Group&gt;">
					<path id="&lt;Path&gt;" class="s1" d="m432.7 722.7c0.1 0.1-0.3 0.6-1 1.6-0.7 1-1.8 2.4-3.2 4.1-2.9 3.3-6.9 7.8-11.6 12.6-4.6 4.8-8.7 9.1-11.7 12.3-2.9 3.2-4.7 5.3-4.8 5.2 0-0.1 0.3-0.6 1.1-1.6 0.7-1 1.8-2.4 3.2-4 2.8-3.4 6.9-7.8 11.5-12.6 4.6-4.9 8.8-9.2 11.7-12.4 2.9-3.2 4.7-5.3 4.8-5.2z"/>
				</g>
			</g>
		</g>
		<g id="&lt;Group&gt;">
			<g id="&lt;Group&gt;">
				<path id="&lt;Path&gt;" class="s1" d="m927.6 558.1l264.3-1.1 58.8 79.1-54.6 0.9-46.4-64.6-44.3 62.8h-237z"/>
			</g>
			<g id="&lt;Group&gt;">
				<path id="&lt;Path&gt;" class="s2" d="m1105.3 635.2l44.4-62.8 46.8 63.7h27.1v220.5h-236.7v-220.5z"/>
			</g>
			<g id="&lt;Group&gt;">
				<path id="&lt;Path&gt;" class="s1" d="m1075.7 856.6h-55.3v-95.6h55.3z"/>
			</g>
			<g id="&lt;Group&gt;">
				<path id="&lt;Path&gt;" class="s1" d="m1196.1 812.3h-87.2v-54h87.2z"/>
			</g>
			<g id="&lt;Group&gt;">
				<path id="&lt;Path&gt;" class="s0" d="m1135.1 812.8h-2v-54.5h2z"/>
			</g>
			<g id="&lt;Group&gt;">
				<path id="&lt;Path&gt;" class="s0" d="m1171.4 812.8h-2v-54.5h2z"/>
			</g>
			<g id="&lt;Group&gt;">
				<path id="&lt;Path&gt;" class="s0" d="m1170.4 788.2h-36.3v-2h36.3z"/>
			</g>
			<g id="&lt;Group&gt;">
				<path id="&lt;Path&gt;" class="s1" d="m1196.1 704.2h-87.2v-54h87.2z"/>
			</g>
			<g id="&lt;Group&gt;">
				<path id="&lt;Path&gt;" class="s0" d="m1135.1 704.7h-2v-54.5h2z"/>
			</g>
			<g id="&lt;Group&gt;">
				<path id="&lt;Path&gt;" class="s0" d="m1171.4 704.7h-2v-54.5h2z"/>
			</g>
			<g id="&lt;Group&gt;">
				<path id="&lt;Path&gt;" class="s0" d="m1170.4 680.1h-36.3v-2h36.3z"/>
			</g>
			<g id="&lt;Group&gt;">
				<path id="&lt;Path&gt;" class="s1" d="m1070 702.8h-55v-52.1h55z"/>
			</g>
			<g id="&lt;Group&gt;">
				<path id="&lt;Path&gt;" class="s1" d="m986.9 856.6h-96v-220.5h96z"/>
			</g>
			<g id="&lt;Group&gt;">
				<path id="&lt;Path&gt;" class="s0" d="m1043.5 702.8h-2v-52.1h2z"/>
			</g>
			<g id="&lt;Group&gt;">
				<path id="&lt;Path&gt;" class="s0" d="m1070 679h-55v-2h55z"/>
			</g>
			<g id="&lt;Group&gt;">
				<path id="&lt;Path&gt;" class="s1" d="m1161.2 614.4c0 6.5-5.2 11.7-11.6 11.7-6.5 0-11.7-5.2-11.7-11.7 0-6.4 5.2-11.6 11.7-11.6 6.4 0 11.6 5.2 11.6 11.6z"/>
			</g>
			<g id="&lt;Group&gt;">
				<path id="&lt;Path&gt;" class="s2" d="m1050.3 600.5v-62.2h30.8v43.7l-14.7 18.1z"/>
			</g>
			<g id="&lt;Group&gt;">
				<path id="&lt;Path&gt;" class="s0" d="m1066.4 600.1v-61.8h14.7v43.7z"/>
			</g>
			<g id="&lt;Group&gt;">
				<path id="&lt;Path&gt;" class="s0" d="m1083.2 538.3h-36.3v-6.4h36.3z"/>
			</g>
			<g id="&lt;Group&gt;">
				<path id="&lt;Path&gt;" class="s2" d="m986.9 856.6h-178.7v-124h178.7z"/>
			</g>
			<g id="&lt;Group&gt;">
				<path id="&lt;Path&gt;" class="s1" d="m920.1 856.6h-111.9v-124h111.9z"/>
			</g>
			<g id="&lt;Group&gt;">
				<path id="&lt;Path&gt;" class="s2" d="m903.5 856.3h-73.2v-83.8h73.2z"/>
			</g>
			<g id="&lt;Group&gt;">
				<path id="&lt;Path&gt;" class="s0" d="m977.1 784.2h-47.1v-12h47.1z"/>
			</g>
			<g id="&lt;Group&gt;">
				<path id="&lt;Path&gt;" class="s0" d="m1105.3 635.2v6.4h-236.9v-6.4z"/>
			</g>
			<g id="&lt;Group&gt;">
				<path id="&lt;Path&gt;" class="s0" d="m1105.4 635.2l44.3-62.8-0.1 7-44.3 62.2z"/>
			</g>
			<g id="&lt;Group&gt;">
				<path id="&lt;Path&gt;" class="s0" d="m1249.5 636.1v4.2h-53v-4.2z"/>
			</g>
			<g id="&lt;Group&gt;">
				<path id="&lt;Path&gt;" class="s1" d="m1056.9 753.8h-19.6v-7.4h19.6z"/>
			</g>
		</g>
	</g>
	<g id="Floor">
		<g id="&lt;Group&gt;">
			<g id="&lt;Group&gt;">
				<path id="&lt;Path&gt;" class="s3" d="m1350.3 856.6c0 0.2-268.8 0.5-600.3 0.5-331.6 0-600.3-0.3-600.3-0.5 0-0.3 268.7-0.6 600.3-0.6 331.5 0 600.3 0.3 600.3 0.6z"/>
			</g>
		</g>
	</g>
	<g id="Character">
		<g id="&lt;Group&gt;">
			<g id="&lt;Group&gt;">
				<path id="&lt;Compound Path&gt;" fill-rule="evenodd" class="s4" d="m896.4 510.5c-27.8 54.7-120.8 225-157.7 276.3h-28.8c0 0-132.2-167.6-174.7-229-13.2-19.1-23.2-38.9-30.8-57.2-21.8-52.9-25.7-111.9-7.8-166.2 48.8-147.3 213.3-147.3 213.3-147.3 67.3 0 131.7 28.4 176 89.3 50.8 70 45.5 165.6 10.5 234.1zm-18.4-102.1c0-77.7-63-140.6-140.6-140.6-77.6 0-140.6 62.9-140.6 140.6 0 77.6 63 140.6 140.6 140.6 77.6 0 140.6-63 140.6-140.6z"/>
				<path id="&lt;Compound Path&gt;" fill-rule="evenodd" class="s5" d="m896.4 510.5c-27.8 54.7-120.8 225-157.7 276.3h-28.8c0 0-132.2-167.6-174.7-229-13.2-19.1-23.2-38.9-30.8-57.2-21.8-52.9-25.7-111.9-7.8-166.2 48.8-147.3 213.3-147.3 213.3-147.3 67.3 0 131.7 28.4 176 89.3 50.8 70 45.5 165.6 10.5 234.1zm-18.4-102.1c0-77.7-63-140.6-140.6-140.6-77.6 0-140.6 62.9-140.6 140.6 0 77.6 63 140.6 140.6 140.6 77.6 0 140.6-63 140.6-140.6z"/>
				<path id="&lt;Compound Path&gt;" fill-rule="evenodd" class="s4" d="m925.3 511.7c-33.6 66-186.4 276.2-186.4 276.2 0 0-132.3-167.6-174.8-229-13.2-19-23.2-38.9-30.7-57.2-21.8-52.8-25.8-111.8-7.8-166.1 48.7-147.3 213.3-147.3 213.3-147.3 67.2 0 131.6 28.4 175.9 89.3 50.9 70 45.5 165.5 10.5 234.1zm-47.1-102.2c0-77.6-63-140.5-140.6-140.5-77.7 0-140.3 62.9-140.6 140.5-0.3 78.5 62.6 140.8 140.6 140.6 77.4-0.1 140.5-62.7 140.6-140.6z"/>
			</g>
			<path id="&lt;Path&gt;" class="s4" d="m880 408.4c0 77.6-63 140.6-140.6 140.6-49.4 0-92.7-25.5-117.8-63.9 22 28.2 56.4 46.4 95 46.4 66.5 0 120.5-53.9 120.5-120.4 0-66.5-54-120.5-120.5-120.5-48.8 0-90.8 29.1-109.7 70.8 19.3-54.5 71.3-93.6 132.5-93.6 77.6 0 140.6 62.9 140.6 140.6z"/>
			<path id="&lt;Path&gt;" class="s5" d="m878 408.4c0 77.6-63 140.6-140.6 140.6-49.4 0-92.7-25.5-117.8-63.9 22 28.2 56.4 46.4 95 46.4 66.5 0 120.5-53.9 120.5-120.4 0-66.5-54-120.5-120.5-120.5-48.8 0-90.8 29.1-109.7 70.8 19.3-54.5 71.3-93.6 132.5-93.6 77.6 0 140.6 62.9 140.6 140.6z"/>
		</g>
		<g id="&lt;Group&gt;">
			<path id="&lt;Path&gt;" class="s6" d="m1045 494.8c-2 2.9-2.6 5.6-5.9 5.4-3.2-0.2-20.2-10.3-20.2-10.3 0 0-2.6 9.8-5.6 12.5-1.5 1.4-12.2 2.3-22 2.9v0.1l-95 13.9c-17.4 2.6-34.6-6-42.9-21.5-21-38.8-25.9-46.6-25.9-46.6l37.4-24.7 24.7 50.1 80.6-5v-0.5c0 0 16.7-1.7 28.2-3 6.8-0.8 13.7 0.9 19.3 4.8 11.3 7.6 28.7 19.9 27.3 21.9z"/>
			<g id="&lt;Group&gt;">
				<g id="&lt;Group&gt;">
					<g id="&lt;Group&gt;">
						<path id="&lt;Path&gt;" class="s7" d="m820.1 456l-6.3-16.2c1 4.4 1.6 10.4-0.1 17.5-4.3 17.9-17.5 20.5-19.3 20.8l8.6-74.7-109.3-8.7-19.4 118.5-28.6 3.4q0 0-0.1 0l13.3-58.8 7.5-42.1-16.2 16.6-7-6.3-35.7-32.1-7.7-6.9 36.1-40.3c43.9-52.9 91-31.5 91-31.5l56.4 7.4c0 0 38.9 7 56.5 41.9 14.4 28.5 30.1 58.7 30.1 58.7z"/>
					</g>
					<g id="&lt;Group&gt;">
						<path id="&lt;Path&gt;" class="s3" d="m803 403.3l-8.6 74.7-7.3 63.5c-15.4 5.9-32.2 9.1-49.7 9.1-35.1 0-67.1-12.8-91.7-34.1l28.6-3.4 19.4-118.5z"/>
					</g>
				</g>
				<g id="&lt;Group&gt;">
					<path id="&lt;Path&gt;" class="s3" d="m718.5 310.8l-2.4 97.6-18.3-2.9 2.4-96.2c11.9-1.5 18.3 1.5 18.3 1.5z"/>
				</g>
				<g id="&lt;Group&gt;">
					<path id="&lt;Path&gt;" class="s3" d="m777.3 406l15-82.6c0.9-1 13.2 3.5 16.9 7.7l-13.4 76.7z"/>
				</g>
				<g id="&lt;Group&gt;">
					<g id="&lt;Group&gt;">
						<path id="&lt;Path&gt;" class="s7" d="m716.7 394.2c0.1 0 0.2 0.6 0.3 1.7 0.1 1.1 0.2 2.6 0 4.5-0.1 2-0.6 4.4-2.2 6.5-0.8 1.1-1.9 2.1-3.2 2.7-1.3 0.6-2.9 0.8-4.5 0.5-3-0.6-5.4-2.6-6.8-4.8-1.4-2.3-1.8-4.6-2-6.6-0.2-1.9-0.1-3.5 0-4.5 0.1-1.1 0.2-1.7 0.3-1.7 0.2 0-0.1 2.4 0.4 6.2 0.3 1.8 0.8 4 2.1 6.1 1.3 2 3.5 3.8 6.2 4.3 2.7 0.6 5.3-0.8 6.7-2.8 1.5-1.9 2.1-4.1 2.3-5.9 0.4-3.8 0.2-6.2 0.4-6.2z"/>
					</g>
				</g>
				<g id="&lt;Group&gt;">
					<path id="&lt;Path&gt;" class="s7" d="m705.9 402.7c-2.1-0.8-3.2-3.2-2.3-5.4 0.8-2.1 3.3-3.1 5.4-2.3 2.1 0.9 3.2 3.3 2.3 5.4-0.8 2.1-3.2 3.2-5.4 2.3z"/>
				</g>
				<g id="&lt;Group&gt;">
					<path id="&lt;Path&gt;" class="s7" d="m791.4 403.3c0 2.3-1.8 4.1-4.1 4.1-2.3 0-4.2-1.8-4.2-4.1 0-2.3 1.9-4.2 4.2-4.2 2.3 0 4.1 1.9 4.1 4.2z"/>
				</g>
				<g id="&lt;Group&gt;">
					<g id="&lt;Group&gt;">
						<path id="&lt;Path&gt;" class="s7" d="m797 400.4c0.1 0 0 1.9-0.9 4.8-0.5 1.5-1.3 3.3-2.8 4.8-1.4 1.5-3.9 2.6-6.3 2.3-2.5-0.3-4.6-1.5-6-3.1-1.4-1.6-2.1-3.4-2.4-5-0.3-1.5-0.2-2.8-0.1-3.6 0.2-0.9 0.3-1.3 0.4-1.3 0.2 0-0.2 1.9 0.5 4.8 0.3 1.4 1 3 2.3 4.5 1.3 1.4 3.2 2.4 5.4 2.7 2.2 0.2 4.2-0.7 5.5-2 1.4-1.3 2.2-2.9 2.8-4.3 1-2.8 1.4-4.7 1.6-4.6z"/>
					</g>
				</g>
				<g id="&lt;Group&gt;">
					<g id="&lt;Group&gt;">
						<g id="&lt;Group&gt;">
							<path id="&lt;Path&gt;" class="s7" d="m705.7 439.9c-0.2 0-0.2-0.8-0.2-2.1q0-0.9 0.1-2.2 0.1-0.6 0.1-1.3l0.1-0.6v-0.4-0.2-0.1c-0.5 0.4 0.7-0.7 0.6-0.6 3.9 0.4 6.9 1 6.9 1.3 0 0.3-3.2 0.2-7-0.2-0.1 0.1 1.1-1 0.6-0.5v0.1l-0.1 0.2v0.4l-0.1 0.7q-0.1 0.6-0.1 1.3-0.2 1.2-0.4 2.2c-0.2 1.3-0.4 2-0.5 2z"/>
						</g>
					</g>
					<g id="&lt;Group&gt;">
						<g id="&lt;Group&gt;">
							<path id="&lt;Path&gt;" class="s7" d="m702.7 467.5c-0.2-0.1-0.1-3.2 0.3-7 0.4-3.8 0.9-6.8 1.2-6.8 0.3 0 0.2 3.1-0.2 6.9-0.4 3.8-1 6.9-1.3 6.9z"/>
						</g>
					</g>
					<g id="&lt;Group&gt;">
						<g id="&lt;Group&gt;">
							<path id="&lt;Path&gt;" class="s7" d="m706.8 491.3c-0.1 0.3-3-0.9-6.5-2.6 0.1 0.1-0.5-1-0.3-0.5v-0.1-0.1-0.2l0.1-0.3 0.1-0.7q0.1-0.7 0.1-1.3 0.2-1.3 0.4-2.2c0.2-1.3 0.4-2.1 0.6-2 0.1 0 0.2 0.8 0.1 2q0 1-0.1 2.3-0.1 0.6-0.1 1.3l-0.1 0.7v0.3 0.2 0.1h-0.1v0.1c0.3 0.4-0.3-0.7-0.2-0.5 3.4 1.7 6.1 3.3 6 3.5z"/>
						</g>
					</g>
					<g id="&lt;Group&gt;">
						<g id="&lt;Group&gt;">
							<path id="&lt;Path&gt;" class="s7" d="m725.3 500.5c-0.2 0.3-2.3-0.5-4.9-1.8-2.5-1.3-4.5-2.5-4.4-2.8 0.2-0.2 2.3 0.6 4.9 1.9 2.5 1.2 4.5 2.5 4.4 2.7z"/>
						</g>
					</g>
					<g id="&lt;Group&gt;">
						<g id="&lt;Group&gt;">
							<path id="&lt;Path&gt;" class="s7" d="m747.3 505.6c0.1 0.3-2.7 1.6-6.3 3.1-0.9 0-0.3 0-0.4 0h-0.1v-0.1h-0.1l-0.2-0.1-0.3-0.1-0.6-0.4q-0.6-0.3-1.2-0.6-1.1-0.6-1.9-1.1c-1.1-0.6-1.7-1.1-1.7-1.2 0.1-0.1 0.8 0.1 2 0.6q0.9 0.3 2.1 0.9 0.6 0.3 1.1 0.5l0.7 0.3 0.3 0.2 0.2 0.1h0.1c-0.2 0 0.4 0.1-0.4 0 3.6-1.4 6.6-2.4 6.7-2.1z"/>
						</g>
					</g>
					<g id="&lt;Group&gt;">
						<g id="&lt;Group&gt;">
							<path id="&lt;Path&gt;" class="s7" d="m762.2 499.5c0.1 0.3-1.5 1.2-3.5 2-2.1 0.9-3.8 1.3-4 1.1-0.1-0.3 1.5-1.2 3.6-2 2-0.9 3.8-1.3 3.9-1.1z"/>
						</g>
					</g>
					<g id="&lt;Group&gt;">
						<g id="&lt;Group&gt;">
							<path id="&lt;Path&gt;" class="s7" d="m776.9 486.9c0.3 0 0.2 3.2-0.2 7-0.7 0.9-0.2 0.3-0.3 0.5h-0.1-0.1l-0.2 0.1-0.3 0.1-0.6 0.3q-0.6 0.2-1.3 0.4-1.2 0.5-2.1 0.8c-1.2 0.4-2 0.5-2 0.4-0.1-0.1 0.6-0.6 1.7-1.1q0.9-0.4 2.1-1 0.6-0.2 1.2-0.5l0.6-0.2 0.3-0.2h0.2l0.1-0.1h0.1c-0.2 0.2 0.3-0.4-0.3 0.4 0.4-3.8 0.9-6.9 1.2-6.9z"/>
						</g>
					</g>
					<g id="&lt;Group&gt;">
						<g id="&lt;Group&gt;">
							<path id="&lt;Path&gt;" class="s7" d="m779.6 461c0.3 0 0.2 2.9-0.2 6.5-0.4 3.6-0.9 6.5-1.2 6.4-0.3 0-0.2-2.9 0.2-6.5 0.3-3.6 0.9-6.4 1.2-6.4z"/>
						</g>
					</g>
					<g id="&lt;Group&gt;">
						<g id="&lt;Group&gt;">
							<path id="&lt;Path&gt;" class="s7" d="m774.7 440.3c0-0.3 3.1-0.2 7 0.3 0.9 1.1 0.2 0.3 0.4 0.5v0.1 0.1 0.2 0.3l-0.1 0.7q-0.1 0.7-0.2 1.3-0.2 1.3-0.3 2.2c-0.2 1.3-0.5 2-0.6 2-0.1 0-0.2-0.8-0.2-2q0.1-1 0.2-2.3 0-0.6 0.1-1.3v-0.7l0.1-0.3v-0.2-0.1-0.1c0.2 0.3-0.5-0.6 0.5 0.6-3.9-0.4-7-1-6.9-1.3z"/>
						</g>
					</g>
					<g id="&lt;Group&gt;">
						<g id="&lt;Group&gt;">
							<path id="&lt;Path&gt;" class="s7" d="m750.1 437.7c0.1-0.3 2.8-0.3 6.2 0.1 3.4 0.4 6.1 0.9 6.1 1.2 0 0.3-2.8 0.2-6.2-0.1-3.4-0.4-6.1-0.9-6.1-1.2z"/>
						</g>
					</g>
					<g id="&lt;Group&gt;">
						<g id="&lt;Group&gt;">
							<path id="&lt;Path&gt;" class="s7" d="m725.6 435c0-0.3 2.8-0.2 6.2 0.2 3.4 0.3 6.1 0.9 6.1 1.1-0.1 0.3-2.8 0.3-6.2-0.1-3.4-0.4-6.1-0.9-6.1-1.2z"/>
						</g>
					</g>
				</g>
			</g>
			<path id="&lt;Path&gt;" class="s6" d="m606.6 393l35.6 32.1c-17.2 16.2-32.1 29.2-37.3 30.3q-0.3-0.8-0.6-1.6-2.1-6.6-3.8-13.4c-0.3-1.1-0.5-2.3-0.8-3.4q0-0.2 0-0.3c-1.9-9.2-2.9-18.6-2.9-28.3q0-3.7 0.2-7.3c1.6-0.5 4.6-3.1 9.6-8.1z"/>
			<g id="&lt;Group&gt;">
				<g id="&lt;Group&gt;">
					<path id="&lt;Path&gt;" class="s3" d="m822.2 193.4c1.3 13.8 17 25.5 30.9 25.1 7.6-0.3 15.4-3.7 22.7-1.6 12.3 3.6 17.3 20.8 29.9 23.1 9.5 1.7 18.2-5.9 27.8-6.4 7-0.4 13.6 3.1 19.5 7.1 5.8 3.9 11.4 8.5 18.1 10.8 6.6 2.2 12.8-1.8 19.5-3.8 1.7 4.2 2.8 9.5 4.9 14.1 2.2 4.5 4.7 12.6 0.9 14.4 0 0-10.6 5.5-16.7 5.2 4.8 5 12.6 7.1 19.3 5.2 1.7 10.3 3 22.2-3.9 29.9-3.1 3.4-7.5 5.5-12 6.7-22.3 5.8-45.6-9.8-68.2-5.6-9.3 1.8-17.8 6.8-27.2 8-9.2 1.2-18.8-1.5-26.1-7.4-8.9-7.2-15-19.3-26.4-21.2-5-0.8-10.1 0.7-15 2-4.9 1.4-10 2.7-15 1.7-5-1.1-9.7-5.3-9.4-10.4"/>
				</g>
				<g id="&lt;Group&gt;">
					<g id="&lt;Group&gt;">
						<g id="&lt;Group&gt;">
							<g id="&lt;Group&gt;">
								<path id="&lt;Path&gt;" class="s6" d="m747.8 347.7c-14.1-2.2-23.8-14.5-21.6-27.7l18.4-113.5c22.1-17.4 53.9-19.1 77.9-4 0 0-5.4 52.3-12.9 74-7.8 22.8-26.3 22.6-26.3 22.6 0 0-2.9 14.6-5.4 28.5-2.4 13.3-15.8 22.3-30.1 20.1z"/>
							</g>
						</g>
						<g id="&lt;Group&gt;">
							<g id="&lt;Group&gt;">
								<g id="&lt;Group&gt;">
									<path id="&lt;Path&gt;" class="s3" d="m808.8 241.7c-0.2 1.6-1.8 2.7-3.4 2.5-1.7-0.2-2.9-1.7-2.7-3.3 0.3-1.6 1.8-2.7 3.5-2.5 1.6 0.2 2.8 1.7 2.6 3.3z"/>
								</g>
							</g>
							<g id="&lt;Group&gt;">
								<g id="&lt;Group&gt;">
									<g id="&lt;Group&gt;">
										<path id="&lt;Path&gt;" class="s3" d="m814.2 239.2c-0.4 0.3-2.4-1.8-5.6-2.4-3.2-0.6-5.9 0.7-6.2 0.2-0.1-0.2 0.4-0.8 1.5-1.4 1.2-0.6 3.1-1 5.1-0.6 2 0.3 3.5 1.4 4.4 2.3 0.8 0.9 1.1 1.7 0.8 1.9z"/>
									</g>
								</g>
							</g>
						</g>
						<g id="&lt;Group&gt;">
							<g id="&lt;Group&gt;">
								<g id="&lt;Group&gt;">
									<path id="&lt;Path&gt;" class="s3" d="m775.6 236.4c-0.2 1.6-1.8 2.7-3.5 2.5-1.6-0.2-2.8-1.6-2.6-3.2 0.2-1.6 1.8-2.8 3.5-2.6 1.6 0.2 2.8 1.7 2.6 3.3z"/>
								</g>
							</g>
							<g id="&lt;Group&gt;">
								<g id="&lt;Group&gt;">
									<g id="&lt;Group&gt;">
										<path id="&lt;Path&gt;" class="s3" d="m780.3 234.4c-0.4 0.3-2.4-1.8-5.7-2.3-3.2-0.6-5.8 0.6-6.1 0.1-0.2-0.2 0.3-0.8 1.5-1.4 1.1-0.5 3-1 5-0.6 2 0.4 3.6 1.4 4.4 2.3 0.9 1 1.1 1.7 0.9 1.9z"/>
									</g>
								</g>
							</g>
						</g>
						<g id="&lt;Group&gt;">
							<g id="&lt;Group&gt;">
								<g id="&lt;Group&gt;">
									<path id="&lt;Path&gt;" class="s3" d="m787.8 260.4c0-0.2 2.1-0.1 5.4 0 0.9 0.1 1.7 0 1.9-0.5 0.3-0.6 0.1-1.5-0.1-2.5q-0.6-3.2-1.3-6.8c-1.9-9.5-3-17.3-2.6-17.4 0.4 0 2.1 7.6 4 17.2q0.6 3.5 1.2 6.7c0.1 1 0.5 2.2-0.2 3.3-0.3 0.6-1 1-1.5 1-0.6 0.1-1.1 0-1.5 0-3.3-0.4-5.3-0.8-5.3-1z"/>
								</g>
							</g>
						</g>
						<g id="&lt;Group&gt;">
							<g id="&lt;Group&gt;">
								<path id="&lt;Path&gt;" class="s8" d="m782 304.6c-23.8-2-28.6-19.4-28.6-19.4 14 12.1 29.9 13.9 29.9 13.9z"/>
							</g>
						</g>
						<g id="&lt;Group&gt;">
							<g id="&lt;Group&gt;">
								<path id="&lt;Path&gt;" class="s8" d="m785.2 268.1c0.2 0.4 0.1 0.9-0.2 1.2-0.3 0.4-0.7 0.6-1.1 0.8-1.5 0.8-3 1.6-4.6 1.8-1.6 0.1-3.4-0.5-4-1.9-0.6-1.2-0.1-2.8 0.9-3.8 1.1-1 2.6-1.4 4-1.3 2.1 0.1 4 1.3 4.9 3.1"/>
							</g>
						</g>
						<g id="&lt;Group&gt;">
							<g id="&lt;Group&gt;">
								<g id="&lt;Group&gt;">
									<path id="&lt;Path&gt;" class="s3" d="m777.9 261c0.5 0.1-0.1 3.6 2.5 6.6 2.5 3 6.4 3.3 6.3 3.8 0 0.2-1 0.5-2.5 0.3-1.6-0.2-3.8-1.1-5.3-3-1.6-1.8-2-4-1.9-5.5 0.1-1.5 0.7-2.3 0.9-2.2z"/>
								</g>
							</g>
						</g>
					</g>
					<g id="&lt;Group&gt;">
						<g id="&lt;Group&gt;">
							<path id="&lt;Path&gt;" class="s3" d="m760.4 189.3c2.1-5.9 8.6-9.9 15.5-11.2 7-1.3 14.3-0.4 21.4 1.1 8.3 1.8 17.1 4.7 22.4 10.7 4.2 4.7 5.8 10.8 5.6 16.7-0.2 5.8-1.6 15.7-3.3 21.3-0.4 1.3-1 2.8-2.4 3.3-1.1 0.4-2.3 0.2-3.5-0.1-9.6-2.3-18.8-11.6-25.1-18.5 1.4 2.9 10.2 10.9 11.7 13.7-15.7-5.9-36-22.7-42.2-36.6"/>
						</g>
					</g>
					<g id="&lt;Group&gt;">
						<g id="&lt;Group&gt;">
							<path id="&lt;Path&gt;" class="s3" d="m723.1 241.8c-0.1-6.3 0.1-12.2 0.6-16.1 1.6-12.2 5.4-56.5 46.3-45.1l-4.4 11.3c0 0 3.2 28.6-17.8 43.9 0 0 0.1 28.5-14.5 38.7 0 0-10.1-19.3-10.2-32.7z"/>
						</g>
					</g>
					<g id="&lt;Group&gt;">
						<g id="&lt;Group&gt;">
							<path id="&lt;Path&gt;" class="s6" d="m745.8 255.5c-1.6 0.9-3.7 0.8-5.4-0.1-1.6-0.9-2.9-2.3-4-3.8-1.5-2.1-2.7-4.5-3.2-7.1-0.4-2.5 0-5.3 1.4-7.5 1.5-2.1 3.9-3.5 6.4-4 2.6-0.5 5.2-0.1 7.7 0.9"/>
						</g>
					</g>
					<g id="&lt;Group&gt;">
						<g id="&lt;Group&gt;">
							<g id="&lt;Group&gt;">
								<path id="&lt;Path&gt;" class="s8" d="m744.6 248.8c0.3 0.1-1.1 1.5-3.3 0.4-1-0.4-1.9-1.6-2.4-2.9-0.4-1.4-0.6-2.8-0.5-4.4 0.1-1.6 0.8-3.2 1.9-4.2 1-1.1 2.5-1.6 3.6-1.4 2.4 0.4 2.8 2.1 2.5 2.1-0.2 0.2-1-0.8-2.6-0.7-1.5 0-3.3 1.8-3.4 4.4-0.2 2.6 0.4 5.1 1.6 6 1.3 0.9 2.5 0.5 2.6 0.7z"/>
							</g>
						</g>
					</g>
				</g>
				<g id="&lt;Group&gt;">
					<g id="&lt;Group&gt;">
						<path id="&lt;Path&gt;" class="s3" d="m985.6 235.8c0 0-0.2 0.6-1.1 1.6-0.9 1-2.4 2.2-4.9 2.8-2.3 0.7-5.5 0.7-8.8-0.6-3.3-1.2-6.6-3.6-10-6.3-3.5-2.6-7.3-5.7-12.2-6.7-2.5-0.5-5.1-0.4-7.7 0.3-2.6 0.7-5.1 1.9-7.7 3.1-2.6 1.3-5.2 2.8-7.9 4-2.8 1.3-5.8 2.3-9.1 2.4-3.2 0.2-6.5-0.8-9.3-2.7-2.8-1.9-5-4.4-7-7.1-4-5.3-7.2-11.1-12.1-14.9-2.4-1.9-5.3-3-8.2-3.4-2.9-0.4-5.8-0.1-8.7 0.4-5.6 1-10.8 2.8-16 3.4-5.1 0.6-10 0.1-14.2-1.2-8.5-2.6-14.1-7.5-17.3-11.1-3.1-3.8-4.1-6.4-4.1-6.4q0 0 0.3 0.4 0.3 0.5 0.7 1.3c0.7 1 1.8 2.6 3.4 4.4 3.2 3.5 8.8 8.3 17.2 10.7 4.1 1.2 8.9 1.7 13.9 1.1 5.1-0.7 10.3-2.5 16-3.6 2.8-0.5 5.9-0.8 8.9-0.4 3.1 0.4 6.2 1.6 8.7 3.6 5.1 4 8.4 9.8 12.3 15.1 2 2.6 4.2 5.1 6.8 6.9 2.6 1.7 5.7 2.6 8.7 2.5 3-0.1 5.9-1.1 8.7-2.3 2.7-1.2 5.3-2.6 7.9-3.9 2.6-1.3 5.2-2.5 7.9-3.2 2.6-0.7 5.5-0.8 8-0.3 5.2 1.2 9.1 4.4 12.5 7 3.4 2.7 6.6 5.1 9.8 6.4 3.1 1.3 6.2 1.3 8.5 0.7 2.4-0.5 4-1.6 4.9-2.5 0.8-0.9 1.2-1.5 1.2-1.5z"/>
					</g>
				</g>
			</g>
		</g>
	</g>
	<g id="Plant">
		<g id="&lt;Group&gt;">
			<g id="&lt;Group&gt;">
				<g id="&lt;Group&gt;">
					<path id="&lt;Path&gt;" class="s7" d="m565.6 705.4l-10.9 0.6 29.7 58.2-14.9 0.6 31 51.7h-140.8l25.2-51.7h-16.1l30.7-58.1-10.8-0.4 36.3-73.2z"/>
				</g>
				<g id="&lt;Group&gt;">
					<g id="&lt;Group&gt;">
						<path id="&lt;Path&gt;" class="s3" d="m531.1 718c0.3 0 0.1 31-0.5 69.2-0.6 38.2-1.3 69.2-1.5 69.2-0.3 0-0.1-31 0.5-69.2 0.5-38.3 1.2-69.2 1.5-69.2z"/>
					</g>
				</g>
			</g>
			<g id="&lt;Group&gt;">
				<g id="&lt;Group&gt;">
					<path id="&lt;Path&gt;" class="s3" d="m548.3 736.8c0.1 0.1-0.6 1.3-2.1 3.2-1.5 1.9-3.8 4.3-6.4 6.8-2.5 2.6-4.8 4.9-6.5 6.7-1.6 1.7-2.6 2.8-2.7 2.7-0.1-0.1 0.7-1.4 2.2-3.2 1.5-1.9 3.7-4.3 6.3-6.9 2.6-2.6 4.9-4.9 6.5-6.6 1.6-1.7 2.6-2.8 2.7-2.7z"/>
				</g>
			</g>
			<g id="&lt;Group&gt;">
				<g id="&lt;Group&gt;">
					<path id="&lt;Path&gt;" class="s3" d="m530.7 756.9c-0.1 0.3-3.7-2.3-8-5.6-4.3-3.3-7.6-6.2-7.5-6.4 0.2-0.3 3.8 2.3 8.1 5.6 4.3 3.3 7.6 6.2 7.4 6.4z"/>
				</g>
			</g>
			<g id="&lt;Group&gt;">
				<g id="&lt;Group&gt;">
					<path id="&lt;Path&gt;" class="s3" d="m529.8 792.8c-0.2 0.3-4.1-3.1-9-7.1-5-4.1-9.1-7.2-8.9-7.4 0.2-0.3 4.6 2.5 9.5 6.5 5 4.1 8.6 7.8 8.4 8z"/>
				</g>
			</g>
			<g id="&lt;Group&gt;">
				<g id="&lt;Group&gt;">
					<path id="&lt;Path&gt;" class="s3" d="m549.8 770.6c0.3 0.2-3.8 5.6-9.6 11.5q-4.1 4.2-7.3 7.6c-1.9 2-3 3.2-3.1 3.1-0.3-0.2 3.8-5.5 9.6-11.4q4.1-4.3 7.3-7.6c1.9-2 3-3.2 3.1-3.2z"/>
				</g>
			</g>
		</g>
	</g>
</svg>