<svg width="1500" height="1000" viewBox="0 0 1500 1000" fill="none" xmlns="http://www.w3.org/2000/svg">
	<path d="M693.8 856C692.3 838.4 701 820.3 715.7 810.5C730.4 800.7 750.5 799.7 766.1 807.9C769.9 797.7 773.8 787.4 780.5 778.9C787.2 770.4 797.4 763.9 808.2 764.3V856H693.8Z" fill="#EBEBEB"/>
	<path d="M458.2 617.6L440.5 618.6L488.4 712.3L464.4 713.3L514.4 796.6H287.5L328.1 713.3H302.1L351.6 619.6L334.2 619L392.6 501.1L458.2 617.6Z" fill="#EBEBEB"/>
	<path d="M402.5 637.8C402.8 637.9 402.3 687.8 401.4 749.4C400.5 811 399.5 860.9 399.2 860.9C399 860.9 399.5 810.9 400.4 749.3C401.3 687.8 402.2 637.8 402.5 637.8Z" fill="#E0E0E0"/>
	<path d="M430.3 665.3C430.4 665.4 429 667.5 426.5 670.8C424 674.1 420.5 678.5 416.5 683.3C412.7 688 409.1 692.3 406.3 695.7C403.7 698.8 402.1 700.7 402 700.7C401.9 700.6 403.3 698.5 405.8 695.2C408.2 691.9 411.8 687.5 415.7 682.7C419.6 678 423.1 673.7 425.9 670.3C428.6 667.2 430.2 665.2 430.3 665.3Z" fill="#E0E0E0"/>
	<path d="M402 700.7C401.8 700.9 396.1 696.7 389.2 691.3C382.3 686 376.8 681.4 377 681.2C377.2 681 382.9 685.1 389.8 690.5C396.7 695.9 402.1 700.4 402 700.7Z" fill="#E0E0E0"/>
	<path d="M400.4 758.5C400.3 758.6 398.7 757.3 396.1 755.1C393.6 752.9 390 749.9 386.1 746.7C382.1 743.4 378.4 740.6 375.8 738.5C373.1 736.4 371.5 735.1 371.6 735C371.7 734.9 373.5 736 376.2 737.9C379 739.8 382.7 742.6 386.7 745.9C390.7 749.1 394.2 752.2 396.6 754.5C399.1 756.9 400.5 758.4 400.4 758.5Z" fill="#E0E0E0"/>
	<path d="M432.7 722.7C432.8 722.8 432.4 723.3 431.7 724.3C431 725.3 429.9 726.7 428.5 728.4C425.6 731.7 421.6 736.2 416.9 741C412.3 745.8 408.2 750.1 405.2 753.3C402.3 756.5 400.5 758.6 400.4 758.5C400.4 758.4 400.7 757.9 401.5 756.9C402.2 755.9 403.3 754.5 404.7 752.9C407.5 749.5 411.6 745.1 416.2 740.3C420.8 735.4 425 731.1 427.9 727.9C430.8 724.7 432.6 722.6 432.7 722.7Z" fill="#E0E0E0"/>
	<path d="M927.6 558.1L1191.9 557L1250.7 636.1L1196.1 637L1149.7 572.4L1105.4 635.2H868.4L927.6 558.1Z" fill="#E0E0E0"/>
	<path d="M1105.3 635.2L1149.7 572.4L1196.5 636.1H1223.6V856.6H986.9V636.1L1105.3 635.2Z" fill="#F5F5F5"/>
	<path d="M1075.7 856.6H1020.4V761H1075.7V856.6Z" fill="#E0E0E0"/>
	<path d="M1196.1 812.3H1108.9V758.3H1196.1V812.3Z" fill="#E0E0E0"/>
	<path d="M1135.1 812.8H1133.1V758.3H1135.1V812.8Z" fill="#EBEBEB"/>
	<path d="M1171.4 812.8H1169.4V758.3H1171.4V812.8Z" fill="#EBEBEB"/>
	<path d="M1170.4 788.2H1134.1V786.2H1170.4V788.2Z" fill="#EBEBEB"/>
	<path d="M1196.1 704.2H1108.9V650.2H1196.1V704.2Z" fill="#E0E0E0"/>
	<path d="M1135.1 704.7H1133.1V650.2H1135.1V704.7Z" fill="#EBEBEB"/>
	<path d="M1171.4 704.7H1169.4V650.2H1171.4V704.7Z" fill="#EBEBEB"/>
	<path d="M1170.4 680.1H1134.1V678.1H1170.4V680.1Z" fill="#EBEBEB"/>
	<path d="M1070 702.8H1015V650.7H1070V702.8Z" fill="#E0E0E0"/>
	<path d="M986.9 856.6H890.9V636.1H986.9V856.6Z" fill="#E0E0E0"/>
	<path d="M1043.5 702.8H1041.5V650.7H1043.5V702.8Z" fill="#EBEBEB"/>
	<path d="M1070 679H1015V677H1070V679Z" fill="#EBEBEB"/>
	<path d="M1161.2 614.4C1161.2 620.9 1156 626.1 1149.6 626.1C1143.1 626.1 1137.9 620.9 1137.9 614.4C1137.9 608 1143.1 602.8 1149.6 602.8C1156 602.8 1161.2 608 1161.2 614.4Z" fill="#E0E0E0"/>
	<path d="M1050.3 600.5V538.3H1081.1V582L1066.4 600.1L1050.3 600.5Z" fill="#F5F5F5"/>
	<path d="M1066.4 600.1V538.3H1081.1V582L1066.4 600.1Z" fill="#EBEBEB"/>
	<path d="M1083.2 538.3H1046.9V531.9H1083.2V538.3Z" fill="#EBEBEB"/>
	<path d="M986.9 856.6H808.2V732.6H986.9V856.6Z" fill="#F5F5F5"/>
	<path d="M920.1 856.6H808.2V732.6H920.1V856.6Z" fill="#E0E0E0"/>
	<path d="M903.5 856.3H830.3V772.5H903.5V856.3Z" fill="#F5F5F5"/>
	<path d="M977.1 784.2H930V772.2H977.1V784.2Z" fill="#EBEBEB"/>
	<path d="M1105.3 635.2V641.6H868.4V635.2H1105.3Z" fill="#EBEBEB"/>
	<path d="M1105.4 635.2L1149.7 572.4L1149.6 579.4L1105.3 641.6L1105.4 635.2Z" fill="#EBEBEB"/>
	<path d="M1249.5 636.1V640.3H1196.5V636.1H1249.5Z" fill="#EBEBEB"/>
	<path d="M1056.9 753.8H1037.3V746.4H1056.9V753.8Z" fill="#E0E0E0"/>
	<path d="M1350.3 856.6C1350.3 856.8 1081.5 857.1 750 857.1C418.4 857.1 149.7 856.8 149.7 856.6C149.7 856.3 418.4 856 750 856C1081.5 856 1350.3 856.3 1350.3 856.6Z" fill="#263238"/>
	<path fill-rule="evenodd" clip-rule="evenodd" d="M896.4 510.5C868.6 565.2 775.6 735.5 738.7 786.8H709.9C709.9 786.8 577.7 619.2 535.2 557.8C522 538.7 512 518.9 504.4 500.6C482.6 447.7 478.7 388.7 496.6 334.4C545.4 187.1 709.9 187.1 709.9 187.1C777.2 187.1 841.6 215.5 885.9 276.4C936.7 346.4 931.4 442 896.4 510.5ZM878 408.4C878 330.7 815 267.8 737.4 267.8C659.8 267.8 596.8 330.7 596.8 408.4C596.8 486 659.8 549 737.4 549C815 549 878 486 878 408.4Z" fill="#76628B"/>
	<path opacity="0.4" fill-rule="evenodd" clip-rule="evenodd" d="M896.4 510.5C868.6 565.2 775.6 735.5 738.7 786.8H709.9C709.9 786.8 577.7 619.2 535.2 557.8C522 538.7 512 518.9 504.4 500.6C482.6 447.7 478.7 388.7 496.6 334.4C545.4 187.1 709.9 187.1 709.9 187.1C777.2 187.1 841.6 215.5 885.9 276.4C936.7 346.4 931.4 442 896.4 510.5ZM878 408.4C878 330.7 815 267.8 737.4 267.8C659.8 267.8 596.8 330.7 596.8 408.4C596.8 486 659.8 549 737.4 549C815 549 878 486 878 408.4Z" fill="black"/>
	<path fill-rule="evenodd" clip-rule="evenodd" d="M925.3 511.7C891.7 577.7 738.9 787.9 738.9 787.9C738.9 787.9 606.6 620.3 564.1 558.9C550.9 539.9 540.9 520 533.4 501.7C511.6 448.9 507.6 389.9 525.6 335.6C574.3 188.3 738.9 188.3 738.9 188.3C806.1 188.3 870.5 216.7 914.8 277.6C965.7 347.6 960.3 443.1 925.3 511.7ZM878.2 409.5C878.2 331.9 815.2 269 737.6 269C659.9 269 597.3 331.9 597 409.5C596.7 488 659.6 550.3 737.6 550.1C815 550 878.1 487.4 878.2 409.5Z" fill="#76628B"/>
	<path d="M880 408.4C880 486 817 549 739.4 549C690 549 646.7 523.5 621.6 485.1C643.6 513.3 678 531.5 716.6 531.5C783.1 531.5 837.1 477.6 837.1 411.1C837.1 344.6 783.1 290.6 716.6 290.6C667.8 290.6 625.8 319.7 606.9 361.4C626.2 306.9 678.2 267.8 739.4 267.8C817 267.8 880 330.7 880 408.4Z" fill="#76628B"/>
	<path opacity="0.4" d="M878 408.4C878 486 815 549 737.4 549C688 549 644.7 523.5 619.6 485.1C641.6 513.3 676 531.5 714.6 531.5C781.1 531.5 835.1 477.6 835.1 411.1C835.1 344.6 781.1 290.6 714.6 290.6C665.8 290.6 623.8 319.7 604.9 361.4C624.2 306.9 676.2 267.8 737.4 267.8C815 267.8 878 330.7 878 408.4Z" fill="black"/>
	<path d="M1045 494.8C1043 497.7 1042.4 500.4 1039.1 500.2C1035.9 500 1018.9 489.9 1018.9 489.9C1018.9 489.9 1016.3 499.7 1013.3 502.4C1011.8 503.8 1001.1 504.7 991.3 505.3V505.4L896.3 519.3C878.9 521.9 861.7 513.3 853.4 497.8C832.4 459 827.5 451.2 827.5 451.2L864.9 426.5L889.6 476.6L970.2 471.6V471.1C970.2 471.1 986.9 469.4 998.4 468.1C1005.2 467.3 1012.1 469 1017.7 472.9C1029 480.5 1046.4 492.8 1045 494.8Z" fill="#FFBE9D"/>
	<path d="M820.1 456L813.8 439.8C814.8 444.2 815.4 450.2 813.7 457.3C809.4 475.2 796.2 477.8 794.4 478.1L803 403.4L693.7 394.7L674.3 513.2L645.7 516.6C645.7 516.6 645.667 516.6 645.6 516.6L658.9 457.8L666.4 415.7L650.2 432.3L643.2 426L607.5 393.9L599.8 387L635.9 346.7C679.8 293.8 726.9 315.2 726.9 315.2L783.3 322.6C783.3 322.6 822.2 329.6 839.8 364.5C854.2 393 869.9 423.2 869.9 423.2L820.1 456Z" fill="#646889"/>
	<path d="M803 403.3L794.4 478L787.1 541.5C771.7 547.4 754.9 550.6 737.4 550.6C702.3 550.6 670.3 537.8 645.7 516.5L674.3 513.1L693.7 394.6L803 403.3Z" fill="#263238"/>
	<path d="M718.5 310.8L716.1 408.4L697.8 405.5L700.2 309.3C712.1 307.8 718.5 310.8 718.5 310.8Z" fill="#263238"/>
	<path d="M777.3 406L792.3 323.4C793.2 322.4 805.5 326.9 809.2 331.1L795.8 407.8L777.3 406Z" fill="#263238"/>
	<path d="M716.7 394.2C716.8 394.2 716.9 394.8 717 395.9C717.1 397 717.2 398.5 717 400.4C716.9 402.4 716.4 404.8 714.8 406.9C714 408 712.9 409 711.6 409.6C710.3 410.2 708.7 410.4 707.1 410.1C704.1 409.5 701.7 407.5 700.3 405.3C698.9 403 698.5 400.7 698.3 398.7C698.1 396.8 698.2 395.2 698.3 394.2C698.4 393.1 698.5 392.5 698.6 392.5C698.8 392.5 698.5 394.9 699 398.7C699.3 400.5 699.8 402.7 701.1 404.8C702.4 406.8 704.6 408.6 707.3 409.1C710 409.7 712.6 408.3 714 406.3C715.5 404.4 716.1 402.2 716.3 400.4C716.7 396.6 716.5 394.2 716.7 394.2Z" fill="#646889"/>
	<path d="M705.9 402.7C703.8 401.9 702.7 399.5 703.6 397.3C704.4 395.2 706.9 394.2 709 395C711.1 395.9 712.2 398.3 711.3 400.4C710.5 402.5 708.1 403.6 705.9 402.7Z" fill="#646889"/>
	<path d="M791.4 403.3C791.4 405.6 789.6 407.4 787.3 407.4C785 407.4 783.1 405.6 783.1 403.3C783.1 401 785 399.1 787.3 399.1C789.6 399.1 791.4 401 791.4 403.3Z" fill="#646889"/>
	<path d="M797 400.4C797.1 400.4 797 402.3 796.1 405.2C795.6 406.7 794.8 408.5 793.3 410C791.9 411.5 789.4 412.6 787 412.3C784.5 412 782.4 410.8 781 409.2C779.6 407.6 778.9 405.8 778.6 404.2C778.3 402.7 778.4 401.4 778.5 400.6C778.7 399.7 778.8 399.3 778.9 399.3C779.1 399.3 778.7 401.2 779.4 404.1C779.7 405.5 780.4 407.1 781.7 408.6C783 410 784.9 411 787.1 411.3C789.3 411.5 791.3 410.6 792.6 409.3C794 408 794.8 406.4 795.4 405C796.4 402.2 796.8 400.3 797 400.4Z" fill="#646889"/>
	<path d="M705.7 439.9C705.5 439.9 705.5 439.1 705.5 437.8C705.5 437.2 705.533 436.467 705.6 435.6C705.667 435.2 705.7 434.767 705.7 434.3L705.8 433.7V433.3V433.1V433C705.3 433.4 706.5 432.3 706.4 432.4C710.3 432.8 713.3 433.4 713.3 433.7C713.3 434 710.1 433.9 706.3 433.5C706.2 433.6 707.4 432.5 706.9 433V433.1L706.8 433.3V433.7L706.7 434.4C706.633 434.8 706.6 435.233 706.6 435.7C706.467 436.5 706.333 437.233 706.2 437.9C706 439.2 705.8 439.9 705.7 439.9Z" fill="#646889"/>
	<path d="M702.7 467.5C702.5 467.4 702.6 464.3 703 460.5C703.4 456.7 703.9 453.7 704.2 453.7C704.5 453.7 704.4 456.8 704 460.6C703.6 464.4 703 467.5 702.7 467.5Z" fill="#646889"/>
	<path d="M706.8 491.3C706.7 491.6 703.8 490.4 700.3 488.7C700.4 488.8 699.8 487.7 700 488.2V488.1V488V487.8L700.1 487.5L700.2 486.8C700.267 486.333 700.3 485.9 700.3 485.5C700.433 484.633 700.567 483.9 700.7 483.3C700.9 482 701.1 481.2 701.3 481.3C701.4 481.3 701.5 482.1 701.4 483.3C701.4 483.967 701.367 484.733 701.3 485.6C701.233 486 701.2 486.433 701.2 486.9L701.1 487.6V487.9V488.1V488.2H701V488.3C701.3 488.7 700.7 487.6 700.8 487.8C704.2 489.5 706.9 491.1 706.8 491.3Z" fill="#646889"/>
	<path d="M725.3 500.5C725.1 500.8 723 500 720.4 498.7C717.9 497.4 715.9 496.2 716 495.9C716.2 495.7 718.3 496.5 720.9 497.8C723.4 499 725.4 500.3 725.3 500.5Z" fill="#646889"/>
	<path d="M747.3 505.6C747.4 505.9 744.6 507.2 741 508.7C740.1 508.7 740.7 508.7 740.6 508.7H740.5V508.6H740.4L740.2 508.5L739.9 508.4L739.3 508C738.9 507.8 738.5 507.6 738.1 507.4C737.367 507 736.733 506.633 736.2 506.3C735.1 505.7 734.5 505.2 734.5 505.1C734.6 505 735.3 505.2 736.5 505.7C737.1 505.9 737.8 506.2 738.6 506.6C739 506.8 739.367 506.967 739.7 507.1L740.4 507.4L740.7 507.6L740.9 507.7H741C740.8 507.7 741.4 507.8 740.6 507.7C744.2 506.3 747.2 505.3 747.3 505.6Z" fill="#646889"/>
	<path d="M762.2 499.5C762.3 499.8 760.7 500.7 758.7 501.5C756.6 502.4 754.9 502.8 754.7 502.6C754.6 502.3 756.2 501.4 758.3 500.6C760.3 499.7 762.1 499.3 762.2 499.5Z" fill="#646889"/>
	<path d="M776.9 486.9C777.2 486.9 777.1 490.1 776.7 493.9C776 494.8 776.5 494.2 776.4 494.4H776.3H776.2L776 494.5L775.7 494.6L775.1 494.9C774.7 495.033 774.267 495.167 773.8 495.3C773 495.633 772.3 495.9 771.7 496.1C770.5 496.5 769.7 496.6 769.7 496.5C769.6 496.4 770.3 495.9 771.4 495.4C772 495.133 772.7 494.8 773.5 494.4C773.9 494.267 774.3 494.1 774.7 493.9L775.3 493.7L775.6 493.5H775.8L775.9 493.4H776C775.8 493.6 776.3 493 775.7 493.8C776.1 490 776.6 486.9 776.9 486.9Z" fill="#646889"/>
	<path d="M779.6 461C779.9 461 779.8 463.9 779.4 467.5C779 471.1 778.5 474 778.2 473.9C777.9 473.9 778 471 778.4 467.4C778.7 463.8 779.3 461 779.6 461Z" fill="#646889"/>
	<path d="M774.7 440.3C774.7 440 777.8 440.1 781.7 440.6C782.6 441.7 781.9 440.9 782.1 441.1V441.2V441.3V441.5V441.8L782 442.5C781.933 442.967 781.867 443.4 781.8 443.8C781.667 444.667 781.567 445.4 781.5 446C781.3 447.3 781 448 780.9 448C780.8 448 780.7 447.2 780.7 446C780.767 445.333 780.833 444.567 780.9 443.7C780.9 443.3 780.933 442.867 781 442.4V441.7L781.1 441.4V441.2V441.1V441C781.3 441.3 780.6 440.4 781.6 441.6C777.7 441.2 774.6 440.6 774.7 440.3Z" fill="#646889"/>
	<path d="M750.1 437.7C750.2 437.4 752.9 437.4 756.3 437.8C759.7 438.2 762.4 438.7 762.4 439C762.4 439.3 759.6 439.2 756.2 438.9C752.8 438.5 750.1 438 750.1 437.7Z" fill="#646889"/>
	<path d="M725.6 435C725.6 434.7 728.4 434.8 731.8 435.2C735.2 435.5 737.9 436.1 737.9 436.3C737.8 436.6 735.1 436.6 731.7 436.2C728.3 435.8 725.6 435.3 725.6 435Z" fill="#646889"/>
	<path d="M606.6 393L642.2 425.1C625 441.3 610.1 454.3 604.9 455.4C604.7 454.867 604.5 454.333 604.3 453.8C602.9 449.4 601.633 444.933 600.5 440.4C600.2 439.3 600 438.1 599.7 437C599.7 436.867 599.7 436.767 599.7 436.7C597.8 427.5 596.8 418.1 596.8 408.4C596.8 405.933 596.867 403.5 597 401.1C598.6 400.6 601.6 398 606.6 393Z" fill="#FFBE9D"/>
	<path d="M822.2 193.4C823.5 207.2 839.2 218.9 853.1 218.5C860.7 218.2 868.5 214.8 875.8 216.9C888.1 220.5 893.1 237.7 905.7 240C915.2 241.7 923.9 234.1 933.5 233.6C940.5 233.2 947.1 236.7 953 240.7C958.8 244.6 964.4 249.2 971.1 251.5C977.7 253.7 983.9 249.7 990.6 247.7C992.3 251.9 993.4 257.2 995.5 261.8C997.7 266.3 1000.2 274.4 996.4 276.2C996.4 276.2 985.8 281.7 979.7 281.4C984.5 286.4 992.3 288.5 999 286.6C1000.7 296.9 1002 308.8 995.1 316.5C992 319.9 987.6 322 983.1 323.2C960.8 329 937.5 313.4 914.9 317.6C905.6 319.4 897.1 324.4 887.7 325.6C878.5 326.8 868.9 324.1 861.6 318.2C852.7 311 846.6 298.9 835.2 297C830.2 296.2 825.1 297.7 820.2 299C815.3 300.4 810.2 301.7 805.2 300.7C800.2 299.6 795.5 295.4 795.8 290.3" fill="#263238"/>
	<path d="M747.8 347.7C733.7 345.5 724 333.2 726.2 320L744.6 206.5C766.7 189.1 798.5 187.4 822.5 202.5C822.5 202.5 817.1 254.8 809.6 276.5C801.8 299.3 783.3 299.1 783.3 299.1C783.3 299.1 780.4 313.7 777.9 327.6C775.5 340.9 762.1 349.9 747.8 347.7Z" fill="#FFBE9D"/>
	<path d="M808.8 241.7C808.6 243.3 807 244.4 805.4 244.2C803.7 244 802.5 242.5 802.7 240.9C803 239.3 804.5 238.2 806.2 238.4C807.8 238.6 809 240.1 808.8 241.7Z" fill="#263238"/>
	<path d="M814.2 239.2C813.8 239.5 811.8 237.4 808.6 236.8C805.4 236.2 802.7 237.5 802.4 237C802.3 236.8 802.8 236.2 803.9 235.6C805.1 235 807 234.6 809 235C811 235.3 812.5 236.4 813.4 237.3C814.2 238.2 814.5 239 814.2 239.2Z" fill="#263238"/>
	<path d="M775.6 236.4C775.4 238 773.8 239.1 772.1 238.9C770.5 238.7 769.3 237.3 769.5 235.7C769.7 234.1 771.3 232.9 773 233.1C774.6 233.3 775.8 234.8 775.6 236.4Z" fill="#263238"/>
	<path d="M780.3 234.4C779.9 234.7 777.9 232.6 774.6 232.1C771.4 231.5 768.8 232.7 768.5 232.2C768.3 232 768.8 231.4 770 230.8C771.1 230.3 773 229.8 775 230.2C777 230.6 778.6 231.6 779.4 232.5C780.3 233.5 780.5 234.2 780.3 234.4Z" fill="#263238"/>
	<path d="M787.8 260.4C787.8 260.2 789.9 260.3 793.2 260.4C794.1 260.5 794.9 260.4 795.1 259.9C795.4 259.3 795.2 258.4 795 257.4C794.6 255.267 794.166 253 793.7 250.6C791.8 241.1 790.7 233.3 791.1 233.2C791.5 233.2 793.2 240.8 795.1 250.4C795.5 252.733 795.9 254.967 796.3 257.1C796.4 258.1 796.8 259.3 796.1 260.4C795.8 261 795.1 261.4 794.6 261.4C794 261.5 793.5 261.4 793.1 261.4C789.8 261 787.8 260.6 787.8 260.4Z" fill="#263238"/>
	<path d="M782 304.6C758.2 302.6 753.4 285.2 753.4 285.2C767.4 297.3 783.3 299.1 783.3 299.1L782 304.6Z" fill="#EB996E"/>
	<path d="M785.2 268.1C785.4 268.5 785.3 269 785 269.3C784.7 269.7 784.3 269.9 783.9 270.1C782.4 270.9 780.9 271.7 779.3 271.9C777.7 272 775.9 271.4 775.3 270C774.7 268.8 775.2 267.2 776.2 266.2C777.3 265.2 778.8 264.8 780.2 264.9C782.3 265 784.2 266.2 785.1 268" fill="#EB996E"/>
	<path d="M777.9 261C778.4 261.1 777.8 264.6 780.4 267.6C782.9 270.6 786.8 270.9 786.7 271.4C786.7 271.6 785.7 271.9 784.2 271.7C782.6 271.5 780.4 270.6 778.9 268.7C777.3 266.9 776.9 264.7 777 263.2C777.1 261.7 777.7 260.9 777.9 261Z" fill="#263238"/>
	<path d="M760.4 189.3C762.5 183.4 769 179.4 775.9 178.1C782.9 176.8 790.2 177.7 797.3 179.2C805.6 181 814.4 183.9 819.7 189.9C823.9 194.6 825.5 200.7 825.3 206.6C825.1 212.4 823.7 222.3 822 227.9C821.6 229.2 821 230.7 819.6 231.2C818.5 231.6 817.3 231.4 816.1 231.1C806.5 228.8 797.3 219.5 791 212.6C792.4 215.5 801.2 223.5 802.7 226.3C787 220.4 766.7 203.6 760.5 189.7" fill="#263238"/>
	<path d="M723.1 241.8C723 235.5 723.2 229.6 723.7 225.7C725.3 213.5 729.1 169.2 770 180.6L765.6 191.9C765.6 191.9 768.8 220.5 747.8 235.8C747.8 235.8 747.9 264.3 733.3 274.5C733.3 274.5 723.2 255.2 723.1 241.8Z" fill="#263238"/>
	<path d="M745.8 255.5C744.2 256.4 742.1 256.3 740.4 255.4C738.8 254.5 737.5 253.1 736.4 251.6C734.9 249.5 733.7 247.1 733.2 244.5C732.8 242 733.2 239.2 734.6 237C736.1 234.9 738.5 233.5 741 233C743.6 232.5 746.2 232.9 748.7 233.9" fill="#FFBE9D"/>
	<path d="M744.6 248.8C744.9 248.9 743.5 250.3 741.3 249.2C740.3 248.8 739.4 247.6 738.9 246.3C738.5 244.9 738.3 243.5 738.4 241.9C738.5 240.3 739.2 238.7 740.3 237.7C741.3 236.6 742.8 236.1 743.9 236.3C746.3 236.7 746.7 238.4 746.4 238.4C746.2 238.6 745.4 237.6 743.8 237.7C742.3 237.7 740.5 239.5 740.4 242.1C740.2 244.7 740.8 247.2 742 248.1C743.3 249 744.5 248.6 744.6 248.8Z" fill="#EB996E"/>
	<path d="M985.6 235.8C985.6 235.8 985.4 236.4 984.5 237.4C983.6 238.4 982.1 239.6 979.6 240.2C977.3 240.9 974.1 240.9 970.8 239.6C967.5 238.4 964.2 236 960.8 233.3C957.3 230.7 953.5 227.6 948.6 226.6C946.1 226.1 943.5 226.2 940.9 226.9C938.3 227.6 935.8 228.8 933.2 230C930.6 231.3 928 232.8 925.3 234C922.5 235.3 919.5 236.3 916.2 236.4C913 236.6 909.7 235.6 906.9 233.7C904.1 231.8 901.9 229.3 899.9 226.6C895.9 221.3 892.7 215.5 887.8 211.7C885.4 209.8 882.5 208.7 879.6 208.3C876.7 207.9 873.8 208.2 870.9 208.7C865.3 209.7 860.1 211.5 854.9 212.1C849.8 212.7 844.9 212.2 840.7 210.9C832.2 208.3 826.6 203.4 823.4 199.8C820.3 196 819.3 193.4 819.3 193.4C819.3 193.4 819.4 193.533 819.6 193.8C819.8 194.133 820.033 194.567 820.3 195.1C821 196.1 822.1 197.7 823.7 199.5C826.9 203 832.5 207.8 840.9 210.2C845 211.4 849.8 211.9 854.8 211.3C859.9 210.6 865.1 208.8 870.8 207.7C873.6 207.2 876.7 206.9 879.7 207.3C882.8 207.7 885.9 208.9 888.4 210.9C893.5 214.9 896.8 220.7 900.7 226C902.7 228.6 904.9 231.1 907.5 232.9C910.1 234.6 913.2 235.5 916.2 235.4C919.2 235.3 922.1 234.3 924.9 233.1C927.6 231.9 930.2 230.5 932.8 229.2C935.4 227.9 938 226.7 940.7 226C943.3 225.3 946.2 225.2 948.7 225.7C953.9 226.9 957.8 230.1 961.2 232.7C964.6 235.4 967.8 237.8 971 239.1C974.1 240.4 977.2 240.4 979.5 239.8C981.9 239.3 983.5 238.2 984.4 237.3C985.2 236.4 985.6 235.8 985.6 235.8Z" fill="#263238"/>
	<path d="M565.6 705.4L554.7 706L584.4 764.2L569.5 764.8L600.5 816.5H459.7L484.9 764.8H468.8L499.5 706.7L488.7 706.3L525 633.1L565.6 705.4Z" fill="#646889"/>
	<path d="M531.1 718C531.4 718 531.2 749 530.6 787.2C530 825.4 529.3 856.4 529.1 856.4C528.8 856.4 529 825.4 529.6 787.2C530.1 748.9 530.8 718 531.1 718Z" fill="#263238"/>
	<path d="M548.3 736.8C548.4 736.9 547.7 738.1 546.2 740C544.7 741.9 542.4 744.3 539.8 746.8C537.3 749.4 535 751.7 533.3 753.5C531.7 755.2 530.7 756.3 530.6 756.2C530.5 756.1 531.3 754.8 532.8 753C534.3 751.1 536.5 748.7 539.1 746.1C541.7 743.5 544 741.2 545.6 739.5C547.2 737.8 548.2 736.7 548.3 736.8Z" fill="#263238"/>
	<path d="M530.7 756.9C530.6 757.2 527 754.6 522.7 751.3C518.4 748 515.1 745.1 515.2 744.9C515.4 744.6 519 747.2 523.3 750.5C527.6 753.8 530.9 756.7 530.7 756.9Z" fill="#263238"/>
	<path d="M529.8 792.8C529.6 793.1 525.7 789.7 520.8 785.7C515.8 781.6 511.7 778.5 511.9 778.3C512.1 778 516.5 780.8 521.4 784.8C526.4 788.9 530 792.6 529.8 792.8Z" fill="#263238"/>
	<path d="M549.8 770.6C550.1 770.8 546 776.2 540.2 782.1C537.467 784.9 535.033 787.433 532.9 789.7C531 791.7 529.9 792.9 529.8 792.8C529.5 792.6 533.6 787.3 539.4 781.4C542.133 778.533 544.567 776 546.7 773.8C548.6 771.8 549.7 770.6 549.8 770.6Z" fill="#263238"/>
</svg>
