<svg width="778" height="705" viewBox="0 0 778 705" fill="none" xmlns="http://www.w3.org/2000/svg">
	<g style="mix-blend-mode:multiply" opacity="0.3">
		<path d="M661.9 87V428.1C661.9 437.6 654.3 445.2 644.8 445.2H388.1C378.6 445.2 370.9 437.6 370.9 428.1V87C370.9 77.5 378.6 69.9 388.1 69.9H644.8C654.3 69.9 661.9 77.5 661.9 87Z" fill="#3D4968"/>
	</g>
	<path d="M649.6 80.7V421.8C649.6 431.3 642 438.9 632.5 438.9H375.8C366.3 438.9 358.6 431.3 358.6 421.8V396.4H354.7V80.7C354.7 71.3 362.4 63.6 371.9 63.6H632.5C642 63.6 649.6 71.3 649.6 80.7Z" fill="#1D2B51"/>
	<g style="mix-blend-mode:multiply" opacity="0.3">
		<path d="M437.5 406.6V438.9H375.8C366.3 438.9 358.6 431.3 358.6 421.8V396.4H354.7V389.5H420.3C429.8 389.5 437.5 397.2 437.5 406.6Z" fill="#3D4968"/>
	</g>
	<path d="M628.2 81.6C628.2 84.6 625.7 87.1 622.7 87.1H602.1C601.767 87.1 601.433 87.0667 601.1 87C600 86.8 599 86.3 598.2 85.5C597.2 84.5 596.6 83.1 596.6 81.6C596.6 78.5 599.1 76 602.1 76H622.7C624.2 76 625.6 76.6 626.6 77.6C627.6 78.6 628.2 80 628.2 81.6Z" fill="#101C3B"/>
	<path d="M588.2 81.6C588.2 84.6 585.7 87.1 582.7 87.1H562.1C561.767 87.1 561.433 87.0667 561.1 87C560 86.8 559 86.3 558.2 85.5C557.2 84.5 556.6 83.1 556.6 81.6C556.6 78.5 559.1 76 562.1 76H582.7C584.2 76 585.6 76.6 586.6 77.6C587.6 78.6 588.2 80 588.2 81.6Z" fill="#101C3B"/>
	<path d="M548.6 81.6C548.6 84.6 546 87.1 543 87.1H522.5C522.1 87.1 521.733 87.0667 521.4 87C520.3 86.8 519.3 86.3 518.5 85.5C517.5 84.5 516.9 83.1 516.9 81.6C516.9 78.5 519.4 76 522.5 76H543C544.5 76 545.9 76.6 546.9 77.6C546.9 77.6 546.9 77.6333 546.9 77.7C547.9 78.7 548.6 80 548.6 81.6Z" fill="#101C3B"/>
	<path d="M634.3 104.3V242.9C634.3 246.6 631.3 249.7 627.5 249.7H374.2C373.6 249.7 373.033 249.633 372.5 249.5C369.6 248.7 367.4 246.1 367.4 242.9V104.3C367.4 100.5 370.4 97.5 374.2 97.5H627.5C629.3 97.5 630.9 98.1 632.1 99.2C633.5 100.5 634.3 102.3 634.3 104.3Z" fill="#101C3B"/>
	<path d="M442.2 263.6V270.3H367.4V263.6H442.2Z" fill="#101C3B"/>
	<path d="M442.2 278.9V285.6H367.4V278.9H442.2Z" fill="#101C3B"/>
	<path d="M442.2 294.1V300.8H367.4V294.1H442.2Z" fill="#101C3B"/>
	<path d="M423.9 309.4V316.1H367.4V309.4H423.9Z" fill="#101C3B"/>
	<path d="M538.2 263.6V270.3H463.5V263.6H538.2Z" fill="#101C3B"/>
	<path d="M538.2 278.9V285.6H463.5V278.9H538.2Z" fill="#101C3B"/>
	<path d="M538.2 294.1V300.8H463.5V294.1H538.2Z" fill="#101C3B"/>
	<path d="M520 309.4V316.1H463.5V309.4H520Z" fill="#101C3B"/>
	<path d="M634.3 263.6V270.3H559.6V263.6H634.3Z" fill="#101C3B"/>
	<path d="M634.3 278.9V285.6H559.6V278.9H634.3Z" fill="#101C3B"/>
	<path d="M634.3 294.1V300.8H559.6V294.1H634.3Z" fill="#101C3B"/>
	<path d="M616.1 309.4V316.1H559.6V309.4H616.1Z" fill="#101C3B"/>
	<path d="M634.3 331.9V356.3C634.3 358.4 632.6 360.1 630.5 360.1H371C369 360.1 367.4 358.4 367.4 356.3V331.9C367.4 329.8 369.1 328.1 371.2 328.1H630.5C631.8 328.1 632.9 328.8 633.6 329.7C634.1 330.3 634.3 331.1 634.3 331.9Z" fill="#101C3B"/>
	<path d="M634.3 370.5V377H491.7V370.5H634.3Z" fill="#101C3B"/>
	<path d="M634.3 384.4V390.9H491.7V384.4H634.3Z" fill="#101C3B"/>
	<path d="M404.9 406.1V410.1H372.8V406.1H404.9Z" fill="#101C3B"/>
	<path d="M400.6 413.4V417.4H372.8V413.4H400.6Z" fill="#101C3B"/>
	<path d="M404.7 420.8V424.7H372.8V420.8H404.7Z" fill="#101C3B"/>
	<path d="M472.3 406.1V410.1H444.5V406.1H472.3Z" fill="#101C3B"/>
	<path d="M467.6 413.4V417.4H444.5V413.4H467.6Z" fill="#101C3B"/>
	<path d="M472.3 420.8V424.7H444.5V420.8H472.3Z" fill="#101C3B"/>
	<path d="M544 406.1V410.1H516.3V406.1H544Z" fill="#101C3B"/>
	<path d="M533.3 413.4V417.4H516.3V413.4H533.3Z" fill="#101C3B"/>
	<path d="M539.9 420.8V424.7H516.3V420.8H539.9Z" fill="#101C3B"/>
	<path d="M613.2 406.1V410.1H588V406.1H613.2Z" fill="#101C3B"/>
	<path d="M602.2 413.4V417.4H588V413.4H602.2Z" fill="#101C3B"/>
	<path d="M607.7 420.8V424.7H588V420.8H607.7Z" fill="#101C3B"/>
	<path d="M628.2 81.6C628.2 84.6 625.7 87.1 622.7 87.1H602.1C601.767 87.1 601.433 87.0667 601.1 87C600.1 86 599.5 84.6 599.5 83.1C599.5 80.1 602 77.5 605.1 77.5H625.6C625.933 77.5 626.267 77.5333 626.6 77.6C627.6 78.6 628.2 80 628.2 81.6Z" fill="#162345"/>
	<path d="M588.2 81.6C588.2 84.6 585.7 87.1 582.7 87.1H562.1C561.767 87.1 561.433 87.0667 561.1 87C560.1 86 559.5 84.6 559.5 83.1C559.5 80.1 562 77.5 565.1 77.5H585.6C585.933 77.5 586.267 77.5333 586.6 77.6C587.6 78.6 588.2 80 588.2 81.6Z" fill="#162345"/>
	<path d="M548.6 81.6C548.6 84.6 546 87.1 543 87.1H522.5C522.1 87.1 521.733 87.0667 521.4 87C520.4 86 519.8 84.6 519.8 83.1C519.8 80.1 522.3 77.5 525.4 77.5H545.9C546.233 77.5 546.567 77.5667 546.9 77.7C547.9 78.7 548.6 80 548.6 81.6Z" fill="#162345"/>
	<path d="M634.3 104.3V242.9C634.3 246.6 631.3 249.7 627.5 249.7H374.2C373.6 249.7 373.033 249.633 372.5 249.5C371.2 248.2 370.3 246.4 370.3 244.4V105.8C370.3 102.1 373.3 99 377.1 99H630.4C631 99 631.567 99.0667 632.1 99.2C633.5 100.5 634.3 102.3 634.3 104.3Z" fill="#162345"/>
	<path d="M442.2 265.2V270.3H370.3V265.2H442.2Z" fill="#162345"/>
	<path d="M442.2 280.4V285.6H370.3V280.4H442.2Z" fill="#162345"/>
	<path d="M442.2 295.7V300.8H370.3V295.7H442.2Z" fill="#162345"/>
	<path d="M423.9 311V316.1H370.3V311H423.9Z" fill="#162345"/>
	<path d="M538.2 265.2V270.3H466.4V265.2H538.2Z" fill="#162345"/>
	<path d="M538.2 280.4V285.6H466.4V280.4H538.2Z" fill="#162345"/>
	<path d="M538.2 295.7V300.8H466.4V295.7H538.2Z" fill="#162345"/>
	<path d="M520 311V316.1H466.4V311H520Z" fill="#162345"/>
	<path d="M634.3 265.2V270.3H562.5V265.2H634.3Z" fill="#162345"/>
	<path d="M634.3 280.4V285.6H562.5V280.4H634.3Z" fill="#162345"/>
	<path d="M634.3 295.7V300.8H562.5V295.7H634.3Z" fill="#162345"/>
	<path d="M616.1 311V316.1H562.5V311H616.1Z" fill="#162345"/>
	<path d="M634.3 331.9V356.3C634.3 358.4 632.6 360.1 630.5 360.1H371C370.6 359.5 370.3 358.7 370.3 357.9V333.5C370.3 331.4 372 329.7 374.1 329.7H633.4C633.467 329.7 633.533 329.7 633.6 329.7C634.1 330.3 634.3 331.1 634.3 331.9Z" fill="#162345"/>
	<path d="M634.3 372.1V377H494.7V372.1H634.3Z" fill="#162345"/>
	<path d="M634.3 385.9V390.9H494.7V385.9H634.3Z" fill="#162345"/>
	<path d="M404.9 407.7V410.1H375.8V407.7H404.9Z" fill="#162345"/>
	<path d="M400.6 415V417.4H375.8V415H400.6Z" fill="#162345"/>
	<path d="M404.7 422.4V424.7H375.8V422.4H404.7Z" fill="#162345"/>
	<path d="M472.3 407.7V410.1H447.5V407.7H472.3Z" fill="#162345"/>
	<path d="M467.6 415V417.4H447.5V415H467.6Z" fill="#162345"/>
	<path d="M472.3 422.4V424.7H447.5V422.4H472.3Z" fill="#162345"/>
	<path d="M544 407.7V410.1H519.2V407.7H544Z" fill="#162345"/>
	<path d="M533.3 415V417.4H519.2V415H533.3Z" fill="#162345"/>
	<path d="M539.9 422.4V424.7H519.2V422.4H539.9Z" fill="#162345"/>
	<path d="M613.2 407.7V410.1H590.9V407.7H613.2Z" fill="#162345"/>
	<path d="M602.2 415V417.4H590.9V415H602.2Z" fill="#162345"/>
	<path d="M607.7 422.4V424.7H590.9V422.4H607.7Z" fill="#162345"/>
	<g style="mix-blend-mode:multiply" opacity="0.3">
		<path d="M453.8 438.9V669.5C453.8 677.6 447.2 684.2 439.1 684.2H138.8C130.6 684.2 124 677.6 124 669.5V411.2C124 403 130.6 396.4 138.8 396.4H372.4V421.8C372.4 431.3 380.1 438.9 389.6 438.9H453.8Z" fill="#3D4968"/>
	</g>
	<path d="M404.5 670.4H108.9C99.5 670.4 91.8 662.8 91.8 653.3V399.7C91.8 390.3 99.5 382.6 108.9 382.6H404.5C414 382.6 421.6 390.3 421.6 399.7V653.3C421.6 662.8 414 670.4 404.5 670.4Z" fill="#9AA2B2"/>
	<path d="M400.6 670.4H105C95.5 670.4 87.9 662.8 87.9 653.3V399.7C87.9 390.3 95.5 382.6 105 382.6H400.6C410.1 382.6 417.7 390.3 417.7 399.7V653.3C417.7 662.8 410.1 670.4 400.6 670.4Z" fill="#F0F5F8"/>
	<path d="M399.4 404.3C399.4 409.1 395.5 413 390.7 413C386 413 382.1 409.1 382.1 404.3C382.1 399.5 386 395.6 390.7 395.6C395.5 395.6 399.4 399.5 399.4 404.3Z" fill="#544D72"/>
	<path d="M373.7 404.3C373.7 409.1 369.8 413 365 413C360.2 413 356.3 409.1 356.3 404.3C356.3 399.5 360.2 395.6 365 395.6C369.8 395.6 373.7 399.5 373.7 404.3Z" fill="#F8B85E"/>
	<path d="M348 404.3C348 409.1 344.1 413 339.3 413C334.5 413 330.6 409.1 330.6 404.3C330.6 399.5 334.5 395.6 339.3 395.6C344.1 395.6 348 399.5 348 404.3Z" fill="#BA0034"/>
	<path d="M208.3 125.2L371.4 101.7" stroke="#F0F5F8" stroke-width="1.5" stroke-linecap="round"/>
	<path d="M463.3 127.4L626.4 103.9" stroke="#F0F5F8" stroke-width="1.5" stroke-linecap="round"/>
	<path d="M462.6 273.8L625.7 250.3" stroke="#F0F5F8" stroke-width="1.5" stroke-linecap="round"/>
	<path d="M460.2 133.1V271.5C460.2 275.2 457.2 278.2 453.5 278.2H200.5C196.8 278.2 193.8 275.2 193.8 271.5V133.1C193.8 129.5 196.8 126.5 200.5 126.5H453.5C457.2 126.5 460.2 129.5 460.2 133.1Z" fill="#9C77A4"/>
	<path d="M87.7 484.6C71.8 454.7 62.8 420.6 62.8 384.4C62.8 295.8 116.7 219.7 193.5 187.2" stroke="#F0F5F8" stroke-width="3" stroke-linecap="round"/>
	<path d="M484.2 437.9C473.1 481.2 448.8 519.1 415.8 547.3" stroke="#F0F5F8" stroke-width="3" stroke-linecap="round"/>
	<path d="M130.7 235L155.9 278.7C157.7 281.8 157.7 285.7 155.9 288.8L130.7 332.5C128.9 335.6 125.5 337.6 121.9 337.6H71.4C67.8 337.6 64.4 335.6 62.6 332.5L37.4 288.8C35.6 285.7 35.6 281.8 37.4 278.7L62.6 235C64.4 231.8 67.8 229.9 71.4 229.9H121.9C125.5 229.9 128.9 231.8 130.7 235Z" fill="#1D2B51"/>
	<path fill-rule="evenodd" clip-rule="evenodd" d="M135.8 288.6C135.933 289.667 135.933 290.733 135.8 291.8L141.9 294.4C141.4 296.9 140.4 299.3 139 301.4L132.9 298.8C132.233 299.667 131.467 300.433 130.6 301.1L133.1 307.2C132.033 307.933 130.9 308.533 129.7 309C128.5 309.533 127.3 309.9 126.1 310.1L123.5 304C122.433 304.133 121.367 304.133 120.3 304L117.7 310.1C115.2 309.6 112.8 308.6 110.7 307.2L113.3 301.1C112.433 300.433 111.667 299.667 111 298.8L104.9 301.3C104.167 300.233 103.567 299.1 103.1 297.9C102.567 296.7 102.2 295.467 102 294.2L108.1 291.7C107.967 290.633 107.967 289.567 108.1 288.5L102 285.9C102.5 283.4 103.5 281 104.9 278.9L111 281.4C111.667 280.6 112.433 279.833 113.3 279.1L110.8 273C111.867 272.333 113 271.767 114.2 271.3C115.4 270.767 116.633 270.367 117.9 270.1L120.4 276.3C121.467 276.167 122.533 276.167 123.6 276.3L126.2 270.2C128.7 270.7 131.1 271.7 133.2 273.1L130.7 279.2C131.5 279.867 132.267 280.633 133 281.5L139.1 279C139.767 280.067 140.367 281.2 140.9 282.4C141.367 283.6 141.733 284.8 142 286L135.8 288.6ZM125.7 288.7C124.8 286.6 122.4 285.6 120.3 286.4C118.2 287.3 117.2 289.7 118.1 291.8C118.9 293.9 121.3 294.9 123.4 294C125.5 293.2 126.6 290.8 125.7 288.7Z" fill="#637194"/>
	<path fill-rule="evenodd" clip-rule="evenodd" d="M100.5 278.4C100.1 280 99.5 281.467 98.7 282.8L105.5 289.7C103.4 292.8 100.8 295.5 97.7 297.6L90.8 290.7C89.4 291.5 87.9333 292.1 86.4 292.5V302.2C84.6 302.533 82.7333 302.7 80.8 302.7C78.9333 302.7 77.1 302.533 75.3 302.2V292.5C73.7 292.1 72.2333 291.5 70.9 290.7L64 297.6C60.9 295.5 58.3 292.8 56.2 289.7L63 282.8C62.2 281.467 61.6 280 61.2 278.4H51.5C51.1667 276.6 51 274.767 51 272.9C51 270.967 51.1667 269.1 51.5 267.3H61.2C61.6 265.767 62.2 264.3 63 262.9L56.2 256.1C58.3 253 60.9 250.3 64 248.2L70.9 255C72.2333 254.267 73.7 253.667 75.3 253.2V243.5C77.1 243.167 78.9333 243 80.8 243C82.7333 243 84.6 243.167 86.4 243.5V253.2C87.9333 253.667 89.4 254.267 90.8 255L97.7 248.2C100.8 250.3 103.4 253 105.5 256.1L98.7 262.9C99.5 264.3 100.1 265.767 100.5 267.3H110.2C110.533 269.1 110.7 270.967 110.7 272.9C110.7 274.767 110.533 276.6 110.2 278.4H100.5ZM86.8 272.9C86.8 269.5 84.1 266.8 80.8 266.8C77.5 266.8 74.8 269.5 74.8 272.9C74.8 276.2 77.5 278.9 80.8 278.9C84.1 278.9 86.8 276.2 86.8 272.9Z" fill="#9AA2B2"/>
	<path fill-rule="evenodd" clip-rule="evenodd" d="M93 275.6C91.8 275.7 91.3 277.2 92.2 278C93.3 279 92.3 280.8 90.8 280.3C89.7 279.9 88.7 281.1 89.2 282.2C89.8 283.5 88.1 284.8 87 283.8C86.1 283 84.7 283.6 84.7 284.8C84.7 286.3 82.7 286.7 82.1 285.3C81.6 284.2 80.1 284.2 79.6 285.3C79 286.7 77 286.3 77 284.8C77 283.6 75.6 283 74.7 283.8C73.6 284.8 71.9 283.5 72.5 282.2C73 281.1 72 279.9 70.8 280.3C69.4 280.8 68.4 279 69.5 278C70.4 277.2 69.9 275.7 68.7 275.6C67.2 275.5 67 273.4 68.4 273C69.6 272.6 69.7 271.1 68.7 270.5C67.4 269.7 68.1 267.8 69.5 267.9C70.7 268.1 71.5 266.7 70.8 265.8C69.9 264.6 71.3 263 72.6 263.8C73.6 264.4 74.9 263.5 74.6 262.3C74.3 260.8 76.2 260 77.1 261.2C77.7 262.2 79.3 261.8 79.5 260.7C79.8 259.2 81.9 259.2 82.2 260.7C82.4 261.8 83.9 262.2 84.6 261.2C85.5 260 87.4 260.8 87.1 262.3C86.8 263.5 88.1 264.4 89.1 263.8C90.4 263 91.8 264.6 90.9 265.8C90.2 266.7 91 268.1 92.2 267.9C93.6 267.8 94.3 269.7 93 270.5C91.9 271.1 92.1 272.6 93.2 273C94.7 273.4 94.4 275.5 93 275.6ZM84.9 272.9C84.9 270.7 83.1 268.8 80.8 268.8C78.6 268.8 76.8 270.7 76.8 272.9C76.8 275.1 78.6 276.9 80.8 276.9C83.1 276.9 84.9 275.1 84.9 272.9Z" fill="#BDC4D4"/>
	<path d="M124.3 290.1C124.3 291.4 123.3 292.5 121.9 292.5C120.6 292.5 119.6 291.4 119.6 290.1C119.6 288.8 120.6 287.8 121.9 287.8C123.3 287.8 124.3 288.8 124.3 290.1Z" fill="#BDC4D4"/>
	<path fill-rule="evenodd" clip-rule="evenodd" d="M108.7 311.2C107.7 311.2 107.3 312.5 108 313.1C108.9 314 108.1 315.5 106.9 315.1C105.9 314.8 105.1 315.7 105.5 316.6C106 317.8 104.6 318.8 103.7 318C102.9 317.3 101.8 317.8 101.8 318.8C101.8 320.1 100.1 320.4 99.6 319.3C99.2 318.4 97.9 318.4 97.5 319.3C97 320.4 95.3 320.1 95.3 318.8C95.3 317.8 94.1 317.3 93.4 318C92.5 318.8 91 317.8 91.6 316.6C92 315.7 91.1 314.8 90.2 315.1C89 315.5 88.1 314 89 313.1C89.8 312.5 89.4 311.2 88.4 311.2C87.1 311 87 309.3 88.2 308.9C89.1 308.6 89.2 307.3 88.4 306.8C87.3 306.2 87.8 304.6 89.1 304.7C90.1 304.8 90.7 303.7 90.1 302.9C89.4 301.9 90.5 300.6 91.6 301.2C92.5 301.7 93.5 301 93.3 300C93 298.8 94.6 298.1 95.4 299.1C95.9 299.9 97.2 299.6 97.4 298.6C97.7 297.4 99.4 297.4 99.6 298.6C99.8 299.6 101.1 299.9 101.7 299.1C102.4 298.1 104 298.8 103.7 300C103.5 301 104.6 301.7 105.4 301.2C106.5 300.6 107.7 301.9 106.9 302.9C106.3 303.7 107 304.8 108 304.7C109.2 304.6 109.8 306.2 108.7 306.8C107.8 307.3 107.9 308.6 108.9 308.9C110.1 309.3 109.9 311 108.7 311.2ZM105 308.8C105 305.2 102.1 302.3 98.5 302.3C94.9 302.3 92 305.2 92 308.8C92 312.4 94.9 315.4 98.5 315.4C102.1 315.4 105 312.4 105 308.8Z" fill="#F0F5F8"/>
	<path d="M104.4 308.8C104.4 312.1 101.7 314.7 98.5 314.7C95.3 314.7 92.7 312.1 92.7 308.8C92.7 305.6 95.3 303 98.5 303C101.7 303 104.4 305.6 104.4 308.8Z" fill="#F0F5F8"/>
	<path d="M674.7 502.2C674.7 509.6 672.1 516.4 667.8 521.8C662 529.1 653.1 533.7 643.1 533.7C633.1 533.7 624.1 529.1 618.4 521.8C618.2 521.6 618.033 521.367 617.9 521.1C613.9 515.9 611.5 509.3 611.5 502.2C611.5 484.7 625.7 470.6 643.1 470.6C654.7 470.6 664.9 476.9 670.4 486.2C673.1 490.9 674.7 496.3 674.7 502.2Z" fill="#1D2B51"/>
	<path d="M666.3 519.8C660.8 526.6 652.5 531 643.1 531C633.7 531 625.4 526.6 619.9 519.8C622.1 510.5 629.8 503.3 639.3 501.8C635.6 500.3 633 496.7 633 492.5C633 486.9 637.5 482.4 643.1 482.4C648.6 482.4 653.1 486.9 653.1 492.5C653.1 496.7 650.6 500.3 646.9 501.8C656.4 503.3 664.1 510.5 666.3 519.8Z" fill="#E6EAF0"/>
	<path d="M387.3 451.4V553C387.3 557 384.1 560.2 380.1 560.2H126.7C125.5 560.2 124.3 559.9 123.3 559.3C121 558.1 119.5 555.7 119.5 553V451.4C119.5 447.4 122.7 444.2 126.7 444.2H380.1C382.3 444.2 384.3 445.2 385.6 446.8C386.7 448 387.3 449.6 387.3 451.4Z" fill="#C9D2DE"/>
	<path d="M387.3 451.4V553C387.3 557 384.1 560.2 380.1 560.2H126.7C125.5 560.2 124.3 559.9 123.3 559.3C122.833 558.5 122.6 557.6 122.6 556.6V452.7C122.6 449.4 125.3 446.6 128.7 446.6H384.4C384.8 446.6 385.2 446.667 385.6 446.8C386.7 448 387.3 449.6 387.3 451.4Z" fill="#E6EAF0"/>
	<path d="M183.8 435.2H120.7V426.1H183.8V435.2Z" fill="#9AA2B2"/>
	<path d="M341.6 576.1C341.6 571.2 345.6 567.3 350.5 567.3H377.9C382.7 567.3 386.7 571.2 386.7 576.1C386.7 580.9 382.7 584.9 377.9 584.9H350.5C345.6 584.9 341.6 580.9 341.6 576.1Z" fill="#544D72"/>
	<path d="M297.9 576.1C297.9 571.2 301.9 567.3 306.7 567.3H326.6C331.5 567.3 335.4 571.2 335.4 576.1C335.4 580.9 331.5 584.9 326.6 584.9H306.7C301.9 584.9 297.9 580.9 297.9 576.1Z" fill="#A8274B"/>
	<path d="M374.7 577.7H354.6C353.5 577.7 352.5 576.8 352.5 575.6C352.5 574.5 353.5 573.5 354.6 573.5H374.7C375.9 573.5 376.8 574.5 376.8 575.6C376.8 576.8 375.9 577.7 374.7 577.7Z" fill="#F0F5F8"/>
	<path d="M326.5 577.7H306.4C305.3 577.7 304.3 576.8 304.3 575.6C304.3 574.5 305.3 573.5 306.4 573.5H326.5C327.7 573.5 328.6 574.5 328.6 575.6C328.6 576.8 327.7 577.7 326.5 577.7Z" fill="#F0F5F8"/>
	<path d="M207.8 551.4H205.2V530.8H207.8V551.4Z" fill="#1D2B51"/>
	<path d="M213.8 530.8H207.8V528.8H213.8V530.8Z" fill="#1D2B51"/>
	<path d="M205.2 530.8H199.2V528.8H205.2V530.8Z" fill="#1D2B51"/>
	<path d="M213.8 553.4H207.8V551.4H213.8V553.4Z" fill="#1D2B51"/>
	<path d="M205.2 553.4H199.2V551.4H205.2V553.4Z" fill="#1D2B51"/>
	<path d="M165.1 507.1H139V497.9H165.1V507.1ZM259.2 517.2H330.4V526.4H259.2V517.2ZM330.4 468.6H163.9V459.4H330.4V468.6ZM139 536.5H203.7V545.7H139V536.5ZM188.8 487.9H139V478.7H188.8V487.9ZM173.1 498H273.9V507.2H173.1V498ZM245.7 526.4H139V517.2H245.7V526.4ZM281.9 498H370.9V507.2H281.9V498ZM202.2 478.7H370.9V487.9H202.2V478.7ZM370.9 459.4V468.5H337.2V459.4H370.9ZM343.8 517.2H370.9V526.4H343.8V517.2Z" fill="#9AA2B2"/>
	<path d="M521.9 686.8C521.9 694.9 515.3 701.5 507.2 701.5H350.7C336.6 701.5 325.2 690.1 325.2 676C325.2 662 336.6 650.6 350.7 650.6C354 650.6 357.1 651.2 360 652.3C360 652.167 360 652 360 651.8C360 633.5 369.9 617.5 384.6 608.9C392 604.6 400.6 602.1 409.7 602.1C434 602.1 454.2 619.5 458.5 642.5C463.1 639.9 468.5 638.4 474.2 638.4C491.6 638.4 505.7 652.5 505.7 669.9C505.7 670.633 505.7 671.367 505.7 672.1C506.167 672.033 506.667 672 507.2 672C515.3 672 521.9 678.6 521.9 686.8Z" fill="#9AA2B2"/>
	<path d="M171 675.7C171 681.8 166.1 686.8 159.9 686.8H42.1C31.5 686.8 22.9 678.2 22.9 667.6C22.9 657 31.5 648.4 42.1 648.4C44.6 648.4 46.9 648.9 49.1 649.7C49.1 649.567 49.1 649.433 49.1 649.3C49.1 635.6 56.6 623.5 67.7 617C73.2 613.8 79.6 611.9 86.5 611.9C104.8 611.9 120 625 123.3 642.3C126.8 640.4 130.8 639.2 135.1 639.2C148.2 639.2 158.8 649.9 158.8 663C158.8 663.533 158.8 664.067 158.8 664.6C159.133 664.533 159.5 664.5 159.9 664.5C166.1 664.5 171 669.5 171 675.7Z" fill="#DBDEE6"/>
	<path d="M628.6 565.9V578.5C628.6 581.4 626.2 583.8 623.3 583.8H496.4C496.133 583.8 495.9 583.767 495.7 583.7C493.1 583.4 491.1 581.2 491.1 578.5V565.9C491.1 562.9 493.5 560.5 496.4 560.5H623.3C626 560.5 628.2 562.5 628.6 565.1C628.6 565.367 628.6 565.633 628.6 565.9Z" fill="#D7DBE0"/>
	<path d="M628.6 565.9V578.5C628.6 581.4 626.2 583.8 623.3 583.8H496.4C496.133 583.8 495.9 583.767 495.7 583.7C495.633 583.5 495.6 583.267 495.6 583V570.4C495.6 567.4 498 565 500.9 565H627.8C628.067 565 628.333 565.033 628.6 565.1C628.6 565.367 628.6 565.633 628.6 565.9Z" fill="white"/>
	<path d="M628.6 598.5V611.1C628.6 614 626.2 616.4 623.3 616.4H496.4C496.133 616.4 495.9 616.367 495.7 616.3C493.1 616 491.1 613.8 491.1 611.1V598.5C491.1 595.5 493.5 593.1 496.4 593.1H623.3C626 593.1 628.2 595.1 628.6 597.7C628.6 597.967 628.6 598.233 628.6 598.5Z" fill="#D7DBE0"/>
	<path d="M628.6 598.5V611.1C628.6 614 626.2 616.4 623.3 616.4H496.4C496.133 616.4 495.9 616.367 495.7 616.3C495.633 616.1 495.6 615.867 495.6 615.6V603C495.6 600 498 597.6 500.9 597.6H627.8C628.067 597.6 628.333 597.633 628.6 597.7C628.6 597.967 628.6 598.233 628.6 598.5Z" fill="white"/>
	<path d="M536.3 574.8C536.3 576.2 535.1 577.4 533.6 577.4C532.2 577.4 531 576.2 531 574.8C531 573.3 532.2 572.1 533.6 572.1C535.1 572.1 536.3 573.3 536.3 574.8Z" fill="#1D2B51"/>
	<path d="M550.7 574.8C550.7 576.2 549.5 577.4 548.1 577.4C546.6 577.4 545.4 576.2 545.4 574.8C545.4 573.3 546.6 572.1 548.1 572.1C549.5 572.1 550.7 573.3 550.7 574.8Z" fill="#1D2B51"/>
	<path d="M565.2 574.8C565.2 576.2 564 577.4 562.5 577.4C561 577.4 559.8 576.2 559.8 574.8C559.8 573.3 561 572.1 562.5 572.1C564 572.1 565.2 573.3 565.2 574.8Z" fill="#1D2B51"/>
	<path d="M579.6 574.8C579.6 576.2 578.4 577.4 576.9 577.4C575.4 577.4 574.2 576.2 574.2 574.8C574.2 573.3 575.4 572.1 576.9 572.1C578.4 572.1 579.6 573.3 579.6 574.8Z" fill="#1D2B51"/>
	<path d="M594 574.8C594 576.2 592.8 577.4 591.3 577.4C589.9 577.4 588.7 576.2 588.7 574.8C588.7 573.3 589.9 572.1 591.3 572.1C592.8 572.1 594 573.3 594 574.8Z" fill="#1D2B51"/>
	<path d="M536.3 605.9C536.3 607.4 535.1 608.6 533.6 608.6C532.2 608.6 531 607.4 531 605.9C531 604.4 532.2 603.2 533.6 603.2C535.1 603.2 536.3 604.4 536.3 605.9Z" fill="#1D2B51"/>
	<path d="M550.7 605.9C550.7 607.4 549.5 608.6 548.1 608.6C546.6 608.6 545.4 607.4 545.4 605.9C545.4 604.4 546.6 603.2 548.1 603.2C549.5 603.2 550.7 604.4 550.7 605.9Z" fill="#1D2B51"/>
	<path d="M565.2 605.9C565.2 607.4 564 608.6 562.5 608.6C561 608.6 559.8 607.4 559.8 605.9C559.8 604.4 561 603.2 562.5 603.2C564 603.2 565.2 604.4 565.2 605.9Z" fill="#1D2B51"/>
	<path d="M579.6 605.9C579.6 607.4 578.4 608.6 576.9 608.6C575.4 608.6 574.2 607.4 574.2 605.9C574.2 604.4 575.4 603.2 576.9 603.2C578.4 603.2 579.6 604.4 579.6 605.9Z" fill="#1D2B51"/>
	<path d="M594 605.9C594 607.4 592.8 608.6 591.3 608.6C589.9 608.6 588.7 607.4 588.7 605.9C588.7 604.4 589.9 603.2 591.3 603.2C592.8 603.2 594 604.4 594 605.9Z" fill="#1D2B51"/>
	<path d="M387.8 260.4H217C214.5 260.4 212.5 258.4 212.5 255.9V151.7C212.5 149.2 214.5 147.1 217 147.1H387.8C390.3 147.1 392.3 149.2 392.3 151.7V255.9C392.3 258.4 390.3 260.4 387.8 260.4Z" fill="#9AA2B2"/>
	<path d="M385.9 151.2V243.2H218.9V151.2H385.9Z" fill="white"/>
	<path d="M385.9 222.6V243.2H311.8L305.3 232.4L345.2 186C346.7 184.1 349.5 184.1 351.2 185.8L385.9 222.6Z" fill="#E5EBF2"/>
	<path d="M339.6 243.2H218.9V213.1L263.4 170.6C265 169.1 267.5 169.1 269.1 170.7L339.6 243.2Z" fill="#CAD2DB"/>
	<path d="M449.9 152.1V255.4C449.9 258.2 447.7 260.4 444.9 260.4H415.1C412.3 260.4 410.1 258.2 410.1 255.4V152.1C410.1 149.4 412.3 147.1 415.1 147.1H444.9C447.7 147.1 449.9 149.4 449.9 152.1Z" fill="#F0F5F8"/>
	<path d="M434.4 203.2H439.9C440.9 203.2 441.6 203.9 441.6 204.8C441.6 205.7 440.9 206.5 439.9 206.5H434.4C433.5 206.5 432.8 207.2 432.8 208.1V213.6C432.8 214.6 432 215.3 431.1 215.3C430.2 215.3 429.5 214.6 429.5 213.6V208.1C429.5 207.2 428.7 206.5 427.8 206.5H422.3C421.4 206.5 420.6 205.7 420.6 204.8C420.6 203.9 421.4 203.2 422.3 203.2H427.8C428.7 203.2 429.5 202.4 429.5 201.5V196C429.5 195.1 430.2 194.3 431.1 194.3C432 194.3 432.8 195.1 432.8 196V201.5C432.8 202.4 433.5 203.2 434.4 203.2Z" fill="#9C77A4"/>
	<path fill-rule="evenodd" clip-rule="evenodd" d="M222 345C222.1 347.7 221.1 350.4 219 352.4C215.4 355.7 209.7 355.8 206.1 352.6C201.8 348.8 201.7 342.4 205.6 338.5C207.5 336.6 210.1 335.6 212.6 335.7C214 335.7 215.3 335.2 216.2 334.3L232.2 318.3C233.2 317.3 233.6 316 233.6 314.7C233.6 312.1 234.5 309.6 236.4 307.7C239 305.1 242.6 304.3 245.8 305.2L241.1 309.9L242.5 315.1L247.8 316.5L252.5 311.8C253.5 315 252.6 318.7 250.1 321.3C248.1 323.2 245.6 324.2 243.1 324.1C241.7 324.1 240.4 324.6 239.4 325.5L223.5 341.5C222.5 342.4 222 343.7 222 345ZM215.4 348.3L216.5 344.2L213.5 341.2L209.4 342.3L208.3 346.4L211.3 349.4L215.4 348.3Z" fill="#1D2B51"/>
	<path d="M223.9 333.9C223.3 333.3 223.3 332.4 223.9 331.9L229 326.8C229.5 326.2 230.4 326.2 231 326.8C231.5 327.3 231.5 328.2 231 328.8L225.9 333.9C225.3 334.4 224.4 334.4 223.9 333.9Z" fill="#9AA2B2"/>
	<path d="M279.3 350.4L274.3 353.7L272.3 351.6L275.5 346.6L278.1 345.2L291.3 332L293.9 334.7L280.8 347.8L279.3 350.4Z" fill="#9AA2B2"/>
	<path d="M298.1 333.4L297 334.5L299 336.6L296.8 338.8L287.2 329.1L289.4 326.9L291.4 329L292.6 327.8C294.7 325.7 294.7 322.3 292.6 320.2L306.1 306.7C306.5 306.3 306.967 306.033 307.5 305.9C309.3 305.5 313.5 304.9 317.3 308.7C321.1 312.5 320.4 316.7 320 318.5C319.867 319.033 319.6 319.5 319.2 319.9L305.7 333.4C303.6 331.3 300.2 331.3 298.1 333.4Z" fill="#1D2B51"/>
	<path d="M729.7 405.5L709.8 425.4C708.6 426.6 706.8 426.6 705.7 425.4C704.5 424.3 704.5 422.5 705.7 421.3L725.6 401.4C726.7 400.3 728.5 400.3 729.7 401.4C730.8 402.6 730.8 404.4 729.7 405.5Z" fill="#F0F5F8"/>
	<path d="M739.1 396.1L736.8 398.4C735.7 399.5 733.9 399.5 732.7 398.4C731.6 397.2 731.6 395.4 732.7 394.3L735 392C736.2 390.8 738 390.8 739.1 392C740.3 393.1 740.3 394.9 739.1 396.1Z" fill="#9AA2B2"/>
	<path d="M750.8 384.4L750.4 384.8C749.3 385.9 747.4 385.9 746.3 384.8C745.2 383.7 745.2 381.8 746.3 380.7L746.7 380.3C747.8 379.2 749.7 379.2 750.8 380.3C751.9 381.4 751.9 383.3 750.8 384.4Z" fill="#9AA2B2"/>
	<path d="M94.8 138.8L74.9 158.7C73.7 159.8 71.9 159.8 70.8 158.7C69.6 157.6 69.6 155.7 70.8 154.6L90.7 134.7C91.8 133.6 93.6 133.6 94.8 134.7C95.9 135.8 95.9 137.7 94.8 138.8Z" fill="#F0F5F8"/>
	<path d="M104.2 129.3L101.9 131.6C100.8 132.8 99 132.8 97.8 131.6C96.7 130.5 96.7 128.7 97.8 127.5L100.1 125.2C101.3 124.1 103.1 124.1 104.2 125.2C105.4 126.4 105.4 128.2 104.2 129.3Z" fill="#F0F5F8"/>
	<path d="M115.9 117.7L115.5 118.1C114.4 119.2 112.5 119.2 111.4 118.1C110.3 117 110.3 115.1 111.4 114L111.8 113.6C112.9 112.4 114.8 112.4 115.9 113.6C117 114.7 117 116.5 115.9 117.7Z" fill="#F0F5F8"/>
	<path d="M716.1 164.8C716.4 166.2 715.3 167.5 713.9 167.5H711.5C710.3 167.5 709.2 168.5 709.2 169.8V172.2C709.2 173.6 708 174.7 706.5 174.4C705.4 174.2 704.7 173.2 704.7 172.1V169.8C704.7 168.5 703.7 167.5 702.4 167.5H700C698.6 167.5 697.5 166.2 697.8 164.8C698 163.7 699 162.9 700.1 162.9H702.4C703.7 162.9 704.7 161.9 704.7 160.7V158.3C704.7 156.9 706 155.8 707.4 156C708.5 156.3 709.2 157.3 709.2 158.4V160.7C709.2 161.9 710.3 162.9 711.5 162.9H713.8C714.9 162.9 715.9 163.7 716.1 164.8Z" fill="#9AA2B2"/>
	<path d="M301.8 44.4C302.2 46.2 300.8 47.9 299 47.9H296C294.4 47.9 293.1 49.2 293.1 50.8V53.8C293.1 55.6 291.5 57 289.6 56.6C288.2 56.4 287.3 55.1 287.3 53.7V50.8C287.3 49.2 286 47.9 284.4 47.9H281.4C279.6 47.9 278.2 46.2 278.5 44.4C278.8 43 280.1 42.1 281.5 42.1H284.4C286 42.1 287.3 40.8 287.3 39.2V36.2C287.3 34.4 288.9 33 290.8 33.3C292.2 33.6 293.1 34.9 293.1 36.3V39.2C293.1 40.8 294.4 42.1 296 42.1H298.9C300.3 42.1 301.6 43 301.8 44.4Z" fill="#F0F5F8"/>
	<path d="M50.7 538.1C51.1 540 49.7 541.6 47.9 541.6H44.9C43.3 541.6 42 542.9 42 544.5V547.5C42 549.3 40.3 550.7 38.5 550.4C37.1 550.1 36.2 548.8 36.2 547.4V544.5C36.2 542.9 34.9 541.6 33.3 541.6H30.3C28.5 541.6 27.1 540 27.4 538.1C27.7 536.7 29 535.8 30.4 535.8H33.3C34.9 535.8 36.2 534.5 36.2 532.9V529.9C36.2 528.1 37.8 526.7 39.7 527.1C41 527.3 42 528.6 42 530V532.9C42 534.5 43.3 535.8 44.9 535.8H47.7C49.1 535.8 50.4 536.7 50.7 538.1Z" fill="#F0F5F8"/>
	<path d="M696.3 578.4C696.3 581 694.3 583 691.7 583C689.2 583 687.1 581 687.1 578.4C687.1 575.9 689.2 573.8 691.7 573.8C694.3 573.8 696.3 575.9 696.3 578.4Z" stroke="#1D2B51" stroke-width="2"/>
	<path d="M535.3 509.6C535.3 512.2 533.2 514.2 530.7 514.2C528.1 514.2 526.1 512.2 526.1 509.6C526.1 507.1 528.1 505 530.7 505C533.2 505 535.3 507.1 535.3 509.6Z" fill="#F0F5F8"/>
	<path d="M563.7 658.6C563.7 660 562.5 661.1 561.2 661.1C559.8 661.1 558.7 660 558.7 658.6C558.7 657.2 559.8 656.1 561.2 656.1C562.5 656.1 563.7 657.2 563.7 658.6Z" fill="#1D2B51"/>
	<path d="M185.6 64.8C185.6 66.6 184.1 68 182.4 68C180.6 68 179.2 66.6 179.2 64.8C179.2 63.1 180.6 61.7 182.4 61.7C184.1 61.7 185.6 63.1 185.6 64.8Z" fill="#1D2B51"/>
	<path d="M154.5 161.7C154.5 164.3 152.4 166.3 149.9 166.3C147.4 166.3 145.3 164.3 145.3 161.7C145.3 159.2 147.4 157.1 149.9 157.1C152.4 157.1 154.5 159.2 154.5 161.7Z" stroke="#1D2B51" stroke-width="2"/>
	<path d="M57.2 96.4C57.2 97.6 56.2 98.5 55 98.5C53.9 98.5 52.9 97.6 52.9 96.4C52.9 95.2 53.9 94.3 55 94.3C56.2 94.3 57.2 95.2 57.2 96.4Z" stroke="#1D2B51" stroke-width="2"/>
	<path d="M46.5 194.7C46.5 197.2 44.5001 199.3 41.9001 199.3C39.4001 199.3 37.3 197.2 37.3 194.7C37.3 192.1 39.4001 190 41.9001 190C44.5001 190 46.5 192.1 46.5 194.7Z" fill="#1D2B51"/>
	<path d="M53.6 600.4C53.6 603.4 51.2 605.8 48.3 605.8C45.4 605.8 43 603.4 43 600.4C43 597.5 45.4 595.1 48.3 595.1C51.2 595.1 53.6 597.5 53.6 600.4Z" fill="#1D2B51"/>
	<path d="M35.2 471.3C35.2 473.9 33.1 475.9 30.6 475.9C28 475.9 25.9 473.9 25.9 471.3C25.9 468.8 28 466.7 30.6 466.7C33.1 466.7 35.2 468.8 35.2 471.3Z" stroke="#1D2B51" stroke-width="2"/>
	<path d="M562.2 15.2C562.2 17.7 560.2 19.8 557.6 19.8C555.1 19.8 553 17.7 553 15.2C553 12.6 555.1 10.6 557.6 10.6C560.2 10.6 562.2 12.6 562.2 15.2Z" stroke="#1D2B51" stroke-width="2"/>
	<path d="M719.7 95C719.7 96.2 718.8 97.1 717.6 97.1C716.4 97.1 715.5 96.2 715.5 95C715.5 93.8 716.4 92.9 717.6 92.9C718.8 92.9 719.7 93.8 719.7 95Z" fill="#1D2B51"/>
</svg>
