<svg width="1000" height="1000" viewBox="0 0 1000 1000" fill="none" xmlns="http://www.w3.org/2000/svg">
	<path d="M170.8 248.4C291.2 90.5 560.8 83.9 748.7 178.8C889.6 250 966.1 383.7 889 505.7C867.4 539.9 832.7 571.6 789.2 588.8C743.6 606.8 686.8 600.2 637.3 595.3C540.6 585.6 441.4 819.1 250.1 789.2C104.1 766.3 80.2 630.8 80.4 533.8C80.4 533.067 80.4 532.333 80.4 531.6C81 434.8 107.9 331 170.8 248.4Z" fill="#C38DBA"/>
	<path opacity="0.7" d="M170.8 248.4C291.2 90.5 560.8 83.9 748.7 178.8C889.6 250 966.1 383.7 889 505.7C867.4 539.9 832.7 571.6 789.2 588.8C743.6 606.8 686.8 600.2 637.3 595.3C540.6 585.6 441.4 819.1 250.1 789.2C104.1 766.3 80.2 630.8 80.4 533.8C80.4 533.067 80.4 532.333 80.4 531.6C81 434.8 107.9 331 170.8 248.4Z" fill="white"/>
	<path d="M353.3 695.5C353.3 717.5 335.5 735.3 313.5 735.3H178.7C156.7 735.3 138.9 717.5 138.9 695.5V477.3C138.9 455.4 156.7 437.6 178.7 437.6H188.5" stroke="#263238" stroke-width="2" stroke-linecap="round" stroke-linejoin="round" stroke-dasharray="8 8"/>
	<path d="M342.2 231.7V188.6C342.2 175.1 353.1 164.2 366.6 164.2H541.9C555.3 164.2 566.2 175.1 566.2 188.6" stroke="#263238" stroke-width="2" stroke-linecap="round" stroke-linejoin="round" stroke-dasharray="8 8"/>
	<path d="M836 849.5C836 876.3 685.6 898 500 898C314.4 898 164 876.3 164 849.5C164 822.7 314.4 801 500 801C685.6 801 836 822.7 836 849.5Z" fill="#C38DBA"/>
	<path opacity="0.5" d="M836 849.5C836 876.3 685.6 898 500 898C314.4 898 164 876.3 164 849.5C164 822.7 314.4 801 500 801C685.6 801 836 822.7 836 849.5Z" fill="white"/>
	<path d="M827.3 289.5V616C827.3 638.2 809.3 656.2 787.1 656.2H212.9C190.7 656.2 172.7 638.2 172.7 616V289.5C172.7 288.567 172.733 287.633 172.8 286.7C174.2 265.8 191.7 249.2 212.9 249.2H787.1C808.4 249.2 825.8 265.8 827.2 286.7C827.267 287.633 827.3 288.567 827.3 289.5Z" fill="white" stroke="#263238" stroke-width="2" stroke-linecap="round" stroke-linejoin="round"/>
	<path d="M772.1 641H230C209.1 641 192.3 624.1 192.3 603.3V301.8H809.8V603.3C809.8 624.1 792.9 641 772.1 641Z" fill="#263238"/>
	<path opacity="0.2" d="M809.8 301.7V603.3C809.8 624.1 793.1 641 772.5 641H229.5C209 641 192.3 624.1 192.3 603.3V301.7H809.8Z" fill="white"/>
	<path d="M827.2 286.7H172.8C174.2 265.8 191.6 249.2 212.9 249.2H787.1C808.3 249.2 825.8 265.8 827.2 286.7Z" fill="#76628B" stroke="#263238" stroke-width="2"/>
	<path d="M253.2 268C253.2 271.9 250 275.1 246.1 275.1C242.1 275.1 239 271.9 239 268C239 264 242.1 260.8 246.1 260.8C250 260.8 253.2 264 253.2 268Z" fill="#263238"/>
	<path d="M283.3 268C283.3 271.9 280.2 275.1 276.2 275.1C272.3 275.1 269.1 271.9 269.1 268C269.1 264 272.3 260.8 276.2 260.8C280.2 260.8 283.3 264 283.3 268Z" fill="#263238"/>
	<path d="M313.5 268C313.5 271.9 310.3 275.1 306.4 275.1C302.4 275.1 299.2 271.9 299.2 268C299.2 264 302.4 260.8 306.4 260.8C310.3 260.8 313.5 264 313.5 268Z" fill="#263238"/>
	<path d="M809.8 301.8V603.3C809.8 624.1 792.9 641 772.1 641H230C211.6 641 196.4 628 193 610.6V610.5C192.533 608.167 192.3 605.767 192.3 603.3V301.8H809.8Z" stroke="#263238" stroke-width="2"/>
	<path fill-rule="evenodd" clip-rule="evenodd" d="M809.8 348V416.6L809.2 416.2C806.5 417.7 803.7 418.9 800.8 419.7L797.4 434.8H783L779.6 419.7C776.667 418.9 773.867 417.733 771.2 416.2L758.2 424.5L748 414.3L756.3 401.3C754.767 398.633 753.6 395.8 752.8 392.8L737.7 389.4V375L752.8 371.7C753.6 368.767 754.767 365.967 756.3 363.3L748.1 350.3L758.3 340.1L771.3 348.4C773.9 346.9 776.8 345.7 779.7 344.9L783.1 329.8H797.5L800.8 344.9C803.8 345.8 806.6 346.9 809.2 348.4L809.8 348ZM808.9 382.3C808.9 372 800.6 363.7 790.3 363.7C780 363.7 771.7 372 771.7 382.3C771.7 392.6 780 400.9 790.3 400.9C800.6 400.9 808.9 392.6 808.9 382.3Z" fill="#263238"/>
	<path fill-rule="evenodd" clip-rule="evenodd" d="M517.9 370.1C516.1 376.3 513.6 382.2 510.6 387.8L528 415.4L506.5 436.8L478.9 419.3C473.4 422.4 467.4 424.9 461.3 426.6L454.1 458.5H423.8L416.7 426.6C410.5 424.9 404.6 422.4 399 419.3L371.4 436.8L349.9 415.4L367.5 387.8C364.3 382.2 361.9 376.2 360.2 369.9L328.3 362.8V332.5L360.2 325.4C361.9 319.2 364.3 313.2 367.5 307.7L363.8 301.7H514.4L510.6 307.8C513.7 313.4 516.1 319.4 517.9 325.5L549.8 332.6V363L517.9 370.1ZM478.4 347.8C478.4 326.1 460.8 308.6 439.2 308.6C417.5 308.6 400 326.1 400 347.8C400 369.4 417.5 387 439.2 387C460.8 387 478.4 369.4 478.4 347.8Z" fill="#263238"/>
	<path fill-rule="evenodd" clip-rule="evenodd" d="M322.8 575.8C321.2 580.6 319 585.2 316.2 589.5L329 612.1L311 628.3L289.9 613.2C285.3 615.467 280.5 617.167 275.5 618.3L269.2 641L268.6 643.3L244.5 642.1L244.3 641L240.2 616.4C235.3 614.8 230.7 612.6 226.4 609.8L203.7 622.6L193 610.6V610.5L192.3 598L202.7 583.5C200.4 578.9 198.7 574.1 197.6 569.1L192.3 567.6V535L199.6 533.8C201.2 528.933 203.4 524.333 206.2 520L193.4 497.4L211.3 481.3L232.5 496.3C237 494.1 241.8 492.4 246.8 491.3L253.8 466.2L277.8 467.5L282.2 493.1C287 494.8 291.6 497 295.9 499.7L318.5 486.9L334.7 504.8L319.6 526C321.8 530.6 323.6 535.4 324.7 540.3L349.7 547.4L348.4 571.5L322.8 575.8ZM284.5 533.8C273 521 253.2 520 240.4 531.5C227.6 543 226.6 562.7 238.1 575.5C249.6 588.3 269.4 589.4 282.2 577.8C295 566.3 296 546.6 284.5 533.8Z" fill="#263238"/>
	<path fill-rule="evenodd" clip-rule="evenodd" d="M555.5 548.7L554.1 550.9L546.4 564.4L527.7 558.6C524.967 561.333 521.9 563.7 518.5 565.7L518.7 568.5L519.4 585.2L501.9 590L492.8 572.7C488.933 572.633 485.133 572.133 481.4 571.2L468.3 585.5L452.5 576.5L458.3 557.9C455.6 555.1 453.3 552.1 451.3 548.8L431.7 549.7L427 532.2L444.3 523C444.3 519.2 444.8 515.4 445.7 511.6L431.3 498.5L440.3 482.7L459 488.5C461.7 485.8 464.8 483.5 468.1 481.5L467.2 461.9L484.7 457.1L493.8 474.5C497.7 474.5 501.5 475 505.2 475.9L518.4 461.5L534.2 470.6L528.4 489.2C531.1 492 533.4 495 535.4 498.3L555 497.4L559.8 515L542.4 524.1C542.4 527.9 541.9 531.7 541 535.5L555.5 548.7ZM516 517.3C512.6 504.8 499.7 497.4 487.2 500.8C474.7 504.2 467.3 517.1 470.7 529.7C474.1 542.2 487 549.6 499.5 546.2C512 542.8 519.4 529.9 516 517.3Z" fill="#263238"/>
	<path fill-rule="evenodd" clip-rule="evenodd" d="M715.5 567.8C713.2 572.5 710.5 576.9 707.2 580.9L717.5 605.2L697.6 619.4L678 601.8C673.2 603.6 668.1 604.8 663 605.3L653.1 629.5L629 625.5L627.7 599.3C623 597.1 618.6 594.4 614.6 591.1L590.4 601.5L576.2 581.6L593.8 562C592 557.1 590.8 552.1 590.2 547L569.8 538.8L565.9 537.2L569.9 513.1L596.1 511.6C596.367 511.067 596.633 510.5 596.9 509.9C598.967 505.9 601.433 502.1 604.3 498.5L594 474.3L613.8 460.1L633.5 477.7C638.3 475.9 643.3 474.8 648.4 474.2L658.3 449.9L682.4 453.8L683.9 480.1C688.5 482.3 692.9 485 696.9 488.2L721.1 478L735.4 497.8L717.8 517.4C719.6 522.3 720.7 527.3 721.3 532.4L745.7 542.3L741.7 566.4L715.5 567.8ZM681.4 521.2C671.3 507 651.6 503.8 637.4 513.9C623.2 524.1 619.9 543.8 630.1 557.9C640.3 572.1 660 575.4 674.2 565.2C688.3 555.1 691.6 535.4 681.4 521.2Z" fill="#263238"/>
	<path d="M414.9 697.9H225.3C212.2 697.9 201.6 687.3 201.6 674.1V411.6C201.6 398.5 212.2 387.9 225.3 387.9H414.9C428.1 387.9 438.7 398.5 438.7 411.6V674.1C438.7 687.3 428.1 697.9 414.9 697.9Z" fill="url(#paint0_linear_7_1637)" stroke="#263238" stroke-width="2"/>
	<path opacity="0.2" d="M414.9 697.9H225.3C212.2 697.9 201.6 687.3 201.6 674.1V411.6C201.6 398.5 212.2 387.9 225.3 387.9H414.9C428.1 387.9 438.7 398.5 438.7 411.6V674.1C438.7 687.3 428.1 697.9 414.9 697.9Z" fill="black"/>
	<path d="M460.8 435V697.6C460.8 710.7 450.1 721.3 437 721.3H247.4C234.3 721.3 223.6 710.7 223.6 697.6V435C223.6 421.9 234.3 411.3 247.4 411.3H437C450.1 411.3 460.8 421.9 460.8 435Z" fill="white" stroke="#263238" stroke-width="2" stroke-linecap="round" stroke-linejoin="round"/>
	<path d="M460.8 435V449.1H223.6V435C223.6 421.9 234.3 411.3 247.4 411.3H437C450.1 411.3 460.8 421.9 460.8 435Z" fill="#76628B" stroke="#263238" stroke-width="2"/>
	<path d="M304.3 475.2H245.9V465.4H304.3V475.2Z" fill="url(#paint1_linear_7_1637)"/>
	<path d="M304.3 562.9H245.9V553.1H304.3V562.9Z" fill="url(#paint2_linear_7_1637)"/>
	<path d="M304.3 642.5H245.9V632.7H304.3V642.5Z" fill="url(#paint3_linear_7_1637)"/>
	<path d="M411.6 496.8H245.9V489.6H411.6V496.8Z" fill="#263238"/>
	<path d="M381.8 510.4H245.9V503.4H381.8V510.4Z" fill="#263238"/>
	<path d="M399.5 523.9H245.9V516.9H399.5V523.9Z" fill="#263238"/>
	<path d="M399.5 537.3H245.9V530.4H399.5V537.3Z" fill="#263238"/>
	<path d="M411.6 576.4H245.9V569.2H411.6V576.4Z" fill="#263238"/>
	<path d="M381.8 589.9H245.9V582.9H381.8V589.9Z" fill="#263238"/>
	<path d="M399.5 603.4H245.9V596.4H399.5V603.4Z" fill="#263238"/>
	<path d="M411.6 663.7H245.9V656.5H411.6V663.7Z" fill="#263238"/>
	<path d="M381.8 677.3H245.9V670.3H381.8V677.3Z" fill="#263238"/>
	<path d="M399.5 690.8H245.9V683.8H399.5V690.8Z" fill="#263238"/>
	<path d="M728 229.3V335.4C728 351 715.3 363.7 699.7 363.7H455.3C439.7 363.7 427 351 427 335.4V229.3C427 213.6 439.7 200.9 455.3 200.9H699.7C715.3 200.9 728 213.6 728 229.3Z" fill="white" stroke="#222221" stroke-width="2"/>
	<path d="M728 229.3V231.7H427V229.3C427 213.6 439.7 200.9 455.3 200.9H699.7C715.3 200.9 728 213.6 728 229.3Z" fill="#76628B" stroke="#263238" stroke-width="2"/>
	<path d="M471.2 221.4C469.5 223.1 466.7 223.1 465 221.4C463.4 219.7 463.4 216.9 465 215.2C466.7 213.5 469.5 213.5 471.2 215.2C472.9 216.9 472.9 219.7 471.2 221.4Z" fill="#263238"/>
	<path d="M491.3 221.4C489.7 223.1 486.9 223.1 485.2 221.4C483.5 219.7 483.5 216.9 485.2 215.2C486.9 213.5 489.7 213.5 491.3 215.2C493 216.9 493 219.7 491.3 221.4Z" fill="#263238"/>
	<path d="M511.5 221.4C509.8 223.1 507.1 223.1 505.4 221.4C503.7 219.7 503.7 216.9 505.4 215.2C507.1 213.5 509.8 213.5 511.5 215.2C513.2 216.9 513.2 219.7 511.5 221.4Z" fill="#263238"/>
	<path d="M544.6 336.3H446.2V251.2H544.6V336.3Z" stroke="#263238" stroke-width="2" stroke-linecap="round" stroke-linejoin="round" stroke-dasharray="8 8"/>
	<path d="M673 257.2H559.8V251.2H673V257.2Z" fill="#263238"/>
	<path d="M646.6 269.6H559.8V263.6H646.6V269.6Z" fill="#263238"/>
	<path d="M689.1 281.9H559.8V275.9H689.1V281.9Z" fill="#263238"/>
	<path d="M669.9 294H559.8V287.9H669.9V294Z" fill="#263238"/>
	<path d="M585 846C585 846 532.4 861.1 525 863.7C518.4 866.1 500.3 872.4 486.7 870.4C485.367 870.2 484.067 869.933 482.8 869.6C469 865.5 462.9 861.7 461.1 853C459.2 844.3 466.1 838 472.7 833.9C479.3 829.8 515.1 825.6 515.1 825.6L523.7 828.1H523.8L585 846Z" fill="#76628B"/>
	<path d="M486.7 870.4C485.367 870.2 484.067 869.933 482.8 869.6C469 865.5 462.9 861.7 461.1 853C459.2 844.3 466.1 838 472.7 833.9C479.3 829.8 515.1 825.6 515.1 825.6L523.7 828.1C515.9 831.7 486.8 833.7 480.4 837.4C474 841 471 847.9 474.7 857.3C476.7 862.2 482.1 867 486.7 870.4Z" fill="white"/>
	<path d="M577.1 848.2C577.1 848.2 537.6 858.4 521.9 864.9C506.3 871.5 476.4 874.3 465.7 860.8C455.1 847.3 464.5 835.7 475.1 833.1C485.8 830.6 507.3 826.5 519.1 828.1" stroke="#263238" stroke-width="2" stroke-linecap="round" stroke-linejoin="round"/>
	<path d="M487.5 869.7C487.5 869.7 467.4 858.7 474.1 843.3C479 831.9 505.8 834.3 519.1 828.1" stroke="#263238" stroke-width="2" stroke-linecap="round" stroke-linejoin="round"/>
	<path d="M745.1 872.9C744.6 878.3 742.7 883.4 737.2 886.6C733.6 888.8 728.4 890 721.1 890C702.6 889.7 668 876.5 668 876.5L635.5 858.6L652.4 831.9L657 824.6L668.9 827.2C668.9 827.2 678.8 832.8 688.8 837.3C698.7 841.8 722.8 842.7 731.3 849.6C739.8 856.4 746 863.9 745.1 872.9Z" fill="#76628B"/>
	<path d="M745.1 872.9C744.6 878.3 742.7 883.4 737.2 886.6C738.2 882.4 739.1 876.7 736.3 870.4C732.7 862.3 720.9 855.1 705.4 853.9C689.9 852.7 678 845.4 671.7 842.2C666.9 839.7 656.6 834.2 652.4 831.9L657 824.6L668.9 827.2C668.9 827.2 678.8 832.8 688.8 837.3C698.7 841.8 722.8 842.7 731.3 849.6C739.8 856.4 746 863.9 745.1 872.9Z" fill="white"/>
	<path d="M639.3 841.7C642.8 836.1 650.5 834.4 657 835.8C663.5 837.2 669.1 840.9 675 843.9C682.4 847.8 690.3 850.7 698.4 852.5C706.6 854.3 715 855.1 722.7 858.4C730.4 861.7 737.4 868.3 738.1 876.7C738.4 880 737.6 883.5 735.4 885.9C731.4 890.4 724.6 890.3 718.7 889.6C692.2 886.4 665.8 876.9 642.7 863.6" stroke="#263238" stroke-width="2" stroke-linecap="round" stroke-linejoin="round"/>
	<path d="M656 827.9C667.8 824.8 679.1 833.5 690.4 838C697.8 840.9 705.8 842 713.6 843.6C721.3 845.2 729.2 847.5 735.5 852.3C741.8 857.1 746.3 865 745.1 872.9C744.1 879.5 739.2 885.1 733.2 888.2" stroke="#263238" stroke-width="2" stroke-linecap="round" stroke-linejoin="round"/>
	<path fill-rule="evenodd" clip-rule="evenodd" d="M734.9 695.4C710.1 736.6 663.3 754 650.1 758.3C647.8 759 646.5 759.3 646.5 759.3C646.5 759.3 568.5 761.6 546.5 754C524.5 746.4 486.2 716.9 483.5 710.8C480.9 704.7 486.1 688.7 489.1 670.9C492 653.1 501.2 592.6 509.6 586.7C517.1 581.4 552.7 568 559.2 565.5C559.933 565.233 560.3 565.1 560.3 565.1C560.3 565.1 559.4 555.3 561.9 548.8C566.9 540.6 578.2 542.7 578.2 542.7C578.2 542.7 593.9 535.7 602.3 539.6C610.8 543.5 619.5 540.5 622.5 544.1C624.6 546.5 624.4 553.6 624.1 558C623.9 560.1 623.7 561.6 623.7 561.6L624.4 561.9L679.3 582.8C710.9 616.5 734.9 695.4 734.9 695.4ZM546.8 682.6L539.4 650L522.2 692.4L529.1 698.5C529.1 698.5 526.9 687.4 530.9 684.5C535 681.7 546.8 682.6 546.8 682.6ZM691.4 692.8C687.5 679.9 666.2 643.3 666.2 643.3L664.1 645.8C664.1 645.8 658 677.1 657.9 677.7L657 683.3C657 683.3 667.5 682.8 671 687.4C674.5 692.1 667.1 712.5 669 711.5C668.1 711.5 691.4 692.8 691.4 692.8Z" fill="#76628B"/>
	<path d="M617.9 452.7L630.9 464.1C630.9 464.1 626.3 479.7 633.7 481.7C642.2 479.2 642.1 487.6 641.4 495C640.6 502.3 636.1 510 634.1 511.8C632.2 513.5 628.2 512.6 627.6 516.1C627 519.6 618.3 532.8 618.3 532.8L614.7 550.8C614.7 550.8 599.8 565.5 590.3 564.4C580.7 563.3 570.5 554.4 570.5 554.4C571.3 548.7 569.8 528.4 569.8 528.4C565.5 523.2 559.4 510.1 559.4 510.1C559.4 510.1 555.6 510.1 552.8 509.5C550.1 508.9 546.5 501.4 544.9 492.7C543.4 483.9 547.3 480.5 547.3 480.5L575.6 450.4L617.9 452.7Z" fill="white"/>
	<path opacity="0.5" d="M624.4 561.9C624 563.033 623.5 564.1 622.9 565.1C618.3 574 597.9 590.8 597.9 590.8L591.7 571.8L588.3 590.8C581.5 587.8 560.8 569.8 560.8 569.8C560.8 569.8 560.1 568.1 559.2 565.5C559.933 565.233 560.3 565.1 560.3 565.1C560.3 565.1 559.4 555.3 561.9 548.8C566.9 540.6 578.2 542.7 578.2 542.7C578.2 542.7 593.9 535.7 602.3 539.6C610.8 543.5 619.5 540.5 622.5 544.1C625.6 547.7 623.7 561.6 623.7 561.6L624.4 561.9Z" fill="white"/>
	<path opacity="0.2" fill-rule="evenodd" clip-rule="evenodd" d="M734.9 695.4C710.1 736.6 663.3 754 650.1 758.3L637.5 745.3L641.7 696.1L651.8 609.5C652.9 600.4 648.2 591.7 640.2 587.3C628.6 581.1 614.8 576.2 614.8 576.2L622.9 565.1L624.1 558C623.9 560.1 623.7 561.6 623.7 561.6L624.4 561.9L679.3 582.8C710.9 616.5 734.9 695.4 734.9 695.4ZM691.4 692.8C687.5 679.9 666.2 643.3 666.2 643.3L664.1 645.8C664.1 645.8 658 677.1 657.9 677.7L657 683.3C657 683.3 667.5 682.8 671 687.4C674.5 692.1 667.1 712.5 669 711.5C668.1 711.5 691.4 692.8 691.4 692.8Z" fill="black"/>
	<path opacity="0.2" fill-rule="evenodd" clip-rule="evenodd" d="M534.5 707L536.4 723.4C536.4 723.4 511.7 703.7 501.6 703.7C491.4 703.7 493.2 700.5 501.6 687.4C509.9 674.4 518.9 630.5 518.9 630.5L516.2 593.8C524 603.4 534.5 634.8 539.3 650.2L522.2 692.4L529.1 698.5C529.1 698.5 526.9 687.4 530.9 684.5C535 681.7 546.8 682.6 546.8 682.6L539.9 652.2C541.2 656.3 542 658.9 542 658.9L550.5 687.4L534.5 707ZM539.5 650L539.4 650.3C539.6 650.967 539.8 651.6 540 652.2L539.5 650Z" fill="#02828B"/>
	<path d="M569.8 528.4C569.8 528.4 571.4 543.8 569.8 550.8" stroke="#263238" stroke-width="2" stroke-linecap="round" stroke-linejoin="round"/>
	<path d="M616.2 548.8C616.2 548.8 616.1 541.3 617.9 534.1" stroke="#263238" stroke-width="2" stroke-linecap="round" stroke-linejoin="round"/>
	<path d="M620.4 461.9C620.4 461.9 629.7 473.6 629.2 482.4C628.7 491.2 628 501.7 628.2 512C628.5 522.3 611.8 543.7 603.2 545.7C594.6 547.6 587.2 548 581.7 542.5C576.2 537.1 570.7 529.4 563.5 519.6C556.4 509.8 558 488.4 558 488.4" stroke="#263238" stroke-width="2" stroke-linecap="round" stroke-linejoin="round"/>
	<path d="M597.9 496.5C597.4 499.7 597.1 503 597.2 506.3C597.3 509 597.7 511.9 599.6 513.9C600.6 514.9 602.1 515.8 602.3 517.2C602.5 518.5 601.5 519.7 600.4 520.4C599.3 521.1 598 521.5 597.1 522.4" stroke="#263238" stroke-width="2" stroke-linecap="round" stroke-linejoin="round"/>
	<path d="M583.2 523.5C583.2 523.5 584.2 530.5 593.5 531.9" stroke="#263238" stroke-width="2" stroke-linecap="round" stroke-linejoin="round"/>
	<path d="M584.1 501.8C584.1 503.8 583.3 505.5 582.2 505.5C581.1 505.5 580.3 503.8 580.3 501.8C580.3 499.8 581.1 498.2 582.2 498.2C583.3 498.2 584.1 499.8 584.1 501.8Z" fill="#263238"/>
	<path d="M611.9 502.7C611.9 504.7 611 506.3 609.9 506.3C608.9 506.3 608 504.7 608 502.7C608 500.7 608.9 499.1 609.9 499.1C611 499.1 611.9 500.7 611.9 502.7Z" fill="#263238"/>
	<path d="M606.3 493.9C606.3 493.9 615.3 484.9 622.9 495" stroke="#263238" stroke-width="4" stroke-linecap="round" stroke-linejoin="round"/>
	<path d="M587.2 494.1C587.2 494.1 581.5 487.7 572.4 494.1" stroke="#263238" stroke-width="4" stroke-linecap="round" stroke-linejoin="round"/>
	<path d="M569.8 528.4C569.8 528.4 581.6 544.6 593.5 547C605.5 549.3 616.2 535.4 616.2 535.4L617.1 538.3C617.1 538.3 600.7 560.7 588.3 556.4C576 552.1 570.5 536.9 570.5 536.9L569.8 528.4Z" fill="#263238"/>
	<path d="M559.4 509.5C559.4 509.5 552 512.1 550.1 506.3C548.1 500.6 541.4 485.5 547.3 480.5C553.2 475.4 557.9 487.1 557.9 487.1" stroke="#263238" stroke-width="2" stroke-linecap="round" stroke-linejoin="round"/>
	<path d="M629.2 489C629.2 489 633.9 477.3 639.8 482.4C645.7 487.4 639 502.5 637 508.2C635.1 514 628.2 512.6 628.2 512.6" stroke="#263238" stroke-width="2" stroke-linecap="round" stroke-linejoin="round"/>
	<path d="M558 488.4C551 474.9 545.5 481.5 545.5 481.5C545.5 481.5 531.8 462.9 539 449.4C546.2 435.9 562.6 434 562.6 434C567.4 424.9 578.6 423.8 587.7 424.7C598.4 425.9 608.7 432.7 619.3 428.8C625.1 426.6 630.9 423.2 637.3 424.7C642.1 426 645.9 429.6 646.4 434.7C647.9 449 635.5 460.3 622.5 462.9C598.5 467.6 581.8 452.3 581.8 452.3C582.4 456.2 580.6 460.2 578.2 463.3C575.8 466.4 572.7 469 570.1 472C569.1 473.2 568.1 474.5 567.6 476C567.2 477.5 567.2 479 567.2 480.6C567.2 484.467 566.867 488.333 566.2 492.2C565.9 494.2 565.4 496.3 564.3 498C563.3 499.8 559.9 501.7 557.9 501.8L558 488.4Z" fill="#263238"/>
	<path d="M631.2 458.4C639.3 471.3 633.1 483 633.1 483C630.6 484.6 628.2 491.2 628.2 491.2C617.1 480.5 621.4 458.4 621.4 458.4C621.4 458.4 623.1 445.5 631.2 458.4Z" fill="#263238"/>
	<path opacity="0.2" d="M556 467.5C556.9 454.6 570.8 443.3 583.3 444.4C598.7 445.7 613.7 452.7 629 446.4C634.9 444 640 439.3 641.7 433.2" stroke="white" stroke-width="2" stroke-linecap="round" stroke-linejoin="round"/>
	<path opacity="0.2" d="M546.5 464.1C546.7 454 553.4 444.2 562.8 440.4" stroke="white" stroke-width="2" stroke-linecap="round" stroke-linejoin="round"/>
	<path d="M617.9 547C608.6 559.8 590.2 565.1 590.2 565.1C576.4 559.9 566.2 548.8 566.2 548.8" stroke="#263238" stroke-width="2" stroke-linecap="round" stroke-linejoin="round"/>
	<path d="M594.5 501.8C594.5 510.8 587.2 518.1 578.2 518.1C569.2 518.1 561.9 510.8 561.9 501.8C561.9 492.8 569.2 485.5 578.2 485.5C587.2 485.5 594.5 492.8 594.5 501.8Z" stroke="#263238" stroke-width="2" stroke-linecap="round" stroke-linejoin="round"/>
	<path d="M630.9 501.8C630.9 510.8 623.6 518.1 614.6 518.1C605.6 518.1 598.3 510.8 598.3 501.8C598.3 492.8 605.6 485.5 614.6 485.5C623.6 485.5 630.9 492.8 630.9 501.8Z" stroke="#263238" stroke-width="2" stroke-linecap="round" stroke-linejoin="round"/>
	<path d="M617.1 542.7C617.1 542.7 621.2 542.5 622.9 547C624.7 551.5 622.9 565.1 622.9 565.1C617.5 576.9 597.9 590.7 597.9 590.7L592.1 569.7L588.3 590.7C575.7 584.5 560.8 569.8 560.8 569.8C560.8 569.8 559.1 553.8 561.9 548.8C564.8 543.7 569.8 542.7 569.8 542.7" stroke="#263238" stroke-width="2" stroke-linecap="round" stroke-linejoin="round"/>
	<path d="M546.5 683.3C546.5 683.3 540.7 644.3 532.9 628.4" stroke="#263238" stroke-width="2" stroke-linecap="round" stroke-linejoin="round"/>
	<path d="M516.2 593.8C516.2 593.8 523.5 604.1 528.2 613.9" stroke="#263238" stroke-width="2" stroke-linecap="round" stroke-linejoin="round"/>
	<path d="M669 622.9C671.1 615.1 673.2 608.3 675.4 603.9" stroke="#263238" stroke-width="2" stroke-linecap="round" stroke-linejoin="round"/>
	<path d="M657 683.3C657 683.3 661.2 656.5 666.2 634.5" stroke="#263238" stroke-width="2" stroke-linecap="round" stroke-linejoin="round"/>
	<path d="M664.1 645.8C668.1 640.4 673.9 636.5 680.3 634.7" stroke="#263238" stroke-width="2" stroke-linecap="round" stroke-linejoin="round"/>
	<path d="M623.7 561.6C623.7 561.6 657.5 575.1 679.3 582.8C679.3 582.8 706.2 608 734.9 695.4C734.9 695.4 708.6 739.7 658.4 754" stroke="#263238" stroke-width="2" stroke-linecap="round" stroke-linejoin="round"/>
	<path d="M667.1 713.1L691.4 692.8C691.4 692.8 704.2 683.1 717.5 689.8" stroke="#263238" stroke-width="2" stroke-linecap="round" stroke-linejoin="round"/>
	<path d="M666.2 643.3C666.2 643.3 686.2 672.8 691.4 692.8" stroke="#263238" stroke-width="2" stroke-linecap="round" stroke-linejoin="round"/>
	<path d="M499.8 699C511.7 691 522.2 692.8 522.2 692.8L529.3 699.6" stroke="#263238" stroke-width="2" stroke-linecap="round" stroke-linejoin="round"/>
	<path d="M522.2 692.8C522.2 692.8 531 663.9 539.7 649" stroke="#263238" stroke-width="2" stroke-linecap="round" stroke-linejoin="round"/>
	<path d="M539.7 751.5C521 741.6 483.1 718.1 483.5 707.7C484 696 502.1 594 506.9 588.7C511.7 583.4 560.3 565.1 560.3 565.1" stroke="#263238" stroke-width="2" stroke-linecap="round" stroke-linejoin="round"/>
	<path d="M736.3 548.8H680.9C674.3 548.8 669 543.5 669 536.9V504.4C669 497.9 674.3 492.6 680.9 492.6H736.3C742.8 492.6 748.1 497.9 748.1 504.4V536.9C748.1 543.5 742.8 548.8 736.3 548.8Z" fill="white" stroke="#263238" stroke-width="2" stroke-linecap="round" stroke-linejoin="round"/>
	<path d="M693.4 531.5L679.3 519L694.5 509.5" stroke="#263238" stroke-width="2" stroke-linecap="round" stroke-linejoin="round"/>
	<path d="M720.1 510.5L735.9 520.8L722.2 532.4" stroke="#263238" stroke-width="2" stroke-linecap="round" stroke-linejoin="round"/>
	<path d="M701.9 539.6L713.2 504.4" stroke="#263238" stroke-width="2" stroke-linecap="round" stroke-linejoin="round"/>
	<path d="M596.6 599.6C596.6 601.4 595.2 602.8 593.4 602.8C591.7 602.8 590.2 601.4 590.2 599.6C590.2 597.8 591.7 596.4 593.4 596.4C595.2 596.4 596.6 597.8 596.6 599.6Z" fill="#263238"/>
	<path d="M652.9 770.4H542.2C540.8 770.4 539.7 769.3 539.7 767.8C539.7 766.4 540.8 765.2 542.2 765.2H652.9C654.3 765.2 655.5 766.4 655.5 767.8C655.5 769.3 654.3 770.4 652.9 770.4Z" fill="#263238"/>
	<path d="M649.3 767.7L548.2 765.4C544.7 765.3 541.8 762.8 541.1 759.4L527.8 692.1C526.9 687.5 530.4 683.3 535.1 683.3H664.3C669 683.3 672.6 687.6 671.6 692.2L656.7 761.8C656 765.3 652.9 767.8 649.3 767.7Z" fill="white" stroke="#263238" stroke-width="2" stroke-linecap="round" stroke-linejoin="round"/>
	<path d="M609.6 723.4C609.6 729.1 605 733.7 599.3 733.7C593.6 733.7 588.9 729.1 588.9 723.4C588.9 717.7 593.6 713.1 599.3 713.1C605 713.1 609.6 717.7 609.6 723.4Z" fill="#263238"/>
	<path d="M629.9 689.9H645.2" stroke="#263238" stroke-width="2" stroke-linecap="round" stroke-linejoin="round"/>
	<path d="M556.5 689.9H614.8" stroke="#263238" stroke-width="2" stroke-linecap="round" stroke-linejoin="round"/>
	<path d="M657 835.7L645.2 866.6C645.2 866.6 615.2 859 576.7 851.2C536.4 842.9 494.4 832.2 472.6 794C469.9 789.3 468.1 783.8 469.4 778.6C472.5 765.3 489.7 761.8 501 760.4C508.2 759.6 515.3 759.3 522.5 759.2C526.1 759.2 538.2 757.3 541.1 759.4C541.1 759.4 548.7 765 555.1 767.7C561.5 770.4 655.5 765.2 655.5 765.2C655.5 765.2 658.3 759.3 658.4 754C673.2 746.5 707.4 740.1 721.8 742.9C744.6 747.3 757.8 760.6 755.3 774.5C752.8 788.3 702.6 825.6 657 835.7Z" fill="#263238"/>
	<path d="M530.9 782C563.5 778.2 581.7 796.6 605.1 812.3C628.4 828.1 657 835.7 657 835.7" stroke="white" stroke-width="2" stroke-linecap="round" stroke-linejoin="round"/>
	<path d="M677.2 759.3C662.9 766.6 649.7 776 637.1 785.7C625.3 794.8 614.5 804.4 599.7 808.6" stroke="white" stroke-width="2" stroke-linecap="round" stroke-linejoin="round"/>
	<path d="M594.5 504.4H598.8" stroke="#263238" stroke-width="2" stroke-linecap="round" stroke-linejoin="round"/>
	<defs>
		<linearGradient id="paint0_linear_7_1637" x1="320.1" y1="697.9" x2="320.1" y2="387.9" gradientUnits="userSpaceOnUse">
			<stop/>
			<stop offset="1" stop-color="white"/>
		</linearGradient>
		<linearGradient id="paint1_linear_7_1637" x1="275.1" y1="475.2" x2="275.1" y2="465.4" gradientUnits="userSpaceOnUse">
			<stop/>
			<stop offset="1" stop-color="white"/>
		</linearGradient>
		<linearGradient id="paint2_linear_7_1637" x1="275.1" y1="562.9" x2="275.1" y2="553.1" gradientUnits="userSpaceOnUse">
			<stop/>
			<stop offset="1" stop-color="white"/>
		</linearGradient>
		<linearGradient id="paint3_linear_7_1637" x1="275.1" y1="642.5" x2="275.1" y2="632.7" gradientUnits="userSpaceOnUse">
			<stop/>
			<stop offset="1" stop-color="white"/>
		</linearGradient>
	</defs>
</svg>
