<svg version="1.2" xmlns="http://www.w3.org/2000/svg" viewBox="0 0 1000 1000" width="1000" height="1000">
	<title>4113320-ai</title>
	<defs>
		<linearGradient id="g1" x1="320.1" y1="697.9" x2="320.1" y2="387.9" gradientUnits="userSpaceOnUse">
			<stop offset="0" stop-color="#000000"/>
			<stop offset="1" stop-color="#ffffff"/>
		</linearGradient>
		<linearGradient id="g2" x1="275.1" y1="475.2" x2="275.1" y2="465.4" gradientUnits="userSpaceOnUse">
			<stop offset="0" stop-color="#000000"/>
			<stop offset="1" stop-color="#ffffff"/>
		</linearGradient>
		<linearGradient id="g3" x1="275.1" y1="562.9" x2="275.1" y2="553.1" gradientUnits="userSpaceOnUse">
			<stop offset="0" stop-color="#000000"/>
			<stop offset="1" stop-color="#ffffff"/>
		</linearGradient>
		<linearGradient id="g4" x1="275.1" y1="642.5" x2="275.1" y2="632.7" gradientUnits="userSpaceOnUse">
			<stop offset="0" stop-color="#000000"/>
			<stop offset="1" stop-color="#ffffff"/>
		</linearGradient>
	</defs>
	<style>
		.s0 { fill: #008f99 } 
		.s1 { opacity: .7;fill: #ffffff } 
		.s2 { fill: none;stroke: #263238;stroke-linecap: round;stroke-linejoin: round;stroke-width: 2;stroke-dasharray: 8 } 
		.s3 { opacity: .5;fill: #ffffff } 
		.s4 { fill: #ffffff;stroke: #263238;stroke-linecap: round;stroke-linejoin: round;stroke-width: 2 } 
		.s5 { fill: #263238 } 
		.s6 { opacity: .2;fill: #ffffff } 
		.s7 { fill: #008f99;stroke: #263238;stroke-width: 2 } 
		.s8 { fill: none;stroke: #263238;stroke-width: 2 } 
		.s9 { fill: url(#g1);stroke: #263238;stroke-width: 2 } 
		.s10 { opacity: .2;fill: #000000 } 
		.s11 { fill: url(#g2) } 
		.s12 { fill: url(#g3) } 
		.s13 { fill: url(#g4) } 
		.s14 { fill: #ffffff;stroke: #222221;stroke-width: 2 } 
		.s15 { fill: #ffffff } 
		.s16 { fill: none;stroke: #263238;stroke-linecap: round;stroke-linejoin: round;stroke-width: 2 } 
		.s17 { opacity: .2;fill: #02828b } 
		.s18 { fill: none;stroke: #263238;stroke-linecap: round;stroke-linejoin: round;stroke-width: 4 } 
		.s19 { opacity: .2;fill: none;stroke: #ffffff;stroke-linecap: round;stroke-linejoin: round;stroke-width: 2 } 
		.s20 { fill: none;stroke: #ffffff;stroke-linecap: round;stroke-linejoin: round;stroke-width: 2 } 
	</style>
	<g id="Background Simple">
		<g id="&lt;Group&gt;">
			<path id="&lt;Path&gt;" class="s0" d="m170.8 248.4c120.4-157.9 390-164.5 577.9-69.6 140.9 71.2 217.4 204.9 140.3 326.9-21.6 34.2-56.3 65.9-99.8 83.1-45.6 18-102.4 11.4-151.9 6.5-96.7-9.7-195.9 223.8-387.2 193.9-146-22.9-169.9-158.4-169.7-255.4q0-1.1 0-2.2c0.6-96.8 27.5-200.6 90.4-283.2z"/>
			<path id="&lt;Path&gt;" class="s1" d="m170.8 248.4c120.4-157.9 390-164.5 577.9-69.6 140.9 71.2 217.4 204.9 140.3 326.9-21.6 34.2-56.3 65.9-99.8 83.1-45.6 18-102.4 11.4-151.9 6.5-96.7-9.7-195.9 223.8-387.2 193.9-146-22.9-169.9-158.4-169.7-255.4q0-1.1 0-2.2c0.6-96.8 27.5-200.6 90.4-283.2z"/>
		</g>
	</g>
	<g id="Lines">
		<g id="&lt;Group&gt;">
			<path id="&lt;Path&gt;" class="s2" d="m353.3 695.5c0 22-17.8 39.8-39.8 39.8h-134.8c-22 0-39.8-17.8-39.8-39.8v-218.2c0-21.9 17.8-39.7 39.8-39.7h9.8"/>
			<path id="&lt;Path&gt;" class="s2" d="m342.2 231.7v-43.1c0-13.5 10.9-24.4 24.4-24.4h175.3c13.4 0 24.3 10.9 24.3 24.4"/>
		</g>
	</g>
	<g id="Shadow">
		<g id="&lt;Group&gt;">
			<path id="&lt;Path&gt;" class="s0" d="m836 849.5c0 26.8-150.4 48.5-336 48.5-185.6 0-336-21.7-336-48.5 0-26.8 150.4-48.5 336-48.5 185.6 0 336 21.7 336 48.5z"/>
			<path id="&lt;Path&gt;" class="s3" d="m836 849.5c0 26.8-150.4 48.5-336 48.5-185.6 0-336-21.7-336-48.5 0-26.8 150.4-48.5 336-48.5 185.6 0 336 21.7 336 48.5z"/>
		</g>
	</g>
	<g id="Window">
		<g id="&lt;Group&gt;">
			<path id="&lt;Path&gt;" class="s4" d="m827.3 289.5v326.5c0 22.2-18 40.2-40.2 40.2h-574.2c-22.2 0-40.2-18-40.2-40.2v-326.5q0-1.4 0.1-2.8c1.4-20.9 18.9-37.5 40.1-37.5h574.2c21.3 0 38.7 16.6 40.1 37.5q0.1 1.4 0.1 2.8z"/>
			<path id="&lt;Path&gt;" class="s5" d="m772.1 641h-542.1c-20.9 0-37.7-16.9-37.7-37.7v-301.5h617.5v301.5c0 20.8-16.9 37.7-37.7 37.7z"/>
			<path id="&lt;Path&gt;" class="s6" d="m809.8 301.7v301.6c0 20.8-16.7 37.7-37.3 37.7h-543c-20.5 0-37.2-16.9-37.2-37.7v-301.6z"/>
			<path id="&lt;Path&gt;" class="s7" d="m827.2 286.7h-654.4c1.4-20.9 18.8-37.5 40.1-37.5h574.2c21.2 0 38.7 16.6 40.1 37.5z"/>
			<path id="&lt;Path&gt;" class="s5" d="m253.2 268c0 3.9-3.2 7.1-7.1 7.1-4 0-7.1-3.2-7.1-7.1 0-4 3.1-7.2 7.1-7.2 3.9 0 7.1 3.2 7.1 7.2z"/>
			<path id="&lt;Path&gt;" class="s5" d="m283.3 268c0 3.9-3.1 7.1-7.1 7.1-3.9 0-7.1-3.2-7.1-7.1 0-4 3.2-7.2 7.1-7.2 4 0 7.1 3.2 7.1 7.2z"/>
			<path id="&lt;Path&gt;" class="s5" d="m313.5 268c0 3.9-3.2 7.1-7.1 7.1-4 0-7.2-3.2-7.2-7.1 0-4 3.2-7.2 7.2-7.2 3.9 0 7.1 3.2 7.1 7.2z"/>
			<path id="&lt;Path&gt;" class="s8" d="m809.8 301.8v301.5c0 20.8-16.9 37.7-37.7 37.7h-542.1c-18.4 0-33.6-13-37-30.4v-0.1q-0.7-3.5-0.7-7.2v-301.5z"/>
			<path id="&lt;Compound Path&gt;" fill-rule="evenodd" class="s5" d="m809.8 348v68.6l-0.6-0.4c-2.7 1.5-5.5 2.7-8.4 3.5l-3.4 15.1h-14.4l-3.4-15.1q-4.4-1.2-8.4-3.5l-13 8.3-10.2-10.2 8.3-13q-2.3-4-3.5-8.5l-15.1-3.4v-14.4l15.1-3.3q1.2-4.4 3.5-8.4l-8.2-13 10.2-10.2 13 8.3c2.6-1.5 5.5-2.7 8.4-3.5l3.4-15.1h14.4l3.3 15.1c3 0.9 5.8 2 8.4 3.5zm-0.9 34.3c0-10.3-8.3-18.6-18.6-18.6-10.3 0-18.6 8.3-18.6 18.6 0 10.3 8.3 18.6 18.6 18.6 10.3 0 18.6-8.3 18.6-18.6z"/>
			<path id="&lt;Compound Path&gt;" fill-rule="evenodd" class="s5" d="m517.9 370.1c-1.8 6.2-4.3 12.1-7.3 17.7l17.4 27.6-21.5 21.4-27.6-17.5c-5.5 3.1-11.5 5.6-17.6 7.3l-7.2 31.9h-30.3l-7.1-31.9c-6.2-1.7-12.1-4.2-17.7-7.3l-27.6 17.5-21.5-21.4 17.6-27.6c-3.2-5.6-5.6-11.6-7.3-17.9l-31.9-7.1v-30.3l31.9-7.1c1.7-6.2 4.1-12.2 7.3-17.7l-3.7-6h150.6l-3.8 6.1c3.1 5.6 5.5 11.6 7.3 17.7l31.9 7.1v30.4zm-39.5-22.3c0-21.7-17.6-39.2-39.2-39.2-21.7 0-39.2 17.5-39.2 39.2 0 21.6 17.5 39.2 39.2 39.2 21.6 0 39.2-17.6 39.2-39.2z"/>
			<path id="&lt;Compound Path&gt;" fill-rule="evenodd" class="s5" d="m322.8 575.8c-1.6 4.8-3.8 9.4-6.6 13.7l12.8 22.6-18 16.2-21.1-15.1q-6.9 3.4-14.4 5.1l-6.3 22.7-0.6 2.3-24.1-1.2-0.2-1.1-4.1-24.6c-4.9-1.6-9.5-3.8-13.8-6.6l-22.7 12.8-10.7-12v-0.1l-0.7-12.5 10.4-14.5c-2.3-4.6-4-9.4-5.1-14.4l-5.3-1.5v-32.6l7.3-1.2q2.4-7.3 6.6-13.8l-12.8-22.6 17.9-16.1 21.2 15c4.5-2.2 9.3-3.9 14.3-5l7-25.1 24 1.3 4.4 25.6c4.8 1.7 9.4 3.9 13.7 6.6l22.6-12.8 16.2 17.9-15.1 21.2c2.2 4.6 4 9.4 5.1 14.3l25 7.1-1.3 24.1zm-38.3-42c-11.5-12.8-31.3-13.8-44.1-2.3-12.8 11.5-13.8 31.2-2.3 44 11.5 12.8 31.3 13.9 44.1 2.3 12.8-11.5 13.8-31.2 2.3-44z"/>
			<path id="&lt;Compound Path&gt;" fill-rule="evenodd" class="s5" d="m555.5 548.7l-1.4 2.2-7.7 13.5-18.7-5.8q-4.1 4.1-9.2 7.1l0.2 2.8 0.7 16.7-17.5 4.8-9.1-17.3q-5.8-0.1-11.4-1.5l-13.1 14.3-15.8-9 5.8-18.6c-2.7-2.8-5-5.8-7-9.1l-19.6 0.9-4.7-17.5 17.3-9.2c0-3.8 0.5-7.6 1.4-11.4l-14.4-13.1 9-15.8 18.7 5.8c2.7-2.7 5.8-5 9.1-7l-0.9-19.6 17.5-4.8 9.1 17.4c3.9 0 7.7 0.5 11.4 1.4l13.2-14.4 15.8 9.1-5.8 18.6c2.7 2.8 5 5.8 7 9.1l19.6-0.9 4.8 17.6-17.4 9.1c0 3.8-0.5 7.6-1.4 11.4zm-39.5-31.4c-3.4-12.5-16.3-19.9-28.8-16.5-12.5 3.4-19.9 16.3-16.5 28.9 3.4 12.5 16.3 19.9 28.8 16.5 12.5-3.4 19.9-16.3 16.5-28.9z"/>
			<path id="&lt;Compound Path&gt;" fill-rule="evenodd" class="s5" d="m715.5 567.8c-2.3 4.7-5 9.1-8.3 13.1l10.3 24.3-19.9 14.2-19.6-17.6c-4.8 1.8-9.9 3-15 3.5l-9.9 24.2-24.1-4-1.3-26.2c-4.7-2.2-9.1-4.9-13.1-8.2l-24.2 10.4-14.2-19.9 17.6-19.6c-1.8-4.9-3-9.9-3.6-15l-20.4-8.2-3.9-1.6 4-24.1 26.2-1.5q0.4-0.8 0.8-1.7 3.1-6 7.4-11.4l-10.3-24.2 19.8-14.2 19.7 17.6c4.8-1.8 9.8-2.9 14.9-3.5l9.9-24.3 24.1 3.9 1.5 26.3c4.6 2.2 9 4.9 13 8.1l24.2-10.2 14.3 19.8-17.6 19.6c1.8 4.9 2.9 9.9 3.5 15l24.4 9.9-4 24.1zm-34.1-46.6c-10.1-14.2-29.8-17.4-44-7.3-14.2 10.2-17.5 29.9-7.3 44 10.2 14.2 29.9 17.5 44.1 7.3 14.1-10.1 17.4-29.8 7.2-44z"/>
		</g>
	</g>
	<g id="Graphics">
		<g id="&lt;Group&gt;">
			<g id="&lt;Group&gt;">
				<path id="&lt;Path&gt;" class="s9" d="m414.9 697.9h-189.6c-13.1 0-23.7-10.6-23.7-23.8v-262.5c0-13.1 10.6-23.7 23.7-23.7h189.6c13.2 0 23.8 10.6 23.8 23.7v262.5c0 13.2-10.6 23.8-23.8 23.8z"/>
				<path id="&lt;Path&gt;" class="s10" d="m414.9 697.9h-189.6c-13.1 0-23.7-10.6-23.7-23.8v-262.5c0-13.1 10.6-23.7 23.7-23.7h189.6c13.2 0 23.8 10.6 23.8 23.7v262.5c0 13.2-10.6 23.8-23.8 23.8z"/>
				<g id="&lt;Group&gt;">
					<path id="&lt;Path&gt;" class="s4" d="m460.8 435v262.6c0 13.1-10.7 23.7-23.8 23.7h-189.6c-13.1 0-23.8-10.6-23.8-23.7v-262.6c0-13.1 10.7-23.7 23.8-23.7h189.6c13.1 0 23.8 10.6 23.8 23.7z"/>
					<path id="&lt;Path&gt;" class="s7" d="m460.8 435v14.1h-237.2v-14.1c0-13.1 10.7-23.7 23.8-23.7h189.6c13.1 0 23.8 10.6 23.8 23.7z"/>
					<path id="&lt;Path&gt;" class="s11" d="m304.3 475.2h-58.4v-9.8h58.4z"/>
					<path id="&lt;Path&gt;" class="s12" d="m304.3 562.9h-58.4v-9.8h58.4z"/>
					<path id="&lt;Path&gt;" class="s13" d="m304.3 642.5h-58.4v-9.8h58.4z"/>
					<g id="&lt;Group&gt;">
						<path id="&lt;Path&gt;" class="s5" d="m411.6 496.8h-165.7v-7.2h165.7z"/>
						<path id="&lt;Path&gt;" class="s5" d="m381.8 510.4h-135.9v-7h135.9z"/>
						<path id="&lt;Path&gt;" class="s5" d="m399.5 523.9h-153.6v-7h153.6z"/>
						<path id="&lt;Path&gt;" class="s5" d="m399.5 537.3h-153.6v-6.9h153.6z"/>
					</g>
					<g id="&lt;Group&gt;">
						<path id="&lt;Path&gt;" class="s5" d="m411.6 576.4h-165.7v-7.2h165.7z"/>
						<path id="&lt;Path&gt;" class="s5" d="m381.8 589.9h-135.9v-7h135.9z"/>
						<path id="&lt;Path&gt;" class="s5" d="m399.5 603.4h-153.6v-7h153.6z"/>
					</g>
					<g id="&lt;Group&gt;">
						<path id="&lt;Path&gt;" class="s5" d="m411.6 663.7h-165.7v-7.2h165.7z"/>
						<path id="&lt;Path&gt;" class="s5" d="m381.8 677.3h-135.9v-7h135.9z"/>
						<path id="&lt;Path&gt;" class="s5" d="m399.5 690.8h-153.6v-7h153.6z"/>
					</g>
				</g>
			</g>
			<g id="&lt;Group&gt;">
				<path id="&lt;Path&gt;" class="s14" d="m728 229.3v106.1c0 15.6-12.7 28.3-28.3 28.3h-244.4c-15.6 0-28.3-12.7-28.3-28.3v-106.1c0-15.7 12.7-28.4 28.3-28.4h244.4c15.6 0 28.3 12.7 28.3 28.4z"/>
				<path id="&lt;Path&gt;" class="s7" d="m728 229.3v2.4h-301v-2.4c0-15.7 12.7-28.4 28.3-28.4h244.4c15.6 0 28.3 12.7 28.3 28.4z"/>
				<path id="&lt;Path&gt;" class="s5" d="m471.2 221.4c-1.7 1.7-4.5 1.7-6.2 0-1.6-1.7-1.6-4.5 0-6.2 1.7-1.7 4.5-1.7 6.2 0 1.7 1.7 1.7 4.5 0 6.2z"/>
				<path id="&lt;Path&gt;" class="s5" d="m491.3 221.4c-1.6 1.7-4.4 1.7-6.1 0-1.7-1.7-1.7-4.5 0-6.2 1.7-1.7 4.5-1.7 6.1 0 1.7 1.7 1.7 4.5 0 6.2z"/>
				<path id="&lt;Path&gt;" class="s5" d="m511.5 221.4c-1.7 1.7-4.4 1.7-6.1 0-1.7-1.7-1.7-4.5 0-6.2 1.7-1.7 4.4-1.7 6.1 0 1.7 1.7 1.7 4.5 0 6.2z"/>
				<path id="&lt;Path&gt;" class="s2" d="m544.6 336.3h-98.4v-85.1h98.4z"/>
				<g id="&lt;Group&gt;">
					<path id="&lt;Path&gt;" class="s5" d="m673 257.2h-113.2v-6h113.2z"/>
					<path id="&lt;Path&gt;" class="s5" d="m646.6 269.6h-86.8v-6h86.8z"/>
					<path id="&lt;Path&gt;" class="s5" d="m689.1 281.9h-129.3v-6h129.3z"/>
					<path id="&lt;Path&gt;" class="s5" d="m669.9 294h-110.1v-6.1h110.1z"/>
				</g>
			</g>
		</g>
	</g>
	<g id="Character">
		<g id="&lt;Group&gt;">
			<path id="&lt;Path&gt;" class="s0" d="m585 846c0 0-52.6 15.1-60 17.7-6.6 2.4-24.7 8.7-38.3 6.7q-2-0.3-3.9-0.8c-13.8-4.1-19.9-7.9-21.7-16.6-1.9-8.7 5-15 11.6-19.1 6.6-4.1 42.4-8.3 42.4-8.3l8.6 2.5h0.1z"/>
			<path id="&lt;Path&gt;" class="s15" d="m486.7 870.4q-2-0.3-3.9-0.8c-13.8-4.1-19.9-7.9-21.7-16.6-1.9-8.7 5-15 11.6-19.1 6.6-4.1 42.4-8.3 42.4-8.3l8.6 2.5c-7.8 3.6-36.9 5.6-43.3 9.3-6.4 3.6-9.4 10.5-5.7 19.9 2 4.9 7.4 9.7 12 13.1z"/>
			<path id="&lt;Path&gt;" class="s16" d="m577.1 848.2c0 0-39.5 10.2-55.2 16.7-15.6 6.6-45.5 9.4-56.2-4.1-10.6-13.5-1.2-25.1 9.4-27.7 10.7-2.5 32.2-6.6 44-5"/>
			<path id="&lt;Path&gt;" class="s16" d="m487.5 869.7c0 0-20.1-11-13.4-26.4 4.9-11.4 31.7-9 45-15.2"/>
			<path id="&lt;Path&gt;" class="s0" d="m745.1 872.9c-0.5 5.4-2.4 10.5-7.9 13.7-3.6 2.2-8.8 3.4-16.1 3.4-18.5-0.3-53.1-13.5-53.1-13.5l-32.5-17.9 16.9-26.7 4.6-7.3 11.9 2.6c0 0 9.9 5.6 19.9 10.1 9.9 4.5 34 5.4 42.5 12.3 8.5 6.8 14.7 14.3 13.8 23.3z"/>
			<path id="&lt;Path&gt;" class="s15" d="m745.1 872.9c-0.5 5.4-2.4 10.5-7.9 13.7 1-4.2 1.9-9.9-0.9-16.2-3.6-8.1-15.4-15.3-30.9-16.5-15.5-1.2-27.4-8.5-33.7-11.7-4.8-2.5-15.1-8-19.3-10.3l4.6-7.3 11.9 2.6c0 0 9.9 5.6 19.9 10.1 9.9 4.5 34 5.4 42.5 12.3 8.5 6.8 14.7 14.3 13.8 23.3z"/>
			<path id="&lt;Path&gt;" class="s16" d="m639.3 841.7c3.5-5.6 11.2-7.3 17.7-5.9 6.5 1.4 12.1 5.1 18 8.1 7.4 3.9 15.3 6.8 23.4 8.6 8.2 1.8 16.6 2.6 24.3 5.9 7.7 3.3 14.7 9.9 15.4 18.3 0.3 3.3-0.5 6.8-2.7 9.2-4 4.5-10.8 4.4-16.7 3.7-26.5-3.2-52.9-12.7-76-26"/>
			<path id="&lt;Path&gt;" class="s16" d="m656 827.9c11.8-3.1 23.1 5.6 34.4 10.1 7.4 2.9 15.4 4 23.2 5.6 7.7 1.6 15.6 3.9 21.9 8.7 6.3 4.8 10.8 12.7 9.6 20.6-1 6.6-5.9 12.2-11.9 15.3"/>
			<path id="&lt;Compound Path&gt;" fill-rule="evenodd" class="s0" d="m734.9 695.4c-24.8 41.2-71.6 58.6-84.8 62.9-2.3 0.7-3.6 1-3.6 1 0 0-78 2.3-100-5.3-22-7.6-60.3-37.1-63-43.2-2.6-6.1 2.6-22.1 5.6-39.9 2.9-17.8 12.1-78.3 20.5-84.2 7.5-5.3 43.1-18.7 49.6-21.2q1.1-0.4 1.1-0.4c0 0-0.9-9.8 1.6-16.3 5-8.2 16.3-6.1 16.3-6.1 0 0 15.7-7 24.1-3.1 8.5 3.9 17.2 0.9 20.2 4.5 2.1 2.4 1.9 9.5 1.6 13.9-0.2 2.1-0.4 3.6-0.4 3.6l0.7 0.3 54.9 20.9c31.6 33.7 55.6 112.6 55.6 112.6zm-188.1-12.8l-7.4-32.6-17.2 42.4 6.9 6.1c0 0-2.2-11.1 1.8-14 4.1-2.8 15.9-1.9 15.9-1.9zm144.6 10.2c-3.9-12.9-25.2-49.5-25.2-49.5l-2.1 2.5c0 0-6.1 31.3-6.2 31.9l-0.9 5.6c0 0 10.5-0.5 14 4.1 3.5 4.7-3.9 25.1-2 24.1-0.9 0 22.4-18.7 22.4-18.7z"/>
			<path id="&lt;Path&gt;" class="s15" d="m617.9 452.7l13 11.4c0 0-4.6 15.6 2.8 17.6 8.5-2.5 8.4 5.9 7.7 13.3-0.8 7.3-5.3 15-7.3 16.8-1.9 1.7-5.9 0.8-6.5 4.3-0.6 3.5-9.3 16.7-9.3 16.7l-3.6 18c0 0-14.9 14.7-24.4 13.6-9.6-1.1-19.8-10-19.8-10 0.8-5.7-0.7-26-0.7-26-4.3-5.2-10.4-18.3-10.4-18.3 0 0-3.8 0-6.6-0.6-2.7-0.6-6.3-8.1-7.9-16.8-1.5-8.8 2.4-12.2 2.4-12.2l28.3-30.1z"/>
			<path id="&lt;Path&gt;" class="s3" d="m624.4 561.9q-0.6 1.7-1.5 3.2c-4.6 8.9-25 25.7-25 25.7l-6.2-19-3.4 19c-6.8-3-27.5-21-27.5-21 0 0-0.7-1.7-1.6-4.3q1.1-0.4 1.1-0.4c0 0-0.9-9.8 1.6-16.3 5-8.2 16.3-6.1 16.3-6.1 0 0 15.7-7 24.1-3.1 8.5 3.9 17.2 0.9 20.2 4.5 3.1 3.6 1.2 17.5 1.2 17.5z"/>
			<path id="&lt;Compound Path&gt;" fill-rule="evenodd" class="s10" d="m734.9 695.4c-24.8 41.2-71.6 58.6-84.8 62.9l-12.6-13 4.2-49.2 10.1-86.6c1.1-9.1-3.6-17.8-11.6-22.2-11.6-6.2-25.4-11.1-25.4-11.1l8.1-11.1 1.2-7.1c-0.2 2.1-0.4 3.6-0.4 3.6l0.7 0.3 54.9 20.9c31.6 33.7 55.6 112.6 55.6 112.6zm-43.5-2.6c-3.9-12.9-25.2-49.5-25.2-49.5l-2.1 2.5c0 0-6.1 31.3-6.2 31.9l-0.9 5.6c0 0 10.5-0.5 14 4.1 3.5 4.7-3.9 25.1-2 24.1-0.9 0 22.4-18.7 22.4-18.7z"/>
			<path id="&lt;Compound Path&gt;" fill-rule="evenodd" class="s17" d="m534.5 707l1.9 16.4c0 0-24.7-19.7-34.8-19.7-10.2 0-8.4-3.2 0-16.3 8.3-13 17.3-56.9 17.3-56.9l-2.7-36.7c7.8 9.6 18.3 41 23.1 56.4l-17.1 42.2 6.9 6.1c0 0-2.2-11.1 1.8-14 4.1-2.8 15.9-1.9 15.9-1.9l-6.9-30.4c1.3 4.1 2.1 6.7 2.1 6.7l8.5 28.5zm5-57l-0.1 0.3q0.3 1 0.6 1.9z"/>
			<path id="&lt;Path&gt;" class="s16" d="m569.8 528.4c0 0 1.6 15.4 0 22.4"/>
			<path id="&lt;Path&gt;" class="s16" d="m616.2 548.8c0 0-0.1-7.5 1.7-14.7"/>
			<path id="&lt;Path&gt;" class="s16" d="m620.4 461.9c0 0 9.3 11.7 8.8 20.5-0.5 8.8-1.2 19.3-1 29.6 0.3 10.3-16.4 31.7-25 33.7-8.6 1.9-16 2.3-21.5-3.2-5.5-5.4-11-13.1-18.2-22.9-7.1-9.8-5.5-31.2-5.5-31.2"/>
			<path id="&lt;Path&gt;" class="s16" d="m597.9 496.5c-0.5 3.2-0.8 6.5-0.7 9.8 0.1 2.7 0.5 5.6 2.4 7.6 1 1 2.5 1.9 2.7 3.3 0.2 1.3-0.8 2.5-1.9 3.2-1.1 0.7-2.4 1.1-3.3 2"/>
			<path id="&lt;Path&gt;" class="s16" d="m583.2 523.5c0 0 1 7 10.3 8.4"/>
			<path id="&lt;Path&gt;" class="s5" d="m584.1 501.8c0 2-0.8 3.7-1.9 3.7-1.1 0-1.9-1.7-1.9-3.7 0-2 0.8-3.6 1.9-3.6 1.1 0 1.9 1.6 1.9 3.6z"/>
			<path id="&lt;Path&gt;" class="s5" d="m611.9 502.7c0 2-0.9 3.6-2 3.6-1 0-1.9-1.6-1.9-3.6 0-2 0.9-3.6 1.9-3.6 1.1 0 2 1.6 2 3.6z"/>
			<path id="&lt;Path&gt;" class="s18" d="m606.3 493.9c0 0 9-9 16.6 1.1"/>
			<path id="&lt;Path&gt;" class="s18" d="m587.2 494.1c0 0-5.7-6.4-14.8 0"/>
			<path id="&lt;Path&gt;" class="s5" d="m569.8 528.4c0 0 11.8 16.2 23.7 18.6 12 2.3 22.7-11.6 22.7-11.6l0.9 2.9c0 0-16.4 22.4-28.8 18.1-12.3-4.3-17.8-19.5-17.8-19.5z"/>
			<path id="&lt;Path&gt;" class="s16" d="m559.4 509.5c0 0-7.4 2.6-9.3-3.2-2-5.7-8.7-20.8-2.8-25.8 5.9-5.1 10.6 6.6 10.6 6.6"/>
			<path id="&lt;Path&gt;" class="s16" d="m629.2 489c0 0 4.7-11.7 10.6-6.6 5.9 5-0.8 20.1-2.8 25.8-1.9 5.8-8.8 4.4-8.8 4.4"/>
			<path id="&lt;Path&gt;" class="s5" d="m558 488.4c-7-13.5-12.5-6.9-12.5-6.9 0 0-13.7-18.6-6.5-32.1 7.2-13.5 23.6-15.4 23.6-15.4 4.8-9.1 16-10.2 25.1-9.3 10.7 1.2 21 8 31.6 4.1 5.8-2.2 11.6-5.6 18-4.1 4.8 1.3 8.6 4.9 9.1 10 1.5 14.3-10.9 25.6-23.9 28.2-24 4.7-40.7-10.6-40.7-10.6 0.6 3.9-1.2 7.9-3.6 11-2.4 3.1-5.5 5.7-8.1 8.7-1 1.2-2 2.5-2.5 4-0.4 1.5-0.4 3-0.4 4.6q0 5.8-1 11.6c-0.3 2-0.8 4.1-1.9 5.8-1 1.8-4.4 3.7-6.4 3.8z"/>
			<path id="&lt;Path&gt;" class="s5" d="m631.2 458.4c8.1 12.9 1.9 24.6 1.9 24.6-2.5 1.6-4.9 8.2-4.9 8.2-11.1-10.7-6.8-32.8-6.8-32.8 0 0 1.7-12.9 9.8 0z"/>
			<path id="&lt;Path&gt;" class="s19" d="m556 467.5c0.9-12.9 14.8-24.2 27.3-23.1 15.4 1.3 30.4 8.3 45.7 2 5.9-2.4 11-7.1 12.7-13.2"/>
			<path id="&lt;Path&gt;" class="s19" d="m546.5 464.1c0.2-10.1 6.9-19.9 16.3-23.7"/>
			<path id="&lt;Path&gt;" class="s16" d="m617.9 547c-9.3 12.8-27.7 18.1-27.7 18.1-13.8-5.2-24-16.3-24-16.3"/>
			<path id="&lt;Path&gt;" class="s16" d="m594.5 501.8c0 9-7.3 16.3-16.3 16.3-9 0-16.3-7.3-16.3-16.3 0-9 7.3-16.3 16.3-16.3 9 0 16.3 7.3 16.3 16.3z"/>
			<path id="&lt;Path&gt;" class="s16" d="m630.9 501.8c0 9-7.3 16.3-16.3 16.3-9 0-16.3-7.3-16.3-16.3 0-9 7.3-16.3 16.3-16.3 9 0 16.3 7.3 16.3 16.3z"/>
			<path id="&lt;Path&gt;" class="s16" d="m617.1 542.7c0 0 4.1-0.2 5.8 4.3 1.8 4.5 0 18.1 0 18.1-5.4 11.8-25 25.6-25 25.6l-5.8-21-3.8 21c-12.6-6.2-27.5-20.9-27.5-20.9 0 0-1.7-16 1.1-21 2.9-5.1 7.9-6.1 7.9-6.1"/>
			<path id="&lt;Path&gt;" class="s16" d="m546.5 683.3c0 0-5.8-39-13.6-54.9"/>
			<path id="&lt;Path&gt;" class="s16" d="m516.2 593.8c0 0 7.3 10.3 12 20.1"/>
			<path id="&lt;Path&gt;" class="s16" d="m669 622.9c2.1-7.8 4.2-14.6 6.4-19"/>
			<path id="&lt;Path&gt;" class="s16" d="m657 683.3c0 0 4.2-26.8 9.2-48.8"/>
			<path id="&lt;Path&gt;" class="s16" d="m664.1 645.8c4-5.4 9.8-9.3 16.2-11.1"/>
			<path id="&lt;Path&gt;" class="s16" d="m623.7 561.6c0 0 33.8 13.5 55.6 21.2 0 0 26.9 25.2 55.6 112.6 0 0-26.3 44.3-76.5 58.6"/>
			<path id="&lt;Path&gt;" class="s16" d="m667.1 713.1l24.3-20.3c0 0 12.8-9.7 26.1-3"/>
			<path id="&lt;Path&gt;" class="s16" d="m666.2 643.3c0 0 20 29.5 25.2 49.5"/>
			<path id="&lt;Path&gt;" class="s16" d="m499.8 699c11.9-8 22.4-6.2 22.4-6.2l7.1 6.8"/>
			<path id="&lt;Path&gt;" class="s16" d="m522.2 692.8c0 0 8.8-28.9 17.5-43.8"/>
			<path id="&lt;Path&gt;" class="s16" d="m539.7 751.5c-18.7-9.9-56.6-33.4-56.2-43.8 0.5-11.7 18.6-113.7 23.4-119 4.8-5.3 53.4-23.6 53.4-23.6"/>
			<path id="&lt;Path&gt;" class="s4" d="m736.3 548.8h-55.4c-6.6 0-11.9-5.3-11.9-11.9v-32.5c0-6.5 5.3-11.8 11.9-11.8h55.4c6.5 0 11.8 5.3 11.8 11.8v32.5c0 6.6-5.3 11.9-11.8 11.9z"/>
			<path id="&lt;Path&gt;" class="s16" d="m693.4 531.5l-14.1-12.5 15.2-9.5"/>
			<path id="&lt;Path&gt;" class="s16" d="m720.1 510.5l15.8 10.3-13.7 11.6"/>
			<path id="&lt;Path&gt;" class="s16" d="m701.9 539.6l11.3-35.2"/>
			<path id="&lt;Path&gt;" class="s5" d="m596.6 599.6c0 1.8-1.4 3.2-3.2 3.2-1.7 0-3.2-1.4-3.2-3.2 0-1.8 1.5-3.2 3.2-3.2 1.8 0 3.2 1.4 3.2 3.2z"/>
			<g id="&lt;Group&gt;">
				<path id="&lt;Path&gt;" class="s5" d="m652.9 770.4h-110.7c-1.4 0-2.5-1.1-2.5-2.6 0-1.4 1.1-2.6 2.5-2.6h110.7c1.4 0 2.6 1.2 2.6 2.6 0 1.5-1.2 2.6-2.6 2.6z"/>
				<path id="&lt;Path&gt;" class="s4" d="m649.3 767.7l-101.1-2.3c-3.5-0.1-6.4-2.6-7.1-6l-13.3-67.3c-0.9-4.6 2.6-8.8 7.3-8.8h129.2c4.7 0 8.3 4.3 7.3 8.9l-14.9 69.6c-0.7 3.5-3.8 6-7.4 5.9z"/>
				<path id="&lt;Path&gt;" class="s5" d="m609.6 723.4c0 5.7-4.6 10.3-10.3 10.3-5.7 0-10.4-4.6-10.4-10.3 0-5.7 4.7-10.3 10.4-10.3 5.7 0 10.3 4.6 10.3 10.3z"/>
				<path id="&lt;Path&gt;" class="s16" d="m629.9 689.9h15.3"/>
				<path id="&lt;Path&gt;" class="s16" d="m556.5 689.9h58.3"/>
			</g>
			<path id="&lt;Path&gt;" class="s5" d="m657 835.7l-11.8 30.9c0 0-30-7.6-68.5-15.4-40.3-8.3-82.3-19-104.1-57.2-2.7-4.7-4.5-10.2-3.2-15.4 3.1-13.3 20.3-16.8 31.6-18.2 7.2-0.8 14.3-1.1 21.5-1.2 3.6 0 15.7-1.9 18.6 0.2 0 0 7.6 5.6 14 8.3 6.4 2.7 100.4-2.5 100.4-2.5 0 0 2.8-5.9 2.9-11.2 14.8-7.5 49-13.9 63.4-11.1 22.8 4.4 36 17.7 33.5 31.6-2.5 13.8-52.7 51.1-98.3 61.2z"/>
			<path id="&lt;Path&gt;" class="s20" d="m530.9 782c32.6-3.8 50.8 14.6 74.2 30.3 23.3 15.8 51.9 23.4 51.9 23.4"/>
			<path id="&lt;Path&gt;" class="s20" d="m677.2 759.3c-14.3 7.3-27.5 16.7-40.1 26.4-11.8 9.1-22.6 18.7-37.4 22.9"/>
			<path id="&lt;Path&gt;" class="s16" d="m594.5 504.4h4.3"/>
		</g>
	</g>
</svg>