<svg version="1.2" xmlns="http://www.w3.org/2000/svg" viewBox="0 0 778 705" width="778" height="705">
	<title>bg_green-svg</title>
	<style>
		.s0 { opacity: .3;mix-blend-mode: multiply;fill: #3d4968 } 
		.s1 { fill: #1d2b51 } 
		.s2 { fill: #101c3b } 
		.s3 { fill: #162345 } 
		.s4 { fill: #9aa2b2 } 
		.s5 { fill: #f0f5f8 } 
		.s6 { fill: #34909d } 
		.s7 { fill: #f8b85e } 
		.s8 { fill: #ba0034 } 
		.s9 { fill: none;stroke: #f0f5f8;stroke-linecap: round;stroke-width: 1.5;stroke-dasharray: 0,5 } 
		.s10 { fill: none;stroke: #f0f5f8;stroke-linecap: round;stroke-width: 3;stroke-dasharray: 0,6 } 
		.s11 { fill: #637194 } 
		.s12 { fill: #bdc4d4 } 
		.s13 { fill: #e6eaf0 } 
		.s14 { fill: #c9d2de } 
		.s15 { fill: #a8274b } 
		.s16 { fill: #dbdee6 } 
		.s17 { fill: #d7dbe0 } 
		.s18 { fill: #ffffff } 
		.s19 { fill: #e5ebf2 } 
		.s20 { fill: #cad2db } 
		.s21 { fill: none;stroke: #1d2b51;stroke-width: 2 } 
	</style>
	<g id="Layer 3">
		<g id="&lt;Group&gt;">
			<g id="&lt;Group&gt;">
				<g id="&lt;Group&gt;">
					<g id="web homepage 1 ">
						<g id="&lt;Group&gt;">
							<path id="&lt;Path&gt;" class="s0" d="m661.9 87v341.1c0 9.5-7.6 17.1-17.1 17.1h-256.7c-9.5 0-17.2-7.6-17.2-17.1v-341.1c0-9.5 7.7-17.1 17.2-17.1h256.7c9.5 0 17.1 7.6 17.1 17.1z"/>
							<path id="&lt;Path&gt;" class="s1" d="m649.6 80.7v341.1c0 9.5-7.6 17.1-17.1 17.1h-256.7c-9.5 0-17.2-7.6-17.2-17.1v-25.4h-3.9v-315.7c0-9.4 7.7-17.1 17.2-17.1h260.6c9.5 0 17.1 7.7 17.1 17.1z"/>
							<path id="&lt;Path&gt;" class="s0" d="m437.5 406.6v32.3h-61.7c-9.5 0-17.2-7.6-17.2-17.1v-25.4h-3.9v-6.9h65.6c9.5 0 17.2 7.7 17.2 17.1z"/>
							<path id="&lt;Path&gt;" class="s2" d="m628.2 81.6c0 3-2.5 5.5-5.5 5.5h-20.6q-0.5 0-1-0.1c-1.1-0.2-2.1-0.7-2.9-1.5-1-1-1.6-2.4-1.6-3.9 0-3.1 2.5-5.6 5.5-5.6h20.6c1.5 0 2.9 0.6 3.9 1.6 1 1 1.6 2.4 1.6 4z"/>
							<path id="&lt;Path&gt;" class="s2" d="m588.2 81.6c0 3-2.5 5.5-5.5 5.5h-20.6q-0.5 0-1-0.1c-1.1-0.2-2.1-0.7-2.9-1.5-1-1-1.6-2.4-1.6-3.9 0-3.1 2.5-5.6 5.5-5.6h20.6c1.5 0 2.9 0.6 3.9 1.6 1 1 1.6 2.4 1.6 4z"/>
							<path id="&lt;Path&gt;" class="s2" d="m548.6 81.6c0 3-2.6 5.5-5.6 5.5h-20.5q-0.6 0-1.1-0.1c-1.1-0.2-2.1-0.7-2.9-1.5-1-1-1.6-2.4-1.6-3.9 0-3.1 2.5-5.6 5.6-5.6h20.5c1.5 0 2.9 0.6 3.9 1.6q0 0 0 0.1c1 1 1.7 2.3 1.7 3.9z"/>
							<path id="&lt;Path&gt;" class="s2" d="m634.3 104.3v138.6c0 3.7-3 6.8-6.8 6.8h-253.3q-0.9 0-1.7-0.2c-2.9-0.8-5.1-3.4-5.1-6.6v-138.6c0-3.8 3-6.8 6.8-6.8h253.3c1.8 0 3.4 0.6 4.6 1.7 1.4 1.3 2.2 3.1 2.2 5.1z"/>
							<path id="&lt;Path&gt;" class="s2" d="m442.2 263.6v6.7h-74.8v-6.7z"/>
							<path id="&lt;Path&gt;" class="s2" d="m442.2 278.9v6.7h-74.8v-6.7z"/>
							<path id="&lt;Path&gt;" class="s2" d="m442.2 294.1v6.7h-74.8v-6.7z"/>
							<path id="&lt;Path&gt;" class="s2" d="m423.9 309.4v6.7h-56.5v-6.7z"/>
							<path id="&lt;Path&gt;" class="s2" d="m538.2 263.6v6.7h-74.7v-6.7z"/>
							<path id="&lt;Path&gt;" class="s2" d="m538.2 278.9v6.7h-74.7v-6.7z"/>
							<path id="&lt;Path&gt;" class="s2" d="m538.2 294.1v6.7h-74.7v-6.7z"/>
							<path id="&lt;Path&gt;" class="s2" d="m520 309.4v6.7h-56.5v-6.7z"/>
							<path id="&lt;Path&gt;" class="s2" d="m634.3 263.6v6.7h-74.7v-6.7z"/>
							<path id="&lt;Path&gt;" class="s2" d="m634.3 278.9v6.7h-74.7v-6.7z"/>
							<path id="&lt;Path&gt;" class="s2" d="m634.3 294.1v6.7h-74.7v-6.7z"/>
							<path id="&lt;Path&gt;" class="s2" d="m616.1 309.4v6.7h-56.5v-6.7z"/>
							<path id="&lt;Path&gt;" class="s2" d="m634.3 331.9v24.4c0 2.1-1.7 3.8-3.8 3.8h-259.5c-2 0-3.6-1.7-3.6-3.8v-24.4c0-2.1 1.7-3.8 3.8-3.8h259.3c1.3 0 2.4 0.7 3.1 1.6 0.5 0.6 0.7 1.4 0.7 2.2z"/>
							<path id="&lt;Path&gt;" class="s2" d="m634.3 370.5v6.5h-142.6v-6.5z"/>
							<path id="&lt;Path&gt;" class="s2" d="m634.3 384.4v6.5h-142.6v-6.5z"/>
							<g id="&lt;Group&gt;">
								<path id="&lt;Path&gt;" class="s2" d="m404.9 406.1v4h-32.1v-4z"/>
								<path id="&lt;Path&gt;" class="s2" d="m400.6 413.4v4h-27.8v-4z"/>
								<path id="&lt;Path&gt;" class="s2" d="m404.7 420.8v3.9h-31.9v-3.9z"/>
							</g>
							<g id="&lt;Group&gt;">
								<path id="&lt;Path&gt;" class="s2" d="m472.3 406.1v4h-27.8v-4z"/>
								<path id="&lt;Path&gt;" class="s2" d="m467.6 413.4v4h-23.1v-4z"/>
								<path id="&lt;Path&gt;" class="s2" d="m472.3 420.8v3.9h-27.8v-3.9z"/>
							</g>
							<g id="&lt;Group&gt;">
								<path id="&lt;Path&gt;" class="s2" d="m544 406.1v4h-27.7v-4z"/>
								<path id="&lt;Path&gt;" class="s2" d="m533.3 413.4v4h-17v-4z"/>
								<path id="&lt;Path&gt;" class="s2" d="m539.9 420.8v3.9h-23.6v-3.9z"/>
							</g>
							<g id="&lt;Group&gt;">
								<path id="&lt;Path&gt;" class="s2" d="m613.2 406.1v4h-25.2v-4z"/>
								<path id="&lt;Path&gt;" class="s2" d="m602.2 413.4v4h-14.2v-4z"/>
								<path id="&lt;Path&gt;" class="s2" d="m607.7 420.8v3.9h-19.7v-3.9z"/>
							</g>
							<path id="&lt;Path&gt;" class="s3" d="m628.2 81.6c0 3-2.5 5.5-5.5 5.5h-20.6q-0.5 0-1-0.1c-1-1-1.6-2.4-1.6-3.9 0-3 2.5-5.6 5.6-5.6h20.5q0.5 0 1 0.1c1 1 1.6 2.4 1.6 4z"/>
							<path id="&lt;Path&gt;" class="s3" d="m588.2 81.6c0 3-2.5 5.5-5.5 5.5h-20.6q-0.5 0-1-0.1c-1-1-1.6-2.4-1.6-3.9 0-3 2.5-5.6 5.6-5.6h20.5q0.5 0 1 0.1c1 1 1.6 2.4 1.6 4z"/>
							<path id="&lt;Path&gt;" class="s3" d="m548.6 81.6c0 3-2.6 5.5-5.6 5.5h-20.5q-0.6 0-1.1-0.1c-1-1-1.6-2.4-1.6-3.9 0-3 2.5-5.6 5.6-5.6h20.5q0.5 0 1 0.2c1 1 1.7 2.3 1.7 3.9z"/>
							<path id="&lt;Path&gt;" class="s3" d="m634.3 104.3v138.6c0 3.7-3 6.8-6.8 6.8h-253.3q-0.9 0-1.7-0.2c-1.3-1.3-2.2-3.1-2.2-5.1v-138.6c0-3.7 3-6.8 6.8-6.8h253.3q0.9 0 1.7 0.2c1.4 1.3 2.2 3.1 2.2 5.1z"/>
							<path id="&lt;Path&gt;" class="s3" d="m442.2 265.2v5.1h-71.9v-5.1z"/>
							<path id="&lt;Path&gt;" class="s3" d="m442.2 280.4v5.2h-71.9v-5.2z"/>
							<path id="&lt;Path&gt;" class="s3" d="m442.2 295.7v5.1h-71.9v-5.1z"/>
							<path id="&lt;Path&gt;" class="s3" d="m423.9 311v5.1h-53.6v-5.1z"/>
							<path id="&lt;Path&gt;" class="s3" d="m538.2 265.2v5.1h-71.8v-5.1z"/>
							<path id="&lt;Path&gt;" class="s3" d="m538.2 280.4v5.2h-71.8v-5.2z"/>
							<path id="&lt;Path&gt;" class="s3" d="m538.2 295.7v5.1h-71.8v-5.1z"/>
							<path id="&lt;Path&gt;" class="s3" d="m520 311v5.1h-53.6v-5.1z"/>
							<path id="&lt;Path&gt;" class="s3" d="m634.3 265.2v5.1h-71.8v-5.1z"/>
							<path id="&lt;Path&gt;" class="s3" d="m634.3 280.4v5.2h-71.8v-5.2z"/>
							<path id="&lt;Path&gt;" class="s3" d="m634.3 295.7v5.1h-71.8v-5.1z"/>
							<path id="&lt;Path&gt;" class="s3" d="m616.1 311v5.1h-53.6v-5.1z"/>
							<path id="&lt;Path&gt;" class="s3" d="m634.3 331.9v24.4c0 2.1-1.7 3.8-3.8 3.8h-259.5c-0.4-0.6-0.7-1.4-0.7-2.2v-24.4c0-2.1 1.7-3.8 3.8-3.8h259.3q0.1 0 0.2 0c0.5 0.6 0.7 1.4 0.7 2.2z"/>
							<path id="&lt;Path&gt;" class="s3" d="m634.3 372.1v4.9h-139.6v-4.9z"/>
							<path id="&lt;Path&gt;" class="s3" d="m634.3 385.9v5h-139.6v-5z"/>
							<g id="&lt;Group&gt;">
								<path id="&lt;Path&gt;" class="s3" d="m404.9 407.7v2.4h-29.1v-2.4z"/>
								<path id="&lt;Path&gt;" class="s3" d="m400.6 415v2.4h-24.8v-2.4z"/>
								<path id="&lt;Path&gt;" class="s3" d="m404.7 422.4v2.3h-28.9v-2.3z"/>
							</g>
							<g id="&lt;Group&gt;">
								<path id="&lt;Path&gt;" class="s3" d="m472.3 407.7v2.4h-24.8v-2.4z"/>
								<path id="&lt;Path&gt;" class="s3" d="m467.6 415v2.4h-20.1v-2.4z"/>
								<path id="&lt;Path&gt;" class="s3" d="m472.3 422.4v2.3h-24.8v-2.3z"/>
							</g>
							<g id="&lt;Group&gt;">
								<path id="&lt;Path&gt;" class="s3" d="m544 407.7v2.4h-24.8v-2.4z"/>
								<path id="&lt;Path&gt;" class="s3" d="m533.3 415v2.4h-14.1v-2.4z"/>
								<path id="&lt;Path&gt;" class="s3" d="m539.9 422.4v2.3h-20.7v-2.3z"/>
							</g>
							<g id="&lt;Group&gt;">
								<path id="&lt;Path&gt;" class="s3" d="m613.2 407.7v2.4h-22.3v-2.4z"/>
								<path id="&lt;Path&gt;" class="s3" d="m602.2 415v2.4h-11.3v-2.4z"/>
								<path id="&lt;Path&gt;" class="s3" d="m607.7 422.4v2.3h-16.8v-2.3z"/>
							</g>
						</g>
					</g>
					<g id="Artwork 4 1 ">
						<g id="&lt;Group&gt;">
							<path id="&lt;Path&gt;" class="s0" d="m453.8 438.9v230.6c0 8.1-6.6 14.7-14.7 14.7h-300.3c-8.2 0-14.8-6.6-14.8-14.7v-258.3c0-8.2 6.6-14.8 14.8-14.8h233.6v25.4c0 9.5 7.7 17.1 17.2 17.1z"/>
							<path id="&lt;Path&gt;" class="s4" d="m404.5 670.4h-295.6c-9.4 0-17.1-7.6-17.1-17.1v-253.6c0-9.4 7.7-17.1 17.1-17.1h295.6c9.5 0 17.1 7.7 17.1 17.1v253.6c0 9.5-7.6 17.1-17.1 17.1z"/>
							<path id="&lt;Path&gt;" class="s5" d="m400.6 670.4h-295.6c-9.5 0-17.1-7.6-17.1-17.1v-253.6c0-9.4 7.6-17.1 17.1-17.1h295.6c9.5 0 17.1 7.7 17.1 17.1v253.6c0 9.5-7.6 17.1-17.1 17.1z"/>
							<g id="&lt;Group&gt;">
								<path id="&lt;Path&gt;" class="s6" d="m399.4 404.3c0 4.8-3.9 8.7-8.7 8.7-4.7 0-8.6-3.9-8.6-8.7 0-4.8 3.9-8.7 8.6-8.7 4.8 0 8.7 3.9 8.7 8.7z"/>
								<path id="&lt;Path&gt;" class="s7" d="m373.7 404.3c0 4.8-3.9 8.7-8.7 8.7-4.8 0-8.7-3.9-8.7-8.7 0-4.8 3.9-8.7 8.7-8.7 4.8 0 8.7 3.9 8.7 8.7z"/>
								<path id="&lt;Path&gt;" class="s8" d="m348 404.3c0 4.8-3.9 8.7-8.7 8.7-4.8 0-8.7-3.9-8.7-8.7 0-4.8 3.9-8.7 8.7-8.7 4.8 0 8.7 3.9 8.7 8.7z"/>
							</g>
						</g>
					</g>
					<g id="&lt;Group&gt;">
						<path id="&lt;Path&gt;" class="s9" d="m208.3 125.2l163.1-23.5"/>
						<path id="&lt;Path&gt;" class="s9" d="m463.3 127.4l163.1-23.5"/>
						<path id="&lt;Path&gt;" class="s9" d="m462.6 273.8l163.1-23.5"/>
					</g>
					<path id="&lt;Path&gt;" class="s6" d="m460.2 133.1v138.4c0 3.7-3 6.7-6.7 6.7h-253c-3.7 0-6.7-3-6.7-6.7v-138.4c0-3.6 3-6.6 6.7-6.6h253c3.7 0 6.7 3 6.7 6.6z"/>
					<g id="&lt;Group&gt;">
						<path id="&lt;Path&gt;" class="s10" d="m87.7 484.6c-15.9-29.9-24.9-64-24.9-100.2 0-88.6 53.9-164.7 130.7-197.2"/>
						<path id="&lt;Path&gt;" class="s10" d="m484.2 437.9c-11.1 43.3-35.4 81.2-68.4 109.4"/>
					</g>
					<g id="&lt;Group&gt;">
						<path id="&lt;Path&gt;" class="s1" d="m130.7 235l25.2 43.7c1.8 3.1 1.8 7 0 10.1l-25.2 43.7c-1.8 3.1-5.2 5.1-8.8 5.1h-50.5c-3.6 0-7-2-8.8-5.1l-25.2-43.7c-1.8-3.1-1.8-7 0-10.1l25.2-43.7c1.8-3.2 5.2-5.1 8.8-5.1h50.5c3.6 0 7 1.9 8.8 5.1z"/>
						<g id="&lt;Group&gt;">
							<g id="gear 8 ">
								<path id="&lt;Compound Path&gt;" fill-rule="evenodd" class="s11" d="m135.8 288.6q0.2 1.6 0 3.2l6.1 2.6c-0.5 2.5-1.5 4.9-2.9 7l-6.1-2.6q-1 1.3-2.3 2.3l2.5 6.1q-1.6 1.1-3.4 1.8-1.8 0.8-3.6 1.1l-2.6-6.1q-1.6 0.2-3.2 0l-2.6 6.1c-2.5-0.5-4.9-1.5-7-2.9l2.6-6.1q-1.3-1-2.3-2.3l-6.1 2.5q-1.1-1.6-1.8-3.4-0.8-1.8-1.1-3.7l6.1-2.5q-0.2-1.6 0-3.2l-6.1-2.6c0.5-2.5 1.5-4.9 2.9-7l6.1 2.5q1-1.2 2.3-2.3l-2.5-6.1q1.6-1 3.4-1.7 1.8-0.8 3.7-1.2l2.5 6.2q1.6-0.2 3.2 0l2.6-6.1c2.5 0.5 4.9 1.5 7 2.9l-2.5 6.1q1.2 1 2.3 2.3l6.1-2.5q1 1.6 1.8 3.4 0.7 1.8 1.1 3.6zm-10.1 0.1c-0.9-2.1-3.3-3.1-5.4-2.3-2.1 0.9-3.1 3.3-2.2 5.4 0.8 2.1 3.2 3.1 5.3 2.2 2.1-0.8 3.2-3.2 2.3-5.3z"/>
							</g>
							<g id="&lt;Group&gt;">
								<g id="gear 4 ">
									<path id="&lt;Compound Path&gt;" fill-rule="evenodd" class="s4" d="m100.5 278.4q-0.6 2.4-1.8 4.4l6.8 6.9c-2.1 3.1-4.7 5.8-7.8 7.9l-6.9-6.9q-2.1 1.2-4.4 1.8v9.7q-2.7 0.5-5.6 0.5-2.8 0-5.5-0.5v-9.7q-2.4-0.6-4.4-1.8l-6.9 6.9c-3.1-2.1-5.7-4.8-7.8-7.9l6.8-6.9q-1.2-2-1.8-4.4h-9.7q-0.5-2.7-0.5-5.5 0-2.9 0.5-5.6h9.7q0.6-2.3 1.8-4.4l-6.8-6.8c2.1-3.1 4.7-5.8 7.8-7.9l6.9 6.8q2-1.1 4.4-1.8v-9.7q2.7-0.5 5.5-0.5 2.9 0 5.6 0.5v9.7q2.3 0.7 4.4 1.8l6.9-6.8c3.1 2.1 5.7 4.8 7.8 7.9l-6.8 6.8q1.2 2.1 1.8 4.4h9.7q0.5 2.7 0.5 5.6 0 2.8-0.5 5.5zm-13.7-5.5c0-3.4-2.7-6.1-6-6.1-3.3 0-6 2.7-6 6.1 0 3.3 2.7 6 6 6 3.3 0 6-2.7 6-6z"/>
								</g>
								<g id="gear 10 ">
									<path id="&lt;Compound Path&gt;" fill-rule="evenodd" class="s12" d="m93 275.6c-1.2 0.1-1.7 1.6-0.8 2.4 1.1 1 0.1 2.8-1.4 2.3-1.1-0.4-2.1 0.8-1.6 1.9 0.6 1.3-1.1 2.6-2.2 1.6-0.9-0.8-2.3-0.2-2.3 1 0 1.5-2 1.9-2.6 0.5-0.5-1.1-2-1.1-2.5 0-0.6 1.4-2.6 1-2.6-0.5 0-1.2-1.4-1.8-2.3-1-1.1 1-2.8-0.3-2.2-1.6 0.5-1.1-0.5-2.3-1.7-1.9-1.4 0.5-2.4-1.3-1.3-2.3 0.9-0.8 0.4-2.3-0.8-2.4-1.5-0.1-1.7-2.2-0.3-2.6 1.2-0.4 1.3-1.9 0.3-2.5-1.3-0.8-0.6-2.7 0.8-2.6 1.2 0.2 2-1.2 1.3-2.1-0.9-1.2 0.5-2.8 1.8-2 1 0.6 2.3-0.3 2-1.5-0.3-1.5 1.6-2.3 2.5-1.1 0.6 1 2.2 0.6 2.4-0.5 0.3-1.5 2.4-1.5 2.7 0 0.2 1.1 1.7 1.5 2.4 0.5 0.9-1.2 2.8-0.4 2.5 1.1-0.3 1.2 1 2.1 2 1.5 1.3-0.8 2.7 0.8 1.8 2-0.7 0.9 0.1 2.3 1.3 2.1 1.4-0.1 2.1 1.8 0.8 2.6-1.1 0.6-0.9 2.1 0.2 2.5 1.5 0.4 1.2 2.5-0.2 2.6zm-8.1-2.7c0-2.2-1.8-4.1-4.1-4.1-2.2 0-4 1.9-4 4.1 0 2.2 1.8 4 4 4 2.3 0 4.1-1.8 4.1-4z"/>
								</g>
							</g>
							<path id="&lt;Path&gt;" class="s12" d="m124.3 290.1c0 1.3-1 2.4-2.4 2.4-1.3 0-2.3-1.1-2.3-2.4 0-1.3 1-2.3 2.3-2.3 1.4 0 2.4 1 2.4 2.3z"/>
							<g id="&lt;Group&gt;">
								<g id="gear 9 ">
									<path id="&lt;Compound Path&gt;" fill-rule="evenodd" class="s5" d="m108.7 311.2c-1 0-1.4 1.3-0.7 1.9 0.9 0.9 0.1 2.4-1.1 2-1-0.3-1.8 0.6-1.4 1.5 0.5 1.2-0.9 2.2-1.8 1.4-0.8-0.7-1.9-0.2-1.9 0.8 0 1.3-1.7 1.6-2.2 0.5-0.4-0.9-1.7-0.9-2.1 0-0.5 1.1-2.2 0.8-2.2-0.5 0-1-1.2-1.5-1.9-0.8-0.9 0.8-2.4-0.2-1.8-1.4 0.4-0.9-0.5-1.8-1.4-1.5-1.2 0.4-2.1-1.1-1.2-2 0.8-0.6 0.4-1.9-0.6-1.9-1.3-0.2-1.4-1.9-0.2-2.3 0.9-0.3 1-1.6 0.2-2.1-1.1-0.6-0.6-2.2 0.7-2.1 1 0.1 1.6-1 1-1.8-0.7-1 0.4-2.3 1.5-1.7 0.9 0.5 1.9-0.2 1.7-1.2-0.3-1.2 1.3-1.9 2.1-0.9 0.5 0.8 1.8 0.5 2-0.5 0.3-1.2 2-1.2 2.2 0 0.2 1 1.5 1.3 2.1 0.5 0.7-1 2.3-0.3 2 0.9-0.2 1 0.9 1.7 1.7 1.2 1.1-0.6 2.3 0.7 1.5 1.7-0.6 0.8 0.1 1.9 1.1 1.8 1.2-0.1 1.8 1.5 0.7 2.1-0.9 0.5-0.8 1.8 0.2 2.1 1.2 0.4 1 2.1-0.2 2.3zm-3.7-2.4c0-3.6-2.9-6.5-6.5-6.5-3.6 0-6.5 2.9-6.5 6.5 0 3.6 2.9 6.6 6.5 6.6 3.6 0 6.5-3 6.5-6.6z"/>
								</g>
								<path id="&lt;Path&gt;" class="s5" d="m104.4 308.8c0 3.3-2.7 5.9-5.9 5.9-3.2 0-5.8-2.6-5.8-5.9 0-3.2 2.6-5.8 5.8-5.8 3.2 0 5.9 2.6 5.9 5.8z"/>
							</g>
						</g>
					</g>
					<g id="user man account 2 ">
						<g id="&lt;Group&gt;">
							<path id="&lt;Path&gt;" class="s1" d="m674.7 502.2c0 7.4-2.6 14.2-6.9 19.6-5.8 7.3-14.7 11.9-24.7 11.9-10 0-19-4.6-24.7-11.9q-0.3-0.3-0.5-0.7c-4-5.2-6.4-11.8-6.4-18.9 0-17.5 14.2-31.6 31.6-31.6 11.6 0 21.8 6.3 27.3 15.6 2.7 4.7 4.3 10.1 4.3 16z"/>
							<path id="&lt;Path&gt;" class="s13" d="m666.3 519.8c-5.5 6.8-13.8 11.2-23.2 11.2-9.4 0-17.7-4.4-23.2-11.2 2.2-9.3 9.9-16.5 19.4-18-3.7-1.5-6.3-5.1-6.3-9.3 0-5.6 4.5-10.1 10.1-10.1 5.5 0 10 4.5 10 10.1 0 4.2-2.5 7.8-6.2 9.3 9.5 1.5 17.2 8.7 19.4 18z"/>
						</g>
					</g>
					<g id="&lt;Group&gt;">
						<path id="&lt;Path&gt;" class="s14" d="m387.3 451.4v101.6c0 4-3.2 7.2-7.2 7.2h-253.4c-1.2 0-2.4-0.3-3.4-0.9-2.3-1.2-3.8-3.6-3.8-6.3v-101.6c0-4 3.2-7.2 7.2-7.2h253.4c2.2 0 4.2 1 5.5 2.6 1.1 1.2 1.7 2.8 1.7 4.6z"/>
						<path id="&lt;Path&gt;" class="s13" d="m387.3 451.4v101.6c0 4-3.2 7.2-7.2 7.2h-253.4c-1.2 0-2.4-0.3-3.4-0.9q-0.7-1.2-0.7-2.7v-103.9c0-3.3 2.7-6.1 6.1-6.1h255.7q0.6 0 1.2 0.2c1.1 1.2 1.7 2.8 1.7 4.6z"/>
					</g>
					<path id="&lt;Path&gt;" class="s4" d="m183.8 435.2h-63.1v-9.1h63.1z"/>
					<g id="&lt;Group&gt;">
						<path id="&lt;Path&gt;" class="s6" d="m341.6 576.1c0-4.9 4-8.8 8.9-8.8h27.4c4.8 0 8.8 3.9 8.8 8.8 0 4.8-4 8.8-8.8 8.8h-27.4c-4.9 0-8.9-4-8.9-8.8z"/>
						<path id="&lt;Path&gt;" class="s15" d="m297.9 576.1c0-4.9 4-8.8 8.8-8.8h19.9c4.9 0 8.8 3.9 8.8 8.8 0 4.8-3.9 8.8-8.8 8.8h-19.9c-4.8 0-8.8-4-8.8-8.8z"/>
						<path id="&lt;Path&gt;" class="s5" d="m374.7 577.7h-20.1c-1.1 0-2.1-0.9-2.1-2.1 0-1.1 1-2.1 2.1-2.1h20.1c1.2 0 2.1 1 2.1 2.1 0 1.2-0.9 2.1-2.1 2.1z"/>
						<path id="&lt;Path&gt;" class="s5" d="m326.5 577.7h-20.1c-1.1 0-2.1-0.9-2.1-2.1 0-1.1 1-2.1 2.1-2.1h20.1c1.2 0 2.1 1 2.1 2.1 0 1.2-0.9 2.1-2.1 2.1z"/>
					</g>
					<g id="&lt;Group&gt;">
						<path id="&lt;Path&gt;" class="s1" d="m207.8 551.4h-2.6v-20.6h2.6z"/>
						<g id="&lt;Group&gt;">
							<path id="&lt;Path&gt;" class="s1" d="m213.8 530.8h-6v-2h6z"/>
							<path id="&lt;Path&gt;" class="s1" d="m205.2 530.8h-6v-2h6z"/>
						</g>
						<g id="&lt;Group&gt;">
							<path id="&lt;Path&gt;" class="s1" d="m213.8 553.4h-6v-2h6z"/>
							<path id="&lt;Path&gt;" class="s1" d="m205.2 553.4h-6v-2h6z"/>
						</g>
					</g>
					<g id="text 4 ">
						<path id="&lt;Compound Path&gt;" class="s4" d="m165.1 507.1h-26.1v-9.2h26.1zm94.1 10.1h71.2v9.2h-71.2zm71.2-48.6h-166.5v-9.2h166.5zm-191.4 67.9h64.7v9.2h-64.7zm49.8-48.6h-49.8v-9.2h49.8zm-15.7 10.1h100.8v9.2h-100.8zm72.6 28.4h-106.7v-9.2h106.7zm36.2-28.4h89v9.2h-89zm-79.7-19.3h168.7v9.2h-168.7zm168.7-19.3v9.1h-33.7v-9.1zm-27.1 57.8h27.1v9.2h-27.1z"/>
					</g>
					<g id="cloud 8 ">
						<g id="&lt;Group&gt;">
							<path id="&lt;Path&gt;" class="s4" d="m521.9 686.8c0 8.1-6.6 14.7-14.7 14.7h-156.5c-14.1 0-25.5-11.4-25.5-25.5 0-14 11.4-25.4 25.5-25.4 3.3 0 6.4 0.6 9.3 1.7q0-0.2 0-0.5c0-18.3 9.9-34.3 24.6-42.9 7.4-4.3 16-6.8 25.1-6.8 24.3 0 44.5 17.4 48.8 40.4 4.6-2.6 10-4.1 15.7-4.1 17.4 0 31.5 14.1 31.5 31.5q0 1.1 0 2.2 0.7-0.1 1.5-0.1c8.1 0 14.7 6.6 14.7 14.8z"/>
						</g>
					</g>
					<g id="cloud 9 ">
						<g id="&lt;Group&gt;">
							<path id="&lt;Path&gt;" class="s16" d="m171 675.7c0 6.1-4.9 11.1-11.1 11.1h-117.8c-10.6 0-19.2-8.6-19.2-19.2 0-10.6 8.6-19.2 19.2-19.2 2.5 0 4.8 0.5 7 1.3q0-0.2 0-0.4c0-13.7 7.5-25.8 18.6-32.3 5.5-3.2 11.9-5.1 18.8-5.1 18.3 0 33.5 13.1 36.8 30.4 3.5-1.9 7.5-3.1 11.8-3.1 13.1 0 23.7 10.7 23.7 23.8q0 0.8 0 1.6 0.5-0.1 1.1-0.1c6.2 0 11.1 5 11.1 11.2z"/>
						</g>
					</g>
					<g id="login 1 ">
						<g id="&lt;Group&gt;">
							<g id="&lt;Group&gt;">
								<path id="&lt;Path&gt;" class="s17" d="m628.6 565.9v12.6c0 2.9-2.4 5.3-5.3 5.3h-126.9q-0.4 0-0.7-0.1c-2.6-0.3-4.6-2.5-4.6-5.2v-12.6c0-3 2.4-5.4 5.3-5.4h126.9c2.7 0 4.9 2 5.3 4.6q0 0.4 0 0.8z"/>
								<path id="&lt;Path&gt;" class="s18" d="m628.6 565.9v12.6c0 2.9-2.4 5.3-5.3 5.3h-126.9q-0.4 0-0.7-0.1-0.1-0.3-0.1-0.7v-12.6c0-3 2.4-5.4 5.3-5.4h126.9q0.4 0 0.8 0.1 0 0.4 0 0.8z"/>
							</g>
							<g id="&lt;Group&gt;">
								<path id="&lt;Path&gt;" class="s17" d="m628.6 598.5v12.6c0 2.9-2.4 5.3-5.3 5.3h-126.9q-0.4 0-0.7-0.1c-2.6-0.3-4.6-2.5-4.6-5.2v-12.6c0-3 2.4-5.4 5.3-5.4h126.9c2.7 0 4.9 2 5.3 4.6q0 0.4 0 0.8z"/>
								<path id="&lt;Path&gt;" class="s18" d="m628.6 598.5v12.6c0 2.9-2.4 5.3-5.3 5.3h-126.9q-0.4 0-0.7-0.1-0.1-0.3-0.1-0.7v-12.6c0-3 2.4-5.4 5.3-5.4h126.9q0.4 0 0.8 0.1 0 0.4 0 0.8z"/>
							</g>
						</g>
						<g id="&lt;Group&gt;">
							<path id="&lt;Path&gt;" class="s1" d="m536.3 574.8c0 1.4-1.2 2.6-2.7 2.6-1.4 0-2.6-1.2-2.6-2.6 0-1.5 1.2-2.7 2.6-2.7 1.5 0 2.7 1.2 2.7 2.7z"/>
							<path id="&lt;Path&gt;" class="s1" d="m550.7 574.8c0 1.4-1.2 2.6-2.6 2.6-1.5 0-2.7-1.2-2.7-2.6 0-1.5 1.2-2.7 2.7-2.7 1.4 0 2.6 1.2 2.6 2.7z"/>
							<path id="&lt;Path&gt;" class="s1" d="m565.2 574.8c0 1.4-1.2 2.6-2.7 2.6-1.5 0-2.7-1.2-2.7-2.6 0-1.5 1.2-2.7 2.7-2.7 1.5 0 2.7 1.2 2.7 2.7z"/>
							<path id="&lt;Path&gt;" class="s1" d="m579.6 574.8c0 1.4-1.2 2.6-2.7 2.6-1.5 0-2.7-1.2-2.7-2.6 0-1.5 1.2-2.7 2.7-2.7 1.5 0 2.7 1.2 2.7 2.7z"/>
							<path id="&lt;Path&gt;" class="s1" d="m594 574.8c0 1.4-1.2 2.6-2.7 2.6-1.4 0-2.6-1.2-2.6-2.6 0-1.5 1.2-2.7 2.6-2.7 1.5 0 2.7 1.2 2.7 2.7z"/>
						</g>
						<g id="&lt;Group&gt;">
							<path id="&lt;Path&gt;" class="s1" d="m536.3 605.9c0 1.5-1.2 2.7-2.7 2.7-1.4 0-2.6-1.2-2.6-2.7 0-1.5 1.2-2.7 2.6-2.7 1.5 0 2.7 1.2 2.7 2.7z"/>
							<path id="&lt;Path&gt;" class="s1" d="m550.7 605.9c0 1.5-1.2 2.7-2.6 2.7-1.5 0-2.7-1.2-2.7-2.7 0-1.5 1.2-2.7 2.7-2.7 1.4 0 2.6 1.2 2.6 2.7z"/>
							<path id="&lt;Path&gt;" class="s1" d="m565.2 605.9c0 1.5-1.2 2.7-2.7 2.7-1.5 0-2.7-1.2-2.7-2.7 0-1.5 1.2-2.7 2.7-2.7 1.5 0 2.7 1.2 2.7 2.7z"/>
							<path id="&lt;Path&gt;" class="s1" d="m579.6 605.9c0 1.5-1.2 2.7-2.7 2.7-1.5 0-2.7-1.2-2.7-2.7 0-1.5 1.2-2.7 2.7-2.7 1.5 0 2.7 1.2 2.7 2.7z"/>
							<path id="&lt;Path&gt;" class="s1" d="m594 605.9c0 1.5-1.2 2.7-2.7 2.7-1.4 0-2.6-1.2-2.6-2.7 0-1.5 1.2-2.7 2.6-2.7 1.5 0 2.7 1.2 2.7 2.7z"/>
						</g>
					</g>
					<g id="image photo 1 ">
						<g id="&lt;Group&gt;">
							<g id="&lt;Group&gt;">
								<path id="&lt;Path&gt;" class="s4" d="m387.8 260.4h-170.8c-2.5 0-4.5-2-4.5-4.5v-104.2c0-2.5 2-4.6 4.5-4.6h170.8c2.5 0 4.5 2.1 4.5 4.6v104.2c0 2.5-2 4.5-4.5 4.5z"/>
							</g>
							<g id="&lt;Group&gt;">
								<path id="&lt;Path&gt;" class="s18" d="m385.9 151.2v92h-167v-92z"/>
							</g>
							<path id="&lt;Path&gt;" class="s19" d="m385.9 222.6v20.6h-74.1l-6.5-10.8 39.9-46.4c1.5-1.9 4.3-1.9 6-0.2z"/>
							<path id="&lt;Path&gt;" class="s20" d="m339.6 243.2h-120.7v-30.1l44.5-42.5c1.6-1.5 4.1-1.5 5.7 0.1z"/>
						</g>
					</g>
					<g id="&lt;Group&gt;">
						<g id="&lt;Group&gt;">
							<path id="&lt;Path&gt;" class="s5" d="m449.9 152.1v103.3c0 2.8-2.2 5-5 5h-29.8c-2.8 0-5-2.2-5-5v-103.3c0-2.7 2.2-5 5-5h29.8c2.8 0 5 2.3 5 5z"/>
						</g>
						<path id="&lt;Path&gt;" class="s6" d="m434.4 203.2h5.5c1 0 1.7 0.7 1.7 1.6 0 0.9-0.7 1.7-1.7 1.7h-5.5c-0.9 0-1.6 0.7-1.6 1.6v5.5c0 1-0.8 1.7-1.7 1.7-0.9 0-1.6-0.7-1.6-1.7v-5.5c0-0.9-0.8-1.6-1.7-1.6h-5.5c-0.9 0-1.7-0.8-1.7-1.7 0-0.9 0.8-1.6 1.7-1.6h5.5c0.9 0 1.7-0.8 1.7-1.7v-5.5c0-0.9 0.7-1.7 1.6-1.7 0.9 0 1.7 0.8 1.7 1.7v5.5c0 0.9 0.7 1.7 1.6 1.7z"/>
					</g>
					<g id="setting 3 ">
						<g id="&lt;Group&gt;">
							<path id="&lt;Compound Path&gt;" fill-rule="evenodd" class="s1" d="m222 345c0.1 2.7-0.9 5.4-3 7.4-3.6 3.3-9.3 3.4-12.9 0.2-4.3-3.8-4.4-10.2-0.5-14.1 1.9-1.9 4.5-2.9 7-2.8 1.4 0 2.7-0.5 3.6-1.4l16-16c1-1 1.4-2.3 1.4-3.6 0-2.6 0.9-5.1 2.8-7 2.6-2.6 6.2-3.4 9.4-2.5l-4.7 4.7 1.4 5.2 5.3 1.4 4.7-4.7c1 3.2 0.1 6.9-2.4 9.5-2 1.9-4.5 2.9-7 2.8-1.4 0-2.7 0.5-3.7 1.4l-15.9 16c-1 0.9-1.5 2.2-1.5 3.5zm-6.6 3.3l1.1-4.1-3-3-4.1 1.1-1.1 4.1 3 3z"/>
							<path id="&lt;Path&gt;" class="s4" d="m223.9 333.9c-0.6-0.6-0.6-1.5 0-2l5.1-5.1c0.5-0.6 1.4-0.6 2 0 0.5 0.5 0.5 1.4 0 2l-5.1 5.1c-0.6 0.5-1.5 0.5-2 0z"/>
						</g>
					</g>
					<g id="&lt;Group&gt;">
						<path id="&lt;Path&gt;" class="s4" d="m279.3 350.4l-5 3.3-2-2.1 3.2-5 2.6-1.4 13.2-13.2 2.6 2.7-13.1 13.1z"/>
						<path id="&lt;Path&gt;" class="s1" d="m298.1 333.4l-1.1 1.1 2 2.1-2.2 2.2-9.6-9.7 2.2-2.2 2 2.1 1.2-1.2c2.1-2.1 2.1-5.5 0-7.6l13.5-13.5q0.6-0.6 1.4-0.8c1.8-0.4 6-1 9.8 2.8 3.8 3.8 3.1 8 2.7 9.8q-0.2 0.8-0.8 1.4l-13.5 13.5c-2.1-2.1-5.5-2.1-7.6 0z"/>
					</g>
					<g id="0 14 ">
						<g id="&lt;Group&gt;">
							<path id="&lt;Path&gt;" class="s5" d="m729.7 405.5l-19.9 19.9c-1.2 1.2-3 1.2-4.1 0-1.2-1.1-1.2-2.9 0-4.1l19.9-19.9c1.1-1.1 2.9-1.1 4.1 0 1.1 1.2 1.1 3 0 4.1z"/>
							<path id="&lt;Path&gt;" class="s4" d="m739.1 396.1l-2.3 2.3c-1.1 1.1-2.9 1.1-4.1 0-1.1-1.2-1.1-3 0-4.1l2.3-2.3c1.2-1.2 3-1.2 4.1 0 1.2 1.1 1.2 2.9 0 4.1z"/>
							<path id="&lt;Path&gt;" class="s4" d="m750.8 384.4l-0.4 0.4c-1.1 1.1-3 1.1-4.1 0-1.1-1.1-1.1-3 0-4.1l0.4-0.4c1.1-1.1 3-1.1 4.1 0 1.1 1.1 1.1 3 0 4.1z"/>
						</g>
					</g>
					<g id="0 15 ">
						<g id="&lt;Group&gt;">
							<path id="&lt;Path&gt;" class="s5" d="m94.8 138.8l-19.9 19.9c-1.2 1.1-3 1.1-4.1 0-1.2-1.1-1.2-3 0-4.1l19.9-19.9c1.1-1.1 2.9-1.1 4.1 0 1.1 1.1 1.1 3 0 4.1z"/>
							<path id="&lt;Path&gt;" class="s5" d="m104.2 129.3l-2.3 2.3c-1.1 1.2-2.9 1.2-4.1 0-1.1-1.1-1.1-2.9 0-4.1l2.3-2.3c1.2-1.1 3-1.1 4.1 0 1.2 1.2 1.2 3 0 4.1z"/>
							<path id="&lt;Path&gt;" class="s5" d="m115.9 117.7l-0.4 0.4c-1.1 1.1-3 1.1-4.1 0-1.1-1.1-1.1-3 0-4.1l0.4-0.4c1.1-1.2 3-1.2 4.1 0 1.1 1.1 1.1 2.9 0 4.1z"/>
						</g>
					</g>
					<g id="0 16 ">
						<path id="&lt;Path&gt;" class="s4" d="m716.1 164.8c0.3 1.4-0.8 2.7-2.2 2.7h-2.4c-1.2 0-2.3 1-2.3 2.3v2.4c0 1.4-1.2 2.5-2.7 2.2-1.1-0.2-1.8-1.2-1.8-2.3v-2.3c0-1.3-1-2.3-2.3-2.3h-2.4c-1.4 0-2.5-1.3-2.2-2.7 0.2-1.1 1.2-1.9 2.3-1.9h2.3c1.3 0 2.3-1 2.3-2.2v-2.4c0-1.4 1.3-2.5 2.7-2.3 1.1 0.3 1.8 1.3 1.8 2.4v2.3c0 1.2 1.1 2.2 2.3 2.2h2.3c1.1 0 2.1 0.8 2.3 1.9z"/>
					</g>
					<g id="0 17 ">
						<path id="&lt;Path&gt;" class="s5" d="m301.8 44.4c0.4 1.8-1 3.5-2.8 3.5h-3c-1.6 0-2.9 1.3-2.9 2.9v3c0 1.8-1.6 3.2-3.5 2.8-1.4-0.2-2.3-1.5-2.3-2.9v-2.9c0-1.6-1.3-2.9-2.9-2.9h-3c-1.8 0-3.2-1.7-2.9-3.5 0.3-1.4 1.6-2.3 3-2.3h2.9c1.6 0 2.9-1.3 2.9-2.9v-3c0-1.8 1.6-3.2 3.5-2.9 1.4 0.3 2.3 1.6 2.3 3v2.9c0 1.6 1.3 2.9 2.9 2.9h2.9c1.4 0 2.7 0.9 2.9 2.3z"/>
					</g>
					<g id="0 18 ">
						<path id="&lt;Path&gt;" class="s5" d="m50.7 538.1c0.4 1.9-1 3.5-2.8 3.5h-3c-1.6 0-2.9 1.3-2.9 2.9v3c0 1.8-1.7 3.2-3.5 2.9-1.4-0.3-2.3-1.6-2.3-3v-2.9c0-1.6-1.3-2.9-2.9-2.9h-3c-1.8 0-3.2-1.6-2.9-3.5 0.3-1.4 1.6-2.3 3-2.3h2.9c1.6 0 2.9-1.3 2.9-2.9v-3c0-1.8 1.6-3.2 3.5-2.8 1.3 0.2 2.3 1.5 2.3 2.9v2.9c0 1.6 1.3 2.9 2.9 2.9h2.8c1.4 0 2.7 0.9 3 2.3z"/>
					</g>
					<path id="&lt;Path&gt;" class="s21" d="m696.3 578.4c0 2.6-2 4.6-4.6 4.6-2.5 0-4.6-2-4.6-4.6 0-2.5 2.1-4.6 4.6-4.6 2.6 0 4.6 2.1 4.6 4.6z"/>
					<path id="&lt;Path&gt;" class="s5" d="m535.3 509.6c0 2.6-2.1 4.6-4.6 4.6-2.6 0-4.6-2-4.6-4.6 0-2.5 2-4.6 4.6-4.6 2.5 0 4.6 2.1 4.6 4.6z"/>
					<path id="&lt;Path&gt;" class="s1" d="m563.7 658.6c0 1.4-1.2 2.5-2.5 2.5-1.4 0-2.5-1.1-2.5-2.5 0-1.4 1.1-2.5 2.5-2.5 1.3 0 2.5 1.1 2.5 2.5z"/>
					<path id="&lt;Path&gt;" class="s1" d="m185.6 64.8c0 1.8-1.5 3.2-3.2 3.2-1.8 0-3.2-1.4-3.2-3.2 0-1.7 1.4-3.1 3.2-3.1 1.7 0 3.2 1.4 3.2 3.1z"/>
					<path id="&lt;Path&gt;" class="s21" d="m154.5 161.7c0 2.6-2.1 4.6-4.6 4.6-2.5 0-4.6-2-4.6-4.6 0-2.5 2.1-4.6 4.6-4.6 2.5 0 4.6 2.1 4.6 4.6z"/>
					<path id="&lt;Path&gt;" class="s21" d="m57.2 96.4c0 1.2-1 2.1-2.2 2.1-1.1 0-2.1-0.9-2.1-2.1 0-1.2 1-2.1 2.1-2.1 1.2 0 2.2 0.9 2.2 2.1z"/>
					<path id="&lt;Path&gt;" class="s1" d="m46.5 194.7c0 2.5-2 4.6-4.6 4.6-2.5 0-4.6-2.1-4.6-4.6 0-2.6 2.1-4.7 4.6-4.7 2.6 0 4.6 2.1 4.6 4.7z"/>
					<path id="&lt;Path&gt;" class="s1" d="m53.6 600.4c0 3-2.4 5.4-5.3 5.4-2.9 0-5.3-2.4-5.3-5.4 0-2.9 2.4-5.3 5.3-5.3 2.9 0 5.3 2.4 5.3 5.3z"/>
					<path id="&lt;Path&gt;" class="s21" d="m35.2 471.3c0 2.6-2.1 4.6-4.6 4.6-2.6 0-4.7-2-4.7-4.6 0-2.5 2.1-4.6 4.7-4.6 2.5 0 4.6 2.1 4.6 4.6z"/>
					<path id="&lt;Path&gt;" class="s21" d="m562.2 15.2c0 2.5-2 4.6-4.6 4.6-2.5 0-4.6-2.1-4.6-4.6 0-2.6 2.1-4.6 4.6-4.6 2.6 0 4.6 2 4.6 4.6z"/>
					<path id="&lt;Path&gt;" class="s1" d="m719.7 95c0 1.2-0.9 2.1-2.1 2.1-1.2 0-2.1-0.9-2.1-2.1 0-1.2 0.9-2.1 2.1-2.1 1.2 0 2.1 0.9 2.1 2.1z"/>
				</g>
			</g>
		</g>
	</g>
</svg>