<svg version="1.2" xmlns="http://www.w3.org/2000/svg" viewBox="0 0 1382 775" width="1200" height="673">
	<title>bg_green-svg</title>
	<style>
		.s0 { fill: #008f99 } 
		.s1 { fill: #056480 } 
		.s2 { fill: #2c3c54 } 
	</style>
	<g id="Layer 3">
		<g id="&lt;Group&gt;">
			<g id="&lt;Group&gt;">
				<path id="&lt;Path&gt;" class="s0" d="m1390.1 9.1v760.8c0 7.8-6.3 14.1-14.1 14.1h-1371.8c-7.8 0-14.1-6.3-14.1-14.1v-760.8c0-7.7 6.3-14.1 14.1-14.1h1371.8c7.8 0 14.1 6.4 14.1 14.1z"/>
				<path id="&lt;Path&gt;" class="s1" d="m549.2 178.6c31.6-28.9 83.1-46.9 86-89.7 2.1-30.7-24.1-56.2-30-86.4q-0.3-1.2-0.4-2.5h769.1c7.8 0 14.1 6.3 14.1 14.1v760.8c0 7.7-6.3 14.1-14.1 14.1h-380c-10.8-15.6-22.2-30-37.8-42.8-24-19.6-52.5-33.8-82.8-40.5-45.2-9.9-92-3.9-138.2-1-46.1 2.9-94.7 2-135.4-20-40.7-22-70-71.2-55.4-115.1 8.9-26.7 31.4-46.1 50.4-66.8 19.1-20.8 36.3-47.8 30.6-75.3-7.6-37.4-50.4-53.7-78-80.1-45.6-43.5-44.7-126.2 1.9-168.8z"/>
				<path id="&lt;Path&gt;" class="s2" d="m1015.3 538.7c0.2-27.9 22.3-51.2 46.7-64.6 24.5-13.4 52.2-19.9 77-32.6 24.9-12.6 48-34.3 50.7-62 3.3-34-24.9-65.9-19.1-99.6 5.4-31.8 38.2-50.6 68.3-62.4 45-17.8 92-30.2 139.9-37q1.6-0.3 3.2-0.5v499.8c-5.6-4.2-11.5-8.1-17.5-11.4-43.4-24-94.4-29.2-143.8-32.7-49.5-3.5-100.2-6-145.7-25.6-30.2-13-59.9-38.5-59.7-71.4z"/>
			</g>
		</g>
	</g>
</svg>