<svg version="1.2" xmlns="http://www.w3.org/2000/svg" viewBox="0 0 49 31" width="49" height="31">
	<title>icons-ai</title>
	<style>
		.s0 { fill: #616e7d } 
		.s1 { fill: #ffffff } 
		.s2 { fill: #aad4c8 } 
	</style>
	<g id="Bg">
	</g>
	<g id="Object">
		<g id="&lt;Group&gt;">
			<path id="&lt;Path&gt;" class="s0" d="m38.9 10.8c2.6 0 4.7 2.1 4.7 4.7 0 2.6-2.1 4.7-4.7 4.7-2.6 0-4.8-2.1-4.8-4.7 0-2.6 2.2-4.7 4.8-4.7z"/>
			<path id="&lt;Path&gt;" class="s1" d="m39.4 22.9l0.5-1h-2.1l0.5 1-0.5 3.6h-0.7l-1-5.4q0.1 0 0.3 0h4.9q0.2 0 0.3 0l-1 5.4h-0.6l-0.6-3.6z"/>
			<path id="&lt;Path&gt;" class="s0" d="m13.5 10.8c2.6 0 4.7 2.1 4.7 4.7 0 2.6-2.1 4.7-4.7 4.7-2.6 0-4.7-2.1-4.7-4.7 0-2.6 2.1-4.7 4.7-4.7z"/>
			<path id="&lt;Compound Path&gt;" fill-rule="evenodd" class="s0" d="m16.4 27.2v-2.8c-0.4 0.8-0.7 1.8-0.7 2.8h-9.4v-2.1c0-2.5 2-4.5 4.4-4.5h5.5q0.7 0.1 1.3 0.3c1.1-1.6 2.9-2.6 4.9-2.6h7.5c2 0 3.8 1 4.9 2.6q0.6-0.2 1.3-0.3h5.5c2.4 0 4.4 2 4.4 4.5v2.1h-9.4c0-1-0.3-2-0.7-2.9v2.9zm19.7-6.1l1 5.4h0.6l0.6-3.6-0.5-1h2.1l-0.5 1 0.5 3.6h0.7l1-5.4q-0.1 0-0.3 0h-4.9q-0.2 0-0.3 0zm-13.7-2.2l1.4 7.3h4.7l1.4-7.3q-0.2 0-0.4 0h-6.7q-0.2 0-0.4 0zm-6.2 2.2q-0.1 0-0.3 0h-4.9q-0.2 0-0.3 0l1 5.4h0.6l0.6-3.6-0.5-1h2.1l-0.5 1 0.5 3.6h0.7z"/>
			<path id="&lt;Path&gt;" class="s1" d="m14 22.9l0.5-1h-2.1l0.5 1-0.5 3.6h-0.7l-1-5.4q0.1 0 0.3 0h4.9q0.2 0 0.3 0l-1 5.4h-0.6l-0.6-3.6z"/>
			<path id="&lt;Path&gt;" class="s0" d="m26.2 4.8c3.5 0 6.4 2.9 6.4 6.4 0 3.6-2.9 6.5-6.4 6.5-3.6 0-6.5-2.9-6.5-6.5 0-3.5 2.9-6.4 6.5-6.4z"/>
			<path id="&lt;Path&gt;" class="s1" d="m26.9 21.3l0.7-1.3h-2.9l0.7 1.3-0.7 4.9h-0.9l-1.4-7.3q0.2 0 0.4 0h6.7q0.2 0 0.4 0l-1.4 7.3h-0.8l-0.8-4.9z"/>
			<path id="&lt;Path&gt;" class="s2" d="m25.4 21.3l-0.7-1.3h2.9l-0.7 1.3 0.8 4.9h-3z"/>
		</g>
	</g>
</svg>