<svg version="1.2" xmlns="http://www.w3.org/2000/svg" viewBox="0 0 42 45" width="42" height="45">
	<title>icons-ai</title>
	<style>
		.s0 { fill: #616e7d } 
		.s1 { fill: #aad4c8 } 
		.s2 { fill: #ffffff } 
		.s3 { fill: #82bfab } 
	</style>
	<g id="Bg">
	</g>
	<g id="Object">
		<g id="&lt;Group&gt;">
			<path id="&lt;Path&gt;" class="s0" d="m881.5 349.6l0.2-2.2h-5.8c-0.8 0-1.4-0.5-1.4-1.2v-6.9c0-0.7 0.6-1.2 1.4-1.2h14.5c0.8 0 1.4 0.5 1.4 1.2v6.9c0 0.7-0.6 1.2-1.4 1.2h-6.7z"/>
			<path id="&lt;Path&gt;" class="s1" d="m895.8 350.4h-2.7l0.1 1.3-1.3-1.3h-4.4c-0.5 0-0.9-0.4-0.9-0.8v-1.6h4.3c0.9 0 1.6-0.7 1.6-1.4v-2.5h3.3c0.5 0 0.9 0.4 0.9 0.8v4.7c0 0.4-0.4 0.8-0.9 0.8z"/>
			<path id="&lt;Path&gt;" class="s0" d="m876.3 360.7c-1.8 0-3.4-1.5-3.4-3.4 0-1.9 1.6-3.4 3.4-3.4 1.9 0 3.4 1.5 3.4 3.4 0 1.9-1.5 3.4-3.4 3.4z"/>
			<path id="&lt;Compound Path&gt;" fill-rule="evenodd" class="s0" d="m896.7 361c1.8 0 3.2 1.5 3.2 3.3v1.5h-6.8c0-1.7-0.9-3.2-2.3-4.1 0.5-0.4 1.2-0.7 2-0.7zm-0.2 1.2c0.1-0.2-0.6-0.6-0.6-0.6l-1.2 3.7-1.3-3.7c0 0-0.6 0.4-0.6 0.6 0.1 0.1 1 0.9 1 0.9l-0.6 0.6 1.5 1.6 1.5-1.6-0.7-0.6c0 0 1-0.8 1-0.9z"/>
			<path id="&lt;Compound Path&gt;" fill-rule="evenodd" class="s0" d="m874.4 361.1h3.9c0.8 0 1.4 0.2 2 0.6-1.4 0.9-2.3 2.4-2.3 4.1h-6.8v-1.5c0-1.8 1.4-3.2 3.2-3.2zm0.2 0.3q-0.2 0-0.3 0l0.8 3.9h0.4l0.4-2.6h0.1l-0.4-0.7h1.5l-0.4 0.7 0.4 2.6h0.5l0.7-3.9q-0.1 0-0.2 0z"/>
			<path id="&lt;Path&gt;" class="s2" d="m876.7 362.7l0.4-0.7h-1.5l0.4 0.7h-0.1l-0.4 2.6h-0.4l-0.8-3.9q0.1 0 0.3 0h3.5q0.1 0 0.2 0l-0.7 3.9h-0.5l-0.4-2.6z"/>
			<path id="&lt;Path&gt;" class="s0" d="m885.5 361.1c-2.5 0-4.6-2-4.6-4.6 0-2.5 2.1-4.6 4.6-4.6 2.6 0 4.6 2.1 4.6 4.6 0 2.6-2 4.6-4.6 4.6z"/>
			<path id="&lt;Path&gt;" class="s0" d="m885 363.8l-0.5-1z"/>
			<path id="&lt;Compound Path&gt;" fill-rule="evenodd" class="s0" d="m888.2 361.6c2.4 0 4.3 1.9 4.3 4.3v2.1h-14v-2.1c0-2.4 2-4.3 4.4-4.3zm0 0.4q-0.1 0-0.3 0h-4.8q-0.2 0-0.3 0l1 5.3h3.4z"/>
			<path id="&lt;Path&gt;" class="s2" d="m886.1 363.8l0.5-1h-2.1l0.5 1-0.5 3.5h-0.7l-1-5.3q0.2 0 0.3 0h4.9q0.1 0 0.2 0l-0.9 5.3h-0.7l-0.5-3.5z"/>
			<path id="&lt;Path&gt;" class="s1" d="m885 363.8l-0.5-1h2.1l-0.5 1 0.5 3.5h-2.1z"/>
			<path id="&lt;Path&gt;" class="s2" d="m895.6 363.1l0.6 0.6-1.5 1.6 1.3-3.7c0 0 0.6 0.4 0.6 0.6-0.1 0-1 0.9-1 0.9z"/>
			<path id="&lt;Path&gt;" class="s2" d="m893.2 363.7l0.7-0.6c0 0-1-0.8-1-0.9-0.1-0.2 0.6-0.6 0.6-0.6l1.2 3.7z"/>
			<path id="&lt;Path&gt;" class="s0" d="m898 357.3v0.1 1.8c0 0.7 0.3 1.2 0.8 1.4v0.1h-4.1q-0.1 0-0.2 0c-1.9 0-3.5-1.6-3.4-3.6 0.1-1.7 1.5-3.1 3.2-3.2 2-0.2 3.7 1.4 3.7 3.4z"/>
			<path id="&lt;Compound Path&gt;" fill-rule="evenodd" class="s0" d="m867.8 360.4h3c0.5 0 1.1 0.2 1.5 0.5-1.1 0.7-1.8 1.9-1.8 3.2h-5.2v-1.2c0-1.4 1.1-2.5 2.5-2.5zm0.1 0.9c0 0 0.7 0.7 0.7 0.7l-0.5 0.5 1.2 1.2 1.1-1.2-0.5-0.5c0 0 0.7-0.7 0.8-0.7 0-0.1-0.5-0.5-0.5-0.5l-0.9 2.9-1-2.9c0 0-0.5 0.4-0.4 0.5z"/>
			<path id="&lt;Path&gt;" class="s2" d="m868.1 362.5l0.5-0.5c0 0-0.7-0.7-0.7-0.7-0.1-0.1 0.4-0.5 0.4-0.5l1 2.9z"/>
			<path id="&lt;Path&gt;" class="s2" d="m869.9 362l0.5 0.5-1.1 1.2 0.9-2.9c0 0 0.5 0.4 0.5 0.5-0.1 0-0.8 0.7-0.8 0.7z"/>
			<path id="&lt;Path&gt;" class="s0" d="m866.5 357.6c0-1.5 1.3-2.7 2.8-2.6 1.3 0 2.4 1.1 2.4 2.4 0.1 1.5-1.1 2.8-2.6 2.8h-0.1-3.1v-0.1c0.3-0.1 0.6-0.6 0.6-1.1z"/>
			<path id="&lt;Compound Path&gt;" fill-rule="evenodd" class="s0" d="m903.4 360.4c1.4 0 2.4 1.1 2.4 2.5v1.2h-5.1c-0.1-1.4-0.8-2.5-1.8-3.2 0.4-0.3 0.9-0.5 1.5-0.5zm-0.1 0.3q0 0-0.1 0h-2.7q0 0-0.1 0l0.5 2.8h0.4l0.3-1.9-0.3-0.5h1.1l-0.2 0.5 0.3 1.9h0.3z"/>
			<path id="&lt;Path&gt;" class="s0" d="m901.9 360.1c-1.4 0-2.6-1.1-2.6-2.6 0-1.4 1.2-2.5 2.6-2.5 1.4 0 2.6 1.1 2.6 2.5 0 1.5-1.2 2.6-2.6 2.6z"/>
			<path id="&lt;Path&gt;" class="s2" d="m902.2 361.6l0.3-0.5h-1.2l0.3 0.5-0.3 1.9h-0.3l-0.6-2.8q0.1 0 0.2 0h2.6q0.1 0 0.2 0l-0.6 2.8h-0.3l-0.3-1.9z"/>
		</g>
		<g id="&lt;Group&gt;">
			<path id="&lt;Path&gt;" class="s0" d="m341.9 357.3c-2.7 0-4.8-2.1-4.8-4.7 0-2.6 2.1-4.7 4.8-4.7 2.6 0 4.7 2.1 4.7 4.7 0 2.6-2.1 4.7-4.7 4.7z"/>
			<path id="&lt;Path&gt;" class="s2" d="m342.4 360l0.5-1h-2.1l0.5 1-0.5 3.6h-0.7l-1-5.4q0.1 0 0.3 0h4.9q0.2 0 0.3 0l-1 5.4h-0.6l-0.6-3.6z"/>
			<path id="&lt;Path&gt;" class="s0" d="m316.5 357.3c-2.6 0-4.7-2.1-4.7-4.7 0-2.6 2.1-4.7 4.7-4.7 2.6 0 4.7 2.1 4.7 4.7 0 2.6-2.1 4.7-4.7 4.7z"/>
			<path id="&lt;Compound Path&gt;" fill-rule="evenodd" class="s0" d="m319.4 364.3v-2.9c-0.4 0.9-0.7 1.9-0.7 2.9h-9.4v-2.1c0-2.5 2-4.5 4.4-4.5h5.5q0.7 0 1.3 0.3c1.1-1.6 2.9-2.6 4.9-2.6h7.5c2 0 3.8 1 4.9 2.5q0.6-0.2 1.3-0.2h5.5c2.4 0 4.4 2 4.4 4.5v2.1h-9.4c0-1-0.3-2-0.7-2.9v2.9zm19.7-6.1l1 5.3h0.6l0.6-3.5-0.5-1h2.1l-0.5 1 0.5 3.5h0.7l1-5.3q-0.1 0-0.3 0h-4.9q-0.2 0-0.3 0zm-13.7-2.2l1.3 7.3h4.8l1.4-7.3q-0.2 0-0.4 0h-6.7q-0.2 0-0.4 0zm-6.2 2.2q-0.1 0-0.3 0h-4.9q-0.2 0-0.3 0l1 5.4h0.6l0.6-3.6-0.5-1h2.1l-0.5 1 0.5 3.6h0.7z"/>
			<path id="&lt;Path&gt;" class="s2" d="m317 360l0.5-1h-2.1l0.5 1-0.5 3.6h-0.7l-1-5.4q0.1 0 0.3 0h4.9q0.2 0 0.3 0l-1 5.4h-0.6l-0.6-3.6z"/>
			<path id="&lt;Path&gt;" class="s0" d="m329.2 354.8c-3.6 0-6.5-2.9-6.5-6.5 0-3.5 2.9-6.4 6.5-6.4 3.5 0 6.4 2.9 6.4 6.4 0 3.6-2.9 6.5-6.4 6.5z"/>
			<path id="&lt;Path&gt;" class="s2" d="m329.9 358.4l0.7-1.3h-2.9l0.7 1.3-0.7 4.9h-0.9l-1.4-7.3q0.2 0 0.4 0h6.7q0.2 0 0.4 0l-1.4 7.3h-0.8l-0.8-4.9z"/>
			<path id="&lt;Path&gt;" class="s1" d="m328.4 358.4l-0.7-1.3h2.9l-0.7 1.3 0.8 4.9h-3z"/>
		</g>
		<g id="&lt;Group&gt;">
			<path id="&lt;Path&gt;" class="s0" d="m142.9 493.3v-15q-0.6-0.3-0.9-0.8h-7.6l-0.3-0.5q-0.1-0.1-0.2-0.1-0.2 0-0.3 0.1l-0.2 0.5h-0.5c-0.4 0-0.8-0.4-0.8-0.9 0-0.4 0.4-0.8 0.8-0.8h9.1q0.3-0.6 0.9-0.8v-0.8c0-0.5 0.3-0.9 0.8-0.9 0.5 0 0.8 0.4 0.8 0.9v0.8q0.6 0.2 0.9 0.8h9.1c0.4 0 0.8 0.4 0.8 0.8 0 0.5-0.4 0.9-0.8 0.9h-0.5l-0.2-0.5q-0.1-0.1-0.3-0.1-0.1 0-0.2 0.1l-0.3 0.5h-7.6q-0.3 0.5-0.9 0.8l0.1 15z"/>
			<path id="&lt;Path&gt;" class="s3" d="m154 477.5l4.4 8.5q0 0.1 0 0.1h-0.6l-4.3-8.3-4.2 8.3h-0.6q0 0 0-0.1l4.3-8.5 0.3-0.5q0.1-0.1 0.2-0.1 0.2 0 0.3 0.1z"/>
			<path id="&lt;Path&gt;" class="s1" d="m157.8 486.1h0.6 0.4c0 2.9-2.4 5.3-5.2 5.3-2.9 0-5.3-2.4-5.3-5.2l0.4-0.1h0.6z"/>
			<path id="&lt;Path&gt;" class="s3" d="m134.4 477.5l4.3 8.5q0 0.1 0 0.2h-0.6l-4.2-8.4-4.3 8.4h-0.6q0-0.1 0-0.2l4.4-8.5 0.2-0.5q0.1-0.1 0.3-0.1 0.1 0 0.2 0.1z"/>
			<path id="&lt;Path&gt;" class="s1" d="m138.1 486.2h0.6 0.4c0 2.8-2.4 5.2-5.2 5.2-2.9 0-5.3-2.4-5.3-5.2h0.4 0.6z"/>
			<path id="&lt;Path&gt;" class="s0" d="m149 493.3v1.2h2.7v1.2h-16.1v-1.2h2.8v-1.2h4.5 1.7z"/>
		</g>
		<g id="&lt;Group&gt;">
			<path id="&lt;Path&gt;" class="s0" d="m163.4 198.7l1.3 1.3c0.2 0.2 0.2 0.4 0 0.6l-12.3 13.1q-0.1 0.1-0.3 0.1-0.1 0-0.2-0.1l-2.1-2.1q-0.2-0.1-0.2-0.3 0.1-0.1 0.2-0.3l13.1-12.3c0.1-0.1 0.4-0.1 0.5 0z"/>
			<path id="&lt;Path&gt;" class="s0" d="m175.6 213.7v1.5h1.5v1.4h2.2v1.5h-21.3v-1.5h2.3v-1.4h1.5v-1.5q0-0.2 0.1-0.3 0.1-0.1 0.3-0.1h13q0.2 0 0.3 0.1 0.1 0.1 0.1 0.3z"/>
			<path id="&lt;Path&gt;" class="s0" d="m166.1 189.6q0.1-0.1 0.1-0.2l7.6 7.6q-0.1 0-0.2 0.1l-5.1 5.2-7.6-7.6z"/>
			<path id="&lt;Path&gt;" class="s1" d="m175.9 197.1c0.6 0.6 0.6 1.6 0 2.2l-5.2 5.3c-0.7 0.6-1.7 0.6-2.3 0-0.6-0.6-0.6-1.6 0-2.3h0.1l5.1-5.2q0.1-0.1 0.2-0.1c0.6-0.5 1.5-0.5 2.1 0.1z"/>
			<path id="&lt;Path&gt;" class="s1" d="m166.1 187.3c0.6 0.6 0.6 1.5 0.1 2.1q0 0.1-0.1 0.2l-5.2 5.1v0.1c-0.6 0.6-1.7 0.6-2.3 0-0.6-0.6-0.6-1.6 0-2.3l5.3-5.2c0.6-0.6 1.6-0.6 2.2 0z"/>
		</g>
		<g id="&lt;Group&gt;">
			<path id="&lt;Path&gt;" class="s1" d="m13.5 489.8h0.2c1.5 0.8 3.1 1.3 4.9 1.5l-2.3 2.5-3-4z"/>
			<path id="&lt;Path&gt;" class="s1" d="m25.8 489.8h0.8 0.2l-2.9 4-2.5-2.6c1.6-0.2 3.1-0.7 4.4-1.4z"/>
			<path id="&lt;Compound Path&gt;" fill-rule="evenodd" class="s0" d="m25.8 489.7h0.7q0 0 0.1 0.1h-0.8c-1.3 0.7-2.8 1.2-4.4 1.4l2.5 2.6 2.9-4c5.6 0.1 10.1 4.6 10.1 10.2v5h-33.7v-5c0-5.6 4.5-10.1 10.1-10.2l3 4 2.3-2.5c-1.8-0.2-3.4-0.7-4.9-1.5h-0.2q0.1 0 0.1-0.1h0.1q-1.8-1-3.1-2.5c-0.7 2.4-2.8 4.2-5.4 4.4-2.2 0.1-4.1-1-5.2-2.6 2.3-0.3 4.2-1.9 4.9-4.1q0.1-0.2 0.1-0.4c0.3-0.9 1-1.6 1.9-1.8-1-0.5-1.8-1.5-1.8-2.6v-0.9c0-1.4 1-2.5 2.3-2.8q0-0.6 0-1.2v-0.1q0-0.4 0-0.9c0.2-2 0.9-3.7 1.9-5.2q0.8-1.2 1.9-2.1c1.4-1.3 3.2-2.2 5.2-2.6l0.2 0.1-0.1-0.1h0.2q0.6-0.1 1.3-0.2h0.2q0.4 0 0.9 0h0.1c2.3-0.1 5.3 0.2 8.2 2.1 2.8 2.1 4.6 5.3 4.6 9q0 0.1 0 0.2 0 0.5-0.1 1c1.4 0.3 2.4 1.4 2.4 2.8v0.9c0 1.1-0.6 2-1.5 2.5 1 0.1 1.9 0.9 2.3 1.8q0 0.3 0.1 0.5c0.7 2.2 2.6 3.8 4.9 4.1-1.1 1.6-3 2.7-5.1 2.5-2.9-0.1-5.2-2.2-5.6-4.9-1 1.2-2.2 2.3-3.6 3.1zm5.9-9.8q0 0.7-0.1 1.3c0.6-0.1 1-0.5 1-1.1v-0.9c0-0.6-0.4-1.1-1-1.1q0 0.3 0 0.6 0.1 0.6 0.1 1.2zm-23.9 0q0-0.7 0.1-1.3-0.1-0.3-0.1-0.5c-0.6 0.1-0.9 0.6-0.9 1.1v0.9c0 0.6 0.4 1.1 1 1.1q-0.1-0.6-0.1-1.3zm21.7 2.8q0.3-0.9 0.4-1.8 0-0.5 0-1 0-0.8-0.1-1.5 0-0.3-0.1-0.7c-1.4-0.9-3.2-2.5-3.9-3.7 0 0-11.3 2.6-15.5 2.9q-0.1 0.1-0.3 0.1-0.2 0.7-0.4 1.4-0.1 0.7-0.1 1.5 0 0.5 0.1 1 0.1 0.9 0.3 1.8c1.3 4 5.2 7 9.8 7 4.7 0 8.6-3 9.8-7z"/>
		</g>
		<g id="&lt;Group&gt;">
			<path id="&lt;Compound Path&gt;" fill-rule="evenodd" class="s0" d="m185.2-121.5c0-0.5 0.5-1 1-1h38.4c0.6 0 1 0.5 1 1v25c0 0.5-0.4 1-1 1h-38.4c-0.5 0-1-0.5-1-1zm2.6 21.8h35.3v-20.4h-35.3z"/>
			<path id="&lt;Path&gt;" class="s0" d="m210.9-94.8l1.4 2.4c0.3 0.6 0.3 1.7 0 1.7h-13.7c-0.3 0-0.3-1.1 0-1.7l1.4-2.4q0.1-0.2 0.2-0.2h10.5q0.1 0 0.2 0.2z"/>
			<path id="&lt;Compound Path&gt;" fill-rule="evenodd" class="s2" d="m187.8-120h35.3v20.3h-35.3zm9.7 13.7h7.7v-0.9h-7.7zm8.2 4.9h8.3v-0.7h-8.3zm0-1.1h15.9v-0.7h-15.9zm0-1.2h15.9v-0.6h-15.9zm0-1.2h15.9v-0.7h-15.9zm0-1.4h7.7v-0.9h-7.7zm8.2 0h7.7v-0.9h-7.7zm-24.6-1.6l32.3-0.1v-10.3h-32.3zm0 1.6h7.7v-0.9h-7.7zm0 5.4l15.9-0.1v-4.5h-15.9z"/>
			<path id="&lt;Path&gt;" class="s1" d="m189.3-118.4h32.3v10.4h-32.3z"/>
			<path id="&lt;Path&gt;" class="s3" d="m189.3-107.3h7.7v0.9h-7.7z"/>
			<path id="&lt;Path&gt;" class="s3" d="m189.3-105.5h15.9v4.5h-15.9z"/>
			<path id="&lt;Path&gt;" class="s3" d="m197.5-107.3h7.7v0.9h-7.7z"/>
			<path id="&lt;Path&gt;" class="s3" d="m205.7-107.3h7.7v0.9h-7.7z"/>
			<path id="&lt;Path&gt;" class="s1" d="m205.7-105.6h15.9v0.7h-15.9z"/>
			<path id="&lt;Path&gt;" class="s1" d="m205.7-104.4h15.9v0.6h-15.9z"/>
			<path id="&lt;Path&gt;" class="s1" d="m205.7-103.3h15.9v0.7h-15.9z"/>
			<path id="&lt;Path&gt;" class="s1" d="m205.7-102.1h8.3v0.7h-8.3z"/>
			<path id="&lt;Path&gt;" class="s3" d="m213.9-107.3h7.7v0.9h-7.7z"/>
		</g>
		<g id="&lt;Group&gt;">
			<path id="&lt;Compound Path&gt;" fill-rule="evenodd" class="s0" d="m126.3-119.5c0-0.6 0.5-1 1-1h32.6c0.5 0 1 0.4 1 1v20c0 0.5-0.5 1-1 1h-32.6c-0.5 0-1-0.4-1-1zm2.3 18.8h30v-17.7h-30z"/>
			<path id="&lt;Path&gt;" class="s0" d="m161.2-97.8l3.4 3.2c0.7 0.6 0.3 2-0.6 2h-40.7c-0.9 0-1.3-1.4-0.6-2l3.4-3.2q0.2-0.3 0.6-0.3h33.8q0.4 0 0.7 0.3z"/>
			<path id="&lt;Compound Path&gt;" fill-rule="evenodd" class="s2" d="m128.6-118.4h30v17.7h-30zm8.2 11.4h6.5v-0.8h-6.5zm6.9 4.4h7v-0.6h-7zm0-1h13.4v-0.6h-13.4zm0-1.1h13.4v-0.6h-13.4zm0-1.1h13.4v-0.6h-13.4zm0-1.3h6.5v-0.8h-6.5zm6.9 0h6.5v-0.8h-6.5zm-20.7-1.5h27.2v-8.3h-27.2zm0 1.5h6.5v-0.8h-6.5zm0 4.8h13.4v-4.1h-13.4z"/>
			<path id="&lt;Path&gt;" class="s1" d="m129.9-116.9h27.2v8.3h-27.2z"/>
			<path id="&lt;Path&gt;" class="s3" d="m129.9-107.9h6.5v0.9h-6.5z"/>
			<path id="&lt;Path&gt;" class="s3" d="m129.9-106.3h13.4v4.1h-13.4z"/>
			<path id="&lt;Path&gt;" class="s3" d="m136.8-107.9h6.5v0.9h-6.5z"/>
			<path id="&lt;Path&gt;" class="s3" d="m143.7-107.9h6.5v0.9h-6.5z"/>
			<path id="&lt;Path&gt;" class="s1" d="m143.7-106.4h13.4v0.6l-13.4 0.1z"/>
			<path id="&lt;Path&gt;" class="s1" d="m143.7-105.3h13.4v0.6h-13.4z"/>
			<path id="&lt;Path&gt;" class="s1" d="m143.7-104.3h13.4v0.7h-13.4z"/>
			<path id="&lt;Path&gt;" class="s1" d="m143.7-103.2h7v0.6h-7z"/>
			<path id="&lt;Path&gt;" class="s3" d="m150.6-107.9h6.5v0.9h-6.5z"/>
		</g>
		<g id="&lt;Group&gt;">
			<path id="&lt;Path&gt;" class="s0" d="m630.2 101.3c1.5 3.2 3.5 5.9 6.2 8.2-4-0.7-7.8-2.7-10.6-5.6q2-1.5 4.4-2.6z"/>
			<path id="&lt;Path&gt;" class="s0" d="m623.3 91.8h4.5c0.1 2.8 0.7 5.6 1.8 8.2q-2.6 1.1-4.8 2.8c-2.2-2.5-3.6-5.5-4.2-8.7 1.3-0.1 2.4-1.1 2.7-2.3z"/>
			<path id="&lt;Path&gt;" class="s0" d="m631 99.5q-1.5-3.7-1.7-7.7h9.6v6.1c-2.7 0.1-5.4 0.6-7.9 1.6z"/>
			<path id="&lt;Path&gt;" class="s0" d="m631.6 100.8q3.5-1.3 7.3-1.5v10.3c-3.2-2.3-5.7-5.3-7.3-8.8z"/>
			<path id="&lt;Path&gt;" class="s0" d="m625.1 77.6c2.9-3.4 6.9-5.6 11.3-6.3-2.4 2-4.4 4.5-5.8 7.3q-0.3-0.1-0.7-0.1c-0.9 0-1.6 0.3-2.2 0.9q-1.3-0.8-2.6-1.8z"/>
			<path id="&lt;Path&gt;" class="s0" d="m632.3 83q3.2 1 6.6 1.2v6.1h-9.7q0-3 0.8-6c0.9 0 1.8-0.5 2.3-1.3z"/>
			<path id="&lt;Path&gt;" class="s0" d="m627 80.7q-0.1 0.3-0.1 0.7c0 1.1 0.7 2.1 1.6 2.6q-0.8 3.1-0.8 6.3h-4.5c-0.4-1.2-1.5-2.1-2.8-2.1q0 0 0 0c0.4-3.4 1.6-6.7 3.8-9.5q1.3 1.1 2.8 2z"/>
			<path id="&lt;Path&gt;" class="s0" d="m650.6 101.8q1.7 0.8 3.2 1.8c-3 3.2-6.9 5.3-11.2 5.9q3.3-2.9 5.5-6.6 0.1 0 0.2 0c0.9 0 1.8-0.4 2.3-1.1z"/>
			<path id="&lt;Path&gt;" class="s0" d="m651.2 100.4q0-0.2 0-0.4c0-0.9-0.4-1.7-1-2.2q0.9-2.9 1.1-6h7.7c-0.3 3.9-1.8 7.6-4.3 10.7q-1.7-1.2-3.5-2.1z"/>
			<path id="&lt;Path&gt;" class="s0" d="m655.3 79c2.4 3.3 3.7 7.2 3.7 11.3h-7.7c0-2.8-0.5-5.5-1.3-8.2q2.8-1.2 5.3-3.1z"/>
			<path id="&lt;Path&gt;" class="s0" d="m632.8 81.6q0-0.1 0-0.2c0-0.8-0.3-1.6-0.9-2.1 1.7-3.2 4-6 7-8.2v11.6q-3.1-0.1-6.1-1.1z"/>
			<path id="&lt;Path&gt;" class="s0" d="m640.4 71.3c3.4 2.6 6.1 6.1 7.7 10-2.5 0.9-5.1 1.4-7.7 1.4z"/>
			<path id="&lt;Path&gt;" class="s0" d="m642.6 71.2c4.6 0.7 8.8 3.1 11.8 6.6q-2.3 1.8-5 3c-1.4-3.7-3.8-7-6.8-9.6z"/>
			<path id="&lt;Path&gt;" class="s0" d="m640.4 84.2c2.8 0 5.5-0.6 8.2-1.5 0.8 2.4 1.2 5 1.2 7.6h-9.4z"/>
			<path id="&lt;Path&gt;" class="s0" d="m645.4 99.9q0 0 0 0.1c0 1 0.5 1.9 1.2 2.4-1.5 2.7-3.7 5.1-6.2 7.1v-10.2q2.5 0.1 5 0.6z"/>
			<path id="&lt;Path&gt;" class="s0" d="m640.4 97.9v-6.1h9.4q-0.2 2.7-0.9 5.3-0.3-0.1-0.6-0.1c-1.1 0-2 0.6-2.5 1.5q-2.7-0.6-5.4-0.6z"/>
			<path id="&lt;Path&gt;" class="s1" d="m630.6 78.6q0.8 0.2 1.3 0.7c0.6 0.5 0.9 1.3 0.9 2.1q0 0.1 0 0.2-0.1 0.8-0.5 1.4c-0.5 0.8-1.4 1.3-2.3 1.3q-0.1 0-0.1 0-0.8 0-1.4-0.3c-0.9-0.5-1.6-1.5-1.6-2.6q0-0.4 0.1-0.7 0.2-0.8 0.7-1.3c0.6-0.6 1.3-0.9 2.2-0.9q0.4 0 0.7 0.1z"/>
			<path id="&lt;Path&gt;" class="s3" d="m623.2 90.3q0.1 0.4 0.1 0.9 0 0.3 0 0.6c-0.3 1.2-1.4 2.2-2.7 2.3q-0.1 0-0.2 0c-1.6 0-2.9-1.3-2.9-2.9 0-1.7 1.3-3 2.9-3q0 0 0 0c1.3 0 2.4 0.9 2.8 2.1z"/>
			<path id="&lt;Path&gt;" class="s1" d="m650.2 97.8c0.6 0.5 1 1.3 1 2.2q0 0.2 0 0.4-0.1 0.8-0.6 1.4c-0.5 0.7-1.4 1.1-2.3 1.1q-0.1 0-0.2 0-0.8-0.1-1.5-0.5c-0.7-0.5-1.2-1.4-1.2-2.4q0-0.1 0-0.1 0-0.8 0.4-1.4c0.5-0.9 1.4-1.5 2.5-1.5q0.3 0 0.6 0.1 0.8 0.2 1.3 0.7z"/>
		</g>
		<g id="&lt;Group&gt;">
			<path id="&lt;Path&gt;" class="s1" d="m25.7 37.8q0.3-1.1-0.5-2.4v-0.1c-0.9-1.6-2.8-3.2-4.1-3.3l0.2-0.2q0.5-0.4 1.3-0.4c0.9 0 1.9 0.5 2.7 1.4q0.2 0.1 0.3 0.3c0.5 0.5 0.8 1.1 0.9 1.7 0.4 1.1 0.2 2.2-0.5 2.8z"/>
			<path id="&lt;Path&gt;" class="s0" d="m24.4 38.9h-0.1 0.1z"/>
			<path id="&lt;Compound Path&gt;" fill-rule="evenodd" class="s3" d="m13.5 17.6q-0.2-0.2-0.3-0.4c-0.7-0.8-1.6-1.4-2.5-1.7 2.3-3.2 6.1-5.3 10.4-5.3 7.1 0 12.9 5.8 12.9 12.9 0 5.1-2.9 9.4-7.1 11.6q-0.3-1-1-1.8-0.1-0.2-0.3-0.4c-0.9-0.9-2-1.5-3-1.5q-0.9 0-1.5 0.5l-0.6 0.5q-0.1 0.1-0.2 0.1l-0.3 0.3-0.2 0.2-0.2 0.1q-0.2 0.2-0.5 0.2c0 0-0.1 0-0.1 0l-0.6-0.7c-0.4-1-1.5-2.5-2.7-4-1.3-1.6-2.5-2.9-3.4-3.6l-0.6-0.6c0-0.1 0-0.4 0.3-0.6h0.1l0.1-0.2 0.3-0.2 0.2-0.1v-0.1l0.8-0.6c1.2-0.9 1.1-2.9 0-4.6zm9.8 5.6q0 0.2 0 0.4 0 0.1 0.1 0.2 0.1 0.1 0.1 0.1 0.1 0 0.2 0h3.7v1.4 0.1q0.1 0 0.2 0.1 0.1 0 0.3 0 0.1 0 0.4 0 0.3 0 0.5 0 0.1 0 0.3 0 0.1-0.1 0.1-0.1v-0.1-1.4h0.9q0.1 0 0.2-0.2 0.1-0.1 0.1-0.4 0-0.4-0.1-0.5-0.1-0.2-0.2-0.2h-0.9v-4.6q0-0.1 0-0.1-0.1-0.1-0.3-0.1-0.1-0.1-0.4-0.1-0.2 0-0.6 0-0.4 0-0.6 0-0.3 0-0.4 0.1-0.2 0-0.3 0-0.1 0.1-0.1 0.1l-3 4.3q0 0.1-0.1 0.2 0 0.1-0.1 0.2 0 0.1 0 0.3 0 0.1 0 0.3zm-7.3 1.6q0 0.2 0.1 0.4 0 0.1 0.1 0.2 0 0.1 0.2 0.1 0.1 0 0.2 0h5.5q0.1 0 0.2 0 0-0.1 0.1-0.1 0-0.1 0-0.2 0-0.2 0-0.3 0-0.2 0-0.3 0-0.2-0.1-0.2 0-0.1-0.1-0.1 0-0.1-0.1-0.1h-3.8l1.1-0.9q0.9-0.7 1.4-1.2 0.5-0.5 0.8-0.9 0.3-0.5 0.4-0.8 0-0.4 0-0.8 0-0.4-0.1-0.8-0.2-0.3-0.6-0.6-0.4-0.3-0.9-0.4-0.6-0.2-1.3-0.2-0.5 0-0.9 0.1-0.5 0.1-0.8 0.2-0.4 0.1-0.6 0.2-0.3 0.1-0.4 0.2-0.1 0-0.1 0.1 0 0-0.1 0.1 0 0.1 0 0.2 0 0.1 0 0.2 0 0.2 0 0.3 0 0.2 0.1 0.3 0 0 0 0.1 0.1 0 0.2 0 0 0 0.2-0.1 0.2-0.1 0.4-0.2 0.3-0.1 0.6-0.2 0.4-0.1 0.8-0.1 0.3 0 0.5 0.1 0.3 0.1 0.4 0.2 0.2 0.1 0.3 0.3 0 0.2 0 0.4 0 0.2 0 0.4-0.1 0.3-0.3 0.6-0.1 0.3-0.4 0.6-0.3 0.3-0.8 0.8l-1.7 1.4q-0.1 0.1-0.2 0.2-0.1 0.1-0.2 0.3 0 0.1-0.1 0.2 0 0.1 0 0.3z"/>
			<path id="&lt;Path&gt;" class="s3" d="m24.8 22.6l2.6-3.5v3.5z"/>
			<path id="&lt;Path&gt;" class="s1" d="m13.1 22.1c0.1-1.2-0.9-2.8-1.2-3.4-0.5-0.7-1.2-1.6-1.9-2.1q-0.6-0.4-1.2-0.6 0.5-0.2 1.1-0.2 0.2 0 0.5 0c0.9 0.2 1.8 0.8 2.5 1.7q0.1 0.1 0.3 0.3c1 1.5 1.1 3.3 0.1 4.1z"/>
			<path id="&lt;Path&gt;" class="s0" d="m24.4 38.9h-0.1q-0.8 0.5-1.9 0.5c-3 0-7.5-2.9-11.3-7.5-4.6-5.7-6.4-12-4.1-14.4h-0.1l0.3-0.2 0.1-0.1 0.2-0.1 0.1-0.1 0.3-0.3 0.1-0.1 0.3-0.2q0.1 0 0.2 0c0.4 0 0.9 0.2 1.3 0.5 1.6 1.2 3.4 4.3 2.8 5.5v0.1l-0.3 0.2-0.3 0.3-0.2 0.1v0.1c-0.4 0.3-0.6 0.7-0.3 1l0.5 0.7c0.9 0.6 2.1 1.9 3.4 3.5 1.3 1.6 2.3 3 2.7 4l0.6 0.7q0.2 0.2 0.4 0.2 0.4 0 0.7-0.3l0.2-0.2 0.2-0.1 0.4-0.3q0.1-0.1 0.3-0.1c1 0 3 1.5 4 3.2 0.5 0.9 0.7 1.9 0.2 2.8q-0.1 0-0.1 0.1-0.1 0.1-0.2 0.1-0.1 0.1-0.2 0.2-0.1 0.1-0.2 0.2z"/>
			<path id="&lt;Path&gt;" class="s2" d="m24.4 38.9z"/>
			<path id="&lt;Path&gt;" class="s0" d="m19.7 20.4q0-0.2 0-0.4 0-0.2 0-0.4-0.1-0.2-0.3-0.3-0.1-0.1-0.4-0.2-0.2-0.1-0.5-0.1-0.4 0-0.8 0.1-0.3 0.1-0.6 0.2-0.2 0.1-0.4 0.2-0.2 0.1-0.2 0.1-0.1 0-0.2 0 0-0.1 0-0.1-0.1-0.1-0.1-0.3 0-0.1 0-0.3 0-0.1 0-0.2 0-0.1 0-0.2 0.1-0.1 0.1-0.1 0-0.1 0.1-0.1 0.1-0.1 0.4-0.2 0.2-0.1 0.6-0.2 0.3-0.1 0.8-0.2 0.4-0.1 0.9-0.1 0.7 0 1.3 0.2 0.5 0.1 0.9 0.4 0.4 0.3 0.6 0.6 0.1 0.4 0.1 0.8 0 0.4 0 0.8-0.1 0.3-0.4 0.8-0.3 0.4-0.8 0.9-0.5 0.5-1.4 1.2l-1.1 0.9h3.8q0.1 0 0.1 0.1 0.1 0 0.1 0.1 0.1 0 0.1 0.2 0 0.1 0 0.3 0 0.1 0 0.3 0 0.1 0 0.2-0.1 0-0.1 0.1-0.1 0-0.2 0h-5.5q-0.1 0-0.2 0-0.2 0-0.2-0.1-0.1-0.1-0.1-0.2-0.1-0.2-0.1-0.4 0-0.2 0-0.3 0.1-0.1 0.1-0.2 0.1-0.2 0.2-0.3 0.1-0.1 0.2-0.2l1.7-1.4q0.5-0.5 0.8-0.8 0.3-0.3 0.4-0.6 0.2-0.3 0.3-0.6z"/>
			<path id="&lt;Compound Path&gt;" fill-rule="evenodd" class="s0" d="m27.4 25.3v-1.4h-3.7q-0.1 0-0.2 0 0 0-0.1-0.1-0.1-0.1-0.1-0.2 0-0.2 0-0.4 0-0.2 0-0.3 0-0.2 0-0.3 0.1-0.1 0.1-0.2 0.1-0.1 0.1-0.2l3-4.3q0 0 0.1-0.1 0.1 0 0.3 0 0.1-0.1 0.4-0.1 0.2 0 0.6 0 0.4 0 0.6 0 0.3 0 0.4 0.1 0.2 0 0.3 0.1 0 0 0 0.1v4.6h0.9q0.1 0 0.2 0.2 0.1 0.1 0.1 0.5 0 0.3-0.1 0.4-0.1 0.2-0.2 0.2h-0.9v1.4 0.1q0 0-0.1 0.1-0.2 0-0.3 0-0.2 0-0.5 0-0.3 0-0.4 0-0.2 0-0.3 0-0.1-0.1-0.2-0.1zm0-2.7v-3.5l-2.5 3.5z"/>
		</g>
		<g id="&lt;Group&gt;">
			<path id="&lt;Compound Path&gt;" fill-rule="evenodd" class="s0" d="m330.8 25.4q-0.2 0.6-0.6 1.2l1.3 2q-0.9 1.3-2.1 2.3l-2-1.1q-0.6 0.4-1.2 0.8l0.2 2.3q-1.4 0.7-3 1l-1.2-2q-0.2 0-0.4 0.1-0.5 0-1 0l-1 2.1q-1.6-0.1-3.1-0.6l-0.1-2.4q-0.6-0.3-1.2-0.6l-2 1.3q-1.3-0.9-2.3-2.1l1.1-2q-0.4-0.6-0.8-1.2l-2.3 0.2q-0.7-1.4-1-3l2-1.3q0-0.1 0-0.3-0.1-0.5-0.1-1l-2.1-1.1q0.2-1.6 0.7-3l2.3-0.1q0.3-0.7 0.6-1.3l-1.3-1.9q0.9-1.3 2.1-2.3l2.1 1.1q0.5-0.4 1.1-0.8l-0.1-2.3q1.3-0.7 2.9-1l1.3 2q0.1 0 0.3-0.1 0.5 0 1.1 0l1-2.1q1.6 0.1 3 0.6l0.1 2.4q0.7 0.2 1.3 0.6l1.9-1.3q1.3 0.9 2.3 2.1l-1.1 2q0.5 0.6 0.8 1.2l2.3-0.2q0.7 1.4 1 3l-2 1.2q0.1 0.2 0.1 0.4 0 0.5 0 1l2.1 1.1q-0.1 1.5-0.6 3zm-2.4-4.2c0-4.3-3.4-7.7-7.6-7.7-4.2 0-7.6 3.4-7.6 7.7 0 4.2 3.4 7.6 7.6 7.6 4.2 0 7.6-3.4 7.6-7.6z"/>
			<path id="&lt;Compound Path&gt;" fill-rule="evenodd" class="s0" d="m320.9 28.2c-4 0-7.1-3.1-7.1-7.1 0-3.9 3.1-7.1 7.1-7.1 3.9 0 7.1 3.2 7.1 7.1 0 4-3.2 7.1-7.1 7.1zm5.3-7.1c0-2.9-2.4-5.3-5.3-5.3-3 0-5.4 2.4-5.4 5.3 0 3 2.4 5.4 5.4 5.4 2.9 0 5.3-2.4 5.3-5.4z"/>
			<path id="&lt;Compound Path&gt;" fill-rule="evenodd" class="s0" d="m340.5 37.6c-3.4 0-6.1-2.8-6.1-6.1 0-3.4 2.7-6.1 6.1-6.1 3.3 0 6.1 2.7 6.1 6.1 0 3.3-2.8 6.1-6.1 6.1zm-2-9.4c-1.6 1-2.2 3.3-1.2 5 1 1.8 3.3 2.4 5.1 1.4 1.7-1.1 2.3-3.4 1.3-5.1-1.1-1.8-3.4-2.4-5.2-1.3z"/>
			<path id="&lt;Compound Path&gt;" fill-rule="evenodd" class="s0" d="m348.6 32.9q-0.1 0.6-0.3 1.3l1.2 1.1q-0.4 1-1 1.9l-1.7-0.5q-0.4 0.6-0.9 1l0.5 1.6q-0.5 0.4-0.9 0.6-0.5 0.3-1 0.5l-1.2-1.2q-0.6 0.2-1.3 0.4l-0.3 1.6q-1.1 0.2-2.2 0.1l-0.4-1.7q-0.7-0.1-1.3-0.3l-1.2 1.2q-1-0.4-1.8-1l0.4-1.7q-0.5-0.4-0.9-0.9l-1.7 0.5q-0.3-0.5-0.6-0.9-0.2-0.5-0.5-1l1.2-1.2q-0.2-0.6-0.3-1.3l-1.7-0.4q-0.1-1 0-2.1l1.7-0.4q0.1-0.7 0.3-1.3l-1.3-1.2q0.5-1 1.1-1.8l1.6 0.4q0.5-0.5 1-1l-0.5-1.6q0.4-0.3 0.9-0.6 0.4-0.3 0.9-0.5l1.2 1.2q0.7-0.2 1.3-0.3l0.4-1.7q1.1-0.1 2.1 0l0.5 1.6q0.6 0.2 1.3 0.4l1.1-1.3q1 0.5 1.9 1.1l-0.5 1.6q0.6 0.5 1 1l1.6-0.5q0.4 0.4 0.6 0.9 0.3 0.4 0.5 0.9l-1.2 1.2q0.2 0.7 0.4 1.3l1.6 0.4q0.2 1.1 0.1 2.1zm-1.8-1.4c0-3.5-2.9-6.3-6.4-6.3-3.5 0-6.3 2.8-6.3 6.3 0 3.6 2.8 6.4 6.3 6.4 3.5 0 6.4-2.9 6.4-6.4z"/>
			<path id="&lt;Compound Path&gt;" fill-rule="evenodd" class="s1" d="m320.9 28.8c-4.3 0-7.7-3.4-7.7-7.7 0-4.2 3.4-7.6 7.7-7.6 4.2 0 7.6 3.4 7.6 7.6 0 4.3-3.4 7.7-7.6 7.7zm7.1-7.7c0-3.9-3.2-7.1-7.1-7.1-4 0-7.1 3.2-7.1 7.1 0 4 3.1 7.1 7.1 7.1 3.9 0 7.1-3.1 7.1-7.1z"/>
			<path id="&lt;Compound Path&gt;" fill-rule="evenodd" class="s3" d="m340.5 37.8c-3.5 0-6.4-2.8-6.4-6.3 0-3.5 2.9-6.4 6.4-6.4 3.5 0 6.3 2.9 6.3 6.4 0 3.5-2.8 6.3-6.3 6.3zm6.1-6.3c0-3.4-2.8-6.1-6.1-6.1-3.4 0-6.1 2.7-6.1 6.1 0 3.3 2.7 6.1 6.1 6.1 3.3 0 6.1-2.8 6.1-6.1z"/>
		</g>
		<g id="&lt;Group&gt;">
			<path id="&lt;Path&gt;" class="s1" d="m87.8 38.4q0.3-1.1-0.5-2.5c-1-1.8-3-3.4-4.3-3.6l0.2-0.1q0.6-0.5 1.3-0.5c1 0 2.1 0.5 2.9 1.5q0.2 0.1 0.3 0.3c0.5 0.6 0.8 1.2 1 1.8 0.3 1.2 0.1 2.3-0.6 2.9z"/>
			<path id="&lt;Path&gt;" class="s0" d="m86.3 39.2z"/>
			<path id="&lt;Path&gt;" class="s0" d="m86.9 22.5l2.7-3.7v3.7z"/>
			<path id="&lt;Path&gt;" class="s1" d="m74.6 22c0.1-1.3-0.9-3-1.3-3.6-0.5-0.8-1.2-1.7-2-2.2-0.4-0.3-0.8-0.5-1.2-0.6q0.5-0.3 1.1-0.3 0.3 0 0.6 0.1c0.9 0.2 1.8 0.8 2.6 1.7q0.1 0.2 0.3 0.3c1.1 1.6 1.1 3.5 0.1 4.4z"/>
			<path id="&lt;Path&gt;" class="s0" d="m86.4 39.5v0.1q-0.9 0.5-2 0.5c-3.2 0-8-3-11.9-7.9-4.9-6-6.7-12.6-4.4-15l0.3-0.3 0.1-0.1 0.2-0.1 0.1-0.1 0.3-0.3 0.2-0.1 0.3-0.2q0.1 0 0.2 0c0.4 0 0.9 0.2 1.3 0.5 1.7 1.3 3.6 4.5 3 5.8v0.1l-0.3 0.2-0.4 0.3-0.1 0.1-0.1 0.1c-0.4 0.3-0.6 0.8-0.3 1.1l0.6 0.7c0.8 0.7 2.2 2 3.5 3.6 1.4 1.7 2.4 3.3 2.9 4.3l0.6 0.7q0.1 0.2 0.4 0.2c0.2 0 0.5-0.1 0.7-0.3l0.3-0.2 0.2-0.1 0.3-0.3q0.2-0.1 0.4-0.1c1.1 0 3.1 1.5 4.1 3.3 0.6 1 0.8 2 0.3 2.9q-0.1 0.1-0.2 0.1-0.1 0.1-0.2 0.2-0.1 0.1-0.2 0.2-0.1 0.1-0.2 0.1z"/>
			<path id="&lt;Path&gt;" class="s2" d="m86.3 39.2z"/>
			<path id="&lt;Path&gt;" class="s2" d="m81.5 20.2q0-0.2 0-0.5 0-0.2 0-0.3-0.1-0.2-0.3-0.4-0.1-0.1-0.4-0.2-0.2-0.1-0.5-0.1-0.5 0-0.9 0.1-0.3 0.1-0.6 0.2-0.2 0.2-0.4 0.3-0.2 0.1-0.3 0.1-0.1 0-0.1-0.1-0.1 0-0.1-0.1 0-0.1 0-0.2-0.1-0.2-0.1-0.4 0-0.2 0-0.2 0.1-0.1 0.1-0.2 0-0.1 0-0.1 0.1-0.1 0.2-0.2 0.1 0 0.3-0.2 0.3-0.1 0.7-0.2 0.4-0.1 0.8-0.2 0.5-0.1 1-0.1 0.7 0 1.3 0.2 0.6 0.2 1 0.5 0.4 0.2 0.6 0.6 0.2 0.4 0.2 0.9 0 0.4-0.1 0.8-0.1 0.3-0.4 0.8-0.3 0.4-0.8 1-0.6 0.5-1.5 1.2l-1.1 1h3.9q0.1 0 0.2 0 0 0.1 0.1 0.1 0 0.1 0 0.2 0.1 0.2 0.1 0.4 0 0.1 0 0.3-0.1 0.1-0.1 0.2 0 0.1-0.1 0.1-0.1 0-0.1 0h-5.8q-0.2 0-0.3 0-0.1 0-0.2-0.1-0.1-0.1-0.1-0.2-0.1-0.1-0.1-0.4 0-0.2 0.1-0.3 0-0.2 0.1-0.3 0-0.1 0.1-0.2 0.1-0.1 0.3-0.3l1.7-1.5q0.5-0.4 0.8-0.8 0.4-0.3 0.5-0.6 0.2-0.3 0.3-0.6z"/>
			<path id="&lt;Compound Path&gt;" fill-rule="evenodd" class="s2" d="m89.6 25.3v-1.5h-3.9q-0.1 0-0.2 0 0 0-0.1-0.1-0.1-0.1-0.1-0.2 0-0.2 0-0.4 0-0.2 0-0.4 0-0.1 0-0.2 0.1-0.1 0.1-0.2 0.1-0.2 0.1-0.3l3.2-4.4q0-0.1 0.1-0.1 0.1-0.1 0.2-0.1 0.2 0 0.5 0 0.2 0 0.6 0 0.4 0 0.7 0 0.2 0 0.4 0 0.2 0.1 0.3 0.1 0 0.1 0 0.1v4.9h0.9q0.1 0 0.2 0.2 0.1 0.1 0.1 0.5 0 0.3-0.1 0.5 0 0.1-0.2 0.1h-0.9v1.5 0.1q-0.1 0.1-0.2 0.1-0.1 0-0.3 0-0.2 0.1-0.5 0.1-0.2 0-0.4-0.1-0.2 0-0.3 0-0.1 0-0.2-0.1zm0-2.8v-3.7l-2.6 3.7z"/>
			<path id="&lt;Compound Path&gt;" fill-rule="evenodd" class="s0" d="m75 17.2q-0.2-0.2-0.3-0.3c-0.8-1-1.7-1.6-2.7-1.8 2.5-3.4 6.5-5.6 11-5.6 7.5 0 13.5 6 13.5 13.5 0 5.3-3 9.9-7.5 12.1q-0.3-1-1-1.9-0.1-0.1-0.3-0.3c-0.9-1-2.1-1.6-3.2-1.6q-0.9 0-1.5 0.6l-0.7 0.5q-0.1 0-0.1 0.1l-0.4 0.3-0.2 0.1-0.2 0.2q-0.3 0.2-0.5 0.2c0 0-0.1 0-0.1 0l-0.6-0.7c-0.5-1.1-1.6-2.7-2.9-4.3-1.3-1.6-2.6-3-3.6-3.7l-0.5-0.7c-0.1-0.1 0-0.3 0.2-0.5l0.1-0.1 0.2-0.1 0.3-0.3 0.1-0.1 0.1-0.1 0.8-0.6c1.2-1 1.2-3.1 0-4.9zm10.3 5.9q0 0.2 0 0.4 0 0.1 0.1 0.2 0.1 0.1 0.1 0.1 0.1 0 0.2 0h3.9v1.5 0.1q0.1 0.1 0.2 0.1 0.1 0 0.3 0 0.2 0.1 0.4 0.1 0.3 0 0.5-0.1 0.2 0 0.3 0 0.1 0 0.2-0.1v-0.1-1.5h0.9q0.2 0 0.2-0.1 0.1-0.2 0.1-0.5 0-0.4-0.1-0.5-0.1-0.2-0.2-0.2h-0.9v-4.9q0 0 0-0.1-0.1 0-0.3-0.1-0.2 0-0.4 0-0.3 0-0.7 0-0.4 0-0.6 0-0.3 0-0.5 0-0.1 0-0.2 0.1-0.1 0-0.1 0.1l-3.2 4.4q0 0.1-0.1 0.3 0 0.1-0.1 0.2 0 0.1 0 0.2 0 0.2 0 0.4zm-7.7 1.7q0 0.3 0.1 0.4 0 0.1 0.1 0.2 0.1 0.1 0.2 0.1 0.1 0 0.3 0h5.8q0 0 0.1 0 0.1 0 0.1-0.1 0-0.1 0.1-0.2 0-0.2 0-0.3 0-0.2-0.1-0.4 0-0.1 0-0.2-0.1 0-0.1-0.1-0.1 0-0.2 0h-3.9l1.1-1q0.9-0.7 1.5-1.2 0.5-0.6 0.8-1 0.3-0.5 0.4-0.8 0.1-0.4 0.1-0.8 0-0.5-0.2-0.9-0.2-0.4-0.6-0.6-0.4-0.3-1-0.5-0.6-0.2-1.3-0.2-0.5 0-1 0.1-0.4 0.1-0.8 0.2-0.4 0.1-0.7 0.2-0.2 0.2-0.3 0.2-0.1 0.1-0.2 0.2 0 0 0 0.1 0 0.1-0.1 0.2 0 0 0 0.2 0 0.2 0.1 0.4 0 0.1 0 0.2 0 0.1 0.1 0.1 0 0.1 0.1 0.1 0.1 0 0.3-0.1 0.2-0.1 0.4-0.3 0.3-0.1 0.6-0.2 0.4-0.1 0.9-0.1 0.3 0 0.5 0.1 0.3 0.1 0.4 0.2 0.2 0.2 0.3 0.4 0 0.1 0 0.3 0 0.3 0 0.5-0.1 0.3-0.3 0.6-0.1 0.3-0.5 0.6-0.3 0.4-0.8 0.8l-1.7 1.5q-0.2 0.2-0.3 0.3-0.1 0.1-0.1 0.2-0.1 0.1-0.1 0.3-0.1 0.1-0.1 0.3z"/>
		</g>
		<g id="&lt;Group&gt;">
			<path id="&lt;Path&gt;" class="s3" d="m653.4 20.7q0.1 0.3-0.1 0.5c-0.1 0.1-0.3 0.2-0.5 0.2l-2.1-0.1c-0.2 0-0.4-0.1-0.5-0.4-1.2-3.3-3.8-6-7.1-7.4-0.2-0.1-0.4-0.3-0.4-0.5l0.1-2.1c0-0.4 0.3-0.6 0.6-0.6h0.2c4.7 1.7 8.4 5.6 9.8 10.4z"/>
			<path id="&lt;Path&gt;" class="s0" d="m644.5 4.3c7.6 2 13.5 8.3 15.1 16q0 0.2-0.2 0.5-0.1 0.2-0.4 0.2l-2.1-0.1c-0.3 0-0.5-0.2-0.5-0.5-1.5-6.2-6.2-11.1-12.3-12.9-0.2-0.1-0.4-0.3-0.4-0.6l0.1-2.1c0-0.3 0.3-0.6 0.6-0.5z"/>
			<path id="&lt;Path&gt;" class="s3" d="m621.1 17.4l5.1-5 1.6 1.6-5.1 5.1z"/>
			<path id="&lt;Path&gt;" class="s3" d="m618 14.3l5-5.1 1.6 1.7-5 5z"/>
			<path id="&lt;Path&gt;" class="s0" d="m632.3 19l0.2-0.2-1.5-1.6-1.7-1.6-1.5-1.6-1.6-1.6-1.6-1.5-1.6-1.7-5 5.1 1.6 1.6 1.5 1.5 1.6 1.7 1.6 1.5 1.7 1.7 1.5 1.5 3.7-3.7c-0.8 1-1.2 2.2-1.4 3.5l-0.4-0.4-1.6 1.6q-0.1 0.1-0.3 0.1-0.2 0-0.3-0.1l-10.2-10.2q-0.1-0.1-0.1-0.3 0-0.2 0.1-0.3l5.7-5.7q0.1-0.1 0.3-0.1 0.2 0 0.3 0.1l10.1 10.1q-0.6 0.2-1.1 0.6z"/>
			<path id="&lt;Path&gt;" class="s3" d="m643 39.3l5-5.1 1.6 1.6-5 5.1z"/>
			<path id="&lt;Path&gt;" class="s3" d="m651.2 37.4l1.6 1.6-5.1 5-1.6-1.6z"/>
			<path id="&lt;Path&gt;" class="s3" d="m639.7 36.1l5.1-5.1 1.6 1.7-5 5z"/>
			<path id="&lt;Path&gt;" class="s0" d="m639.5 33.2l-1.3 1.3 1.5 1.6 1.7 1.6 1.6 1.6 1.6 1.6 1.5 1.5 1.6 1.6 5.1-5-1.6-1.6-0.8-0.8-0.8-0.8-1.6-1.6-1.6-1.5-1.6-1.7-1-0.9q0.3-0.4 0.5-0.8l9.4 9.4q0.1 0.1 0.2 0.3 0 0.2-0.2 0.3l-5.6 5.7q-0.2 0.1-0.4 0.1-0.1 0-0.3-0.1l-10.2-10.2q-0.1-0.1-0.1-0.3 0-0.2 0.1-0.3l1.3-1.3q0.8 0 1.5-0.2z"/>
			<path id="&lt;Path&gt;" class="s1" d="m641.4 37.7l5-5 1.6 1.5-5 5.1z"/>
			<path id="&lt;Path&gt;" class="s1" d="m649.6 35.8l0.8 0.8 0.8 0.8-5.1 5-1.5-1.5z"/>
			<path id="&lt;Path&gt;" class="s1" d="m643.1 31q0.4-0.5 0.7-0.9l1 0.9-5.1 5.1-1.5-1.6 1.3-1.3 0.5-0.5c1.2-0.3 2.2-0.9 3.1-1.7z"/>
			<path id="&lt;Path&gt;" class="s3" d="m624.3 20.6l5-5 1.7 1.6-5 5.1z"/>
			<path id="&lt;Path&gt;" class="s1" d="m622.7 19.1l5.1-5.1 1.5 1.6-5 5z"/>
			<path id="&lt;Path&gt;" class="s1" d="m619.6 15.9l5-5 1.6 1.5-5.1 5z"/>
			<path id="&lt;Path&gt;" class="s1" d="m626 22.3l5-5.1 1.5 1.6-0.2 0.2q-0.3 0.3-0.6 0.6-0.2 0.2-0.5 0.5l-3.7 3.7z"/>
			<path id="&lt;Path&gt;" class="s0" d="m632.4 30.3c1.1 1.2 2.5 2 4 2.3-1.8 1.6-4.5 1.6-6.2-0.1-1.7-1.7-1.7-4.4-0.2-6.2 0.4 1.4 1.2 2.9 2.4 4z"/>
			<path id="&lt;Path&gt;" class="s0" d="m636.9 24.7c-0.3 0.3-0.3 0.7 0 0.9 0.2 0.2 0.6 0.2 0.9 0l4.1-4.1q0.1 0.1 0.2 0.1 0.1 0 0.2 0.1 0.2 0 0.4 0 0.1 0 0.2 0c2 2.8 2 6.5-0.3 8.7-2.5 2.6-6.9 2.3-9.7-0.6-2.9-2.8-3.2-7.2-0.7-9.7 2.2-2.2 5.8-2.3 8.6-0.4q0 0.3 0 0.5l0.1 0.2q0 0.1 0.1 0.2z"/>
			<path id="&lt;Path&gt;" class="s1" d="m641 20.6q0.1 0.3 0.3 0.5 0.3 0.3 0.6 0.4l-4.1 4.1c-0.3 0.2-0.7 0.2-0.9 0-0.3-0.2-0.3-0.6 0-0.9z"/>
			<path id="&lt;Path&gt;" class="s1" d="m642.7 18.3c0.4 0 0.8 0.2 1.1 0.4 0.5 0.6 0.5 1.5 0 2.1-0.3 0.3-0.7 0.4-1.1 0.4q-0.1 0-0.3 0l-0.1-0.1q-0.3-0.1-0.6-0.3-0.2-0.3-0.3-0.6l-0.1-0.1c-0.1-0.5 0-1 0.4-1.4 0.3-0.2 0.7-0.4 1-0.4z"/>
			<path id="&lt;Compound Path&gt;" fill-rule="evenodd" class="s3" d="m642.7 17.8c0.6 0 1.1 0.2 1.4 0.6 0.4 0.3 0.6 0.8 0.6 1.4 0 0.5-0.2 1-0.6 1.3-0.3 0.4-0.8 0.6-1.2 0.6q-0.1 0-0.2 0-0.2 0-0.4 0-0.1-0.1-0.2-0.1-0.1 0-0.2-0.1-0.3-0.1-0.6-0.4-0.2-0.2-0.3-0.5-0.1-0.1-0.1-0.2l-0.1-0.2q0-0.2 0-0.5c0-0.5 0.2-1 0.5-1.3 0.4-0.4 0.9-0.6 1.4-0.6zm1.1 0.9c-0.3-0.2-0.7-0.4-1.1-0.4-0.3 0-0.7 0.2-1 0.4-0.4 0.4-0.5 0.9-0.4 1.4l0.1 0.1q0.1 0.3 0.3 0.6 0.3 0.2 0.6 0.3l0.1 0.1q0.2 0 0.3 0c0.4 0 0.8-0.1 1.1-0.4 0.5-0.6 0.5-1.5 0-2.1z"/>
		</g>
		<g id="&lt;Group&gt;">
			<path id="&lt;Path&gt;" class="s1" d="m1014.7 277.1l0.6-2.3-12 8.7c-0.4 0.3-1 0.2-1.2-0.2-0.3-0.4-0.2-0.9 0.1-1.2l12-8.7-1.8-0.4c-0.4-0.1-0.7-0.6-0.6-1.1 0.1-0.4 0.6-0.7 1.1-0.6l3.9 1c0.5 0.1 0.7 0.6 0.6 1l-1 4.3c-0.1 0.4-0.6 0.7-1.1 0.6-0.4-0.1-0.7-0.6-0.6-1.1z"/>
			<path id="&lt;Path&gt;" class="s0" d="m995.2 292.8h7.5v7h-7.5z"/>
			<path id="&lt;Path&gt;" class="s0" d="m1005.9 286.4h7.5v13.4h-7.5z"/>
			<path id="&lt;Path&gt;" class="s1" d="m1019.8 299.8h-1.1l5.4-6.8v1.4z"/>
			<path id="&lt;Path&gt;" class="s1" d="m1018.4 299.8h-1.1l6.8-8.6v1.4z"/>
			<path id="&lt;Path&gt;" class="s1" d="m1016.6 280.7v-1.4h1.1z"/>
			<path id="&lt;Path&gt;" class="s1" d="m1016.6 293.2v-1.5l7.5-9.4v1.4z"/>
			<path id="&lt;Path&gt;" class="s1" d="m1016.6 294.9v-1.4l7.5-9.4v1.4z"/>
			<path id="&lt;Path&gt;" class="s1" d="m1016.6 299.8v-0.9l7.5-9.5v1.4l-7.1 9z"/>
			<path id="&lt;Path&gt;" class="s1" d="m1016.6 291.4v-1.4l7.5-9.5v1.4z"/>
			<path id="&lt;Path&gt;" class="s1" d="m1016.6 298.5v-1.4l7.5-9.5v1.5z"/>
			<path id="&lt;Path&gt;" class="s1" d="m1016.6 281l1.4-1.7h1.2l-2.6 3.2z"/>
			<path id="&lt;Path&gt;" class="s1" d="m1016.6 296.7v-1.4l7.5-9.4v1.4z"/>
			<path id="&lt;Path&gt;" class="s1" d="m1016.6 284.6l4.3-5.3h1.1l-5.4 6.7z"/>
			<path id="&lt;Path&gt;" class="s1" d="m1022.6 299.8h-1.1l2.6-3.2v1.4z"/>
			<path id="&lt;Path&gt;" class="s1" d="m1024.1 299.8h-1.2l1.2-1.4v1.4z"/>
			<path id="&lt;Path&gt;" class="s1" d="m1016.6 286.4l5.7-7.1h1.1l-6.8 8.5z"/>
			<path id="&lt;Path&gt;" class="s1" d="m1021.2 299.8h-1.1l4-5v1.4z"/>
			<path id="&lt;Path&gt;" class="s1" d="m1016.6 282.8l2.8-3.5h1.2l-4 4.9z"/>
			<path id="&lt;Path&gt;" class="s1" d="m1016.6 288.2l7.1-8.9h0.4v0.8l-7.5 9.5z"/>
			<path id="&lt;Path&gt;" class="s2" d="m1016.6 280.7l1.1-1.4h0.3l-1.4 1.7z"/>
			<path id="&lt;Path&gt;" class="s2" d="m1016.6 282.5l2.6-3.2h0.2l-2.8 3.5z"/>
			<path id="&lt;Path&gt;" class="s2" d="m1016.6 284.2l4-4.9h0.3l-4.3 5.3z"/>
			<path id="&lt;Path&gt;" class="s2" d="m1016.6 286l5.4-6.7h0.3l-5.7 7.1z"/>
			<path id="&lt;Path&gt;" class="s2" d="m1016.6 287.8l6.8-8.5h0.3l-7.1 8.9z"/>
			<path id="&lt;Path&gt;" class="s2" d="m1016.6 290v-0.4l7.5-9.5v0.4z"/>
			<path id="&lt;Path&gt;" class="s2" d="m1016.6 291.7v-0.3l7.5-9.5v0.4z"/>
			<path id="&lt;Path&gt;" class="s2" d="m1016.6 293.5v-0.3l7.5-9.5v0.4z"/>
			<path id="&lt;Path&gt;" class="s2" d="m1016.6 295.3v-0.4l7.5-9.4v0.4z"/>
			<path id="&lt;Path&gt;" class="s2" d="m1016.6 297.1v-0.4l7.5-9.4v0.3z"/>
			<path id="&lt;Path&gt;" class="s2" d="m1016.6 298.9v-0.4l7.5-9.4v0.3z"/>
			<path id="&lt;Path&gt;" class="s2" d="m1017.3 299.8h-0.3l7.1-9v0.4z"/>
			<path id="&lt;Path&gt;" class="s2" d="m1018.7 299.8h-0.3l5.7-7.2v0.4z"/>
			<path id="&lt;Path&gt;" class="s2" d="m1020.1 299.8h-0.3l4.3-5.4v0.4z"/>
			<path id="&lt;Path&gt;" class="s2" d="m1021.5 299.8h-0.3l2.9-3.6v0.4z"/>
			<path id="&lt;Path&gt;" class="s2" d="m1022.9 299.8h-0.3l1.5-1.8v0.4z"/>
			<path id="&lt;Path&gt;" class="s2" d="m1024.1 299.8z"/>
			<path id="&lt;Path&gt;" class="s0" d="m994.6 270.6v31.7h31v1.8h-31.9c-0.2 0-0.5-0.1-0.6-0.2-0.2-0.2-0.3-0.4-0.3-0.7v-32.6z"/>
		</g>
	</g>
</svg>