<svg width="42" height="45" viewBox="0 0 42 45" fill="none" xmlns="http://www.w3.org/2000/svg">
	<g clip-path="url(#clip0_7_5532)">
		<path d="M25.6999 37.8C25.8999 37.0667 25.7332 36.2667 25.1999 35.4V35.3C24.2999 33.7 22.3999 32.1 21.0999 32L21.2999 31.8C21.6332 31.5334 22.0665 31.4 22.5999 31.4C23.4999 31.4 24.4999 31.9 25.2999 32.8C25.4332 32.8667 25.5332 32.9667 25.5999 33.1C26.0999 33.6 26.3999 34.2 26.4999 34.8C26.8999 35.9 26.6999 37 25.9999 37.6L25.6999 37.8Z" fill="#C38DBA"/>
		<path fill-rule="evenodd" clip-rule="evenodd" d="M13.5 17.6C13.3666 17.4667 13.2666 17.3333 13.2 17.2C12.5 16.4 11.6 15.8 10.7 15.5C13 12.3 16.8 10.2 21.1 10.2C28.2 10.2 34 16 34 23.1C34 28.2 31.1 32.5 26.9 34.7C26.7 34.0333 26.3666 33.4333 25.9 32.9C25.8333 32.7667 25.7333 32.6333 25.6 32.5C24.7 31.6 23.6 31 22.6 31C22 31 21.5 31.1667 21.1 31.5L20.5 32C20.4333 32.0667 20.3666 32.1 20.3 32.1L20 32.4L19.8 32.6L19.6 32.7C19.4666 32.8333 19.3 32.9 19.1 32.9H19L18.4 32.2C18 31.2 16.9 29.7 15.7 28.2C14.4 26.6 13.2 25.3 12.3 24.6L11.7 24C11.7 23.9 11.7 23.6 12 23.4H12.1L12.2 23.2L12.5 23L12.7 22.9V22.8L13.5 22.2C14.7 21.3 14.6 19.3 13.5 17.6ZM23.3 23.2C23.3 23.3333 23.3 23.4667 23.3 23.6C23.3 23.6667 23.3333 23.7333 23.4 23.8C23.4666 23.8667 23.5 23.9 23.5 23.9C23.5666 23.9 23.6333 23.9 23.7 23.9H27.4V25.3V25.4C27.4666 25.4 27.5333 25.4333 27.6 25.5C27.6666 25.5 27.7666 25.5 27.9 25.5C27.9666 25.5 28.0999 25.5 28.2999 25.5C28.4999 25.5 28.6666 25.5 28.7999 25.5C28.8666 25.5 28.9666 25.5 29.1 25.5C29.1666 25.4333 29.2 25.4 29.2 25.4V25.3V23.9H30.1C30.1666 23.9 30.2333 23.8333 30.2999 23.7C30.3666 23.6333 30.4 23.5 30.4 23.3C30.4 23.0333 30.3666 22.8667 30.2999 22.8C30.2333 22.6667 30.1666 22.6 30.1 22.6H29.2V18C29.2 17.9333 29.2 17.9 29.2 17.9C29.1333 17.8333 29.0333 17.8 28.9 17.8C28.8333 17.7333 28.7 17.7 28.5 17.7C28.3666 17.7 28.1666 17.7 27.9 17.7C27.6333 17.7 27.4333 17.7 27.2999 17.7C27.0999 17.7 26.9666 17.7333 26.9 17.8C26.7666 17.8 26.6666 17.8 26.6 17.8C26.5333 17.8667 26.5 17.9 26.5 17.9L23.5 22.2C23.5 22.2667 23.4666 22.3333 23.4 22.4C23.4 22.4667 23.3666 22.5333 23.3 22.6C23.3 22.6667 23.3 22.7667 23.3 22.9C23.3 22.9667 23.3 23.0667 23.3 23.2ZM16 24.8C16 24.9333 16.0333 25.0667 16.1 25.2C16.1 25.2667 16.1333 25.3333 16.2 25.4C16.2 25.4667 16.2666 25.5 16.4 25.5C16.4666 25.5 16.5333 25.5 16.6 25.5H22.1C22.1666 25.5 22.2333 25.5 22.3 25.5C22.3 25.4333 22.3333 25.4 22.4 25.4C22.4 25.3333 22.4 25.2667 22.4 25.2C22.4 25.0667 22.4 24.9667 22.4 24.9C22.4 24.7667 22.4 24.6667 22.4 24.6C22.4 24.4667 22.3666 24.4 22.3 24.4C22.3 24.3333 22.2666 24.3 22.2 24.3C22.2 24.2333 22.1666 24.2 22.1 24.2H18.3L19.4 23.3C20 22.8333 20.4666 22.4333 20.8 22.1C21.1333 21.7667 21.4 21.4667 21.6 21.2C21.8 20.8667 21.9333 20.6 22 20.4C22 20.1333 22 19.8667 22 19.6C22 19.3333 21.9666 19.0667 21.9 18.8C21.7666 18.6 21.5666 18.4 21.3 18.2C21.0333 18 20.7333 17.8667 20.4 17.8C20 17.6667 19.5666 17.6 19.1 17.6C18.7666 17.6 18.4666 17.6333 18.2 17.7C17.8666 17.7667 17.6 17.8333 17.4 17.9C17.1333 17.9667 16.9333 18.0333 16.8 18.1C16.6 18.1667 16.4666 18.2333 16.4 18.3C16.3333 18.3 16.3 18.3333 16.3 18.4C16.3 18.4 16.2666 18.4333 16.2 18.5C16.2 18.5667 16.2 18.6333 16.2 18.7C16.2 18.7667 16.2 18.8333 16.2 18.9C16.2 19.0333 16.2 19.1333 16.2 19.2C16.2 19.3333 16.2333 19.4333 16.3 19.5C16.3 19.5 16.3 19.5333 16.3 19.6C16.3666 19.6 16.4333 19.6 16.5 19.6C16.5 19.6 16.5666 19.5667 16.7 19.5C16.8333 19.4333 16.9666 19.3667 17.1 19.3C17.3 19.2333 17.5 19.1667 17.7 19.1C17.9666 19.0333 18.2333 19 18.5 19C18.7 19 18.8666 19.0333 19 19.1C19.2 19.1667 19.3333 19.2333 19.4 19.3C19.5333 19.3667 19.6333 19.4667 19.7 19.6C19.7 19.7333 19.7 19.8667 19.7 20C19.7 20.1333 19.7 20.2667 19.7 20.4C19.6333 20.6 19.5333 20.8 19.4 21C19.3333 21.2 19.2 21.4 19 21.6C18.8 21.8 18.5333 22.0667 18.2 22.4L16.5 23.8C16.4333 23.8667 16.3666 23.9333 16.3 24C16.2333 24.0667 16.1666 24.1667 16.1 24.3C16.1 24.3667 16.0666 24.4333 16 24.5C16 24.5667 16 24.6667 16 24.8Z" fill="#9C77A4"/>
		<path d="M24.8 22.6L27.4 19.1V22.6H24.8Z" fill="#9C77A4"/>
		<path d="M13.1 22.1C13.2 20.9 12.2 19.3 11.9 18.7C11.4 18 10.7 17.1 10 16.6C9.60005 16.3333 9.20005 16.1333 8.80005 16C9.13338 15.8667 9.50005 15.8 9.90005 15.8C10.0334 15.8 10.2 15.8 10.4 15.8C11.3 16 12.2 16.6 12.9 17.5C12.9667 17.5667 13.0667 17.6667 13.2 17.8C14.2 19.3 14.3 21.1 13.3 21.9L13.1 22.1Z" fill="#C38DBA"/>
		<path d="M24.3999 38.9H24.2999C23.7666 39.2334 23.1333 39.4 22.3999 39.4C19.3999 39.4 14.8999 36.5 11.0999 31.9C6.49994 26.2 4.69994 19.9 6.99994 17.5H6.89994L7.19994 17.3L7.29994 17.2L7.49994 17.1L7.59994 17L7.89994 16.7L7.99994 16.6L8.29994 16.4C8.36661 16.4 8.43327 16.4 8.49994 16.4C8.89994 16.4 9.39994 16.6 9.79994 16.9C11.3999 18.1 13.1999 21.2 12.5999 22.4V22.5L12.2999 22.7L11.9999 23L11.7999 23.1V23.2C11.3999 23.5 11.1999 23.9 11.4999 24.2L11.9999 24.9C12.8999 25.5 14.0999 26.8 15.3999 28.4C16.6999 30 17.6999 31.4 18.0999 32.4L18.6999 33.1C18.8333 33.2334 18.9666 33.3 19.0999 33.3C19.3666 33.3 19.5999 33.2 19.7999 33L19.9999 32.8L20.1999 32.7L20.5999 32.4C20.6666 32.3334 20.7666 32.3 20.8999 32.3C21.8999 32.3 23.8999 33.8 24.8999 35.5C25.3999 36.4 25.5999 37.4 25.0999 38.3C25.0333 38.3 24.9999 38.3334 24.9999 38.4C24.9333 38.4667 24.8666 38.5 24.7999 38.5C24.7333 38.5667 24.6666 38.6334 24.5999 38.7C24.5333 38.7667 24.4666 38.8334 24.3999 38.9Z" fill="#343957"/>
		<path d="M19.7 20.4C19.7 20.2667 19.7 20.1334 19.7 20C19.7 19.8667 19.7 19.7334 19.7 19.6C19.6333 19.4667 19.5333 19.3667 19.4 19.3C19.3333 19.2334 19.2 19.1667 19 19.1C18.8667 19.0334 18.7 19 18.5 19C18.2333 19 17.9667 19.0334 17.7 19.1C17.5 19.1667 17.3 19.2334 17.1 19.3C16.9667 19.3667 16.8333 19.4334 16.7 19.5C16.5667 19.5667 16.5 19.6 16.5 19.6C16.4333 19.6 16.3667 19.6 16.3 19.6C16.3 19.5334 16.3 19.5 16.3 19.5C16.2333 19.4334 16.2 19.3334 16.2 19.2C16.2 19.1334 16.2 19.0334 16.2 18.9C16.2 18.8334 16.2 18.7667 16.2 18.7C16.2 18.6334 16.2 18.5667 16.2 18.5C16.2667 18.4334 16.3 18.4 16.3 18.4C16.3 18.3334 16.3333 18.3 16.4 18.3C16.4667 18.2334 16.6 18.1667 16.8 18.1C16.9333 18.0334 17.1333 17.9667 17.4 17.9C17.6 17.8334 17.8667 17.7667 18.2 17.7C18.4667 17.6334 18.7667 17.6 19.1 17.6C19.5667 17.6 20 17.6667 20.4 17.8C20.7333 17.8667 21.0333 18 21.3 18.2C21.5667 18.4 21.7667 18.6 21.9 18.8C21.9667 19.0667 22 19.3334 22 19.6C22 19.8667 22 20.1334 22 20.4C21.9333 20.6 21.8 20.8667 21.6 21.2C21.4 21.4667 21.1333 21.7667 20.8 22.1C20.4667 22.4334 20 22.8334 19.4 23.3L18.3 24.2H22.1C22.1667 24.2 22.2 24.2334 22.2 24.3C22.2667 24.3 22.3 24.3334 22.3 24.4C22.3667 24.4 22.4 24.4667 22.4 24.6C22.4 24.6667 22.4 24.7667 22.4 24.9C22.4 24.9667 22.4 25.0667 22.4 25.2C22.4 25.2667 22.4 25.3334 22.4 25.4C22.3333 25.4 22.3 25.4334 22.3 25.5C22.2333 25.5 22.1667 25.5 22.1 25.5H16.6C16.5333 25.5 16.4667 25.5 16.4 25.5C16.2667 25.5 16.2 25.4667 16.2 25.4C16.1333 25.3334 16.1 25.2667 16.1 25.2C16.0333 25.0667 16 24.9334 16 24.8C16 24.6667 16 24.5667 16 24.5C16.0667 24.4334 16.1 24.3667 16.1 24.3C16.1667 24.1667 16.2333 24.0667 16.3 24C16.3667 23.9334 16.4333 23.8667 16.5 23.8L18.2 22.4C18.5333 22.0667 18.8 21.8 19 21.6C19.2 21.4 19.3333 21.2 19.4 21C19.5333 20.8 19.6333 20.6 19.7 20.4Z" fill="#343957"/>
		<path fill-rule="evenodd" clip-rule="evenodd" d="M27.4 25.3V23.9H23.7001C23.6334 23.9 23.5667 23.9 23.5 23.9C23.5 23.9 23.4667 23.8667 23.4 23.8C23.3334 23.7333 23.3 23.6667 23.3 23.6C23.3 23.4667 23.3 23.3333 23.3 23.2C23.3 23.0667 23.3 22.9667 23.3 22.9C23.3 22.7667 23.3 22.6667 23.3 22.6C23.3667 22.5333 23.4 22.4667 23.4 22.4C23.4667 22.3333 23.5 22.2667 23.5 22.2L26.5 17.9C26.5 17.9 26.5334 17.8667 26.6 17.8C26.6667 17.8 26.7667 17.8 26.9 17.8C26.9667 17.7333 27.1 17.7 27.3 17.7C27.4334 17.7 27.6334 17.7 27.9 17.7C28.1667 17.7 28.3667 17.7 28.5 17.7C28.7 17.7 28.8334 17.7333 28.9 17.8C29.0334 17.8 29.1334 17.8333 29.2001 17.9C29.2001 17.9 29.2001 17.9333 29.2001 18V22.6H30.1C30.1667 22.6 30.2334 22.6667 30.3 22.8C30.3667 22.8667 30.4 23.0333 30.4 23.3C30.4 23.5 30.3667 23.6333 30.3 23.7C30.2334 23.8333 30.1667 23.9 30.1 23.9H29.2001V25.3V25.4C29.2001 25.4 29.1667 25.4333 29.1 25.5C28.9667 25.5 28.8667 25.5 28.8 25.5C28.6667 25.5 28.5 25.5 28.3 25.5C28.1 25.5 27.9667 25.5 27.9 25.5C27.7667 25.5 27.6667 25.5 27.6 25.5C27.5334 25.4333 27.4667 25.4 27.4 25.4V25.3ZM27.4 22.6V19.1L24.9 22.6H27.4Z" fill="#343957"/>
	</g>
	<defs>
		<clipPath id="clip0_7_5532">
			<rect width="42" height="45" fill="white"/>
		</clipPath>
	</defs>
</svg>
