<svg width="47" height="43" viewBox="0 0 47 43" fill="none" xmlns="http://www.w3.org/2000/svg">
	<g clip-path="url(#clip0_7_2309)">
		<path d="M29.7998 12.2L30.3998 9.79998L18.3998 18.5C17.9998 18.8 17.4998 18.7 17.1998 18.3C16.8998 18 16.9998 17.4 17.3998 17.1L29.2998 8.49998L27.5998 7.99998C27.0998 7.89998 26.7998 7.39998 26.8998 6.99998C26.9998 6.49998 27.4998 6.19998 27.9998 6.29998L31.8998 7.29998C32.3998 7.39998 32.6998 7.89998 32.4998 8.29998L31.4998 12.6C31.3998 13 30.8998 13.3 30.4998 13.2C29.9998 13.1 29.6998 12.6 29.7998 12.2Z" fill="#C38DBA"/>
		<path d="M10.3999 34.8V27.8H17.7999V34.8H10.3999Z" fill="#343957"/>
		<path d="M21.0999 34.8V21.4H28.4999V34.8H21.0999Z" fill="#343957"/>
		<path d="M34.8998 34.8H33.7998L39.1998 28V29.4L34.8998 34.8Z" fill="#C38DBA"/>
		<path d="M33.4999 34.7999H32.3999L39.1999 26.2V27.7L33.4999 34.7999Z" fill="#C38DBA"/>
		<path d="M31.7998 15.7V14.3H32.8998L31.7998 15.7Z" fill="#C38DBA"/>
		<path d="M31.7998 28.2V26.8L39.1998 17.3V18.7L31.7998 28.2Z" fill="#C38DBA"/>
		<path d="M31.7998 30V28.5L39.1998 19.1V20.5L31.7998 30Z" fill="#C38DBA"/>
		<path d="M31.7998 34.8V33.9L39.1998 24.4V25.9L32.0998 34.8H31.7998Z" fill="#C38DBA"/>
		<path d="M31.7998 26.4V25L39.1998 15.5V16.9L31.7998 26.4Z" fill="#C38DBA"/>
		<path d="M31.7998 33.5V32.0999L39.1998 22.7V24.1L31.7998 33.5Z" fill="#C38DBA"/>
		<path d="M31.7998 16.1L33.1998 14.3H34.2998L31.7998 17.5V16.1Z" fill="#C38DBA"/>
		<path d="M31.7998 31.7V30.3L39.1998 20.9V22.3L31.7998 31.7Z" fill="#C38DBA"/>
		<path d="M31.7998 19.6L35.9998 14.3H37.0998L31.7998 21V19.6Z" fill="#C38DBA"/>
		<path d="M37.7999 34.8H36.5999L39.1999 31.6V33L37.7999 34.8Z" fill="#C38DBA"/>
		<path d="M39.1999 34.8H38.0999L39.1999 33.4V34.8Z" fill="#C38DBA"/>
		<path d="M31.7998 21.4L37.3998 14.3H38.4998L31.7998 22.8V21.4Z" fill="#C38DBA"/>
		<path d="M36.4 34.8H35.2L39.2 29.8V31.2L36.4 34.8Z" fill="#C38DBA"/>
		<path d="M31.7998 17.8L34.5998 14.3H35.6998L31.7998 19.3V17.8Z" fill="#C38DBA"/>
		<path d="M31.7998 23.2L38.7998 14.3H39.1998V15.2L31.7998 24.6V23.2Z" fill="#C38DBA"/>
		<path d="M31.7998 15.7L32.8998 14.3H33.1998L31.7998 16.1V15.7Z" fill="white"/>
		<path d="M31.7998 17.5L34.2998 14.3H34.5998L31.7998 17.8V17.5Z" fill="white"/>
		<path d="M31.7998 19.3L35.6998 14.3H35.9998L31.7998 19.6V19.3Z" fill="white"/>
		<path d="M31.7998 21L37.0998 14.3H37.3998L31.7998 21.4V21Z" fill="white"/>
		<path d="M31.7998 22.8L38.4998 14.3H38.7998L31.7998 23.2V22.8Z" fill="white"/>
		<path d="M31.7998 25V24.6L39.1998 15.2V15.5L31.7998 25Z" fill="white"/>
		<path d="M31.7998 26.8V26.4L39.1998 16.9V17.3L31.7998 26.8Z" fill="white"/>
		<path d="M31.7998 28.5V28.2L39.1998 18.7V19.1L31.7998 28.5Z" fill="white"/>
		<path d="M31.7998 30.3V30L39.1998 20.5V20.9L31.7998 30.3Z" fill="white"/>
		<path d="M31.7998 32.1V31.7L39.1998 22.3V22.7L31.7998 32.1Z" fill="white"/>
		<path d="M31.7998 33.9V33.5L39.1998 24.1V24.4L31.7998 33.9Z" fill="white"/>
		<path d="M32.3999 34.8H32.0999L39.1999 25.9V26.2L32.3999 34.8Z" fill="white"/>
		<path d="M33.8 34.7999H33.5L39.2 27.7V28L33.8 34.7999Z" fill="white"/>
		<path d="M35.1999 34.8H34.8999L39.1999 29.4V29.8L35.1999 34.8Z" fill="white"/>
		<path d="M36.5999 34.7999H36.3999L39.1999 31.2V31.6L36.5999 34.7999Z" fill="white"/>
		<path d="M38.0998 34.8H37.7998L39.1998 33V33.4L38.0998 34.8Z" fill="white"/>
		<path d="M9.6999 5.59998V37.3H40.7999V39.1H8.7999C8.5999 39.1 8.2999 39 8.1999 38.9C7.9999 38.7 7.8999 38.5 7.8999 38.2V5.59998H9.6999Z" fill="#343957"/>
	</g>
	<defs>
		<clipPath id="clip0_7_2309">
			<rect width="47" height="43" fill="white"/>
		</clipPath>
	</defs>
</svg>
