<svg width="49" height="34" viewBox="0 0 49 34" fill="none" xmlns="http://www.w3.org/2000/svg">
	<g clip-path="url(#clip0_7_5715)">
		<path fill-rule="evenodd" clip-rule="evenodd" d="M40.9999 3.40002C41.4999 3.40002 41.8999 3.90002 41.8999 4.40002V24.5C41.8999 25 41.4999 25.4 40.9999 25.4H8.2999C7.7999 25.4 7.3999 25 7.3999 24.5V4.40002C7.3999 3.90002 7.7999 3.40002 8.2999 3.40002H40.9999ZM39.6999 5.50002H9.6999V23.3H39.6999V5.50002Z" fill="#343957"/>
		<path d="M42.2 26.1L45.6 29.3C46.3 30 45.9 31.3 45 31.3H4.29999C3.39999 31.3 2.99999 30 3.69999 29.3L7.09999 26.1C7.29999 25.9667 7.49999 25.9 7.69999 25.9H41.6C41.8 25.9 42 25.9667 42.2 26.1Z" fill="#343957"/>
		<path fill-rule="evenodd" clip-rule="evenodd" d="M9.6001 23.3V5.5H39.7001V23.3H9.6001ZM24.3001 16.1H17.8001V16.9H24.3001V16.1ZM31.7001 20.7H24.7001V21.4H31.7001V20.7ZM38.1001 19.6H24.7001V20.2H38.1001V19.6ZM38.1001 18.6H24.7001V19.2H38.1001V18.6ZM38.1001 17.5H24.7001V18.1H38.1001V17.5ZM31.2001 16.9V16H24.7001V16.9H31.2001ZM38.1001 16H31.6001V16.9H38.1001V16ZM10.9001 15.2H38.1001V6.9H10.9001V15.2ZM10.9001 16.7H17.4001V15.9H10.9001V16.7ZM10.9001 21.6H24.3001V17.5H10.9001V21.6Z" fill="#9C77A4"/>
		<path d="M10.8999 15.4V7H38.1999V15.4H10.8999Z" fill="#EBEEFF"/>
		<path d="M10.8999 16.9V16.1H17.3999V16.9H10.8999Z" fill="#76628B"/>
		<path d="M10.8999 21.7V17.6H24.2999V21.7H10.8999Z" fill="#76628B"/>
		<path d="M17.8 16.9V16.1H24.3V16.9H17.8Z" fill="#76628B"/>
		<path d="M24.7 16.9V16.1H31.2V16.9H24.7Z" fill="#76628B"/>
		<path d="M24.7 18.2V17.6H38.2V18.2H24.7Z" fill="#EBEEFF"/>
		<path d="M24.7 19.2V18.6H38.2V19.2H24.7Z" fill="#EBEEFF"/>
		<path d="M24.7 20.3V19.7H38.2V20.3H24.7Z" fill="#EBEEFF"/>
		<path d="M24.7 21.4V20.7H31.7V21.4H24.7Z" fill="#EBEEFF"/>
		<path d="M31.7 16.9V16.1H38.2V16.9H31.7Z" fill="#76628B"/>
	</g>
	<defs>
		<clipPath id="clip0_7_5715">
			<rect width="49" height="34" fill="white"/>
		</clipPath>
	</defs>
</svg>
