<svg version="1.2" xmlns="http://www.w3.org/2000/svg" viewBox="0 0 46 45" width="46" height="45">
	<title>icons-ai</title>
	<style>
		.s0 { fill: #616e7d } 
		.s1 { fill: #aad4c8 } 
		.s2 { fill: #ffffff } 
		.s3 { fill: #82bfab } 
	</style>
	<g id="Bg">
	</g>
	<g id="Object">
		<g id="&lt;Group&gt;">
			<path id="&lt;Path&gt;" class="s0" d="m741.6 168.6l0.2-2.2h-5.8c-0.8 0-1.4-0.6-1.4-1.2v-6.9c0-0.7 0.6-1.3 1.4-1.3h14.5c0.8 0 1.4 0.6 1.4 1.3v6.9c0 0.6-0.6 1.2-1.4 1.2h-6.7z"/>
			<path id="&lt;Path&gt;" class="s1" d="m755.9 169.4h-2.7l0.1 1.3-1.3-1.3h-4.4c-0.5 0-0.9-0.4-0.9-0.8v-1.7h4.3c0.9 0 1.6-0.6 1.6-1.3v-2.5h3.3c0.5 0 0.9 0.4 0.9 0.8v4.7c0 0.4-0.4 0.8-0.9 0.8z"/>
			<path id="&lt;Path&gt;" class="s0" d="m736.4 172.9c1.9 0 3.4 1.5 3.4 3.4 0 1.9-1.5 3.4-3.4 3.4-1.9 0-3.4-1.5-3.4-3.4 0-1.9 1.5-3.4 3.4-3.4z"/>
			<path id="&lt;Compound Path&gt;" fill-rule="evenodd" class="s0" d="m756.8 180c1.8 0 3.2 1.5 3.2 3.2v1.6h-6.8c0-1.7-1-3.2-2.3-4.1 0.5-0.4 1.2-0.7 1.9-0.7zm-0.1 1.2c0.1-0.2-0.6-0.6-0.6-0.6l-1.2 3.7-1.3-3.7c0 0-0.6 0.4-0.6 0.6 0.1 0 1 0.9 1 0.9l-0.6 0.6 1.5 1.6 1.5-1.6-0.7-0.6c0 0 1-0.9 1-0.9z"/>
			<path id="&lt;Compound Path&gt;" fill-rule="evenodd" class="s0" d="m734.5 180h3.9c0.7 0 1.4 0.3 2 0.7-1.4 0.9-2.3 2.4-2.4 4.1h-6.8v-1.6c0-1.7 1.5-3.2 3.3-3.2zm0.1 0.4q-0.1 0-0.2 0l0.8 3.8h0.4l0.4-2.5-0.4-0.8h1.6l-0.4 0.8 0.4 2.5h0.5l0.7-3.8q-0.1 0-0.2 0z"/>
			<path id="&lt;Path&gt;" class="s2" d="m736.8 181.7l0.4-0.8h-1.6l0.4 0.8-0.4 2.5h-0.4l-0.8-3.8q0.1 0 0.2 0h3.6q0.1 0 0.2 0l-0.7 3.8h-0.5l-0.4-2.5z"/>
			<path id="&lt;Path&gt;" class="s0" d="m745.6 170.9c2.6 0 4.6 2.1 4.6 4.6 0 2.6-2 4.6-4.6 4.6-2.5 0-4.6-2-4.6-4.6 0-2.5 2.1-4.6 4.6-4.6z"/>
			<path id="&lt;Path&gt;" class="s0" d="m745.1 182.7l-0.5-0.9z"/>
			<path id="&lt;Compound Path&gt;" fill-rule="evenodd" class="s0" d="m748.3 180.6c2.4 0 4.3 1.9 4.3 4.3v2.1h-14v-2.1c0-2.4 2-4.3 4.3-4.3zm0.1 0.4q-0.2 0-0.3 0h-4.8q-0.2 0-0.3 0l1 5.3h3.4z"/>
			<path id="&lt;Path&gt;" class="s2" d="m746.1 182.7l0.6-0.9h-2.1l0.5 0.9-0.6 3.6h-0.6l-1-5.3q0.2 0 0.3 0h4.8q0.2 0 0.3 0l-1 5.3h-0.6l-0.5-3.6z"/>
			<path id="&lt;Path&gt;" class="s1" d="m745.1 182.7l-0.5-0.9h2.1l-0.6 0.9h0.1l0.5 3.6h-2.2z"/>
			<path id="&lt;Path&gt;" class="s2" d="m755.7 182.1l0.6 0.6-1.5 1.6 1.3-3.7c0 0 0.6 0.4 0.6 0.6-0.1 0-1 0.9-1 0.9z"/>
			<path id="&lt;Path&gt;" class="s2" d="m753.3 182.7l0.7-0.6c0 0-1-0.9-1-0.9-0.1-0.2 0.6-0.6 0.6-0.6l1.2 3.7z"/>
			<path id="&lt;Path&gt;" class="s0" d="m758.1 176.3v0.1 1.8c0 0.7 0.3 1.2 0.8 1.4v0.1h-4.1q-0.1 0-0.2 0c-1.9 0-3.5-1.6-3.4-3.6 0.1-1.7 1.5-3.1 3.2-3.2 2-0.2 3.7 1.4 3.7 3.4z"/>
			<path id="&lt;Compound Path&gt;" fill-rule="evenodd" class="s0" d="m727.8 179.4h3.1c0.5 0 1.1 0.2 1.5 0.5-1.1 0.7-1.8 1.8-1.8 3.2h-5.2v-1.2c0-1.4 1.1-2.5 2.4-2.5zm0.1 0.9c0.1 0 0.8 0.7 0.8 0.7l-0.5 0.5 1.1 1.2 1.2-1.2-0.5-0.5c0 0 0.7-0.7 0.8-0.7 0-0.1-0.5-0.5-0.5-0.5l-1 2.9-0.9-2.9c0 0-0.5 0.4-0.5 0.5z"/>
			<path id="&lt;Path&gt;" class="s2" d="m728.2 181.5l0.5-0.5c0 0-0.7-0.7-0.8-0.7 0-0.1 0.5-0.5 0.5-0.5l0.9 2.9z"/>
			<path id="&lt;Path&gt;" class="s2" d="m730 181l0.5 0.5-1.2 1.2 1-2.9c0 0 0.5 0.4 0.5 0.5-0.1 0-0.8 0.7-0.8 0.7z"/>
			<path id="&lt;Path&gt;" class="s0" d="m726.6 176.6c0-1.5 1.3-2.7 2.8-2.6 1.3 0 2.3 1.1 2.4 2.4 0.1 1.5-1.1 2.8-2.6 2.8h-0.1-3.1l-0.1-0.1c0.4-0.2 0.7-0.6 0.7-1.1z"/>
			<path id="&lt;Compound Path&gt;" fill-rule="evenodd" class="s0" d="m763.5 179.4c1.3 0 2.4 1.1 2.4 2.5v1.2h-5.2c0-1.4-0.7-2.5-1.7-3.2 0.4-0.3 0.9-0.5 1.5-0.5zm-0.1 0.3q0 0-0.1 0h-2.7q0 0-0.1 0l0.5 2.8h0.4l0.3-1.9-0.3-0.5h1.1l-0.3 0.5h0.1l0.2 1.9h0.4z"/>
			<path id="&lt;Path&gt;" class="s0" d="m762 173.9c1.4 0 2.6 1.2 2.6 2.6 0 1.5-1.2 2.6-2.6 2.6-1.5 0-2.6-1.1-2.6-2.6 0-1.4 1.1-2.6 2.6-2.6z"/>
			<path id="&lt;Path&gt;" class="s2" d="m762.3 180.6l0.2-0.5h-1.1l0.3 0.5-0.3 1.9h-0.4l-0.5-2.8q0.1 0 0.2 0h2.6q0.1 0 0.2 0l-0.6 2.8h-0.3l-0.3-1.9z"/>
		</g>
		<g id="&lt;Group&gt;">
			<path id="&lt;Path&gt;" class="s0" d="m201.9 166.8c2.6 0 4.7 2.1 4.7 4.7 0 2.6-2.1 4.7-4.7 4.7-2.6 0-4.8-2.1-4.8-4.7 0-2.6 2.2-4.7 4.8-4.7z"/>
			<path id="&lt;Path&gt;" class="s2" d="m202.4 178.9l0.5-1h-2.1l0.5 1-0.5 3.6h-0.7l-1-5.4q0.1 0 0.3 0h4.9q0.2 0 0.3 0l-1 5.4h-0.6l-0.6-3.6z"/>
			<path id="&lt;Path&gt;" class="s0" d="m176.5 166.8c2.6 0 4.7 2.1 4.7 4.7 0 2.6-2.1 4.7-4.7 4.7-2.6 0-4.7-2.1-4.7-4.7 0-2.6 2.1-4.7 4.7-4.7z"/>
			<path id="&lt;Compound Path&gt;" fill-rule="evenodd" class="s0" d="m179.4 183.2v-2.8c-0.4 0.8-0.7 1.8-0.7 2.8h-9.4v-2.1c0-2.5 2-4.5 4.4-4.5h5.5q0.7 0.1 1.3 0.3c1.1-1.6 2.9-2.6 4.9-2.6h7.5c2 0 3.8 1 4.9 2.6q0.6-0.2 1.3-0.3h5.5c2.4 0 4.4 2 4.4 4.5v2.1h-9.4c0-1-0.3-2-0.7-2.9v2.9zm19.7-6.1l1 5.4h0.6l0.6-3.6-0.5-1h2.1l-0.5 1 0.5 3.6h0.7l1-5.4q-0.1 0-0.3 0h-4.9q-0.2 0-0.3 0zm-13.7-2.2l1.4 7.3h4.7l1.4-7.3q-0.2 0-0.4 0h-6.7q-0.2 0-0.4 0zm-6.2 2.2q-0.1 0-0.3 0h-4.9q-0.2 0-0.3 0l1 5.4h0.6l0.6-3.6-0.5-1h2.1l-0.5 1 0.5 3.6h0.7z"/>
			<path id="&lt;Path&gt;" class="s2" d="m177 178.9l0.5-1h-2.1l0.5 1-0.5 3.6h-0.7l-1-5.4q0.1 0 0.3 0h4.9q0.2 0 0.3 0l-1 5.4h-0.6l-0.6-3.6z"/>
			<path id="&lt;Path&gt;" class="s0" d="m189.2 160.8c3.5 0 6.4 2.9 6.4 6.4 0 3.6-2.9 6.5-6.4 6.5-3.6 0-6.5-2.9-6.5-6.5 0-3.5 2.9-6.4 6.5-6.4z"/>
			<path id="&lt;Path&gt;" class="s2" d="m189.9 177.3l0.7-1.3h-2.9l0.7 1.3-0.7 4.9h-0.9l-1.4-7.3q0.2 0 0.4 0h6.7q0.2 0 0.4 0l-1.4 7.3h-0.8l-0.8-4.9z"/>
			<path id="&lt;Path&gt;" class="s1" d="m188.4 177.3l-0.7-1.3h2.9l-0.7 1.3 0.8 4.9h-3z"/>
		</g>
		<g id="&lt;Group&gt;">
			<path id="&lt;Path&gt;" class="s0" d="m2.8 312.1v-14.9q-0.6-0.3-0.8-0.8h-7.7l-0.2-0.5q-0.1-0.2-0.3-0.2-0.2 0-0.3 0.2l-0.2 0.5h-0.4c-0.5 0-0.9-0.4-0.9-0.9 0-0.5 0.4-0.8 0.9-0.8h9.1q0.2-0.6 0.8-0.9v-0.8c0-0.5 0.4-0.8 0.9-0.8 0.4 0 0.8 0.3 0.8 0.8v0.8q0.6 0.3 0.8 0.9h9.1c0.5 0 0.9 0.3 0.9 0.8 0 0.5-0.4 0.9-0.9 0.9h-0.4l-0.2-0.5q-0.1-0.2-0.3-0.2-0.2 0-0.3 0.2l-0.2 0.5h-7.7q-0.2 0.5-0.8 0.8v14.9z"/>
			<path id="&lt;Path&gt;" class="s3" d="m14 296.4l4.3 8.5q0.1 0 0.1 0.1h-0.7l-4.2-8.3-4.2 8.3h-0.7q0-0.1 0.1-0.1l4.3-8.5 0.2-0.5q0.1-0.2 0.3-0.2 0.2 0 0.3 0.2z"/>
			<path id="&lt;Path&gt;" class="s1" d="m17.7 305h0.7 0.3c0 2.9-2.3 5.2-5.2 5.2-2.9 0-5.2-2.3-5.2-5.2h0.3 0.7z"/>
			<path id="&lt;Path&gt;" class="s3" d="m-5.7 296.4l4.3 8.5q0.1 0 0.1 0.1h-0.7l-4.2-8.3-4.2 8.3h-0.6q-0.1-0.1 0-0.1l4.3-8.5 0.2-0.5q0.1-0.2 0.3-0.2 0.2 0 0.3 0.2z"/>
			<path id="&lt;Path&gt;" class="s1" d="m-2 305h0.7 0.3c0 2.9-2.3 5.2-5.2 5.2-2.9 0-5.2-2.3-5.2-5.2h0.4 0.6z"/>
			<path id="&lt;Path&gt;" class="s0" d="m8.9 312.1v1.2h2.8v1.2h-16.1v-1.2h2.7v-1.2h4.5 1.7z"/>
		</g>
		<g id="&lt;Group&gt;">
			<path id="&lt;Path&gt;" class="s0" d="m23.4 17.6l1.3 1.3c0.2 0.2 0.2 0.4 0 0.6l-12.3 13.1q-0.1 0.1-0.3 0.1-0.1 0-0.3-0.1l-2-2.1q-0.2-0.1-0.2-0.3 0-0.1 0.2-0.3l13.1-12.3c0.1-0.1 0.4-0.1 0.5 0z"/>
			<path id="&lt;Path&gt;" class="s0" d="m35.6 32.6v1.5h1.5v1.4h2.2v1.5h-21.3v-1.5h2.3v-1.4h1.5v-1.5q0-0.2 0.1-0.3 0.1-0.1 0.3-0.1h13q0.1 0 0.3 0.1 0.1 0.1 0.1 0.3z"/>
			<path id="&lt;Path&gt;" class="s0" d="m26.1 8.5q0.1-0.1 0.1-0.2l7.6 7.6q-0.1 0-0.2 0.1l-5.1 5.2-7.6-7.6z"/>
			<path id="&lt;Path&gt;" class="s1" d="m35.9 16c0.6 0.6 0.6 1.6 0 2.2l-5.3 5.3c-0.6 0.6-1.6 0.6-2.2 0-0.6-0.6-0.6-1.6 0-2.3h0.1l5.1-5.2q0.1-0.1 0.2-0.1c0.6-0.5 1.5-0.5 2.1 0.1z"/>
			<path id="&lt;Path&gt;" class="s1" d="m26.1 6.2c0.6 0.6 0.6 1.5 0.1 2.1q0 0.1-0.1 0.2l-5.2 5.1v0.1c-0.7 0.6-1.7 0.6-2.3 0-0.6-0.6-0.6-1.6 0-2.2l5.3-5.3c0.6-0.6 1.6-0.6 2.2 0z"/>
		</g>
		<g id="&lt;Group&gt;">
			<path id="&lt;Path&gt;" class="s1" d="m-126.6 308.6h0.2c1.5 0.8 3.1 1.4 4.9 1.5l-2.3 2.5-3-4z"/>
			<path id="&lt;Path&gt;" class="s1" d="m-114.3 308.6h0.8 0.2l-2.9 4-2.4-2.5c1.5-0.3 3-0.8 4.3-1.5z"/>
			<path id="&lt;Compound Path&gt;" fill-rule="evenodd" class="s0" d="m-114.3 308.6h0.7q0.1 0 0.1 0h-0.8c-1.3 0.7-2.8 1.2-4.3 1.5l2.4 2.5 2.9-4c5.7 0.2 10.2 4.7 10.2 10.2v5h-33.8v-5c0-5.5 4.5-10 10.1-10.2l3 4 2.3-2.5c-1.8-0.1-3.4-0.7-4.9-1.5h-0.2q0.1 0 0.2 0-1.8-1-3.1-2.6c-0.7 2.4-2.8 4.3-5.4 4.4-2.1 0.1-4-0.9-5.2-2.5 2.4-0.3 4.3-2 4.9-4.1q0.1-0.3 0.2-0.5c0.3-0.8 1-1.5 1.8-1.8-1-0.4-1.7-1.4-1.7-2.6v-0.9c0-1.3 1-2.4 2.3-2.7q-0.1-0.6-0.1-1.2v-0.2q0-0.4 0-0.9c0.2-1.9 0.9-3.7 1.9-5.2q0.8-1.2 1.9-2.1c1.5-1.3 3.2-2.2 5.2-2.5l0.2 0.1-0.1-0.2h0.2q0.6 0 1.4-0.1h0.1q0.4-0.1 0.9-0.1v0.1h0.1v-0.1c2.3-0.1 5.3 0.2 8.2 2.2 2.8 2 4.6 5.3 4.6 9q0 0.1 0 0.2 0 0.5 0 1c1.3 0.2 2.4 1.3 2.4 2.7v0.9c0 1.1-0.7 2-1.6 2.5 1.1 0.2 1.9 0.9 2.3 1.9q0.1 0.2 0.1 0.5c0.7 2.1 2.6 3.8 4.9 4.1-1.1 1.6-3 2.6-5.1 2.5-2.9-0.2-5.1-2.3-5.6-5-0.9 1.3-2.2 2.4-3.6 3.2zm5.9-9.9q0 0.7-0.1 1.4c0.6-0.1 1-0.6 1-1.2v-0.9c0-0.5-0.4-1-1-1.1q0 0.3 0 0.7 0.1 0.5 0.1 1.1zm-23.9 0q0-0.6 0.1-1.3 0-0.2-0.1-0.5c-0.5 0.2-0.9 0.6-0.9 1.1v0.9c0 0.6 0.4 1.1 1 1.2q-0.1-0.7-0.1-1.4zm21.8 2.8q0.2-0.8 0.3-1.7 0.1-0.5 0.1-1.1 0-0.7-0.1-1.4-0.1-0.4-0.2-0.7c-1.4-1-3.2-2.6-3.9-3.8 0 0-11.3 2.7-15.4 3q-0.2 0-0.4 0-0.2 0.7-0.3 1.5-0.1 0.7-0.1 1.4 0 0.6 0 1.1 0.1 0.9 0.4 1.7c1.2 4.1 5.1 7 9.8 7 4.6 0 8.5-2.9 9.8-7z"/>
		</g>
		<g id="&lt;Group&gt;">
			<path id="&lt;Compound Path&gt;" fill-rule="evenodd" class="s0" d="m84.6-303.5c0.6 0 1.1 0.5 1.1 1.1v24.7c0 0.6-0.5 1.1-1.1 1.1h-38.2c-0.6 0-1.1-0.5-1.1-1.1v-24.7c0-0.6 0.5-1.1 1.1-1.1zm-1.4 2.4h-35.3v20.4h35.3z"/>
			<path id="&lt;Path&gt;" class="s0" d="m70.9-275.9l1.4 2.5c0.3 0.5 0.4 1.7 0.1 1.7h-13.8c-0.3 0-0.3-1.2 0-1.7l1.5-2.5q0.1-0.2 0.2-0.2h10.4q0.1 0 0.2 0.2z"/>
			<path id="&lt;Compound Path&gt;" fill-rule="evenodd" class="s2" d="m47.8-301.1h35.4v20.4h-35.4zm17.4 12.7h-7.7v0.9h7.7zm8.8 5.2h-8.3v0.7h8.3zm7.6-1.2h-15.9v0.7h15.9zm0-1.2h-15.9v0.7h15.9zm0-1.2h-15.9v0.7h15.9zm-8.2-0.8v-0.9h-7.7v0.9zm8.2-0.9h-7.7v0.9h7.7zm-32.3-0.7h32.3v-10.4h-32.3zm0 1.6h7.7v-0.9h-7.7zm0 5.4h15.9v-4.5h-15.9z"/>
			<path id="&lt;Path&gt;" class="s1" d="m49.3-299.4h32.3v10.3h-32.3z"/>
			<path id="&lt;Path&gt;" class="s3" d="m49.3-288.3h7.8v0.9h-7.8z"/>
			<path id="&lt;Path&gt;" class="s3" d="m49.3-286.6h15.9v4.5h-15.9z"/>
			<path id="&lt;Path&gt;" class="s3" d="m57.5-287.4v-0.9h7.7v0.9z"/>
			<path id="&lt;Path&gt;" class="s3" d="m65.7-287.4v-0.9h7.7v0.9z"/>
			<path id="&lt;Path&gt;" class="s1" d="m65.7-286v-0.6h15.9v0.6z"/>
			<path id="&lt;Path&gt;" class="s1" d="m65.7-284.8v-0.7h15.9v0.7z"/>
			<path id="&lt;Path&gt;" class="s1" d="m65.7-283.6v-0.7h15.9v0.7z"/>
			<path id="&lt;Path&gt;" class="s1" d="m65.7-282.5v-0.7h8.3v0.7z"/>
			<path id="&lt;Path&gt;" class="s3" d="m73.9-287.4v-0.9h7.7v0.9z"/>
		</g>
		<g id="&lt;Group&gt;">
			<path id="&lt;Compound Path&gt;" fill-rule="evenodd" class="s0" d="m20-301.6c0.5 0 0.9 0.5 0.9 1v20.1c0 0.5-0.4 0.9-0.9 0.9h-32.7c-0.5 0-0.9-0.4-0.9-0.9v-20.1c0-0.5 0.4-1 0.9-1zm-1.3 2.1h-30v17.8h30z"/>
			<path id="&lt;Path&gt;" class="s0" d="m21.2-278.9l3.4 3.2c0.7 0.7 0.3 2-0.6 2h-40.7c-0.9 0-1.3-1.3-0.6-2l3.4-3.2q0.3-0.2 0.6-0.2h33.9q0.3 0 0.6 0.2z"/>
			<path id="&lt;Compound Path&gt;" fill-rule="evenodd" class="s2" d="m-11.4-281.7v-17.8h30.1v17.8zm14.7-7.2h-6.5v0.8h6.5zm7.4 4.6h-7v0.7h7zm6.4-1.1h-13.4v0.6h13.4zm0-1h-13.4v0.6h13.4zm0-1.1h-13.4v0.6h13.4zm-6.9-0.6v-0.9h-6.5v0.9zm6.9-0.9h-6.5v0.9h6.5zm-27.2-0.8h27.2v-8.3h-27.2zm0 1.5h6.5v-0.8h-6.5zm0 4.9h13.4v-4.1h-13.4z"/>
			<path id="&lt;Path&gt;" class="s1" d="m-10.1-289.6v-8.4h27.3v8.4z"/>
			<path id="&lt;Path&gt;" class="s3" d="m-10.1-288.1v-0.8h6.5v0.8z"/>
			<path id="&lt;Path&gt;" class="s3" d="m-10.1-283.3v-4.1h13.4v4.1z"/>
			<path id="&lt;Path&gt;" class="s3" d="m-3.2-288.1v-0.8h6.5v0.8z"/>
			<path id="&lt;Path&gt;" class="s3" d="m3.7-288.1v-0.8h6.5v0.8z"/>
			<path id="&lt;Path&gt;" class="s1" d="m3.7-286.8v-0.6h13.5v0.6z"/>
			<path id="&lt;Path&gt;" class="s1" d="m3.7-285.8v-0.6h13.5v0.6z"/>
			<path id="&lt;Path&gt;" class="s1" d="m3.7-284.7v-0.6h13.5v0.6z"/>
			<path id="&lt;Path&gt;" class="s1" d="m3.7-283.6v-0.7h7v0.7z"/>
			<path id="&lt;Path&gt;" class="s3" d="m10.7-288.1v-0.8h6.5v0.8z"/>
		</g>
		<g id="&lt;Group&gt;">
			<path id="&lt;Path&gt;" class="s0" d="m490.3-79.7c1.5 3.1 3.5 5.9 6.2 8.2-4.1-0.7-7.8-2.7-10.7-5.6q2.1-1.5 4.5-2.6z"/>
			<path id="&lt;Path&gt;" class="s0" d="m483.3-89.2h4.6c0.1 2.8 0.7 5.6 1.8 8.2q-2.6 1.1-4.8 2.8c-2.2-2.6-3.6-5.5-4.2-8.7 1.3-0.1 2.4-1.1 2.6-2.3z"/>
			<path id="&lt;Path&gt;" class="s0" d="m491-81.6q-1.4-3.6-1.7-7.6h9.7v6.1c-2.7 0.1-5.4 0.6-8 1.5z"/>
			<path id="&lt;Path&gt;" class="s0" d="m491.6-80.2q3.6-1.3 7.4-1.5v10.3c-3.2-2.3-5.7-5.4-7.4-8.8z"/>
			<path id="&lt;Path&gt;" class="s0" d="m485.2-103.4c2.9-3.4 6.9-5.6 11.3-6.3-2.4 2-4.4 4.5-5.8 7.3q-0.4-0.1-0.7-0.1c-0.9 0-1.6 0.3-2.2 0.9q-1.4-0.8-2.6-1.8z"/>
			<path id="&lt;Path&gt;" class="s0" d="m492.4-98q3.2 1 6.6 1.2v6.1h-9.7q0-3 0.7-6c1 0 1.9-0.5 2.4-1.3z"/>
			<path id="&lt;Path&gt;" class="s0" d="m487.1-100.3q-0.1 0.3-0.1 0.7c0 1.1 0.7 2.1 1.6 2.6q-0.8 3.1-0.8 6.3h-4.5c-0.4-1.2-1.5-2.1-2.8-2.1q0 0 0 0c0.3-3.4 1.6-6.7 3.7-9.5q1.4 1.1 2.9 2z"/>
			<path id="&lt;Path&gt;" class="s0" d="m510.7-79.2q1.6 0.8 3.1 1.8c-2.9 3.2-6.8 5.3-11.1 5.9q3.3-2.9 5.4-6.6 0.2 0 0.3 0c0.9 0 1.7-0.4 2.3-1.1z"/>
			<path id="&lt;Path&gt;" class="s0" d="m511.3-80.6q0-0.2 0-0.4c0-0.9-0.4-1.7-1-2.2q0.9-3 1-6h7.8c-0.3 3.9-1.8 7.6-4.3 10.7q-1.7-1.2-3.5-2.1z"/>
			<path id="&lt;Path&gt;" class="s0" d="m515.4-102c2.4 3.3 3.7 7.2 3.7 11.3h-7.7c0-2.8-0.5-5.5-1.4-8.2q2.9-1.2 5.4-3.1z"/>
			<path id="&lt;Path&gt;" class="s0" d="m492.9-99.4q0-0.1 0-0.2c0-0.8-0.4-1.6-0.9-2.1 1.6-3.2 4-6 7-8.2v11.6q-3.2-0.1-6.1-1.1z"/>
			<path id="&lt;Path&gt;" class="s0" d="m500.5-109.7c3.4 2.6 6.1 6 7.7 10-2.5 0.9-5.1 1.4-7.7 1.4z"/>
			<path id="&lt;Path&gt;" class="s0" d="m502.7-109.8c4.6 0.7 8.8 3.1 11.8 6.6q-2.3 1.8-5 3c-1.4-3.7-3.8-7-6.8-9.6z"/>
			<path id="&lt;Path&gt;" class="s0" d="m500.5-96.8c2.8-0.1 5.5-0.6 8.2-1.5 0.8 2.4 1.2 5 1.2 7.6h-9.4z"/>
			<path id="&lt;Path&gt;" class="s0" d="m505.5-81.1q0 0 0 0.1c0 1 0.5 1.8 1.2 2.4-1.6 2.7-3.7 5.1-6.2 7.1v-10.2q2.5 0.1 5 0.6z"/>
			<path id="&lt;Path&gt;" class="s0" d="m500.5-83.2v-6h9.4q-0.2 2.7-0.9 5.3-0.3-0.1-0.6-0.1c-1.1 0-2 0.6-2.5 1.5q-2.7-0.6-5.4-0.7z"/>
			<path id="&lt;Path&gt;" class="s1" d="m490.7-102.4q0.7 0.2 1.3 0.7c0.5 0.5 0.9 1.3 0.9 2.1q0 0.1 0 0.2-0.1 0.8-0.5 1.4c-0.5 0.8-1.4 1.3-2.4 1.3q0 0 0 0-0.8 0-1.4-0.3c-0.9-0.5-1.6-1.5-1.6-2.6q0-0.4 0.1-0.7 0.2-0.8 0.7-1.3c0.6-0.6 1.3-0.9 2.2-0.9q0.3 0 0.7 0.1z"/>
			<path id="&lt;Path&gt;" class="s3" d="m483.3-90.7q0.1 0.4 0.1 0.8 0 0.4-0.1 0.7c-0.2 1.2-1.3 2.2-2.6 2.3q-0.1 0-0.2 0c-1.6 0-3-1.3-3-3 0-1.6 1.3-2.9 3-2.9q0 0 0 0c1.3 0 2.4 0.9 2.8 2.1z"/>
			<path id="&lt;Path&gt;" class="s1" d="m510.3-83.2c0.6 0.5 1 1.3 1 2.2q0 0.2 0 0.4-0.2 0.8-0.6 1.4c-0.6 0.7-1.4 1.1-2.3 1.1q-0.1 0-0.3 0-0.8-0.1-1.4-0.5c-0.7-0.6-1.2-1.4-1.2-2.4q0-0.1 0-0.1 0-0.8 0.4-1.4c0.5-0.9 1.4-1.5 2.5-1.5q0.3 0 0.6 0.1 0.7 0.1 1.3 0.7z"/>
		</g>
		<g id="&lt;Group&gt;">
			<path id="&lt;Compound Path&gt;" fill-rule="evenodd" class="s0" d="m190.9-155.6q-0.3 0.6-0.6 1.2l1.3 1.9q-0.9 1.3-2.1 2.4l-2.1-1.1q-0.5 0.4-1.1 0.7l0.1 2.4q-1.4 0.6-2.9 0.9l-1.3-1.9q-0.2 0-0.3 0-0.6 0-1.1 0l-1 2.1q-1.6-0.1-3.1-0.6v-2.3q-0.7-0.3-1.3-0.7l-1.9 1.4q-1.3-0.9-2.4-2.1l1.1-2.1q-0.4-0.6-0.7-1.2l-2.4 0.2q-0.6-1.4-0.9-3l1.9-1.2q0-0.2 0-0.4 0-0.5 0-1l-2.1-1q0.1-1.6 0.6-3.1l2.3-0.1q0.3-0.6 0.7-1.2l-1.3-1.9q0.9-1.3 2-2.4l2.1 1.1q0.6-0.4 1.2-0.7l-0.2-2.4q1.4-0.6 3-1l1.2 2q0.2 0 0.4 0 0.5-0.1 1 0l1-2.2q1.6 0.2 3.1 0.7l0.1 2.3q0.6 0.3 1.2 0.6l2-1.3q1.2 0.9 2.3 2.1l-1.1 2.1q0.4 0.5 0.8 1.2l2.3-0.2q0.7 1.4 1 2.9l-2 1.3q0 0.2 0 0.4 0.1 0.5 0.1 1l2.1 1q-0.2 1.6-0.7 3.1zm-2.3-4.3c0-4.2-3.4-7.6-7.6-7.6-4.3 0-7.7 3.4-7.7 7.6 0 4.2 3.4 7.6 7.7 7.6 4.2 0 7.6-3.4 7.6-7.6z"/>
			<path id="&lt;Compound Path&gt;" fill-rule="evenodd" class="s0" d="m180.9-167c3.9 0 7.1 3.2 7.1 7.1 0 3.9-3.2 7.1-7.1 7.1-3.9 0-7.1-3.2-7.1-7.1 0-3.9 3.2-7.1 7.1-7.1zm-0.5 1.8c-2.9 0.2-5.1 2.8-4.8 5.8 0.2 2.9 2.8 5.1 5.8 4.8 2.9-0.2 5.1-2.8 4.9-5.8-0.3-2.9-2.9-5.1-5.9-4.8z"/>
			<path id="&lt;Compound Path&gt;" fill-rule="evenodd" class="s0" d="m200.7-155.7c3.3 0.1 6 2.9 5.9 6.3-0.1 3.3-2.8 6-6.2 5.9-3.4-0.1-6-2.8-6-6.2 0.1-3.4 2.9-6 6.3-6zm-2.1 2.9c-1.7 1-2.3 3.2-1.3 4.9 1 1.9 3.3 2.5 5.1 1.4 1.8-1 2.4-3.3 1.3-5.1-1-1.8-3.3-2.3-5.1-1.2z"/>
			<path id="&lt;Compound Path&gt;" fill-rule="evenodd" class="s0" d="m208.7-148.2q-0.2 0.7-0.4 1.3l1.3 1.2q-0.5 1-1.1 1.8l-1.6-0.4q-0.5 0.5-1 1l0.5 1.6q-0.4 0.3-0.9 0.6-0.4 0.3-0.9 0.5l-1.2-1.2q-0.7 0.2-1.3 0.3l-0.4 1.7q-1.1 0.1-2.1 0l-0.5-1.7q-0.6-0.1-1.3-0.3l-1.1 1.3q-1-0.5-1.9-1.1l0.5-1.6q-0.6-0.5-1-1l-1.6 0.5q-0.3-0.4-0.6-0.9-0.3-0.4-0.5-0.9l1.2-1.2q-0.2-0.7-0.4-1.3l-1.6-0.4q-0.2-1.1 0-2.1l1.6-0.5q0.1-0.6 0.3-1.3l-1.2-1.1q0.4-1 1-1.9l1.7 0.5q0.4-0.6 0.9-1l-0.5-1.6q0.5-0.4 0.9-0.6 0.5-0.3 1-0.5l1.2 1.2q0.6-0.2 1.3-0.4l0.4-1.6q1-0.2 2.1-0.1l0.4 1.7q0.7 0.1 1.3 0.3l1.2-1.2q1 0.4 1.8 1l-0.4 1.7q0.5 0.4 1 0.9l1.6-0.5q0.3 0.5 0.6 0.9 0.3 0.5 0.5 1l-1.2 1.2q0.2 0.6 0.3 1.3l1.7 0.4q0.1 1 0 2.1zm-1.8-1.3c0.1-3.5-2.7-6.4-6.2-6.5-3.5 0-6.4 2.8-6.5 6.3 0 3.5 2.7 6.4 6.2 6.4 3.5 0.1 6.5-2.7 6.5-6.2z"/>
			<path id="&lt;Compound Path&gt;" fill-rule="evenodd" class="s1" d="m180.9-167.5c4.2 0 7.7 3.4 7.7 7.6 0 4.2-3.5 7.6-7.7 7.6-4.2 0-7.6-3.4-7.6-7.6 0-4.2 3.4-7.6 7.6-7.6zm0 0.5c-3.9 0-7.1 3.2-7.1 7.1 0 3.9 3.2 7.1 7.1 7.1 3.9 0 7.1-3.2 7.1-7.1 0-3.9-3.2-7.1-7.1-7.1z"/>
			<path id="&lt;Compound Path&gt;" fill-rule="evenodd" class="s3" d="m200.7-155.9c3.5 0.1 6.2 3 6.2 6.5-0.1 3.5-3 6.2-6.5 6.2-3.5-0.1-6.3-3-6.2-6.5 0.1-3.5 3-6.3 6.5-6.2zm0 0.2c-3.4 0-6.2 2.6-6.3 6 0 3.4 2.6 6.1 6 6.2 3.4 0.1 6.1-2.6 6.2-5.9 0.1-3.4-2.6-6.2-5.9-6.3z"/>
		</g>
		<g id="&lt;Group&gt;">
			<path id="&lt;Path&gt;" class="s1" d="m874.8 96.2l0.6-2.4-12 8.7c-0.4 0.3-0.9 0.2-1.2-0.2-0.3-0.3-0.2-0.9 0.2-1.2l11.9-8.6-1.7-0.5c-0.5-0.1-0.8-0.6-0.7-1 0.1-0.5 0.6-0.8 1.1-0.7l3.9 1c0.5 0.1 0.8 0.6 0.6 1l-1 4.3c-0.1 0.4-0.6 0.7-1 0.6-0.5-0.1-0.8-0.6-0.7-1z"/>
			<path id="&lt;Path&gt;" class="s0" d="m855.4 118.8v-7h7.4v7z"/>
			<path id="&lt;Path&gt;" class="s0" d="m866.1 118.8v-13.4h7.4v13.4z"/>
			<path id="&lt;Path&gt;" class="s1" d="m879.9 118.8h-1.1l5.4-6.8v1.4z"/>
			<path id="&lt;Path&gt;" class="s1" d="m878.5 118.8h-1.1l6.8-8.6v1.5z"/>
			<path id="&lt;Path&gt;" class="s1" d="m876.8 99.7v-1.4h1.1z"/>
			<path id="&lt;Path&gt;" class="s1" d="m876.8 112.2v-1.4l7.4-9.5v1.4z"/>
			<path id="&lt;Path&gt;" class="s1" d="m876.8 114v-1.5l7.4-9.4v1.4z"/>
			<path id="&lt;Path&gt;" class="s1" d="m876.8 118.8v-0.9l7.4-9.5v1.5l-7.1 8.9z"/>
			<path id="&lt;Path&gt;" class="s1" d="m876.8 110.4v-1.4l7.4-9.5v1.4z"/>
			<path id="&lt;Path&gt;" class="s1" d="m876.8 117.5v-1.4l7.4-9.4v1.4z"/>
			<path id="&lt;Path&gt;" class="s1" d="m876.8 100.1l1.4-1.8h1.1l-2.5 3.2z"/>
			<path id="&lt;Path&gt;" class="s1" d="m876.8 115.7v-1.4l7.4-9.4v1.4z"/>
			<path id="&lt;Path&gt;" class="s1" d="m876.8 103.6l4.2-5.3h1.1l-5.3 6.7z"/>
			<path id="&lt;Path&gt;" class="s1" d="m882.8 118.8h-1.2l2.6-3.2v1.4z"/>
			<path id="&lt;Path&gt;" class="s1" d="m884.2 118.8h-1.1l1.1-1.4v1.4z"/>
			<path id="&lt;Path&gt;" class="s1" d="m876.8 105.4l5.6-7.1h1.1l-6.7 8.5z"/>
			<path id="&lt;Path&gt;" class="s1" d="m881.4 118.8h-1.2l4-5v1.4z"/>
			<path id="&lt;Path&gt;" class="s1" d="m876.8 101.8l2.8-3.5h1.1l-3.9 5z"/>
			<path id="&lt;Path&gt;" class="s1" d="m876.8 107.2l7-8.9h0.4v0.9l-7.4 9.4z"/>
			<path id="&lt;Path&gt;" class="s2" d="m876.8 99.7l1.1-1.4h0.3l-1.4 1.8z"/>
			<path id="&lt;Path&gt;" class="s2" d="m876.8 101.5l2.5-3.2h0.3l-2.8 3.5z"/>
			<path id="&lt;Path&gt;" class="s2" d="m876.8 103.3l3.9-5h0.3l-4.2 5.3z"/>
			<path id="&lt;Path&gt;" class="s2" d="m876.8 105l5.3-6.7h0.3l-5.6 7.1z"/>
			<path id="&lt;Path&gt;" class="s2" d="m876.8 106.8l6.7-8.5h0.3l-7 8.9z"/>
			<path id="&lt;Path&gt;" class="s2" d="m876.8 109v-0.4l7.4-9.4v0.3z"/>
			<path id="&lt;Path&gt;" class="s2" d="m876.8 110.8v-0.4l7.4-9.5v0.4z"/>
			<path id="&lt;Path&gt;" class="s2" d="m876.8 112.5v-0.3l7.4-9.5v0.4z"/>
			<path id="&lt;Path&gt;" class="s2" d="m876.8 114.3v-0.3l7.4-9.5v0.4z"/>
			<path id="&lt;Path&gt;" class="s2" d="m876.8 116.1v-0.4l7.4-9.4v0.4z"/>
			<path id="&lt;Path&gt;" class="s2" d="m876.8 117.9v-0.4l7.4-9.4v0.3z"/>
			<path id="&lt;Path&gt;" class="s2" d="m877.4 118.8h-0.3l7.1-8.9v0.3z"/>
			<path id="&lt;Path&gt;" class="s2" d="m878.8 118.8h-0.3l5.7-7.1v0.3z"/>
			<path id="&lt;Path&gt;" class="s2" d="m880.2 118.8h-0.3l4.3-5.4v0.4z"/>
			<path id="&lt;Path&gt;" class="s2" d="m881.6 118.8h-0.2l2.8-3.6v0.4z"/>
			<path id="&lt;Path&gt;" class="s2" d="m883.1 118.8h-0.3l1.4-1.8v0.4z"/>
			<path id="&lt;Path&gt;" class="s2" d="m884.2 118.8z"/>
			<path id="&lt;Path&gt;" class="s0" d="m854.7 89.6v31.7h31.1v1.8h-32c-0.2 0-0.5-0.1-0.6-0.2-0.2-0.2-0.3-0.4-0.3-0.7v-32.6z"/>
		</g>
	</g>
</svg>