<svg width="46" height="45" viewBox="0 0 46 45" fill="none" xmlns="http://www.w3.org/2000/svg">
	<g clip-path="url(#clip0_7_2540)">
		<path d="M23.3999 17.6L24.6999 18.9C24.8999 19.1 24.8999 19.3 24.6999 19.5L12.3999 32.6C12.3332 32.6667 12.2332 32.7 12.0999 32.7C12.0332 32.7 11.9332 32.6667 11.7999 32.6L9.79985 30.5C9.66652 30.4334 9.59985 30.3334 9.59985 30.2C9.59985 30.1334 9.66652 30.0334 9.79985 29.9L22.8999 17.6C22.9999 17.5 23.2999 17.5 23.3999 17.6Z" fill="#343957"/>
		<path d="M35.5998 32.6V34.1H37.0998V35.5H39.2998V37H17.9998V35.5H20.2998V34.1H21.7998V32.6C21.7998 32.4667 21.8331 32.3667 21.8998 32.3C21.9664 32.2333 22.0664 32.2 22.1998 32.2H35.1998C35.2664 32.2 35.3664 32.2333 35.4998 32.3C35.5664 32.3667 35.5998 32.4667 35.5998 32.6Z" fill="#343957"/>
		<path d="M26.0999 8.49999C26.1666 8.43332 26.1999 8.36665 26.1999 8.29999L33.7999 15.9C33.7332 15.9 33.6666 15.9333 33.5999 16L28.4999 21.2L20.8999 13.6L26.0999 8.49999Z" fill="#343957"/>
		<path d="M35.9 16C36.5 16.6 36.5 17.6 35.9 18.2L30.6 23.5C30 24.1 29 24.1 28.4 23.5C27.8 22.9 27.8 21.9 28.4 21.2H28.5L33.5999 16C33.6666 15.9333 33.7333 15.9 33.8 15.9C34.4 15.4 35.3 15.4 35.9 16Z" fill="#9C77A4"/>
		<path d="M26.0999 6.2C26.6999 6.8 26.6999 7.7 26.1999 8.3C26.1999 8.36667 26.1666 8.43333 26.0999 8.5L20.8999 13.6V13.7C20.1999 14.3 19.1999 14.3 18.5999 13.7C17.9999 13.1 17.9999 12.1 18.5999 11.5L23.8999 6.2C24.4999 5.6 25.4999 5.6 26.0999 6.2Z" fill="#9C77A4"/>
	</g>
	<defs>
		<clipPath id="clip0_7_2540">
			<rect width="46" height="45" fill="white"/>
		</clipPath>
	</defs>
</svg>
